<svg width="469" height="472" viewBox="0 0 469 472" fill="none" xmlns="http://www.w3.org/2000/svg">
<path d="M14.9526 398.412C14.9526 390.128 21.6684 383.412 29.9526 383.412H450.849C459.133 383.412 465.849 390.128 465.849 398.412V471.926H14.9526V398.412Z" fill="url(#paint0_radial)"/>
<g opacity="0.58">
<path d="M127.099 52.2906C127.099 52.2906 233.019 37.7314 300.515 44.574C367.243 51.3387 467.185 86.1955 467.185 86.1955C467.185 86.1955 416.001 177.103 391.692 246.092C358.989 338.904 352.212 429.503 352.212 429.503L55.9626 355.522L127.099 52.2906Z" fill="#D7E9F9"/>
<path d="M127.099 52.2906C127.099 52.2906 233.019 37.7314 300.515 44.574C367.243 51.3387 467.185 86.1955 467.185 86.1955C467.185 86.1955 416.001 177.103 391.692 246.092C358.989 338.904 352.212 429.503 352.212 429.503L55.9626 355.522L127.099 52.2906Z" fill="url(#paint1_linear)"/>
</g>
<path d="M79.7101 65.2295C79.7101 65.2295 190.47 33.1605 263.467 30.1168C335.633 27.1078 447.425 49.2764 447.425 49.2764C447.425 49.2764 406.475 155.262 390.895 233.448C369.936 338.633 376.29 437.425 376.29 437.425L49.3106 403.369L79.7101 65.2295Z" fill="#D7E9F9"/>
<path d="M79.7101 65.2295C79.7101 65.2295 190.47 33.1605 263.467 30.1168C335.633 27.1078 447.425 49.2764 447.425 49.2764C447.425 49.2764 406.475 155.262 390.895 233.448C369.936 338.633 376.29 437.425 376.29 437.425L49.3106 403.369L79.7101 65.2295Z" fill="url(#paint2_linear)"/>
<path d="M42.0807 83.1997C42.0807 83.1997 148.923 39.8293 221.211 29.2403C292.677 18.7716 406.165 29.2403 406.165 29.2403C406.165 29.2403 376.414 138.898 369.018 218.277C359.067 325.067 375.622 422.669 375.622 422.669H46.8732L42.0807 83.1997Z" fill="#D7E9F9"/>
<path d="M42.0807 83.1997C42.0807 83.1997 148.923 39.8293 221.211 29.2403C292.677 18.7716 406.165 29.2403 406.165 29.2403C406.165 29.2403 376.414 138.898 369.018 218.277C359.067 325.067 375.622 422.669 375.622 422.669H46.8732L42.0807 83.1997Z" fill="url(#paint3_linear)"/>
<rect x="35.519" y="19.5454" width="336.251" height="407.601" fill="#5C9DFF"/>
<rect x="35.519" y="19.5454" width="336.251" height="407.601" fill="url(#paint4_linear)"/>
<rect x="35.519" y="19.5454" width="336.251" height="407.601" fill="url(#paint5_linear)"/>
<rect x="56.0906" y="50.349" width="295.108" height="55.0844" fill="url(#paint6_linear)" fill-opacity="0.42" stroke="#BCC2D7" stroke-width="0.5"/>
<rect x="56.0906" y="213.789" width="295.108" height="56.9777" fill="url(#paint7_linear)" fill-opacity="0.42" stroke="#BCC2D7" stroke-width="0.5"/>
<rect x="56.0906" y="111.641" width="58.1079" height="19.329" fill="url(#paint8_linear)" fill-opacity="0.42" stroke="#BCC2D7" stroke-width="0.5"/>
<rect x="56.0906" y="162.715" width="58.1079" height="19.329" fill="url(#paint9_linear)" fill-opacity="0.42" stroke="#BCC2D7" stroke-width="0.5"/>
<rect x="56.0906" y="137.178" width="58.1079" height="19.329" fill="url(#paint10_linear)" fill-opacity="0.42" stroke="#BCC2D7" stroke-width="0.5"/>
<rect x="118.983" y="111.641" width="84.008" height="19.329" fill="url(#paint11_linear)" fill-opacity="0.42" stroke="#BCC2D7" stroke-width="0.5"/>
<rect x="118.983" y="162.715" width="84.008" height="19.329" fill="url(#paint12_linear)" fill-opacity="0.42" stroke="#BCC2D7" stroke-width="0.5"/>
<rect x="118.983" y="137.178" width="39.1194" height="19.329" fill="url(#paint13_linear)" fill-opacity="0.42" stroke="#BCC2D7" stroke-width="0.5"/>
<rect x="162.493" y="137.178" width="40.4984" height="19.329" fill="url(#paint14_linear)" fill-opacity="0.42" stroke="#BCC2D7" stroke-width="0.5"/>
<rect x="56.0906" y="188.252" width="58.1079" height="19.329" fill="url(#paint15_linear)" fill-opacity="0.42" stroke="#BCC2D7" stroke-width="0.5"/>
<rect x="118.983" y="188.252" width="39.1194" height="19.329" fill="url(#paint16_linear)" fill-opacity="0.42" stroke="#BCC2D7" stroke-width="0.5"/>
<rect x="162.493" y="188.252" width="40.4984" height="19.329" fill="url(#paint17_linear)" fill-opacity="0.42" stroke="#BCC2D7" stroke-width="0.5"/>
<rect x="207.776" y="111.641" width="143.422" height="19.329" fill="url(#paint18_linear)" fill-opacity="0.42" stroke="#BCC2D7" stroke-width="0.5"/>
<rect x="207.776" y="137.178" width="143.422" height="19.329" fill="url(#paint19_linear)" fill-opacity="0.42" stroke="#BCC2D7" stroke-width="0.5"/>
<rect x="207.776" y="162.715" width="143.422" height="19.329" fill="url(#paint20_linear)" fill-opacity="0.42" stroke="#BCC2D7" stroke-width="0.5"/>
<rect x="207.776" y="188.252" width="143.422" height="19.329" fill="url(#paint21_linear)" fill-opacity="0.42" stroke="#BCC2D7" stroke-width="0.5"/>
<rect x="234.457" y="73.7285" width="103.456" height="8.32546" fill="#D5DAEB"/>
<circle cx="81.5902" cy="78.9656" r="9.07435" fill="#E6B1C3"/>
<path d="M108.693 78.4984C110.981 79.0388 112.125 80.342 112.125 82.4081C112.125 84.1722 111.498 85.4277 110.242 86.1747C109.002 86.9217 107.286 87.2952 105.093 87.2952H99.6574V70.7029H104.521C109.177 70.7029 111.506 72.1333 111.506 74.994C111.506 75.9476 111.235 76.7184 110.695 77.3064C110.171 77.8786 109.503 78.2759 108.693 78.4984ZM104.473 73.9928V77.1396H104.997C105.617 77.1396 106.046 77.0045 106.285 76.7343C106.539 76.4641 106.666 76.043 106.666 75.4708C106.666 74.4855 106.094 73.9928 104.95 73.9928H104.473ZM105.14 83.8861C105.824 83.8861 106.34 83.751 106.69 83.4809C107.04 83.1948 107.215 82.718 107.215 82.0505C107.215 81.4307 107.056 80.9698 106.738 80.6678C106.436 80.3499 105.951 80.191 105.284 80.191H104.473V83.8861H105.14ZM121.909 70.2261C124.214 70.2261 125.97 70.9731 127.178 72.467C128.386 73.9451 128.99 76.1145 128.99 78.9752C128.99 81.7883 128.378 83.9576 127.154 85.4834C125.946 87.0091 124.198 87.772 121.909 87.772C119.605 87.772 117.841 87.025 116.617 85.531C115.409 84.0212 114.805 81.8359 114.805 78.9752C114.805 76.1622 115.409 74.0007 116.617 72.4909C117.841 70.9811 119.605 70.2261 121.909 70.2261ZM121.909 73.6352C121.385 73.6352 120.972 73.81 120.67 74.1596C120.368 74.4934 120.145 75.0497 120.002 75.8284C119.875 76.5913 119.811 77.6402 119.811 78.9752C119.811 80.342 119.875 81.4148 120.002 82.1935C120.145 82.9564 120.368 83.5126 120.67 83.8623C120.972 84.196 121.385 84.3629 121.909 84.3629C122.45 84.3629 122.871 84.196 123.173 83.8623C123.475 83.5126 123.689 82.9564 123.816 82.1935C123.944 81.4148 124.007 80.342 124.007 78.9752C124.007 77.6561 123.936 76.6072 123.793 75.8284C123.665 75.0497 123.443 74.4934 123.125 74.1596C122.823 73.81 122.418 73.6352 121.909 73.6352ZM137.091 70.7029V83.6001H142.669L142.169 87.2952H132.276V70.7029H137.091ZM155.724 70.7029L155.247 74.0404H150.432V77.2588H154.675V80.5009H150.432V83.91H155.581V87.2952H145.616V70.7029H155.724ZM170.188 70.7029L169.711 74.2788H166.445V87.2952H161.63V74.2788H158.102V70.7029H170.188ZM178.764 70.2261C181.069 70.2261 182.825 70.9731 184.033 72.467C185.241 73.9451 185.845 76.1145 185.845 78.9752C185.845 81.7883 185.233 83.9576 184.009 85.4834C182.801 87.0091 181.053 87.772 178.764 87.772C176.46 87.772 174.696 87.025 173.472 85.531C172.264 84.0212 171.66 81.8359 171.66 78.9752C171.66 76.1622 172.264 74.0007 173.472 72.4909C174.696 70.9811 176.46 70.2261 178.764 70.2261ZM178.764 73.6352C178.24 73.6352 177.827 73.81 177.525 74.1596C177.223 74.4934 177 75.0497 176.857 75.8284C176.73 76.5913 176.667 77.6402 176.667 78.9752C176.667 80.342 176.73 81.4148 176.857 82.1935C177 82.9564 177.223 83.5126 177.525 83.8623C177.827 84.196 178.24 84.3629 178.764 84.3629C179.305 84.3629 179.726 84.196 180.028 83.8623C180.33 83.5126 180.544 82.9564 180.672 82.1935C180.799 81.4148 180.862 80.342 180.862 78.9752C180.862 77.6561 180.791 76.6072 180.648 75.8284C180.521 75.0497 180.298 74.4934 179.98 74.1596C179.678 73.81 179.273 73.6352 178.764 73.6352Z" fill="#D5DAEB"/>
<g clip-path="url(#clip0)">
<path d="M56.1226 304.488V279.738H57.5288V304.488H56.1226ZM58.2208 304.47V279.738H58.9351V304.47H58.2208ZM60.3413 304.47V279.738H61.0333V304.47H60.3413ZM63.8458 304.47V279.738H64.5377V304.47H63.8458ZM66.6583 304.47V279.738H68.0422V304.47H66.6583ZM70.1627 304.47V279.738H70.8547V304.47H70.1627ZM71.569 304.47V279.738H72.2609V304.47H71.569ZM72.9752 304.47V279.738H73.6672V304.47H72.9752ZM75.7654 304.47V279.738H77.1717V304.47H75.7654ZM79.2699 304.47V279.738H80.6762V304.47H79.2699ZM82.0823 304.47V279.738H83.4887V304.47H82.0823ZM84.8949 304.47V279.738H86.3012V304.47H84.8949ZM86.9931 304.47V279.738H88.3994V304.47H86.9931ZM90.5199 304.47V279.738H92.6181V304.47H90.5199ZM93.3101 304.47V279.738H94.0244V304.47H93.3101ZM94.7163 304.488V279.738H96.1226V304.488H94.7163Z" fill="#939EC4" fill-opacity="0.53"/>
</g>
<g clip-path="url(#clip1)">
<path d="M98.1226 304.488V279.738H99.5288V304.488H98.1226ZM100.221 304.47V279.738H100.935V304.47H100.221ZM102.341 304.47V279.738H103.033V304.47H102.341ZM105.846 304.47V279.738H106.538V304.47H105.846ZM108.658 304.47V279.738H110.042V304.47H108.658ZM112.163 304.47V279.738H112.855V304.47H112.163ZM113.569 304.47V279.738H114.261V304.47H113.569ZM114.975 304.47V279.738H115.667V304.47H114.975ZM117.765 304.47V279.738H119.172V304.47H117.765ZM121.27 304.47V279.738H122.676V304.47H121.27ZM124.082 304.47V279.738H125.489V304.47H124.082ZM126.895 304.47V279.738H128.301V304.47H126.895ZM128.993 304.47V279.738H130.399V304.47H128.993ZM132.52 304.47V279.738H134.618V304.47H132.52ZM135.31 304.47V279.738H136.024V304.47H135.31ZM136.716 304.488V279.738H138.123V304.488H136.716Z" fill="#939EC4" fill-opacity="0.53"/>
</g>
<g clip-path="url(#clip2)">
<path d="M141.123 304.488V279.738H142.529V304.488H141.123ZM143.221 304.47V279.738H143.935V304.47H143.221ZM145.341 304.47V279.738H146.033V304.47H145.341ZM148.846 304.47V279.738H149.538V304.47H148.846ZM151.658 304.47V279.738H153.042V304.47H151.658ZM155.163 304.47V279.738H155.855V304.47H155.163ZM156.569 304.47V279.738H157.261V304.47H156.569ZM157.975 304.47V279.738H158.667V304.47H157.975ZM160.765 304.47V279.738H162.172V304.47H160.765ZM164.27 304.47V279.738H165.676V304.47H164.27ZM167.082 304.47V279.738H168.489V304.47H167.082ZM169.895 304.47V279.738H171.301V304.47H169.895ZM171.993 304.47V279.738H173.399V304.47H171.993ZM175.52 304.47V279.738H177.618V304.47H175.52ZM178.31 304.47V279.738H179.024V304.47H178.31ZM179.716 304.488V279.738H181.123V304.488H179.716Z" fill="#939EC4" fill-opacity="0.53"/>
</g>
<g clip-path="url(#clip3)">
<path d="M184.123 304.488V279.738H185.529V304.488H184.123ZM186.221 304.47V279.738H186.935V304.47H186.221ZM188.341 304.47V279.738H189.033V304.47H188.341ZM191.846 304.47V279.738H192.538V304.47H191.846ZM194.658 304.47V279.738H196.042V304.47H194.658ZM198.163 304.47V279.738H198.855V304.47H198.163ZM199.569 304.47V279.738H200.261V304.47H199.569ZM200.975 304.47V279.738H201.667V304.47H200.975ZM203.765 304.47V279.738H205.172V304.47H203.765ZM207.27 304.47V279.738H208.676V304.47H207.27ZM210.082 304.47V279.738H211.489V304.47H210.082ZM212.895 304.47V279.738H214.301V304.47H212.895ZM214.993 304.47V279.738H216.399V304.47H214.993ZM218.52 304.47V279.738H220.618V304.47H218.52ZM221.31 304.47V279.738H222.024V304.47H221.31ZM222.716 304.488V279.738H224.123V304.488H222.716Z" fill="#939EC4" fill-opacity="0.53"/>
</g>
<path d="M0.650391 434.155C0.650391 425.87 7.36612 419.155 15.6504 419.155H390.832C399.116 419.155 405.832 425.87 405.832 434.155V471.926H0.650391V434.155Z" fill="url(#paint22_radial)"/>
<path d="M465.842 398.038C464.445 447.394 425.219 442.078 405.819 433.251V471.929H465.842V398.038Z" fill="black" fill-opacity="0.19"/>
<defs>
<radialGradient id="paint0_radial" cx="0" cy="0" r="1" gradientUnits="userSpaceOnUse" gradientTransform="translate(240.401 419.972) rotate(106.55) scale(92.9344 473.415)">
<stop stop-color="#9B325A"/>
<stop offset="1" stop-color="#D93C79"/>
</radialGradient>
<linearGradient id="paint1_linear" x1="158.897" y1="255.9" x2="557.828" y2="81.5434" gradientUnits="userSpaceOnUse">
<stop offset="0.146147" stop-color="#0044F1"/>
<stop offset="1" stop-color="white" stop-opacity="0"/>
</linearGradient>
<linearGradient id="paint2_linear" x1="144.137" y1="279.989" x2="546.309" y2="35.0638" gradientUnits="userSpaceOnUse">
<stop offset="0.146147" stop-color="#0044F1"/>
<stop offset="1" stop-color="white" stop-opacity="0"/>
</linearGradient>
<linearGradient id="paint3_linear" x1="128.408" y1="290.129" x2="503.044" y2="4.86058" gradientUnits="userSpaceOnUse">
<stop offset="0.146147" stop-color="#0044F1"/>
<stop offset="1" stop-color="white" stop-opacity="0"/>
</linearGradient>
<linearGradient id="paint4_linear" x1="-33.3537" y1="286.55" x2="602.24" y2="32.2776" gradientUnits="userSpaceOnUse">
<stop stop-color="white"/>
<stop offset="0.892367" stop-color="white" stop-opacity="0"/>
</linearGradient>
<linearGradient id="paint5_linear" x1="203.644" y1="19.5454" x2="203.644" y2="427.147" gradientUnits="userSpaceOnUse">
<stop stop-color="white"/>
<stop offset="1" stop-color="white" stop-opacity="0"/>
</linearGradient>
<linearGradient id="paint6_linear" x1="203.644" y1="50.099" x2="203.644" y2="105.683" gradientUnits="userSpaceOnUse">
<stop stop-color="white"/>
<stop offset="1" stop-color="white" stop-opacity="0"/>
</linearGradient>
<linearGradient id="paint7_linear" x1="203.644" y1="213.539" x2="203.644" y2="271.017" gradientUnits="userSpaceOnUse">
<stop stop-color="white"/>
<stop offset="1" stop-color="white" stop-opacity="0"/>
</linearGradient>
<linearGradient id="paint8_linear" x1="85.1445" y1="111.391" x2="85.1445" y2="131.22" gradientUnits="userSpaceOnUse">
<stop stop-color="white"/>
<stop offset="1" stop-color="white" stop-opacity="0"/>
</linearGradient>
<linearGradient id="paint9_linear" x1="85.1445" y1="162.465" x2="85.1445" y2="182.294" gradientUnits="userSpaceOnUse">
<stop stop-color="white"/>
<stop offset="1" stop-color="white" stop-opacity="0"/>
</linearGradient>
<linearGradient id="paint10_linear" x1="85.1445" y1="136.928" x2="85.1445" y2="156.757" gradientUnits="userSpaceOnUse">
<stop stop-color="white"/>
<stop offset="1" stop-color="white" stop-opacity="0"/>
</linearGradient>
<linearGradient id="paint11_linear" x1="160.987" y1="111.391" x2="160.987" y2="131.22" gradientUnits="userSpaceOnUse">
<stop stop-color="white"/>
<stop offset="1" stop-color="white" stop-opacity="0"/>
</linearGradient>
<linearGradient id="paint12_linear" x1="160.987" y1="162.465" x2="160.987" y2="182.294" gradientUnits="userSpaceOnUse">
<stop stop-color="white"/>
<stop offset="1" stop-color="white" stop-opacity="0"/>
</linearGradient>
<linearGradient id="paint13_linear" x1="138.543" y1="136.928" x2="138.543" y2="156.757" gradientUnits="userSpaceOnUse">
<stop stop-color="white"/>
<stop offset="1" stop-color="white" stop-opacity="0"/>
</linearGradient>
<linearGradient id="paint14_linear" x1="182.742" y1="136.928" x2="182.742" y2="156.757" gradientUnits="userSpaceOnUse">
<stop stop-color="white"/>
<stop offset="1" stop-color="white" stop-opacity="0"/>
</linearGradient>
<linearGradient id="paint15_linear" x1="85.1445" y1="188.002" x2="85.1445" y2="207.831" gradientUnits="userSpaceOnUse">
<stop stop-color="white"/>
<stop offset="1" stop-color="white" stop-opacity="0"/>
</linearGradient>
<linearGradient id="paint16_linear" x1="138.543" y1="188.002" x2="138.543" y2="207.831" gradientUnits="userSpaceOnUse">
<stop stop-color="white"/>
<stop offset="1" stop-color="white" stop-opacity="0"/>
</linearGradient>
<linearGradient id="paint17_linear" x1="182.742" y1="188.002" x2="182.742" y2="207.831" gradientUnits="userSpaceOnUse">
<stop stop-color="white"/>
<stop offset="1" stop-color="white" stop-opacity="0"/>
</linearGradient>
<linearGradient id="paint18_linear" x1="279.487" y1="111.391" x2="279.487" y2="131.22" gradientUnits="userSpaceOnUse">
<stop stop-color="white"/>
<stop offset="1" stop-color="white" stop-opacity="0"/>
</linearGradient>
<linearGradient id="paint19_linear" x1="279.487" y1="136.928" x2="279.487" y2="156.757" gradientUnits="userSpaceOnUse">
<stop stop-color="white"/>
<stop offset="1" stop-color="white" stop-opacity="0"/>
</linearGradient>
<linearGradient id="paint20_linear" x1="279.487" y1="162.465" x2="279.487" y2="182.294" gradientUnits="userSpaceOnUse">
<stop stop-color="white"/>
<stop offset="1" stop-color="white" stop-opacity="0"/>
</linearGradient>
<linearGradient id="paint21_linear" x1="279.487" y1="188.002" x2="279.487" y2="207.831" gradientUnits="userSpaceOnUse">
<stop stop-color="white"/>
<stop offset="1" stop-color="white" stop-opacity="0"/>
</linearGradient>
<radialGradient id="paint22_radial" cx="0" cy="0" r="1" gradientUnits="userSpaceOnUse" gradientTransform="translate(203.241 430.303) rotate(90) scale(67.5078 518.324)">
<stop stop-color="#C8316C"/>
<stop offset="1" stop-color="#E9639C"/>
</radialGradient>
<clipPath id="clip0">
<rect width="40" height="33" fill="white" transform="translate(56.1226 275.613)"/>
</clipPath>
<clipPath id="clip1">
<rect width="40" height="33" fill="white" transform="translate(98.1226 275.613)"/>
</clipPath>
<clipPath id="clip2">
<rect width="40" height="33" fill="white" transform="translate(141.123 275.613)"/>
</clipPath>
<clipPath id="clip3">
<rect width="40" height="33" fill="white" transform="translate(184.123 275.613)"/>
</clipPath>
</defs>
</svg>
