<svg width="469" height="472" fill="none" xmlns="http://www.w3.org/2000/svg"><path d="M14.953 398.412c0-8.284 6.715-15 15-15h420.896c8.284 0 15 6.716 15 15v73.514H14.953v-73.514z" fill="url(#paint0_radial)"/><g opacity=".58"><path d="M127.099 52.29s105.92-14.559 173.416-7.716c66.728 6.765 166.67 41.621 166.67 41.621s-51.184 90.908-75.493 159.897c-32.703 92.812-39.48 183.411-39.48 183.411l-296.25-73.981L127.1 52.291z" fill="#D7E9F9"/><path d="M127.099 52.29s105.92-14.559 173.416-7.716c66.728 6.765 166.67 41.621 166.67 41.621s-51.184 90.908-75.493 159.897c-32.703 92.812-39.48 183.411-39.48 183.411l-296.25-73.981L127.1 52.291z" fill="url(#paint1_linear)"/></g><path d="M79.71 65.23s110.76-32.07 183.757-35.113c72.166-3.01 183.958 19.16 183.958 19.16s-40.95 105.985-56.53 184.171c-20.959 105.185-14.605 203.977-14.605 203.977L49.31 403.369l30.4-338.14z" fill="#D7E9F9"/><path d="M79.71 65.23s110.76-32.07 183.757-35.113c72.166-3.01 183.958 19.16 183.958 19.16s-40.95 105.985-56.53 184.171c-20.959 105.185-14.605 203.977-14.605 203.977L49.31 403.369l30.4-338.14z" fill="url(#paint2_linear)"/><path d="M42.08 83.2s106.843-43.37 179.131-53.96c71.466-10.468 184.954 0 184.954 0s-29.751 109.658-37.147 189.037c-9.951 106.79 6.604 204.392 6.604 204.392H46.873l-4.792-339.47z" fill="#D7E9F9"/><path d="M42.08 83.2s106.843-43.37 179.131-53.96c71.466-10.468 184.954 0 184.954 0s-29.751 109.658-37.147 189.037c-9.951 106.79 6.604 204.392 6.604 204.392H46.873l-4.792-339.47z" fill="url(#paint3_linear)"/><path fill="#5C9DFF" d="M35.519 19.545H371.77v407.601H35.519z"/><path fill="url(#paint4_linear)" d="M35.519 19.545H371.77v407.601H35.519z"/><path fill="url(#paint5_linear)" d="M35.519 19.545H371.77v407.601H35.519z"/><path fill="url(#paint6_linear)" fill-opacity=".42" stroke="#BCC2D7" stroke-width=".5" d="M56.091 50.349h295.108v55.084H56.091z"/><path fill="url(#paint7_linear)" fill-opacity=".42" stroke="#BCC2D7" stroke-width=".5" d="M56.091 213.789h295.108v56.978H56.091z"/><path fill="url(#paint8_linear)" fill-opacity=".42" stroke="#BCC2D7" stroke-width=".5" d="M56.091 111.641h58.108v19.329H56.091z"/><path fill="url(#paint9_linear)" fill-opacity=".42" stroke="#BCC2D7" stroke-width=".5" d="M56.091 162.715h58.108v19.329H56.091z"/><path fill="url(#paint10_linear)" fill-opacity=".42" stroke="#BCC2D7" stroke-width=".5" d="M56.091 137.178h58.108v19.329H56.091z"/><path fill="url(#paint11_linear)" fill-opacity=".42" stroke="#BCC2D7" stroke-width=".5" d="M118.983 111.641h84.008v19.329h-84.008z"/><path fill="url(#paint12_linear)" fill-opacity=".42" stroke="#BCC2D7" stroke-width=".5" d="M118.983 162.715h84.008v19.329h-84.008z"/><path fill="url(#paint13_linear)" fill-opacity=".42" stroke="#BCC2D7" stroke-width=".5" d="M118.983 137.178h39.119v19.329h-39.119z"/><path fill="url(#paint14_linear)" fill-opacity=".42" stroke="#BCC2D7" stroke-width=".5" d="M162.493 137.178h40.498v19.329h-40.498z"/><path fill="url(#paint15_linear)" fill-opacity=".42" stroke="#BCC2D7" stroke-width=".5" d="M56.091 188.252h58.108v19.329H56.091z"/><path fill="url(#paint16_linear)" fill-opacity=".42" stroke="#BCC2D7" stroke-width=".5" d="M118.983 188.252h39.119v19.329h-39.119z"/><path fill="url(#paint17_linear)" fill-opacity=".42" stroke="#BCC2D7" stroke-width=".5" d="M162.493 188.252h40.498v19.329h-40.498z"/><path fill="url(#paint18_linear)" fill-opacity=".42" stroke="#BCC2D7" stroke-width=".5" d="M207.776 111.641h143.422v19.329H207.776z"/><path fill="url(#paint19_linear)" fill-opacity=".42" stroke="#BCC2D7" stroke-width=".5" d="M207.776 137.178h143.422v19.329H207.776z"/><path fill="url(#paint20_linear)" fill-opacity=".42" stroke="#BCC2D7" stroke-width=".5" d="M207.776 162.715h143.422v19.329H207.776z"/><path fill="url(#paint21_linear)" fill-opacity=".42" stroke="#BCC2D7" stroke-width=".5" d="M207.776 188.252h143.422v19.329H207.776z"/><path fill="#D5DAEB" d="M234.457 73.728h103.456v8.325H234.457z"/><circle cx="81.59" cy="78.966" r="9.074" fill="#E6B1C3"/><path d="M108.693 78.498c2.288.54 3.432 1.844 3.432 3.91 0 1.764-.627 3.02-1.883 3.767-1.24.747-2.956 1.12-5.149 1.12h-5.436V70.703h4.864c4.656 0 6.985 1.43 6.985 4.291 0 .954-.271 1.724-.811 2.312-.524.573-1.192.97-2.002 1.192zm-4.22-4.505v3.147h.524c.62 0 1.049-.136 1.288-.406.254-.27.381-.691.381-1.263 0-.986-.572-1.478-1.716-1.478h-.477zm.667 9.893c.684 0 1.2-.135 1.55-.405.35-.286.525-.763.525-1.43 0-.62-.159-1.081-.477-1.383-.302-.318-.787-.477-1.454-.477h-.811v3.695h.667zm16.769-13.66c2.305 0 4.061.747 5.269 2.241 1.208 1.478 1.812 3.648 1.812 6.508 0 2.813-.612 4.983-1.836 6.508-1.208 1.526-2.956 2.289-5.245 2.289-2.304 0-4.068-.747-5.292-2.241-1.208-1.51-1.812-3.695-1.812-6.556 0-2.813.604-4.974 1.812-6.484 1.224-1.51 2.988-2.265 5.292-2.265zm0 3.41c-.524 0-.937.174-1.239.524-.302.333-.525.89-.668 1.668-.127.763-.191 1.812-.191 3.147 0 1.367.064 2.44.191 3.219.143.762.366 1.319.668 1.668.302.334.715.5 1.239.5.541 0 .962-.166 1.264-.5.302-.35.516-.906.643-1.668.128-.78.191-1.852.191-3.219 0-1.319-.071-2.368-.214-3.147-.128-.778-.35-1.335-.668-1.668-.302-.35-.707-.525-1.216-.525zm15.182-2.933V83.6h5.578l-.5 3.695h-9.893V70.703h4.815zm18.633 0l-.477 3.337h-4.815v3.219h4.243V80.5h-4.243v3.409h5.149v3.385h-9.965V70.703h10.108zm14.464 0l-.477 3.576h-3.266v13.016h-4.815V74.28h-3.528v-3.576h12.086zm8.576-.477c2.305 0 4.061.747 5.269 2.241 1.208 1.478 1.812 3.648 1.812 6.508 0 2.813-.612 4.983-1.836 6.508-1.208 1.526-2.956 2.289-5.245 2.289-2.304 0-4.068-.747-5.292-2.241-1.208-1.51-1.812-3.695-1.812-6.556 0-2.813.604-4.974 1.812-6.484 1.224-1.51 2.988-2.265 5.292-2.265zm0 3.41c-.524 0-.937.174-1.239.524-.302.333-.525.89-.668 1.668-.127.763-.19 1.812-.19 3.147 0 1.367.063 2.44.19 3.219.143.762.366 1.319.668 1.668.302.334.715.5 1.239.5.541 0 .962-.166 1.264-.5.302-.35.516-.906.644-1.668.127-.78.19-1.852.19-3.219 0-1.319-.071-2.368-.214-3.147-.127-.778-.35-1.335-.668-1.668-.302-.35-.707-.525-1.216-.525z" fill="#D5DAEB"/><g clip-path="url(#clip0)"><path d="M56.123 304.488v-24.75h1.406v24.75h-1.406zm2.098-.018v-24.732h.714v24.732h-.714zm2.12 0v-24.732h.692v24.732h-.692zm3.505 0v-24.732h.692v24.732h-.692zm2.812 0v-24.732h1.384v24.732h-1.384zm3.505 0v-24.732h.692v24.732h-.692zm1.406 0v-24.732h.692v24.732h-.692zm1.406 0v-24.732h.692v24.732h-.692zm2.79 0v-24.732h1.407v24.732h-1.407zm3.505 0v-24.732h1.406v24.732H79.27zm2.812 0v-24.732h1.407v24.732h-1.407zm2.813 0v-24.732H86.3v24.732h-1.406zm2.098 0v-24.732H88.4v24.732h-1.406zm3.527 0v-24.732h2.098v24.732H90.52zm2.79 0v-24.732h.714v24.732h-.714zm1.406.018v-24.75h1.407v24.75h-1.407z" fill="#939EC4" fill-opacity=".53"/></g><g clip-path="url(#clip1)"><path d="M98.123 304.488v-24.75h1.406v24.75h-1.406zm2.098-.018v-24.732h.714v24.732h-.714zm2.12 0v-24.732h.692v24.732h-.692zm3.505 0v-24.732h.692v24.732h-.692zm2.812 0v-24.732h1.384v24.732h-1.384zm3.505 0v-24.732h.692v24.732h-.692zm1.406 0v-24.732h.692v24.732h-.692zm1.406 0v-24.732h.692v24.732h-.692zm2.79 0v-24.732h1.407v24.732h-1.407zm3.505 0v-24.732h1.406v24.732h-1.406zm2.812 0v-24.732h1.407v24.732h-1.407zm2.813 0v-24.732h1.406v24.732h-1.406zm2.098 0v-24.732h1.406v24.732h-1.406zm3.527 0v-24.732h2.098v24.732h-2.098zm2.79 0v-24.732h.714v24.732h-.714zm1.406.018v-24.75h1.407v24.75h-1.407z" fill="#939EC4" fill-opacity=".53"/></g><g clip-path="url(#clip2)"><path d="M141.123 304.488v-24.75h1.406v24.75h-1.406zm2.098-.018v-24.732h.714v24.732h-.714zm2.12 0v-24.732h.692v24.732h-.692zm3.505 0v-24.732h.692v24.732h-.692zm2.812 0v-24.732h1.384v24.732h-1.384zm3.505 0v-24.732h.692v24.732h-.692zm1.406 0v-24.732h.692v24.732h-.692zm1.406 0v-24.732h.692v24.732h-.692zm2.79 0v-24.732h1.407v24.732h-1.407zm3.505 0v-24.732h1.406v24.732h-1.406zm2.812 0v-24.732h1.407v24.732h-1.407zm2.813 0v-24.732h1.406v24.732h-1.406zm2.098 0v-24.732h1.406v24.732h-1.406zm3.527 0v-24.732h2.098v24.732h-2.098zm2.79 0v-24.732h.714v24.732h-.714zm1.406.018v-24.75h1.407v24.75h-1.407z" fill="#939EC4" fill-opacity=".53"/></g><g clip-path="url(#clip3)"><path d="M184.123 304.488v-24.75h1.406v24.75h-1.406zm2.098-.018v-24.732h.714v24.732h-.714zm2.12 0v-24.732h.692v24.732h-.692zm3.505 0v-24.732h.692v24.732h-.692zm2.812 0v-24.732h1.384v24.732h-1.384zm3.505 0v-24.732h.692v24.732h-.692zm1.406 0v-24.732h.692v24.732h-.692zm1.406 0v-24.732h.692v24.732h-.692zm2.79 0v-24.732h1.407v24.732h-1.407zm3.505 0v-24.732h1.406v24.732h-1.406zm2.812 0v-24.732h1.407v24.732h-1.407zm2.813 0v-24.732h1.406v24.732h-1.406zm2.098 0v-24.732h1.406v24.732h-1.406zm3.527 0v-24.732h2.098v24.732h-2.098zm2.79 0v-24.732h.714v24.732h-.714zm1.406.018v-24.75h1.407v24.75h-1.407z" fill="#939EC4" fill-opacity=".53"/></g><path d="M.65 434.155c0-8.285 6.716-15 15-15h375.182c8.284 0 15 6.715 15 15v37.771H.65v-37.771z" fill="url(#paint22_radial)"/><path d="M465.842 398.038c-1.397 49.356-40.623 44.04-60.023 35.213v38.678h60.023v-73.891z" fill="#000" fill-opacity=".19"/><defs><linearGradient id="paint1_linear" x1="158.897" y1="255.9" x2="557.828" y2="81.543" gradientUnits="userSpaceOnUse"><stop offset=".146" stop-color="#0044F1"/><stop offset="1" stop-color="#fff" stop-opacity="0"/></linearGradient><linearGradient id="paint2_linear" x1="144.137" y1="279.989" x2="546.309" y2="35.064" gradientUnits="userSpaceOnUse"><stop offset=".146" stop-color="#0044F1"/><stop offset="1" stop-color="#fff" stop-opacity="0"/></linearGradient><linearGradient id="paint3_linear" x1="128.408" y1="290.129" x2="503.044" y2="4.861" gradientUnits="userSpaceOnUse"><stop offset=".146" stop-color="#0044F1"/><stop offset="1" stop-color="#fff" stop-opacity="0"/></linearGradient><linearGradient id="paint4_linear" x1="-33.354" y1="286.55" x2="602.24" y2="32.278" gradientUnits="userSpaceOnUse"><stop stop-color="#fff"/><stop offset=".892" stop-color="#fff" stop-opacity="0"/></linearGradient><linearGradient id="paint5_linear" x1="203.644" y1="19.545" x2="203.644" y2="427.147" gradientUnits="userSpaceOnUse"><stop stop-color="#fff"/><stop offset="1" stop-color="#fff" stop-opacity="0"/></linearGradient><linearGradient id="paint6_linear" x1="203.644" y1="50.099" x2="203.644" y2="105.683" gradientUnits="userSpaceOnUse"><stop stop-color="#fff"/><stop offset="1" stop-color="#fff" stop-opacity="0"/></linearGradient><linearGradient id="paint7_linear" x1="203.644" y1="213.539" x2="203.644" y2="271.017" gradientUnits="userSpaceOnUse"><stop stop-color="#fff"/><stop offset="1" stop-color="#fff" stop-opacity="0"/></linearGradient><linearGradient id="paint8_linear" x1="85.144" y1="111.391" x2="85.144" y2="131.22" gradientUnits="userSpaceOnUse"><stop stop-color="#fff"/><stop offset="1" stop-color="#fff" stop-opacity="0"/></linearGradient><linearGradient id="paint9_linear" x1="85.144" y1="162.465" x2="85.144" y2="182.294" gradientUnits="userSpaceOnUse"><stop stop-color="#fff"/><stop offset="1" stop-color="#fff" stop-opacity="0"/></linearGradient><linearGradient id="paint10_linear" x1="85.144" y1="136.928" x2="85.144" y2="156.757" gradientUnits="userSpaceOnUse"><stop stop-color="#fff"/><stop offset="1" stop-color="#fff" stop-opacity="0"/></linearGradient><linearGradient id="paint11_linear" x1="160.987" y1="111.391" x2="160.987" y2="131.22" gradientUnits="userSpaceOnUse"><stop stop-color="#fff"/><stop offset="1" stop-color="#fff" stop-opacity="0"/></linearGradient><linearGradient id="paint12_linear" x1="160.987" y1="162.465" x2="160.987" y2="182.294" gradientUnits="userSpaceOnUse"><stop stop-color="#fff"/><stop offset="1" stop-color="#fff" stop-opacity="0"/></linearGradient><linearGradient id="paint13_linear" x1="138.543" y1="136.928" x2="138.543" y2="156.757" gradientUnits="userSpaceOnUse"><stop stop-color="#fff"/><stop offset="1" stop-color="#fff" stop-opacity="0"/></linearGradient><linearGradient id="paint14_linear" x1="182.742" y1="136.928" x2="182.742" y2="156.757" gradientUnits="userSpaceOnUse"><stop stop-color="#fff"/><stop offset="1" stop-color="#fff" stop-opacity="0"/></linearGradient><linearGradient id="paint15_linear" x1="85.144" y1="188.002" x2="85.144" y2="207.831" gradientUnits="userSpaceOnUse"><stop stop-color="#fff"/><stop offset="1" stop-color="#fff" stop-opacity="0"/></linearGradient><linearGradient id="paint16_linear" x1="138.543" y1="188.002" x2="138.543" y2="207.831" gradientUnits="userSpaceOnUse"><stop stop-color="#fff"/><stop offset="1" stop-color="#fff" stop-opacity="0"/></linearGradient><linearGradient id="paint17_linear" x1="182.742" y1="188.002" x2="182.742" y2="207.831" gradientUnits="userSpaceOnUse"><stop stop-color="#fff"/><stop offset="1" stop-color="#fff" stop-opacity="0"/></linearGradient><linearGradient id="paint18_linear" x1="279.487" y1="111.391" x2="279.487" y2="131.22" gradientUnits="userSpaceOnUse"><stop stop-color="#fff"/><stop offset="1" stop-color="#fff" stop-opacity="0"/></linearGradient><linearGradient id="paint19_linear" x1="279.487" y1="136.928" x2="279.487" y2="156.757" gradientUnits="userSpaceOnUse"><stop stop-color="#fff"/><stop offset="1" stop-color="#fff" stop-opacity="0"/></linearGradient><linearGradient id="paint20_linear" x1="279.487" y1="162.465" x2="279.487" y2="182.294" gradientUnits="userSpaceOnUse"><stop stop-color="#fff"/><stop offset="1" stop-color="#fff" stop-opacity="0"/></linearGradient><linearGradient id="paint21_linear" x1="279.487" y1="188.002" x2="279.487" y2="207.831" gradientUnits="userSpaceOnUse"><stop stop-color="#fff"/><stop offset="1" stop-color="#fff" stop-opacity="0"/></linearGradient><clipPath id="clip0"><path fill="#fff" transform="translate(56.123 275.613)" d="M0 0h40v33H0z"/></clipPath><clipPath id="clip1"><path fill="#fff" transform="translate(98.123 275.613)" d="M0 0h40v33H0z"/></clipPath><clipPath id="clip2"><path fill="#fff" transform="translate(141.123 275.613)" d="M0 0h40v33H0z"/></clipPath><clipPath id="clip3"><path fill="#fff" transform="translate(184.123 275.613)" d="M0 0h40v33H0z"/></clipPath><radialGradient id="paint0_radial" cx="0" cy="0" r="1" gradientUnits="userSpaceOnUse" gradientTransform="matrix(-26.47255 89.08427 -453.80214 -134.8532 240.401 419.972)"><stop stop-color="#9B325A"/><stop offset="1" stop-color="#D93C79"/></radialGradient><radialGradient id="paint22_radial" cx="0" cy="0" r="1" gradientUnits="userSpaceOnUse" gradientTransform="matrix(0 67.5078 -518.324 0 203.241 430.303)"><stop stop-color="#C8316C"/><stop offset="1" stop-color="#E9639C"/></radialGradient></defs></svg>