<svg xmlns="http://www.w3.org/2000/svg" xml:space="preserve" width="73" height="62" version="1.1" viewBox="0 0 618 525" id="handshake" shape-rendering="geometricPrecision" text-rendering="geometricPrecision" image-rendering="optimizeQuality" fill-rule="evenodd" clip-rule="evenodd"><defs><style>#handshake .fil0{fill:#fff}</style></defs><g id="Layer_x0020_1"><g id="_779144632"><path class="fil0" d="M220 464c-6 0-16-10-16-16 0-8 18-20 22-27l20 20c-2 5-8 10-12 14-3 3-9 10-14 10zm390-304v8c-1 8-4 16-10 23s-10 11-16 18l-34 34c-6 6-65 63-68 68 5 7 14 13 20 20 26 30 2 70-30 70 0 17-11 31-26 38-11 5-11-1-14 5 0 1-1 7-2 9-4 15-21 30-38 30-3 38-47 52-71 29l-52-53c-15 10-24 34-50 32-22-2-38-21-43-40-14-1-30-17-35-25-2-5-5-9-5-15-15-3-17-6-26-15-7-7-14-13-14-26-22 0-62-39-29-72 5-5 16-15 19-20l-40-41-20-20c-5-5-17-14-17-23 0-7 3-12 10-14 12-4 24 13 35 24l281 281c3 3 6 8 12 8 8 0 16-3 16-13 0-11-13-20-19-27l-56-56c-3-3-9-7-9-13 0-9 5-15 13-15 9 0 10 4 15 9l56 56c5 5 17 20 25 20 9 0 15-5 15-13 0-10-2-10-10-17l-56-56c-6-6-19-16-19-26 0-6 6-13 13-13 12 0 19 12 28 20l45 45c8 8 24 28 36 14 10-12-4-24-9-28l-60-60c-5-5-12-10-13-18-1-7 6-15 14-15 7 0 12 7 16 11l66 66c16 16 29 5 29-7 0-8-7-12-11-17L317 185l-14-14c-12-12-7-9-17-11l-52-4c-6 28-9 46-37 62-39 21-92-8-92-55 0-17 10-60 19-76 18-31 53-59 96-59 26 0 91 15 122 19l38 6c2-8 7-12 12-17 14-14 33-38 50-38s23 1 35 13l100 100 20 20c7 7 12 16 13 26zM180 422c-8 0-16-9-16-16 0-6 6-10 10-14s8-9 13-12l20 20c-3 5-8 8-12 12s-8 10-14 10zm-41-40c-6 0-16-10-16-16s19-24 22-26c7 2 15 15 21 19-4 5-21 24-27 24zm-40-40c-4 0-16-9-16-16 0-8 18-20 22-27l21 21c-5 4-9 8-13 12-3 3-9 10-14 10zm70-143c-20 0-36-15-36-35 0-7 6-34 7-41 9-39 42-65 86-65 11 0 88 15 99 17 59 11 39-1 78 39 8 8 113 112 117 118l-60 59c-4-6-126-127-131-132l-16-16c-12-12-13-8-39-10l-45-4c-35-5-15 39-38 60-4 4-15 10-23 10zM404 71c0-10 17-24 27-34 7-7 6-9 16-9 9 0 29 24 36 31l33 33 50 50c9 9 14 11 14 23 0 6-5 9-9 13-7 7-29 30-34 33-3-5-63-63-68-69l-52-52c-5-5-15-12-15-20z"/><path class="fil0" d="M531 171c0 18 28 19 28-1 0-18-28-16-28 1z"/></g></g></svg>