<?xml version="1.0" encoding="UTF-8"?>
<!DOCTYPE svg PUBLIC "-//W3C//DTD SVG 1.1//EN" "http://www.w3.org/Graphics/SVG/1.1/DTD/svg11.dtd">
<!-- Creator: CorelDRAW 2017 -->
<svg xmlns="http://www.w3.org/2000/svg" xml:space="preserve" width="63" height="63" version="1.1" style="shape-rendering:geometricPrecision; text-rendering:geometricPrecision; image-rendering:optimizeQuality; fill-rule:evenodd; clip-rule:evenodd"
viewBox="0 0 533 533"
 xmlns:xlink="http://www.w3.org/1999/xlink"
 enable-background="new 0 0 50 50" id="suporte">
 <defs> 
  <style type="text/css">
   <![CDATA[
    #suporte .str0 {stroke:#D74425;stroke-width:16.93}
    #suporte .fil0 {fill:none}
   ]]>
  </style>
 </defs>
 <g id="Layer_x0020_1">
  <metadata id="CorelCorpID_0Corel-Layer"/>
  <rect class="fil0" x="4" y="4" width="525" height="525"/>
  <path class="fil0 str0" d="M466 214c0,-12 -9,-21 -21,-21 -12,0 -21,9 -21,21 0,5 0,152 0,157 0,12 9,21 21,21 12,0 21,-9 21,-21 0,-5 0,-152 0,-157z"/>
  <path class="fil0 str0" d="M298 498c12,0 21,-9 21,-21 0,-12 -9,-21 -21,-21 -5,0 -48,0 -52,0 -12,0 -21,9 -21,21 0,12 9,21 21,21 5,0 47,0 52,0z"/>
  <path class="fil0 str0" d="M88 204c0,-99 80,-178 178,-178 99,0 178,80 178,178"/>
  <path class="fil0 str0" d="M466 214c29,0 52,35 52,79 0,43 -23,79 -52,79"/>
  <path class="fil0 str0" d="M67 214c0,-12 9,-21 21,-21 12,0 21,9 21,21 0,5 0,152 0,157 0,12 -9,21 -21,21 -12,0 -21,-9 -21,-21 0,-5 0,-152 0,-157z"/>
  <path class="fil0 str0" d="M67 214c-29,0 -52,35 -52,79 0,43 24,79 52,79"/>
  <path class="fil0 str0" d="M445 393c0,52 -32,84 -84,84l-42 0"/>
 </g>
</svg>
