<?xml version="1.0" encoding="UTF-8"?>
<!DOCTYPE svg PUBLIC "-//W3C//DTD SVG 1.1//EN" "http://www.w3.org/Graphics/SVG/1.1/DTD/svg11.dtd">
<!-- Creator: CorelDRAW 2017 -->
<svg xmlns="http://www.w3.org/2000/svg" xml:space="preserve" width="63" height="63" version="1.1" style="shape-rendering:geometricPrecision; text-rendering:geometricPrecision; image-rendering:optimizeQuality; fill-rule:evenodd; clip-rule:evenodd"
viewBox="0 0 533 533"
 xmlns:xlink="http://www.w3.org/1999/xlink" id="aluguel">
 <defs>
  <style type="text/css">
   <![CDATA[
    #aluguel .fil0 {fill:#D3310F}
   ]]>
  </style>
 </defs>
 <g id="Layer_x0020_1">
  <metadata id="CorelCorpID_0Corel-Layer"/>
  <g id="People">
   <g id="Icon-80">
    <g>
     <path id="number-ten" class="fil0" d="M319 215l0 104c0,29 -23,52 -52,52 -14,0 -27,-5 -37,-15 -3,-3 -3,-9 0,-12 3,-3 9,-3 12,0 7,7 15,10 25,10 19,0 35,-16 35,-35l0 -104c0,-19 -16,-35 -35,-35 -19,0 -35,16 -35,35l0 104c0,5 -4,9 -9,9 -5,0 -9,-4 -9,-9l0 -104c0,-29 23,-52 52,-52 29,0 52,23 52,52l0 0zm-52 295c-134,0 -243,-109 -243,-243 0,-134 109,-243 243,-243 134,0 243,109 243,243 0,134 -109,243 -243,243l0 0zm0 -504c-144,0 -261,117 -261,261 0,144 117,261 261,261 144,0 261,-117 261,-261 0,-144 -117,-261 -261,-261z"/>
    </g>
   </g>
  </g>
 </g>
</svg>
