<svg width="54" height="53" fill="none" xmlns="http://www.w3.org/2000/svg"><circle cx="26.796" cy="26.475" r="26.443" fill="#E6B1C3"/><path fill-rule="evenodd" clip-rule="evenodd" d="M42.46 19.543a.892.892 0 01.12.334l.061-.033a17.25 17.25 0 012.365 8.744c0 9.57-7.759 17.33-17.33 17.33h-.086l-.002-.053a.895.895 0 01-1.199-.844V28.67v-.132c0-.48.378-.873.853-.895l13.99-8.407a.896.896 0 011.229.307zM28.182 38.396v5.721c8.348-.266 15.033-7.116 15.033-15.529 0-2.657-.667-5.158-1.843-7.345l-10.901 6.55c.318.107.61.219.88.336a4.198 4.198 0 011.71 1.273c.46.556.69 1.294.69 2.212 0 1.14-.418 2.122-1.253 2.942-.835.807-2.038 1.308-3.61 1.503v2.337h-.706zm.706-5.092c.5-.111.876-.292 1.127-.542.25-.25.375-.55.375-.898 0-.347-.132-.633-.396-.855-.25-.223-.62-.418-1.106-.584v2.88zM28.887 22.427l3.056-1.837c-1-.552-2.018-.888-3.056-1.008v2.845zm3.279-1.97l.957-2.356c-1.113-.71-2.525-1.134-4.236-1.273v-2.275h-.706V8.832a15.52 15.52 0 0112.252 6.657l-8.267 4.968zm10.21-5.259a.896.896 0 01-.222 1.347l-14.327 8.61a.896.896 0 01-1.438-.736V7.956c0-.495.401-.896.896-.896v-.025c.13-.003.26-.004.392-.004 6.204 0 11.646 3.26 14.708 8.161l-.008.005zM24.627 12.585c-7.979.654-14.25 7.337-14.25 15.485 0 8.147 6.271 14.83 14.25 15.485v.948c0 .456.34.833.782.889-9.337-.268-16.824-7.92-16.824-17.322 0-9.556 7.388-17.301 16.938-17.325v.025a.896.896 0 00-.896.896v.919zm.968 32.811l.233.003-.002-.053a.89.89 0 01-.23.05zm-.968-24.762v2.843c-.325.12-.577.281-.758.482-.25.264-.375.577-.375.939 0 .348.132.633.396.855.187.158.433.297.737.42v3.109a14.72 14.72 0 01-2.093-.69 4.46 4.46 0 01-1.711-1.273c-.46-.57-.689-1.322-.689-2.254 0-1.155.418-2.143 1.252-2.963.774-.762 1.854-1.25 3.241-1.468zm0 12.187a8.498 8.498 0 01-1.78-.452 7.557 7.557 0 01-1.857-.981l-1.148 2.546c.57.445 1.322.82 2.254 1.127.807.265 1.65.436 2.531.513v-2.753z" fill="#D93C79"/></svg>