<svg width="15" height="13" viewBox="0 0 15 13" fill="none" xmlns="http://www.w3.org/2000/svg">
<path fill-rule="evenodd" clip-rule="evenodd" d="M7.25397 3.27545C6.51666 2.53512 6.51912 1.33726 7.25945 0.599957C7.99978 -0.137345 9.19764 -0.134887 9.93494 0.605443L14.2318 4.91998C14.6009 5.29055 14.7846 5.77576 14.7832 6.26046C14.7846 6.74516 14.6009 7.23037 14.2318 7.60094L9.93494 11.9155C9.19764 12.6558 7.99978 12.6583 7.25945 11.921C6.51912 11.1837 6.51666 9.9858 7.25397 9.24547L8.34269 8.15228H2.61696C1.57211 8.15228 0.725098 7.30526 0.725098 6.26042C0.725098 5.21557 1.57211 4.36856 2.61696 4.36856H8.3426L7.25397 3.27545Z" fill="#0FD43A"/>
</svg>
