<svg width="54" height="54" fill="none" xmlns="http://www.w3.org/2000/svg"><circle cx="26.823" cy="27.175" r="26.443" fill="#E6B1C3"/><path fill-rule="evenodd" clip-rule="evenodd" d="M12.839 14.425a1.147 1.147 0 100 2.295h4.146l2.503 2.503v8.482a3.636 3.636 0 003.636 3.636h11.56a7.272 7.272 0 007.271-7.272V18H21.46a1.154 1.154 0 00-.177-.228l-2.97-2.97a1.143 1.143 0 00-.382-.252 1.143 1.143 0 00-.52-.125H12.84zm8.103 13.28v-8.076c.097-.044.19-.102.274-.175h19.285v4.615a5.817 5.817 0 01-5.817 5.818h-11.56a2.182 2.182 0 01-2.182-2.182zm0 6.17h17.643v2.16h-2.903a2.431 2.431 0 00-1.953-.98c-.8 0-1.51.386-1.953.98H25.29a2.432 2.432 0 00-1.954-.98c-.8 0-1.51.386-1.953.98h-.441v-2.16zm10.352 3.615h-5.523a2.435 2.435 0 01-4.87 0 1.455 1.455 0 01-1.413-1.454v-2.161c0-.803.65-1.454 1.454-1.454h17.643c.804 0 1.455.65 1.455 1.454v2.16c0 .804-.651 1.455-1.455 1.455h-2.42a2.435 2.435 0 11-4.871 0z" fill="#D93C79"/></svg>