<svg xmlns="http://www.w3.org/2000/svg" xml:space="preserve" width="63" height="63" version="1.1" viewBox="0 0 533 533" id="taxas" shape-rendering="geometricPrecision" text-rendering="geometricPrecision" image-rendering="optimizeQuality" fill-rule="evenodd" clip-rule="evenodd"><defs><style>#taxas .fil0{fill:#d74324}</style></defs><g id="Layer_x0020_1"><g id="_785585984"><path class="fil0" d="M37 265C37 116 173 7 320 38c31 7 56 19 81 35 56 37 101 109 101 191 0 49-15 93-41 132-41 62-115 101-190 101-98 0-176-58-213-136-13-28-21-64-21-96zm-30-9c0 51 5 74 24 121 8 19 24 42 37 58l11 13c1 2 3 3 4 4 19 19 41 33 64 47 4 2 7 4 11 5 46 19 64 25 121 25 19 0 40-4 55-8 37-9 76-29 104-53 19-16 23-21 39-40l20-29c8-13 15-29 20-43 24-66 22-139-9-202-19-39-50-79-86-103-23-15-36-23-62-32-8-3-15-5-24-8-67-17-139-8-196 27-7 4-13 7-20 12-14 11-31 23-42 37l-8 8c-5 6-9 12-14 18l-13 19c-4 7-8 14-11 21-7 15-12 30-17 47-4 16-8 36-8 56z"/><path class="fil0" d="M198 381c9 0 12-4 16-10l11-15 21-30 104-148c5-7 12-16 2-26-3-3-6-4-10-4-9 0-11 4-15 10-4 5-7 10-11 15-2 3-3 4-5 7L191 351c-6 8-11 18-2 26 2 2 6 4 9 4zM304 343c0-26 40-26 40 0s-40 26-40 0zm-30-3c0 17 2 27 16 40 32 31 84 4 84-33 0-17-3-28-15-40-33-32-85-5-85 33zM196 187c0-26 40-26 40 0s-40 26-40 0zm-30-4c0 17 3 29 16 41 19 18 48 18 68 1 8-7 16-22 16-31 0-18-1-28-16-43-32-31-84-4-84 33z"/></g></g></svg>