<svg width="30" height="41" fill="none" xmlns="http://www.w3.org/2000/svg"><path fill-rule="evenodd" clip-rule="evenodd" d="M.665 14.336C.665 6.42 7.083.001 15 .001c7.917 0 14.336 6.418 14.336 14.335v11.975c0 7.918-6.419 14.336-14.336 14.336C7.083 40.647.665 34.23.665 26.312V14.335zm4.46-.194c0-5.453 4.422-9.874 9.875-9.874 5.454 0 9.875 4.42 9.875 9.874v12.364c0 5.453-4.421 9.874-9.875 9.874-5.453 0-9.874-4.42-9.874-9.874V14.142zM15 7.673c1.206 0 2.184.978 2.184 2.185V20.6a2.184 2.184 0 11-4.368 0V9.858c0-1.207.978-2.185 2.184-2.185z" fill="#fff"/></svg>