<svg xmlns="http://www.w3.org/2000/svg" xml:space="preserve" width="63" height="63" version="1.1" viewBox="0 0 533 533" id="calendar" shape-rendering="geometricPrecision" text-rendering="geometricPrecision" image-rendering="optimizeQuality" fill-rule="evenodd" clip-rule="evenodd"><defs><style>#calendar .str0{stroke:#d74324;stroke-width:16.93;stroke-linecap:round;stroke-linejoin:round}#calendar .fil0{fill:none}</style></defs><g id="Layer_x0020_1"><g id="_779943640"><path class="fil0 str0" d="M345 89h104M216 89h104M85 89h104M474 89h50c2 0 4 2 4 4v375c0 2-2 4-4 4H9c-2 0-4-2-4-4V93c0-2 2-4 4-4h49M528 166H5"/><path class="fil0 str0" d="M83 255H51c-2 0-4-2-4-4v-32c0-2 2-4 4-4h32c2 0 4 2 4 4v32c0 2-2 4-4 4zM163 255h-32c-2 0-4-2-4-4v-32c0-2 2-4 4-4h32c2 0 4 2 4 4v32c0 2-2 4-4 4zM243 255h-32c-2 0-4-2-4-4v-32c0-2 2-4 4-4h32c2 0 4 2 4 4v32c0 2-2 4-4 4zM323 255h-32c-2 0-4-2-4-4v-32c0-2 2-4 4-4h32c2 0 4 2 4 4v32c0 2-2 4-4 4zM403 255h-32c-2 0-4-2-4-4v-32c0-2 2-4 4-4h32c2 0 4 2 4 4v32c0 2-2 4-4 4zM483 255h-32c-2 0-4-2-4-4v-32c0-2 2-4 4-4h32c2 0 4 2 4 4v32c0 2-2 4-4 4z"/><g><path class="fil0 str0" d="M83 337H51c-2 0-4-2-4-4v-32c0-2 2-4 4-4h32c2 0 4 2 4 4v32c0 2-2 4-4 4zM163 337h-32c-2 0-4-2-4-4v-32c0-2 2-4 4-4h32c2 0 4 2 4 4v32c0 2-2 4-4 4zM243 337h-32c-2 0-4-2-4-4v-32c0-2 2-4 4-4h32c2 0 4 2 4 4v32c0 2-2 4-4 4zM323 337h-32c-2 0-4-2-4-4v-32c0-2 2-4 4-4h32c2 0 4 2 4 4v32c0 2-2 4-4 4zM403 337h-32c-2 0-4-2-4-4v-32c0-2 2-4 4-4h32c2 0 4 2 4 4v32c0 2-2 4-4 4zM483 337h-32c-2 0-4-2-4-4v-32c0-2 2-4 4-4h32c2 0 4 2 4 4v32c0 2-2 4-4 4z"/></g><g><path class="fil0 str0" d="M83 420H51c-2 0-4-2-4-4v-32c0-2 2-4 4-4h32c2 0 4 2 4 4v32c0 2-2 4-4 4zM163 420h-32c-2 0-4-2-4-4v-32c0-2 2-4 4-4h32c2 0 4 2 4 4v32c0 2-2 4-4 4zM243 420h-32c-2 0-4-2-4-4v-32c0-2 2-4 4-4h32c2 0 4 2 4 4v32c0 2-2 4-4 4zM323 420h-32c-2 0-4-2-4-4v-32c0-2 2-4 4-4h32c2 0 4 2 4 4v32c0 2-2 4-4 4z"/></g><g><path class="fil0 str0" d="M79 122H64c-2 0-4-2-4-4V66c0-2 2-4 4-4h15c2 0 4 2 4 4v52c0 2-2 4-4 4zM209 122h-15c-2 0-4-2-4-4V66c0-2 2-4 4-4h15c2 0 4 2 4 4v52c0 2-2 4-4 4zM339 122h-15c-2 0-4-2-4-4V66c0-2 2-4 4-4h15c2 0 4 2 4 4v52c0 2-2 4-4 4zM469 122h-15c-2 0-4-2-4-4V66c0-2 2-4 4-4h15c2 0 4 2 4 4v52c0 2-2 4-4 4z"/></g></g></g></svg>