<?xml version="1.0" encoding="UTF-8"?>
<!DOCTYPE svg PUBLIC "-//W3C//DTD SVG 1.1//EN" "http://www.w3.org/Graphics/SVG/1.1/DTD/svg11.dtd">
<!-- Creator: CorelDRAW 2017 -->
<svg xmlns="http://www.w3.org/2000/svg" xml:space="preserve" width="63" height="63" version="1.1" style="shape-rendering:geometricPrecision; text-rendering:geometricPrecision; image-rendering:optimizeQuality; fill-rule:evenodd; clip-rule:evenodd"
viewBox="0 0 533 533"
 xmlns:xlink="http://www.w3.org/1999/xlink"
 enable-background="new 0 0 512 512" id="calendar">
 <defs>
  <style type="text/css">
   <![CDATA[
    #calendar .str0 {stroke:#D74324;stroke-width:16.93;stroke-linecap:round;stroke-linejoin:round}
    #calendar .fil0 {fill:none}
   ]]>
  </style>
 </defs>
 <g id="Layer_x0020_1">
  <metadata id="CorelCorpID_0Corel-Layer"/>
  <g id="_779943640">
   <line class="fil0 str0" x1="345" y1="89" x2="449" y2= "89" />
   <line class="fil0 str0" x1="216" y1="89" x2="320" y2= "89" />
   <line class="fil0 str0" x1="85" y1="89" x2="189" y2= "89" />
   <path class="fil0 str0" d="M474 89l50 0c2,0 4,2 4,4l0 375c0,2 -2,4 -4,4l-515 0c-2,0 -4,-2 -4,-4l0 -375c0,-2 2,-4 4,-4l49 0"/>
   <line class="fil0 str0" x1="528" y1="166" x2="5" y2= "166" />
   <g>
    <g>
     <path class="fil0 str0" d="M83 255l-32 0c-2,0 -4,-2 -4,-4l0 -32c0,-2 2,-4 4,-4l32 0c2,0 4,2 4,4l0 32c0,2 -2,4 -4,4z"/>
     <path class="fil0 str0" d="M163 255l-32 0c-2,0 -4,-2 -4,-4l0 -32c0,-2 2,-4 4,-4l32 0c2,0 4,2 4,4l0 32c0,2 -2,4 -4,4z"/>
     <path class="fil0 str0" d="M243 255l-32 0c-2,0 -4,-2 -4,-4l0 -32c0,-2 2,-4 4,-4l32 0c2,0 4,2 4,4l0 32c0,2 -2,4 -4,4z"/>
     <path class="fil0 str0" d="M323 255l-32 0c-2,0 -4,-2 -4,-4l0 -32c0,-2 2,-4 4,-4l32 0c2,0 4,2 4,4l0 32c0,2 -2,4 -4,4z"/>
     <path class="fil0 str0" d="M403 255l-32 0c-2,0 -4,-2 -4,-4l0 -32c0,-2 2,-4 4,-4l32 0c2,0 4,2 4,4l0 32c0,2 -2,4 -4,4z"/>
     <path class="fil0 str0" d="M483 255l-32 0c-2,0 -4,-2 -4,-4l0 -32c0,-2 2,-4 4,-4l32 0c2,0 4,2 4,4l0 32c0,2 -2,4 -4,4z"/>
    </g>
    <g>
     <path class="fil0 str0" d="M83 337l-32 0c-2,0 -4,-2 -4,-4l0 -32c0,-2 2,-4 4,-4l32 0c2,0 4,2 4,4l0 32c0,2 -2,4 -4,4z"/>
     <path class="fil0 str0" d="M163 337l-32 0c-2,0 -4,-2 -4,-4l0 -32c0,-2 2,-4 4,-4l32 0c2,0 4,2 4,4l0 32c0,2 -2,4 -4,4z"/>
     <path class="fil0 str0" d="M243 337l-32 0c-2,0 -4,-2 -4,-4l0 -32c0,-2 2,-4 4,-4l32 0c2,0 4,2 4,4l0 32c0,2 -2,4 -4,4z"/>
     <path class="fil0 str0" d="M323 337l-32 0c-2,0 -4,-2 -4,-4l0 -32c0,-2 2,-4 4,-4l32 0c2,0 4,2 4,4l0 32c0,2 -2,4 -4,4z"/>
     <path class="fil0 str0" d="M403 337l-32 0c-2,0 -4,-2 -4,-4l0 -32c0,-2 2,-4 4,-4l32 0c2,0 4,2 4,4l0 32c0,2 -2,4 -4,4z"/>
     <path class="fil0 str0" d="M483 337l-32 0c-2,0 -4,-2 -4,-4l0 -32c0,-2 2,-4 4,-4l32 0c2,0 4,2 4,4l0 32c0,2 -2,4 -4,4z"/>
    </g>
    <g>
     <path class="fil0 str0" d="M83 420l-32 0c-2,0 -4,-2 -4,-4l0 -32c0,-2 2,-4 4,-4l32 0c2,0 4,2 4,4l0 32c0,2 -2,4 -4,4z"/>
     <path class="fil0 str0" d="M163 420l-32 0c-2,0 -4,-2 -4,-4l0 -32c0,-2 2,-4 4,-4l32 0c2,0 4,2 4,4l0 32c0,2 -2,4 -4,4z"/>
     <path class="fil0 str0" d="M243 420l-32 0c-2,0 -4,-2 -4,-4l0 -32c0,-2 2,-4 4,-4l32 0c2,0 4,2 4,4l0 32c0,2 -2,4 -4,4z"/>
     <path class="fil0 str0" d="M323 420l-32 0c-2,0 -4,-2 -4,-4l0 -32c0,-2 2,-4 4,-4l32 0c2,0 4,2 4,4l0 32c0,2 -2,4 -4,4z"/>
    </g>
   </g>
   <g>
    <path class="fil0 str0" d="M79 122l-15 0c-2,0 -4,-2 -4,-4l0 -52c0,-2 2,-4 4,-4l15 0c2,0 4,2 4,4l0 52c0,2 -2,4 -4,4z"/>
    <path class="fil0 str0" d="M209 122l-15 0c-2,0 -4,-2 -4,-4l0 -52c0,-2 2,-4 4,-4l15 0c2,0 4,2 4,4l0 52c0,2 -2,4 -4,4z"/>
    <path class="fil0 str0" d="M339 122l-15 0c-2,0 -4,-2 -4,-4l0 -52c0,-2 2,-4 4,-4l15 0c2,0 4,2 4,4l0 52c0,2 -2,4 -4,4z"/>
    <path class="fil0 str0" d="M469 122l-15 0c-2,0 -4,-2 -4,-4l0 -52c0,-2 2,-4 4,-4l15 0c2,0 4,2 4,4l0 52c0,2 -2,4 -4,4z"/>
   </g>
  </g>
 </g>
</svg>
