<svg width="54" height="53" fill="none" xmlns="http://www.w3.org/2000/svg"><circle cx="26.987" cy="26.475" r="26.443" fill="#E6B1C3"/><path fill-rule="evenodd" clip-rule="evenodd" d="M44.33 26.475c0 9.578-7.765 17.342-17.343 17.342S9.644 36.053 9.644 26.475c0-9.579 7.765-17.343 17.343-17.343S44.33 16.896 44.33 26.475zm2 0c0 10.682-8.66 19.342-19.343 19.342S7.644 37.157 7.644 26.475c0-10.683 8.66-19.343 19.343-19.343s19.343 8.66 19.343 19.343zm-13.963 6.661c.932-.916 1.398-2.01 1.398-3.284 0-1.025-.256-1.848-.769-2.469a4.685 4.685 0 00-1.91-1.42c-.745-.327-1.661-.614-2.748-.863v-3.96c1.21.14 2.399.544 3.563 1.212l1.165-2.865c-1.242-.792-2.818-1.266-4.728-1.421v-2.539h-2.33v2.586c-1.77.201-3.129.768-4.076 1.7-.931.916-1.397 2.019-1.397 3.307 0 1.04.256 1.88.768 2.516a4.977 4.977 0 001.91 1.42c.761.327 1.693.622 2.795.886v3.89a9.479 9.479 0 01-2.445-.56 8.438 8.438 0 01-2.073-1.094l-1.281 2.842c.636.497 1.475.916 2.515 1.258a12.69 12.69 0 003.284.605v2.54h2.33v-2.61c1.754-.217 3.098-.776 4.03-1.677zm-7.64-9.247a1.193 1.193 0 01-.442-.955c0-.404.14-.753.419-1.048.28-.31.714-.536 1.304-.676v3.308c-.559-.17-.986-.38-1.28-.629zm4.869 7.244c-.28.28-.7.482-1.258.606v-3.215c.543.187.955.404 1.234.653.295.248.443.566.443.955 0 .388-.14.722-.42 1.001z" fill="#D93C79"/></svg>