<svg xmlns="http://www.w3.org/2000/svg" xml:space="preserve" width="63" height="63" version="1.1" viewBox="0 0 533 533" id="suporte" shape-rendering="geometricPrecision" text-rendering="geometricPrecision" image-rendering="optimizeQuality" fill-rule="evenodd" clip-rule="evenodd"><defs><style>#suporte .str0{stroke:#d74425;stroke-width:16.93}#suporte .fil0{fill:none}</style></defs><g id="Layer_x0020_1"><path class="fil0" d="M4 4h525v525H4z"/><path class="fil0 str0" d="M466 214c0-12-9-21-21-21s-21 9-21 21v157c0 12 9 21 21 21s21-9 21-21V214zM298 498c12 0 21-9 21-21s-9-21-21-21h-52c-12 0-21 9-21 21s9 21 21 21h52z"/><path class="fil0 str0" d="M88 204c0-99 80-178 178-178 99 0 178 80 178 178M466 214c29 0 52 35 52 79 0 43-23 79-52 79"/><path class="fil0 str0" d="M67 214c0-12 9-21 21-21s21 9 21 21v157c0 12-9 21-21 21s-21-9-21-21V214zM67 214c-29 0-52 35-52 79 0 43 24 79 52 79M445 393c0 52-32 84-84 84h-42"/></g></svg>