<svg xmlns="http://www.w3.org/2000/svg" width="63" height="63" viewBox="0 0 533 533" shape-rendering="geometricPrecision" text-rendering="geometricPrecision" image-rendering="optimizeQuality" fill-rule="evenodd" clip-rule="evenodd"><path class="fil0" d="M319 215v104c0 29-23 52-52 52-14 0-27-5-37-15-3-3-3-9 0-12s9-3 12 0c7 7 15 10 25 10 19 0 35-16 35-35V215c0-19-16-35-35-35s-35 16-35 35v104c0 5-4 9-9 9s-9-4-9-9V215c0-29 23-52 52-52s52 23 52 52zm-52 295C133 510 24 401 24 267S133 24 267 24s243 109 243 243-109 243-243 243zm0-504C123 6 6 123 6 267s117 261 261 261 261-117 261-261S411 6 267 6z" fill="#d3310f"/></svg>