<svg xmlns="http://www.w3.org/2000/svg" xml:space="preserve" width="40" height="25" version="1.1" viewBox="0 0 347 229" id="bb" shape-rendering="geometricPrecision" text-rendering="geometricPrecision" image-rendering="optimizeQuality" fill-rule="evenodd" clip-rule="evenodd"><defs><style>#bb .fil1{fill:#2a458c}</style></defs><g id="Camada_x0020_1"><path class="fil0 str0" d="M346 23v177c0 12-4 18-14 18H24c-10 0-15-6-16-18V24C8 12 13 6 24 6l308 1c9 1 15 5 14 16z" fill="#fee20c" stroke="#a9a6aa" stroke-width="8.47"/><g id="_498988674704"><path class="fil1" d="M99 87s33 22 34 22l15-10c3-3 23-16 25-16v-2c-2-1-15-9-16-11l7-5c1-1 2-2 3-2l11-7 23 15c3 2 22 15 24 16v1c-2 0-7 4-9 6-4 2-6 4-10 6-4 3-6 4-10 7l-38 26c-2 1-3 2-4 3-3 1-4 1-5 4 1 1 13 9 16 11l84-57c3-1 10-6 12-8-7-5-13-9-20-14l-10-6c-5-3-49-34-51-34-1 1-54 36-61 41-3 2-6 4-10 6l-10 8z"/><path class="fil1" d="M99 141c13 8 34 22 45 30l35 24c2-1 17-11 21-14l36-23c1-2 2-2 5-4l20-14c-2-2-29-19-34-22l-20 13c-3 2-18 13-20 13 1 4 13 9 16 12-1 3-18 13-21 15l-23-15c-5-3-21-15-24-16 1-2 6-5 9-7l63-42c1-1 2-1 3-2s1 0 2-2c-2-1-12-8-14-10-4-2-10 3-15 7l-70 47c-3 2-13 8-14 10zm130-85c3 0 14 10 16 10 2-1 6-3 8-5 11-8 9-2 9-28-4 0-24 15-30 19-4 2-3 1-3 4zM98 175c0 25-2 22 8 16 3-3 24-17 26-17-1-2-1-3-3-4s-3-2-5-3-6-5-9-5c-3 2-17 10-17 13z"/></g></g></svg>