<?xml version="1.0" encoding="UTF-8"?>
<!DOCTYPE svg PUBLIC "-//W3C//DTD SVG 1.1//EN" "http://www.w3.org/Graphics/SVG/1.1/DTD/svg11.dtd">
<!-- Creator: CorelDRAW 2018 -->
<svg xmlns="http://www.w3.org/2000/svg" xml:space="preserve" width="40px" height="25px" version="1.1" style="shape-rendering:geometricPrecision; text-rendering:geometricPrecision; image-rendering:optimizeQuality; fill-rule:evenodd; clip-rule:evenodd"
viewBox="0 0 40 25"
 xmlns:xlink="http://www.w3.org/1999/xlink">
 <defs>
  <style type="text/css">
   <![CDATA[
    .str0 {stroke:#A9A6AA;stroke-miterlimit:22.9256}
    .fil4 {fill:#D4D2D2}
    .fil2 {fill:#C5D30D}
    .fil6 {fill:#8CB636}
    .fil5 {fill:#2B4074}
    .fil3 {fill:#2B3760}
    .fil0 {fill:#E4E4E4}
    .fil1 {fill:url(#id0)}
   ]]>
  </style>
  <radialGradient id="id0" gradientUnits="userSpaceOnUse" gradientTransform="matrix(1.14685 -0 -0 1.14681 -3 -2)" cx="20" cy="12.5" r="672.5" fx="20" fy="12.5">
   <stop offset="0" style="stop-opacity:1; stop-color:#ECEDED"/>
   <stop offset="1" style="stop-opacity:1; stop-color:#FEFEFE"/>
  </radialGradient>
 </defs>
 <g id="Layer_x0020_1">
  <metadata id="CorelCorpID_0Corel-Layer"/>
  <g id="_661637904">
   <path class="fil0 str0" d="M39.21 2.38l0 20.13c0,1.36 -0.45,2.04 -1.59,2.04l-35.02 0c-1.14,0 -1.71,-0.68 -1.82,-2.04l0 -20.02c0,-1.36 0.57,-2.04 1.82,-2.04l35.02 0.11c1.02,0.12 1.7,0.57 1.59,1.82z"/>
   <path class="fil1" d="M5.2 4.16c-0.01,0.95 -0.05,1.91 -0.05,2.86 -0.01,1.14 0.02,2.39 0.26,3.5 1.36,6.17 6.34,9.85 12.5,10.32 5.65,0 11.3,0 16.94,0 0,-3.86 0,-7.73 0,-11.59 0,-2.68 -2.6,-5.04 -5.23,-5.04 -8.14,0 -16.28,-0.05 -24.42,-0.05z"/>
   <path class="fil2" d="M5.56 4.52c-0.01,0.84 -0.04,1.67 -0.05,2.5 0,1.12 0.02,2.32 0.26,3.42 1.32,6.01 6.16,9.57 12.16,10.03 5.52,0 11.04,0 16.56,0 0,-3.74 0,-7.48 0,-11.22 0,-2.48 -2.44,-4.68 -4.87,-4.68 -8.02,0 -16.04,-0.04 -24.06,-0.05z"/>
   <path class="fil3" d="M8.57 11.09l0 0.06c0.8,0.01 1.61,0 2.41,0 0.8,0 1.48,0.06 2.14,-0.29 0.49,-0.26 0.9,-0.7 1,-1.43 0.05,-0.36 -0.01,-0.72 -0.18,-0.99 -0.18,-0.28 -0.34,-0.37 -0.7,-0.51 0.11,-0.06 0.62,-0.09 0.93,-0.64 0.22,-0.39 0.27,-0.91 0.13,-1.34 -0.3,-0.93 -1.45,-0.87 -2.32,-0.87 -0.71,0 -1.42,0 -2.13,0 -0.07,0.47 -0.22,1.02 -0.32,1.5l-0.63 3.01c-0.05,0.23 -0.26,1.38 -0.33,1.5zm1.51 -0.98l0 0 0.36 -1.66c0.27,-0.01 0.58,0 0.85,0 0.43,0 1.13,-0.07 1.39,0.28 0.24,0.32 0.19,1.37 -0.91,1.38 -0.56,0.01 -1.12,0 -1.69,0zm0.55 -2.58l0 0 0.22 -1.09c0.03,-0.1 0.04,-0.3 0.11,-0.32 0.47,0 1.03,-0.03 1.48,0 0.22,0.02 0.41,0.1 0.5,0.24 0.21,0.34 0.14,1.18 -0.85,1.18 -0.46,0 -1.02,0.03 -1.46,-0.01zm4.96 3.74l0 0c-0.17,-0.08 -0.61,-0.08 -0.89,-0.43 -0.59,-0.72 -0.28,-1.94 1.26,-2.2 0.44,-0.08 1.43,-0.09 1.68,-0.3 0.35,-0.31 0.11,-1.02 -0.81,-0.88 -0.4,0.06 -0.61,0.27 -0.7,0.64l-1.13 -0.01c0.13,-1.67 2.61,-1.68 3.46,-1.16 0.66,0.41 0.44,1.21 0.27,1.99 -0.08,0.36 -0.15,0.72 -0.24,1.08 -0.09,0.42 -0.17,0.71 -0.08,1.15l-1.21 0 0 -0.4c-0.18,0.1 -0.22,0.27 -0.76,0.44 -0.1,0.03 -0.25,0.04 -0.34,0.08l-0.51 0zm0.7 -0.81l0 0c0.85,0 1.07,-0.63 1.25,-1.4 -0.37,0.13 -0.34,0.15 -0.79,0.18 -0.29,0.03 -0.59,0.05 -0.81,0.17 -0.47,0.27 -0.43,1.05 0.35,1.05zm9.5 0.81l0 0 0.66 0c0.1,-0.04 0.37,-0.04 0.7,-0.16 0.2,-0.08 0.41,-0.2 0.54,-0.32 0.14,-0.13 0.27,-0.26 0.4,-0.46 0.06,-0.1 0.25,-0.44 0.27,-0.57l-1.19 0c-0.17,0.19 -0.15,0.28 -0.42,0.45 -0.6,0.41 -1.65,0.02 -1.44,-0.96l3.23 0c0.07,-0.53 0.13,-0.99 -0.06,-1.49 -0.55,-1.44 -2.58,-1.33 -3.38,-0.6 -0.67,0.6 -1.02,1.4 -0.96,2.39 0.03,0.5 0.24,0.93 0.48,1.19 0.11,0.12 0.31,0.25 0.5,0.34 0.3,0.15 0.55,0.13 0.67,0.19zm-0.35 -2.79l0 0c0.02,-0.18 0.27,-0.53 0.35,-0.61 0.14,-0.14 0.37,-0.27 0.65,-0.31 0.31,-0.04 0.61,0.02 0.78,0.19 0.13,0.13 0.27,0.47 0.21,0.73l-1.99 0zm-4.48 -1.12l0 0 0.13 -0.61 -1.17 0 -0.91 4.4 1.21 0c0.06,-0.39 0.34,-1.6 0.43,-2.06 0.14,-0.62 0.32,-1.31 1.04,-1.47 0.37,-0.08 0.78,0.05 0.82,0.38 0.03,0.22 -0.12,0.83 -0.17,1.06 -0.14,0.69 -0.31,1.4 -0.43,2.1l1.2 -0.01c0.05,-0.09 0.34,-1.55 0.39,-1.79 0.1,-0.49 0.36,-1.41 0.25,-1.89 -0.22,-0.99 -1.52,-0.98 -2.19,-0.61 -0.21,0.12 -0.37,0.26 -0.53,0.43 -0.04,0.04 -0.02,0.03 -0.07,0.07zm9.2 3.91l0 0c-0.11,-0.04 -0.45,-0.08 -0.63,-0.14 -0.65,-0.24 -0.94,-0.63 -0.93,-1.4l1.12 -0.01c0.01,0.31 0.06,0.45 0.26,0.58 0.35,0.23 1.07,0.24 1.3,-0.1 0.14,-0.22 0.07,-0.51 -0.09,-0.63 -0.21,-0.14 -0.97,-0.33 -1.26,-0.43 -0.45,-0.16 -0.79,-0.35 -0.87,-0.84 -0.18,-1.1 0.75,-1.6 1.73,-1.66 0.5,-0.03 1.04,0.03 1.43,0.25 0.37,0.21 0.56,0.56 0.57,1.15l-1.09 0c-0.1,-0.03 0.02,-0.2 -0.19,-0.42 -0.3,-0.3 -1.3,-0.23 -1.26,0.29 0.05,0.59 1.91,0.41 2.25,1.48 0.11,0.33 0.06,0.77 -0.1,1.04 -0.23,0.41 -0.64,0.63 -1.1,0.75 -0.14,0.03 -0.45,0.06 -0.54,0.09l-0.6 0z"/>
   <path class="fil4" d="M9.84 15.82c0.15,-0.06 0.3,-0.11 0.45,-0.16l3.02 -1.09c0.39,-0.14 0.67,-0.24 1.06,-0.03 0.15,0.08 0.28,0.2 0.38,0.34 0.05,0.07 0.09,0.19 0.12,0.28 0.05,0.13 0.1,0.27 0.15,0.41 0.08,0.21 0.15,0.43 0.22,0.65l0.34 1 -0.1 0.07c-0.05,0.03 -0.13,0.06 -0.18,0.08 -0.09,0.03 -0.18,0.06 -0.27,0.09 -0.13,0.05 -0.26,0.1 -0.39,0.14l-1.6 0.58c-1.21,0.45 -2.52,-0.15 -3,-1.34l0 -0.01 -0.33 -0.95 0.13 -0.06z"/>
   <path class="fil5" d="M9.91 15.97l0.28 0.8c0.44,1.1 1.64,1.68 2.8,1.25l1.6 -0.57c0.13,-0.05 0.73,-0.25 0.79,-0.3l-0.29 -0.88c-0.08,-0.21 -0.38,-1.15 -0.48,-1.3 -0.08,-0.12 -0.18,-0.22 -0.31,-0.29 -0.35,-0.18 -0.6,-0.08 -0.93,0.04l-3.02 1.09c-0.14,0.05 -0.31,0.1 -0.44,0.16z"/>
   <path class="fil4" d="M8.54 12.79l2.76 -0.98c0.08,-0.02 0.15,-0.05 0.23,-0.08 0.2,-0.06 0.39,-0.09 0.59,-0.02 0.29,0.1 0.42,0.3 0.51,0.57l0.75 2.08 -3.79 1.34 -1.05 -2.91z"/>
   <path class="fil6" d="M8.75 12.89l0.94 2.6 3.48 -1.23 -0.69 -1.92c-0.08,-0.22 -0.17,-0.39 -0.41,-0.47 -0.26,-0.1 -0.49,0.02 -0.71,0.1l-2.61 0.92z"/>
   <path class="fil3" d="M29.2 18.32l0.45 0c0.12,-0.05 0.34,-0.03 0.65,-0.22 0.3,-0.18 0.41,-0.41 0.46,-0.44l-0.11 0.55 1.16 -0.01c0.04,-0.24 0.11,-0.53 0.16,-0.76l0.8 -3.75c0.05,-0.27 0.24,-1.33 0.32,-1.48l0 -0.08 -1.21 0 -0.48 2.26c-0.04,-0.05 -0.09,-0.15 -0.13,-0.21 -0.36,-0.51 -1.13,-0.57 -1.7,-0.43 -0.7,0.18 -1.16,0.65 -1.44,1.18 -0.29,0.56 -0.48,1.48 -0.32,2.19 0.08,0.36 0.28,0.67 0.48,0.82 0.46,0.38 0.65,0.28 0.91,0.38zm0.92 -3.71l0 0c1.62,-0.25 1.12,2.56 -0.11,2.78 -1.57,0.3 -1.24,-2.57 0.11,-2.78zm-8.99 3.71l0 0 0.48 0c0.08,-0.04 0.23,-0.05 0.34,-0.08 0.54,-0.16 0.63,-0.39 0.76,-0.45l-0.01 0.41 1.21 0c-0.18,-0.79 0.51,-2.45 0.51,-3.37 0,-1.29 -1.93,-1.25 -2.66,-1.05 -0.65,0.18 -1.21,0.65 -1.25,1.37l1.12 -0.01c0.1,-0.26 0.07,-0.25 0.24,-0.42 0.33,-0.33 1.26,-0.31 1.4,0.17 0.24,0.81 -1.06,0.67 -1.82,0.8 -0.74,0.13 -1.36,0.49 -1.49,1.19 -0.12,0.61 0.15,1.08 0.66,1.31 0.16,0.07 0.39,0.09 0.51,0.13zm0.65 -0.81l0 0c-0.79,0 -0.79,-0.79 -0.34,-1.05 0.23,-0.12 0.53,-0.14 0.82,-0.17 0.59,-0.04 0.47,-0.1 0.78,-0.17 -0.19,0.71 -0.34,1.39 -1.26,1.39zm-4.46 0.81l0 0c-0.13,-0.04 -0.32,-0.01 -0.65,-0.13 -0.57,-0.21 -0.92,-0.64 -1.03,-1.3 -0.21,-1.26 0.36,-2.6 1.57,-3.05 1.04,-0.4 2.89,-0.08 2.85,1.49l-1.2 0c-0.03,-0.34 -0.12,-0.55 -0.38,-0.66 -0.25,-0.1 -0.61,-0.09 -0.85,0.02 -0.43,0.2 -0.68,0.71 -0.77,1.29 -0.27,1.63 0.91,1.6 1.38,1.23 0.19,-0.15 0.26,-0.32 0.39,-0.61l1.2 0c-0.03,0.25 -0.32,0.71 -0.48,0.92 -0.19,0.25 -0.49,0.48 -0.79,0.61 -0.37,0.17 -0.59,0.14 -0.73,0.19l-0.51 0zm9.09 -3.72l0 0c0.08,-0.05 0.42,-1.07 1.89,-0.89 0,0.11 -0.2,1.09 -0.25,1.17 -0.25,-0.02 -0.38,-0.09 -0.66,-0.06 -0.59,0.06 -0.93,0.42 -1.14,1.01 -0.1,0.29 -0.47,2.03 -0.52,2.38l-1.22 -0.01 0.93 -4.39 1.14 0 -0.17 0.79z"/>
  </g>
 </g>
</svg>
