<?xml version="1.0" encoding="UTF-8"?>
<!DOCTYPE svg PUBLIC "-//W3C//DTD SVG 1.1//EN" "http://www.w3.org/Graphics/SVG/1.1/DTD/svg11.dtd">
<!-- Creator: CorelDRAW 2018 -->
<svg xmlns="http://www.w3.org/2000/svg" xml:space="preserve" width="40px" height="25px" version="1.1" style="shape-rendering:geometricPrecision; text-rendering:geometricPrecision; image-rendering:optimizeQuality; fill-rule:evenodd; clip-rule:evenodd"
viewBox="0 0 40 25"
 xmlns:xlink="http://www.w3.org/1999/xlink">
 <defs>
  <style type="text/css">
   <![CDATA[
    .str0 {stroke:#A9A6AA;stroke-miterlimit:22.9256}
    .fil0 {fill:#E4E4E4}
    .fil3 {fill:#FE7900}
    .fil4 {fill:#FEE501}
    .fil1 {fill:#FF7900}
    .fil2 {fill:white}
   ]]>
  </style>
 </defs>
 <g id="Layer_x0020_1">
  <metadata id="CorelCorpID_0Corel-Layer"/>
  <path class="fil0 str0" d="M39.21 2.38l0 20.13c0,1.36 -0.45,2.04 -1.59,2.04l-35.02 0c-1.14,0 -1.71,-0.68 -1.82,-2.04l0 -20.02c0,-1.36 0.57,-2.04 1.82,-2.04l35.02 0.11c1.02,0.12 1.7,0.57 1.59,1.82z"/>
  <g id="_962175568">
   <path class="fil1" d="M15.59 13.75l1.5 0c0.18,1.23 -0.48,3.66 0.93,3.77l-0.03 -3.76 1.31 0 0.07 0.65c0.31,-0.28 0.42,-0.49 0.92,-0.65 0.42,-0.14 0.93,-0.15 1.34,0 1.69,0.63 1.78,3.39 0.64,4.4 -0.71,0.62 -1.6,0.57 -2.72,0.57l-0.02 1.81c-0.24,0.09 -1.23,0.07 -1.51,0.02l0 -1.82c-1.22,-0.13 -1.93,-0.48 -2.28,-1.45 -0.2,-0.57 -0.27,-2.86 -0.15,-3.54zm12.37 2.9l-3.1 0.01c-0.04,0.5 0.48,0.8 0.95,0.88 0.74,0.12 1.15,-0.11 1.71,-0.14l0.22 1.03c-1.27,0.28 -2.53,0.56 -3.56,-0.27 -1.2,-0.98 -1.12,-3.56 0.6,-4.32 1.41,-0.62 3.41,-0.1 3.18,2.81zm-17.23 1.94l-1.52 0.02 -0.02 -6.74 1.53 -0.01 0.01 2.57 2.49 0.01 0.01 -2.57 1.52 -0.01 0.01 6.73 -1.51 0.02 -0.03 -2.82 -2.48 -0.01 -0.01 2.81zm19.33 0l-1.53 0.02 -0.01 -4.87 1.29 0c0.01,0.27 0,0.64 0.08,0.81 0.38,-0.5 0.47,-0.96 1.62,-0.91l0.02 1.43c-1.9,-0.13 -1.47,1.1 -1.47,3.52zm-13.94 -6.93c1.14,-0.28 1.39,1.24 0.47,1.47 -1.13,0.29 -1.47,-1.23 -0.47,-1.47zm-6.77 12.4l23.55 0c0.46,-0.45 0.75,-0.65 1.01,-1.46 0.22,-0.69 0.24,-1.44 0.09,-2.17 -0.26,-1.27 -0.63,-2.63 -0.94,-3.9 -0.62,-2.6 -1.28,-5.25 -1.88,-7.85 -0.3,-1.3 -0.62,-2.66 -0.95,-3.94 -0.34,-1.32 -1.14,-2.15 -2.14,-2.71 -1.36,-0.75 -2.54,-0.5 -4.02,-0.15l-11.77 2.81c-2.46,0.6 -5.32,0.76 -6.21,3.52 -0.45,1.38 0.1,2.83 0.41,4.13l1.9 7.83c0.31,1.27 0.71,2.63 0.95,3.89z"/>
   <path class="fil2" d="M19.54 17.53c-0.04,-0.48 -0.06,-1.8 0.11,-2.15 0.26,-0.56 1.04,-0.76 1.51,-0.22 0.34,0.4 0.97,2.78 -1.62,2.37zm-3.95 -3.78c-0.12,0.68 -0.05,2.97 0.15,3.54 0.35,0.97 1.06,1.32 2.28,1.45l0 1.82c0.28,0.05 1.27,0.07 1.51,-0.02l0.02 -1.81c1.12,0 2.01,0.05 2.72,-0.57 1.14,-1.01 1.05,-3.77 -0.64,-4.4 -0.41,-0.15 -0.92,-0.14 -1.34,0 -0.5,0.16 -0.61,0.37 -0.92,0.65l-0.07 -0.65 -1.31 0 0.03 3.76c-1.41,-0.11 -0.75,-2.54 -0.93,-3.77l-1.5 0z"/>
   <polygon class="fil2" points="10.74,15.78 13.22,15.79 13.25,18.61 14.76,18.59 14.75,11.86 13.23,11.87 13.22,14.44 10.73,14.43 10.72,11.86 9.19,11.87 9.21,18.61 10.73,18.59 "/>
   <path class="fil2" d="M24.83 15.62c0.09,-1.29 1.76,-1.31 1.75,-0.01l-1.75 0.01zm3.13 1.03c0.23,-2.91 -1.77,-3.43 -3.18,-2.81 -1.72,0.76 -1.8,3.34 -0.6,4.32 1.03,0.83 2.29,0.55 3.56,0.27l-0.22 -1.03c-0.56,0.03 -0.97,0.26 -1.71,0.14 -0.47,-0.08 -0.99,-0.38 -0.95,-0.88l3.1 -0.01z"/>
   <path class="fil2" d="M30.06 18.59c0,-2.42 -0.43,-3.65 1.47,-3.52l-0.02 -1.43c-1.15,-0.05 -1.24,0.41 -1.62,0.91 -0.08,-0.17 -0.07,-0.54 -0.08,-0.81l-1.29 0 0.01 4.87 1.53 -0.02z"/>
   <path class="fil3" d="M19.54 17.53c2.59,0.41 1.96,-1.97 1.62,-2.37 -0.47,-0.54 -1.25,-0.34 -1.51,0.22 -0.17,0.35 -0.15,1.67 -0.11,2.15z"/>
   <path class="fil4" d="M16.12 11.66c-1,0.24 -0.66,1.76 0.47,1.47 0.92,-0.23 0.67,-1.75 -0.47,-1.47z"/>
   <path class="fil3" d="M24.83 15.62l1.75 -0.01c0.01,-1.3 -1.66,-1.28 -1.75,0.01z"/>
  </g>
 </g>
</svg>
