<svg xmlns="http://www.w3.org/2000/svg" xml:space="preserve" width="40" height="25" version="1.1" viewBox="0 0 347 229" id="aura" shape-rendering="geometricPrecision" text-rendering="geometricPrecision" image-rendering="optimizeQuality" fill-rule="evenodd" clip-rule="evenodd"><defs><style>#aura .fil1{fill:#f1e423}</style></defs><g id="Camada_x0020_1"><path class="fil0 str0" d="M346 23v177c0 12-4 18-14 18H24c-10 0-15-6-16-18V24C8 12 13 6 24 6l308 1c9 1 15 5 14 16z" fill="#e4e4e4" stroke="#a9a6aa" stroke-width="8.47"/><g id="_498993114784"><path class="fil1" d="M178 174c-7 4-16 5-23 2-6-3-5-16-4-22h7c1 10-5 21 10 20 14-1 8-11 10-20h7v23h-6l-1-3zm-71-28h9c2 2 22 28 23 31-12 0-8-1-15-10h-24l-7 10h-8l22-31zm127 15c1-8 20-8 26-7 15 2 6 12 11 23h-7l-2-3c-7 3-9 4-17 3-4 0-12-1-12-6-1-9 23-7 29-9 0-5-5-5-10-5-6 0-7 0-11 4h-7zm-32-7h6l1 3c4-4 10-4 16-2l-3 3c-17-1-12 5-13 19h-7v-23zM12 131v84h330v-77c-12-2-25-7-37-10-85-22-168-21-255-5-13 3-25 6-38 8z"/><path class="fil2" d="M12 101c8-1 17-4 25-6 8-1 17-3 25-5 19-3 36-5 55-7 17-53 105-52 120 0 1 3 9 2 13 3 22 3 45 7 67 13 8 2 17 5 25 8V11H12v90z" fill="#1a2c81"/><path class="fil3" d="M117 83c-19 2-36 4-55 7-8 2-17 4-25 5-8 2-17 5-25 6v30c13-2 25-5 38-8 87-16 170-17 255 5 12 3 25 8 37 10v-31c-8-3-17-6-25-8-22-6-45-10-67-13-4-1-12 0-13-3-2 2 0 1-2 1h-6c-26-3-57-4-83-2-9 0-20 1-29 1z" fill="#c11b34"/><path class="fil1" d="M117 83c9 0 20-1 29-1 26-2 57-1 83 2h6c2 0 0 1 2-1-15-52-103-53-120 0z"/><path class="fil4" d="M112 150c2 3 8 10 9 14h-18l9-14zm-27 27h8l7-10h24c7 9 3 10 15 10-1-3-21-29-23-31h-9l-22 31zm155-6c1-4 6-4 10-4s8-1 12-1c0 10-18 10-22 5zm-6-10h7c4-4 5-4 11-4 5 0 10 0 10 5-6 2-30 0-29 9 0 5 8 6 12 6 8 1 10 0 17-3l2 3h7c-5-11 4-21-11-23-6-1-25-1-26 7zm-56 13l1 3h6v-23h-7c-2 9 4 19-10 20-15 1-9-10-10-20h-7c-1 6-2 19 4 22 7 3 16 2 23-2zm24 3h7c1-14-4-20 13-19l3-3c-6-2-12-2-16 2l-1-3h-6v23z" fill="#1a2d81"/><path class="fil1" d="M103 164h18c-1-4-7-11-9-14l-9 14zm137 7c4 5 22 5 22-5-4 0-8 1-12 1s-9 0-10 4z"/></g></g></svg>