<svg xmlns="http://www.w3.org/2000/svg" width="40" height="25" shape-rendering="geometricPrecision" text-rendering="geometricPrecision" image-rendering="optimizeQuality" fill-rule="evenodd" clip-rule="evenodd"><defs><radialGradient id="id0" gradientUnits="userSpaceOnUse" gradientTransform="matrix(1.14685 0 0 1.14681 -3 -2)" cx="20" cy="12.5" r="672.5" fx="20" fy="12.5"><stop offset="0" stop-color="#eceded"/><stop offset="1" stop-color="#fefefe"/></radialGradient><style>.fil4{fill:#d4d2d2}.fil3{fill:#2b3760}</style></defs><g id="Layer_x0020_1"><g id="_661637904"><path d="M39.21 2.38v20.13c0 1.36-.45 2.04-1.59 2.04H2.6c-1.14 0-1.71-.68-1.82-2.04V2.49C.78 1.13 1.35.45 2.6.45l35.02.11c1.02.12 1.7.57 1.59 1.82z" fill="#e4e4e4" stroke="#a9a6aa" stroke-miterlimit="22.926"/><path d="M5.2 4.16c-.01.95-.05 1.91-.05 2.86-.01 1.14.02 2.39.26 3.5 1.36 6.17 6.34 9.85 12.5 10.32h16.94V9.25c0-2.68-2.6-5.04-5.23-5.04-8.14 0-16.28-.05-24.42-.05z" fill="url(#id0)"/><path d="M5.56 4.52c-.01.84-.04 1.67-.05 2.5 0 1.12.02 2.32.26 3.42 1.32 6.01 6.16 9.57 12.16 10.03h16.56V9.25c0-2.48-2.44-4.68-4.87-4.68-8.02 0-16.04-.04-24.06-.05z" fill="#c5d30d"/><path class="fil3" d="M8.57 11.09v.06c.8.01 1.61 0 2.41 0s1.48.06 2.14-.29c.49-.26.9-.7 1-1.43.05-.36-.01-.72-.18-.99-.18-.28-.34-.37-.7-.51.11-.06.62-.09.93-.64.22-.39.27-.91.13-1.34-.3-.93-1.45-.87-2.32-.87H9.85c-.07.47-.22 1.02-.32 1.5L8.9 9.59c-.05.23-.26 1.38-.33 1.5zm1.51-.98l.36-1.66c.27-.01.58 0 .85 0 .43 0 1.13-.07 1.39.28.24.32.19 1.37-.91 1.38-.56.01-1.12 0-1.69 0zm.55-2.58l.22-1.09c.03-.1.04-.3.11-.32.47 0 1.03-.03 1.48 0 .22.02.41.1.5.24.21.34.14 1.18-.85 1.18-.46 0-1.02.03-1.46-.01zm4.96 3.74c-.17-.08-.61-.08-.89-.43-.59-.72-.28-1.94 1.26-2.2.44-.08 1.43-.09 1.68-.3.35-.31.11-1.02-.81-.88-.4.06-.61.27-.7.64L15 8.09c.13-1.67 2.61-1.68 3.46-1.16.66.41.44 1.21.27 1.99-.08.36-.15.72-.24 1.08-.09.42-.17.71-.08 1.15H17.2v-.4c-.18.1-.22.27-.76.44-.1.03-.25.04-.34.08h-.51zm.7-.81c.85 0 1.07-.63 1.25-1.4-.37.13-.34.15-.79.18-.29.03-.59.05-.81.17-.47.27-.43 1.05.35 1.05zm9.5.81h.66c.1-.04.37-.04.7-.16.2-.08.41-.2.54-.32.14-.13.27-.26.4-.46.06-.1.25-.44.27-.57h-1.19c-.17.19-.15.28-.42.45-.6.41-1.65.02-1.44-.96h3.23c.07-.53.13-.99-.06-1.49-.55-1.44-2.58-1.33-3.38-.6-.67.6-1.02 1.4-.96 2.39.03.5.24.93.48 1.19.11.12.31.25.5.34.3.15.55.13.67.19zm-.35-2.79c.02-.18.27-.53.35-.61.14-.14.37-.27.65-.31.31-.04.61.02.78.19.13.13.27.47.21.73h-1.99zm-4.48-1.12l.13-.61h-1.17l-.91 4.4h1.21c.06-.39.34-1.6.43-2.06.14-.62.32-1.31 1.04-1.47.37-.08.78.05.82.38.03.22-.12.83-.17 1.06-.14.69-.31 1.4-.43 2.1l1.2-.01c.05-.09.34-1.55.39-1.79.1-.49.36-1.41.25-1.89-.22-.99-1.52-.98-2.19-.61-.21.12-.37.26-.53.43-.04.04-.02.03-.07.07zm9.2 3.91c-.11-.04-.45-.08-.63-.14-.65-.24-.94-.63-.93-1.4l1.12-.01c.01.31.06.45.26.58.35.23 1.07.24 1.3-.1.14-.22.07-.51-.09-.63-.21-.14-.97-.33-1.26-.43-.45-.16-.79-.35-.87-.84-.18-1.1.75-1.6 1.73-1.66.5-.03 1.04.03 1.43.25.37.21.56.56.57 1.15H31.7c-.1-.03.02-.2-.19-.42-.3-.3-1.3-.23-1.26.29.05.59 1.91.41 2.25 1.48.11.33.06.77-.1 1.04-.23.41-.64.63-1.1.75-.14.03-.45.06-.54.09h-.6z"/><path class="fil4" d="M9.84 15.82c.15-.06.3-.11.45-.16l3.02-1.09c.39-.14.67-.24 1.06-.03.15.08.28.2.38.34.05.07.09.19.12.28.05.13.1.27.15.41.08.21.15.43.22.65l.34 1-.1.07c-.05.03-.13.06-.18.08l-.27.09c-.13.05-.26.1-.39.14l-1.6.58c-1.21.45-2.52-.15-3-1.34v-.01l-.33-.95.13-.06z"/><path d="M9.91 15.97l.28.8c.44 1.1 1.64 1.68 2.8 1.25l1.6-.57c.13-.05.73-.25.79-.3l-.29-.88c-.08-.21-.38-1.15-.48-1.3a.863.863 0 00-.31-.29c-.35-.18-.6-.08-.93.04l-3.02 1.09c-.14.05-.31.1-.44.16z" fill="#2b4074"/><path class="fil4" d="M8.54 12.79l2.76-.98c.08-.02.15-.05.23-.08.2-.06.39-.09.59-.02.29.1.42.3.51.57l.75 2.08-3.79 1.34-1.05-2.91z"/><path d="M8.75 12.89l.94 2.6 3.48-1.23-.69-1.92c-.08-.22-.17-.39-.41-.47-.26-.1-.49.02-.71.1l-2.61.92z" fill="#8cb636"/><path class="fil3" d="M29.2 18.32h.45c.12-.05.34-.03.65-.22.3-.18.41-.41.46-.44l-.11.55 1.16-.01c.04-.24.11-.53.16-.76l.8-3.75c.05-.27.24-1.33.32-1.48v-.08h-1.21l-.48 2.26c-.04-.05-.09-.15-.13-.21-.36-.51-1.13-.57-1.7-.43-.7.18-1.16.65-1.44 1.18-.29.56-.48 1.48-.32 2.19.08.36.28.67.48.82.46.38.65.28.91.38zm.92-3.71c1.62-.25 1.12 2.56-.11 2.78-1.57.3-1.24-2.57.11-2.78zm-8.99 3.71h.48c.08-.04.23-.05.34-.08.54-.16.63-.39.76-.45l-.01.41h1.21c-.18-.79.51-2.45.51-3.37 0-1.29-1.93-1.25-2.66-1.05-.65.18-1.21.65-1.25 1.37l1.12-.01c.1-.26.07-.25.24-.42.33-.33 1.26-.31 1.4.17.24.81-1.06.67-1.82.8-.74.13-1.36.49-1.49 1.19-.12.61.15 1.08.66 1.31.16.07.39.09.51.13zm.65-.81c-.79 0-.79-.79-.34-1.05.23-.12.53-.14.82-.17.59-.04.47-.1.78-.17-.19.71-.34 1.39-1.26 1.39zm-4.46.81c-.13-.04-.32-.01-.65-.13-.57-.21-.92-.64-1.03-1.3-.21-1.26.36-2.6 1.57-3.05 1.04-.4 2.89-.08 2.85 1.49h-1.2c-.03-.34-.12-.55-.38-.66-.25-.1-.61-.09-.85.02-.43.2-.68.71-.77 1.29-.27 1.63.91 1.6 1.38 1.23.19-.15.26-.32.39-.61h1.2c-.03.25-.32.71-.48.92-.19.25-.49.48-.79.61-.37.17-.59.14-.73.19h-.51zm9.09-3.72c.08-.05.42-1.07 1.89-.89 0 .11-.2 1.09-.25 1.17-.25-.02-.38-.09-.66-.06-.59.06-.93.42-1.14 1.01-.1.29-.47 2.03-.52 2.38l-1.22-.01.93-4.39h1.14l-.17.79z"/></g></g></svg>