<?xml version="1.0" encoding="UTF-8"?>
<!DOCTYPE svg PUBLIC "-//W3C//DTD SVG 1.1//EN" "http://www.w3.org/Graphics/SVG/1.1/DTD/svg11.dtd">
<!-- Creator: CorelDRAW 2017 -->
<svg xmlns="http://www.w3.org/2000/svg" xml:space="preserve" width="40" height="25" version="1.1" style="shape-rendering:geometricPrecision; text-rendering:geometricPrecision; image-rendering:optimizeQuality; fill-rule:evenodd; clip-rule:evenodd"
viewBox="0 0 1008 643"
 xmlns:xlink="http://www.w3.org/1999/xlink"
 enable-background="new 0 0 60 60" id="discover">
 <defs>
  <style type="text/css">
   <![CDATA[
    #discover .str0 {stroke:#A9A6AA;stroke-width:16.93;stroke-linecap:round;stroke-linejoin:round}
    #discover .fil2 {fill:none}
    #discover .fil3 {fill:#303030}
    #discover .fil0 {fill:#E4E4E4}
    #discover .fil1 {fill:#FF6F00}
   ]]>
  </style>
 </defs>
 <g id="Layer_x0020_1">
  <metadata id="CorelCorpID_0Corel-Layer"/>
  <g id="_392737552">
   <path class="fil0" d="M933 633l-855 0c-36,0 -65,-28 -65,-63l0 -495c0,-35 29,-63 65,-63l855 0c36,0 65,28 65,63l0 495c0,35 -29,63 -65,63z"/>
   <path class="fil1" d="M990 367l0 0 0 0 0 0 -1 1c-2,1 -4,3 -7,4l0 0c-2,1 -4,3 -6,4 -34,21 -70,40 -106,58 -84,41 -171,76 -259,105 -68,23 -137,42 -208,58 -36,8 -73,16 -109,23 -5,1 -11,2 -16,3l-1 0 -57 13 713 0c36,0 65,-28 65,-63l0 -211 -7 5z"/>
   <path class="fil2 str0" d="M933 633l-855 0c-36,0 -65,-28 -65,-63l0 -495c0,-35 29,-63 65,-63l855 0c36,0 65,28 65,63l0 495c0,35 -29,63 -65,63z"/>
   <path class="fil3" d="M103 372c0,-42 0,-84 0,-126 1,0 1,0 1,0 14,0 29,0 43,0 23,2 42,11 54,31 23,40 -2,89 -48,94 -11,1 -23,1 -35,1 -5,0 -11,0 -16,0zm26 -22c5,0 9,0 14,0 10,-1 19,-3 27,-10 18,-15 19,-45 2,-62 -12,-12 -27,-12 -43,-12 0,28 0,55 0,83z"/>
   <path class="fil3" d="M822 246c0,0 1,0 1,0 14,0 29,0 43,0 5,0 10,1 15,3 16,5 25,19 24,36 -1,10 -3,18 -10,25 -5,4 -10,7 -16,8 -1,0 -2,0 -3,1 14,18 27,35 41,53 -6,0 -12,0 -17,0 -4,0 -8,0 -11,0 -2,0 -3,-1 -4,-2 -11,-15 -21,-31 -32,-46 -1,-2 -2,-3 -5,-2 0,17 0,33 0,50 -9,0 -17,0 -25,0 0,-42 0,-84 0,-126zm25 58c8,0 16,1 23,-3 7,-4 9,-9 9,-16 0,-7 -3,-12 -9,-15 -7,-4 -15,-3 -23,-3 0,13 0,25 0,38z"/>
   <path class="fil3" d="M734 246c24,0 48,0 71,0 0,7 0,14 0,21 -15,0 -30,0 -46,0 0,9 0,19 0,28 15,0 29,0 44,0 0,7 0,14 0,22 -15,0 -29,0 -44,0 0,11 0,23 0,34 15,0 31,0 46,0 0,7 0,14 0,21 -24,0 -48,0 -72,0 0,-42 0,-84 0,-126z"/>
   <path class="fil3" d="M342 258c-4,6 -9,11 -13,17 -5,-5 -10,-9 -17,-10 -7,-1 -13,0 -19,5 -6,5 -5,14 2,18 4,3 10,4 14,7 7,3 15,6 22,10 10,6 15,15 15,26 1,15 -4,28 -17,37 -10,7 -21,9 -32,8 -18,-1 -31,-10 -40,-23 5,-5 10,-11 15,-16 3,4 6,7 9,10 7,6 16,8 25,6 10,-2 15,-11 13,-20 -1,-5 -4,-8 -8,-10 -5,-2 -10,-4 -15,-6 -5,-2 -11,-4 -16,-7 -16,-8 -21,-22 -17,-39 4,-14 17,-25 34,-26 16,-1 30,3 42,13 0,0 1,1 1,1z"/>
   <path class="fil3" d="M597 246c9,0 17,0 26,0 1,0 2,2 2,3 9,22 18,44 27,65 2,5 4,11 7,17 1,-1 1,-2 1,-3 11,-26 22,-53 33,-79 1,-2 2,-3 4,-3 8,0 16,0 25,0 0,1 -1,2 -1,3 -18,41 -36,83 -54,124 -1,2 -2,3 -4,3 -3,0 -6,0 -9,0 -1,0 -3,-1 -3,-2 -18,-42 -36,-84 -54,-127 0,0 0,-1 0,-1z"/>
   <path class="fil3" d="M454 279c-4,-3 -8,-6 -11,-8 -15,-9 -34,-7 -48,5 -20,18 -19,52 2,68 16,12 38,11 53,-1 1,-1 3,-2 4,-4 0,2 0,3 0,5 0,7 0,15 0,22 0,2 0,2 -2,3 -31,14 -69,5 -87,-23 -25,-38 -5,-91 44,-101 15,-3 30,-2 44,5 1,0 2,2 2,2 0,9 0,18 0,27z"/>
   <path class="fil1" d="M602 309c1,36 -30,66 -69,66 -39,0 -69,-28 -69,-66 0,-36 31,-64 69,-65 39,0 69,30 69,65z"/>
   <path class="fil3" d="M247 372c-8,0 -17,0 -25,0 0,-42 0,-84 0,-126 8,0 17,0 25,0 0,42 0,84 0,126z"/>
  </g>
 </g>
 <g id="Layer_x0020_1_0">
  <metadata id="CorelCorpID_1Corel-Layer"/>
 </g>
</svg>
