<svg xmlns="http://www.w3.org/2000/svg" xml:space="preserve" width="40" height="25" version="1.1" viewBox="0 0 356 229" id="mp" shape-rendering="geometricPrecision" text-rendering="geometricPrecision" image-rendering="optimizeQuality" fill-rule="evenodd" clip-rule="evenodd"><defs><style>#mp .fil3{fill:#fefefe}</style></defs><g id="Camada_x0020_1"><path class="fil0 str0" d="M350 23v177c0 12-4 18-14 18H28c-10 0-15-6-16-18V24c0-12 5-18 16-18l308 1c9 1 15 5 14 16z" fill="#e4e4e4" stroke="#a9a6aa" stroke-width="8.47"/><g id="_498992663248"><path class="fil1" d="M131 126c3-3 4-7 11-6 7 0 7 6 8 8 3 0 2-2 6-2 6-1 10 2 10 8 0 3-1 5-1 8 3 0 8-4 14 2 7 7-2 20-12 16-6-3-5-8-6-10-3-1-4 5-11 1-7-3-4-7-5-8-2-1-6 4-12-1-5-3-3-8-4-11-2 0-2 1-5 2-6 1-11-6-8-11 2-5 9-6 13-1 1 2 1 4 2 5zm37 39c8 2 13-4 14-4 0 0 17 9 23-1 13 1 15-7 17-10 10 1 15-3 17-12 6-1 8 0 12-5 5-5 2-11 2-13 4-2 8-4 12-5 7-3 33-11 38-11 3 15-6 30-12 38-7 10-17 17-28 24-46 27-120 27-165-1-18-10-42-31-40-62 5 0 11 2 15 3 13 3 27 7 38 14-1 6-1 9 2 13s6 5 12 5c3 12 16 11 16 11 3 3 2 4 6 6s7 2 11 1c2 5 5 8 10 9zm-28-80c1-2 4-5 6-7 4-5 12-13 18-17 11-7 26-7 39-3 6 2 11 5 17 7 13 4 27 5 41 1 8-2 15-5 18-6 9 7 23 26 23 38-2 1-10 3-14 4-9 2-18 5-27 9-4 1-9 4-12 5l-15-13-3-3-18-15c-16-14-25-23-43-9-7 5-18 17-30 9zM59 97c2-12 13-27 22-35 1-1 2-2 4-3 4 0 10 3 15 5 5 1 10 3 15 4 21 6 23 0 34-1-1 1-3 4-4 5-5 5-13 11-9 16 3 3 8 4 14 4s9-2 13-4c14-11 20-20 35-9 10 7 28 24 39 32l9 9c4 3 5 8 0 11-5 4-9 1-12-2-3-2-6-5-9-8-2-2-9-8-10-7-2 2 3 6 4 7 4 4 10 9 13 12 5 7-2 13-9 13-5-1-14-14-18-16-2 0-4 1-1 4l11 13c4 4-2 9-8 8-3 0-4-2-6-4-1-2-3-3-5-5l-2-2c-1-1-2-2-4-1-1 4 9 10 11 14-3 2-5 3-9 3-2-1-5-2-7-3 1-6 2-10-2-15-3-4-6-6-12-6 0-12-7-16-18-14-4-7-12-10-20-5-3-2-4-4-9-4-6-1-7 2-10 3-8-5-16-8-26-11-5-2-9-3-14-4-4-1-12-3-15-4zm31-42c4-4 14-9 19-11 24-11 45-15 74-15 24 0 52 6 73 16 5 3 15 8 18 12-5 2-16 5-23 6-33 4-42-16-72-12-8 1-15 4-21 8-2 2-1 2-5 2-19 2-14 9-42 1-3-1-19-6-21-7zm80-31c-41 3-88 19-108 54-8 13-11 27-8 45 4 29 26 50 47 60 26 14 57 19 91 18 33-2 61-11 82-26 19-13 38-37 34-74-3-28-26-47-49-59-23-13-59-20-89-18z" fill="#2d3276"/><path class="fil2" d="M303 104c-5 0-31 8-38 11-4 1-8 3-12 5 0 2 3 8-2 13-4 5-6 4-12 5-2 9-7 13-17 12-2 3-4 11-17 10-6 10-23 1-23 1-1 0-6 6-14 4-5-1-8-4-10-9-4 1-7 1-11-1s-3-3-6-6c0 0-13 1-16-11-6 0-9-1-12-5s-3-7-2-13c-11-7-25-11-38-14-4-1-10-3-15-3-2 31 22 52 40 62 45 28 119 28 165 1 11-7 21-14 28-24 6-8 15-23 12-38z" fill="#009ee2"/><path class="fil3" d="M59 97c3 1 11 3 15 4 5 1 9 2 14 4 10 3 18 6 26 11 3-1 4-4 10-3 5 0 6 2 9 4 8-5 16-2 20 5 11-2 18 2 18 14 6 0 9 2 12 6 4 5 3 9 2 15 2 1 5 2 7 3 4 0 6-1 9-3-2-4-12-10-11-14 2-1 3 0 4 1l2 2c2 2 4 3 5 5 2 2 3 4 6 4 6 1 12-4 8-8l-11-13c-3-3-1-4 1-4 4 2 13 15 18 16 7 0 14-6 9-13-3-3-9-8-13-12-1-1-6-5-4-7 1-1 8 5 10 7 3 3 6 6 9 8 3 3 7 6 12 2 5-3 4-8 0-11l-9-9c-11-8-29-25-39-32-15-11-21-2-35 9-4 2-7 4-13 4s-11-1-14-4c-4-5 4-11 9-16 1-1 3-4 4-5-11 1-13 7-34 1-5-1-10-3-15-4-5-2-11-5-15-5-2 1-3 2-4 3-9 8-20 23-22 35z"/><path class="fil3" d="M140 85c12 8 23-4 30-9 18-14 27-5 43 9l18 15 3 3 15 13c3-1 8-4 12-5 9-4 18-7 27-9 4-1 12-3 14-4 0-12-14-31-23-38-3 1-10 4-18 6-14 4-28 3-41-1-6-2-11-5-17-7-13-4-28-4-39 3-6 4-14 12-18 17-2 2-5 5-6 7z"/><path class="fil4" d="M90 55c2 1 18 6 21 7 28 8 23 1 42-1 4 0 3 0 5-2 6-4 13-7 21-8 30-4 39 16 72 12 7-1 18-4 23-6-3-4-13-9-18-12-21-10-49-16-73-16-29 0-50 4-74 15-5 2-15 7-19 11z" fill="#029ee1"/><path class="fil5" d="M129 131c1 3-1 8 4 11 6 5 10 0 12 1 1 1-2 5 5 8 7 4 8-2 11-1 1 2 0 7 6 10 10 4 19-9 12-16-6-6-11-2-14-2 0-3 1-5 1-8 0-6-4-9-10-8-4 0-3 2-6 2-1-2-1-8-8-8-7-1-8 3-11 6-1-1-1-3-2-5-4-5-11-4-13 1-3 5 2 12 8 11 3-1 3-2 5-2z" fill="#fdfdfd"/></g></g></svg>