<?xml version="1.0" encoding="UTF-8"?>
<!DOCTYPE svg PUBLIC "-//W3C//DTD SVG 1.1//EN" "http://www.w3.org/Graphics/SVG/1.1/DTD/svg11.dtd">
<!-- Creator: CorelDRAW 2018 -->
<svg xmlns="http://www.w3.org/2000/svg" xml:space="preserve" width="40px" height="25px" version="1.1" style="shape-rendering:geometricPrecision; text-rendering:geometricPrecision; image-rendering:optimizeQuality; fill-rule:evenodd; clip-rule:evenodd"
viewBox="0 0 40 25"
 xmlns:xlink="http://www.w3.org/1999/xlink">
 <defs>
  <style type="text/css">
   <![CDATA[
    .str0 {stroke:#A9A6AA;stroke-miterlimit:22.9256}
    .fil2 {fill:#265797}
    .fil1 {fill:#479951}
    .fil3 {fill:#CA4638}
    .fil0 {fill:#E4E4E4}
   ]]>
  </style>
 </defs>
 <g id="Layer_x0020_1">
  <metadata id="CorelCorpID_0Corel-Layer"/>
  <path class="fil0 str0" d="M39.21 2.38l0 20.13c0,1.36 -0.45,2.04 -1.59,2.04l-35.02 0c-1.14,0 -1.71,-0.68 -1.82,-2.04l0 -20.02c0,-1.36 0.57,-2.04 1.82,-2.04l35.02 0.11c1.02,0.12 1.7,0.57 1.59,1.82z"/>
  <g id="jcb-2">
   <path id="Shape" class="fil1" d="M27.13 12.93l0.02 0 0.03 0 0.03 0 0.04 0 0.03 0 0.04 0 0.03 0 0.04 0 0.03 0 0.03 0 0.04 0 0.03 0 0.04 0 0.03 0 0.03 0 0.04 0 0.03 0 0.04 0 0.03 0 0.04 0 0.03 0 0.03 0 0.04 0 0.03 0 0.04 0 0.03 0 0.03 0 0.04 0 0.03 0 0.04 0 0.03 0 0.03 0 0.04 0 0.03 0 0.04 0 0.03 0 0.04 0 0.03 0 0.03 0 0.04 0 0.03 0 0.04 0 0.03 0 0.03 0 0.04 0 0.03 0 0.04 0 0.03 0 0.04 0 0.03 0 0.03 0 0.04 0 0.03 0 0.04 0 0.03 0 0.03 0 0.04 0 0.03 0 0.04 0 0.03 0 0.03 0 0.01 0c0,0 0.02,0 0.03,0 0.01,0 0.02,0 0.03,0 0.01,0 0.03,0 0.04,0.01 0.01,0 0.02,0 0.03,0 0.01,0 0.02,0 0.04,0 0.01,0.01 0.02,0.01 0.03,0.01 0.01,0 0.01,0 0.02,0l0.01 0.01c0.01,0 0.03,0 0.04,0 0.01,0.01 0.02,0.01 0.03,0.01 0.01,0.01 0.02,0.01 0.04,0.02 0.01,0 0.02,0 0.03,0.01 0.01,0 0.02,0.01 0.03,0.01 0.02,0.01 0.03,0.01 0.04,0.02 0.01,0.01 0.02,0.01 0.03,0.02 0.01,0 0.02,0.01 0.04,0.02 0.01,0.01 0.02,0.01 0.03,0.02 0.01,0.01 0.02,0.02 0.03,0.03 0.02,0 0.03,0.01 0.04,0.02 0.01,0.01 0.02,0.02 0.03,0.03 0.01,0.01 0.03,0.02 0.04,0.04 0.01,0.01 0.02,0.02 0.03,0.03 0.01,0.02 0.02,0.03 0.04,0.04 0.01,0.02 0.02,0.03 0.03,0.05 0.01,0.02 0.02,0.04 0.03,0.05 0.02,0.02 0.03,0.05 0.04,0.07 0.01,0.02 0.02,0.05 0.03,0.08 0.02,0.04 0.03,0.07 0.04,0.11 0.01,0.07 0.02,0.15 0.02,0.22 0,0.08 -0.01,0.15 -0.02,0.22 -0.01,0.04 -0.02,0.08 -0.04,0.11 -0.01,0.03 -0.02,0.06 -0.03,0.09 -0.01,0.02 -0.02,0.04 -0.04,0.06 -0.01,0.02 -0.02,0.04 -0.03,0.05 -0.01,0.02 -0.02,0.04 -0.03,0.05 -0.02,0.01 -0.03,0.03 -0.04,0.04 -0.01,0.01 -0.02,0.03 -0.03,0.04 -0.01,0.01 -0.03,0.02 -0.04,0.03 -0.01,0.01 -0.02,0.02 -0.03,0.03 -0.01,0.01 -0.02,0.02 -0.04,0.03 -0.01,0.01 -0.02,0.01 -0.03,0.02 -0.01,0.01 -0.02,0.02 -0.03,0.03 -0.02,0 -0.03,0.01 -0.04,0.02 -0.01,0 -0.02,0.01 -0.03,0.01 -0.01,0.01 -0.02,0.02 -0.04,0.02 -0.01,0 -0.02,0.01 -0.03,0.01 -0.01,0.01 -0.02,0.01 -0.03,0.02 -0.02,0 -0.03,0.01 -0.04,0.01 -0.01,0 -0.02,0.01 -0.03,0.01 -0.01,0 -0.03,0.01 -0.04,0.01l-0.01 0c-0.01,0 -0.01,0 -0.02,0 -0.01,0.01 -0.02,0.01 -0.03,0.01 -0.02,0 -0.03,0 -0.04,0 -0.01,0.01 -0.02,0.01 -0.03,0.01 -0.01,0 -0.03,0 -0.04,0 -0.01,0 -0.02,0 -0.03,0 -0.01,0 -0.03,0 -0.03,0l-0.02 0 -0.02 0 -0.03 0 -0.04 0 -0.03 0 -0.04 0 -0.03 0 -0.03 0 -0.04 0 -0.03 0 -0.04 0 -0.03 0 -0.03 0 -0.04 0 -0.03 0 -0.04 0 -0.03 0 -0.04 0 -0.03 0 -0.03 0 -0.04 0 -0.03 0 -0.04 0 -0.03 0 -0.03 0 -0.04 0 -0.03 0 -0.04 0 -0.03 0 -0.04 0 -0.03 0 -0.03 0 -0.04 0 -0.03 0 -0.04 0 -0.03 0 -0.03 0 -0.04 0 -0.03 0 -0.04 0 -0.03 0 -0.03 0 -0.04 0 -0.03 0 -0.04 0 -0.03 0 -0.04 0 -0.03 0 -0.03 0 -0.04 0 -0.03 0 -0.04 0 -0.03 0 -0.03 0 -0.04 0 -0.03 0 -0.04 0 -0.03 0 -0.04 0 -0.03 0 -0.03 0 -0.02 0 0 -1.86 0 0 0 0 0 0zm2.75 -2.11c0.01,0.06 0.02,0.13 0.02,0.2 0,0.07 -0.01,0.13 -0.02,0.2 -0.01,0.04 -0.02,0.08 -0.04,0.11 -0.01,0.03 -0.02,0.05 -0.03,0.08 -0.01,0.02 -0.02,0.04 -0.04,0.06 -0.01,0.02 -0.02,0.04 -0.03,0.05 -0.01,0.02 -0.02,0.03 -0.03,0.05 -0.01,0.01 -0.03,0.02 -0.04,0.04 -0.01,0.01 -0.02,0.02 -0.03,0.03 -0.01,0.01 -0.02,0.02 -0.04,0.03 -0.01,0.01 -0.02,0.02 -0.03,0.03 -0.01,0.01 -0.02,0.01 -0.03,0.02 -0.02,0.01 -0.03,0.02 -0.04,0.02 -0.01,0.01 -0.02,0.02 -0.03,0.02 -0.01,0.01 -0.02,0.02 -0.04,0.02 -0.01,0.01 -0.02,0.01 -0.03,0.02 -0.01,0 -0.02,0.01 -0.03,0.01 -0.02,0.01 -0.03,0.01 -0.04,0.02 -0.01,0 -0.02,0 -0.03,0.01 -0.01,0 -0.03,0 -0.04,0.01 -0.01,0 -0.02,0 -0.03,0 -0.01,0.01 -0.02,0.01 -0.03,0.01l-0.01 0c-0.01,0 -0.02,0 -0.03,0.01 -0.01,0 -0.02,0 -0.03,0 -0.01,0 -0.03,0 -0.04,0 -0.01,0 -0.02,0.01 -0.03,0.01 -0.01,0 -0.02,0 -0.04,0 -0.01,0 -0.02,0 -0.03,0l-0.01 0 -0.02 0 -0.04 0 -0.03 0 -0.04 0 -0.03 0 -0.03 0 -0.04 0 -0.03 0 -0.04 0 -0.03 0 -0.04 0 -0.03 0 -0.03 0 -0.04 0 -0.03 0 -0.04 0 -0.03 0 -0.03 0 -0.04 0 -0.03 0 -0.04 0 -0.03 0 -0.03 0 -0.04 0 -0.03 0 -0.04 0 -0.03 0 -0.04 0 -0.03 0 -0.03 0 -0.04 0 -0.03 0 -0.04 0 -0.03 0 -0.03 0 -0.04 0 -0.03 0 -0.04 0 -0.03 0 -0.04 0 -0.03 0 -0.03 0 -0.04 0 -0.03 0 -0.04 0 -0.03 0 -0.03 0 -0.04 0 -0.03 0 -0.04 0 -0.03 0 -0.03 0 -0.04 0 -0.03 0 -0.02 0 0 -1.72 0.02 0 0.03 0 0.04 0 0.03 0 0.03 0 0.04 0 0.03 0 0.04 0 0.03 0 0.03 0 0.04 0 0.03 0 0.04 0 0.03 0 0.03 0 0.04 0 0.03 0 0.04 0 0.03 0 0.04 0 0.03 0 0.03 0 0.04 0 0.03 0 0.04 0 0.03 0 0.03 0 0.04 0 0.03 0 0.04 0 0.03 0 0.04 0 0.03 0 0.03 0 0.04 0 0.03 0 0.04 0 0.03 0 0.03 0 0.04 0 0.03 0 0.04 0 0.03 0 0.03 0 0.04 0 0.03 0 0.04 0 0.03 0 0.04 0 0.03 0 0.03 0 0.04 0 0.03 0 0.04 0 0.03 0 0.01 0 0.02 0c0.02,0 0.03,0 0.04,0 0.01,0 0.02,0 0.03,0 0.01,0 0.03,0 0.04,0.01 0.01,0 0.02,0 0.03,0 0.01,0 0.02,0 0.03,0l0.01 0c0.01,0.01 0.02,0.01 0.03,0.01 0.01,0 0.02,0.01 0.03,0.01 0.01,0 0.03,0.01 0.04,0.01 0.01,0 0.02,0.01 0.03,0.01 0.01,0 0.02,0.01 0.04,0.01 0.01,0.01 0.02,0.01 0.03,0.02 0.01,0 0.02,0.01 0.03,0.01 0.02,0.01 0.03,0.02 0.04,0.02 0.01,0.01 0.02,0.01 0.03,0.02 0.01,0.01 0.02,0.02 0.04,0.02 0.01,0.01 0.02,0.02 0.03,0.03 0.01,0.01 0.02,0.02 0.03,0.03 0.02,0.01 0.03,0.02 0.04,0.03 0.01,0.01 0.02,0.02 0.03,0.03 0.01,0.01 0.03,0.03 0.04,0.04 0.01,0.01 0.02,0.03 0.03,0.04 0.01,0.02 0.02,0.04 0.03,0.05 0.02,0.02 0.03,0.04 0.04,0.07 0.01,0.02 0.02,0.05 0.03,0.07 0.02,0.04 0.03,0.08 0.04,0.12 0,0 -0.01,-0.04 0,0l0 0 0 0zm4.23 -8.92l0.01 0 0 17.67c0,0.1 0,0.21 -0.01,0.31 -0.01,0.09 -0.02,0.18 -0.03,0.27 -0.01,0.06 -0.02,0.12 -0.04,0.18 -0.01,0.05 -0.02,0.09 -0.03,0.14 -0.01,0.04 -0.02,0.08 -0.04,0.12 -0.01,0.04 -0.02,0.07 -0.03,0.11 -0.01,0.03 -0.02,0.06 -0.03,0.09 -0.02,0.03 -0.03,0.06 -0.04,0.09 -0.01,0.03 -0.02,0.06 -0.03,0.08 -0.01,0.03 -0.03,0.06 -0.04,0.08 -0.01,0.03 -0.02,0.05 -0.03,0.07 -0.01,0.03 -0.02,0.05 -0.03,0.07 -0.02,0.02 -0.03,0.04 -0.04,0.07 -0.01,0.02 -0.02,0.04 -0.03,0.06 -0.02,0.02 -0.03,0.04 -0.04,0.06 -0.01,0.02 -0.02,0.03 -0.03,0.05 -0.01,0.02 -0.02,0.04 -0.04,0.06 -0.01,0.01 -0.02,0.03 -0.03,0.05 -0.01,0.02 -0.02,0.03 -0.03,0.05 -0.02,0.01 -0.03,0.03 -0.04,0.05 -0.01,0.01 -0.02,0.03 -0.03,0.04 -0.01,0.02 -0.03,0.03 -0.04,0.05 -0.01,0.01 -0.02,0.03 -0.03,0.04 -0.01,0.02 -0.02,0.03 -0.03,0.04 -0.02,0.02 -0.03,0.03 -0.04,0.05 -0.01,0.01 -0.02,0.02 -0.03,0.04 -0.01,0.01 -0.03,0.02 -0.04,0.03 -0.01,0.02 -0.02,0.03 -0.03,0.04 -0.01,0.01 -0.02,0.03 -0.04,0.04 -0.01,0.01 -0.02,0.02 -0.03,0.03 -0.01,0.02 -0.02,0.03 -0.03,0.04 -0.01,0.01 -0.03,0.02 -0.04,0.03 -0.01,0.01 -0.02,0.02 -0.03,0.03 -0.01,0.01 -0.03,0.03 -0.04,0.04 -0.01,0.01 -0.02,0.02 -0.03,0.03 -0.01,0.01 -0.02,0.02 -0.03,0.03 -0.02,0.01 -0.03,0.02 -0.04,0.03 -0.01,0.01 -0.02,0.02 -0.03,0.03 -0.01,0.01 -0.03,0.01 -0.04,0.02 -0.01,0.01 -0.02,0.02 -0.03,0.03 -0.01,0.01 -0.02,0.02 -0.04,0.03 -0.01,0.01 -0.02,0.02 -0.03,0.02 -0.01,0.01 -0.02,0.02 -0.03,0.03 -0.01,0.01 -0.03,0.02 -0.04,0.02 -0.01,0.01 -0.02,0.02 -0.03,0.03 -0.01,0.01 -0.02,0.01 -0.04,0.02 -0.01,0.01 -0.02,0.02 -0.03,0.02 -0.01,0.01 -0.02,0.02 -0.03,0.03 -0.02,0 -0.03,0.01 -0.04,0.02 -0.01,0.01 -0.02,0.01 -0.03,0.02 -0.01,0.01 -0.03,0.01 -0.04,0.02l-0.03 0.02c-0.01,0.01 -0.02,0.01 -0.03,0.02 -0.02,0.01 -0.03,0.01 -0.04,0.02 -0.01,0.01 -0.02,0.01 -0.03,0.02 -0.01,0 -0.03,0.01 -0.04,0.02 -0.01,0 -0.02,0.01 -0.03,0.01 -0.01,0.01 -0.02,0.02 -0.04,0.02 -0.01,0.01 -0.02,0.01 -0.03,0.02 -0.01,0 -0.02,0.01 -0.03,0.02l-0.04 0.01 -0.03 0.02c-0.01,0 -0.03,0.01 -0.04,0.01 -0.01,0.01 -0.02,0.01 -0.03,0.02 -0.01,0 -0.02,0 -0.03,0.01 -0.02,0 -0.03,0.01 -0.04,0.01 -0.01,0.01 -0.02,0.01 -0.03,0.02 -0.01,0 -0.03,0 -0.04,0.01l-0.03 0.01c-0.01,0.01 -0.02,0.01 -0.04,0.01 -0.01,0.01 -0.02,0.01 -0.03,0.02 -0.01,0 -0.02,0 -0.03,0.01l-0.04 0.01c-0.01,0 -0.02,0.01 -0.03,0.01l-0.04 0.01c-0.01,0 -0.02,0.01 -0.03,0.01 -0.01,0 -0.02,0.01 -0.03,0.01 -0.02,0 -0.03,0 -0.04,0.01l-0.03 0.01 -0.04 0 -0.03 0.01c-0.01,0.01 -0.02,0.01 -0.04,0.01 -0.01,0 -0.02,0 -0.03,0.01l-0.03 0 -0.04 0.01c-0.01,0 -0.02,0 -0.03,0.01 -0.01,0 -0.02,0 -0.04,0l-0.03 0.01 -0.03 0 -0.04 0.01c-0.01,0 -0.02,0 -0.03,0 -0.01,0 -0.02,0.01 -0.04,0.01 -0.01,0 -0.02,0 -0.03,0 -0.01,0 -0.02,0 -0.04,0.01 -0.01,0 -0.02,0 -0.03,0 -0.01,0 -0.02,0 -0.03,0 -0.01,0 -0.03,0 -0.04,0l-0.03 0c-0.01,0.01 -0.02,0.01 -0.04,0.01 -0.01,0 -0.02,0 -0.03,0l-0.03 0 -0.04 0c-0.01,0 -0.02,0 -0.03,0l-0.04 0 0 0 -0.03 0 -0.03 0 -0.04 0 -0.03 0 -0.04 0 -0.03 0 -0.04 0 -0.03 0 -0.03 0 -0.04 0 -0.03 0 -0.04 0 -0.03 0 -0.03 0 -0.04 0 -0.03 0 -0.04 0 -0.03 0 -0.03 0 -0.04 0 -0.03 0 -0.04 0 -0.03 0 -0.04 0 -0.03 0 -0.03 0 -0.04 0 -0.03 0 -0.04 0 -0.03 0 -0.03 0 -0.04 0 -0.03 0 -0.04 0 -0.03 0 -0.03 0 -0.04 0 -0.03 0 -0.04 0 -0.03 0 -0.04 0 -0.03 0 -0.03 0 -0.04 0 -0.03 0 -0.04 0 -0.03 0 -0.03 0 -0.04 0 -0.03 0 -0.04 0 -0.03 0 -0.03 0 -0.04 0 -0.03 0 -0.04 0 -0.03 0 -0.04 0 -0.03 0 -0.03 0 -0.04 0 -0.03 0 -0.04 0 -0.03 0 -0.03 0 -0.04 0 -0.03 0 -0.04 0 -0.03 0 -0.04 0 -0.03 0 -0.03 0 -0.04 0 -0.03 0 -0.04 0 -0.03 0 -0.03 0 -0.04 0 -0.03 0 -0.04 0 -0.03 0 -0.04 0 -0.03 0 -0.03 0 -0.04 0 -0.03 0 -0.04 0 -0.03 0 -0.03 0 -0.04 0 -0.03 0 -0.04 0 -0.03 0 -0.04 0 -0.03 0 -0.03 0 -0.04 0 -0.03 0 -0.04 0 -0.03 0 -0.03 0 -0.04 0 -0.03 0 -0.04 0 -0.03 0 -0.03 0 -0.04 0 -0.03 0 -0.04 0 -0.03 0 -0.04 0 -0.03 0 -0.03 0 -0.04 0 -0.03 0 -0.04 0 -0.03 0 -0.03 0 -0.04 0 -0.03 0 -0.04 0 -0.03 0 -0.04 0 -0.03 0 -0.03 0 -0.04 0 -0.03 0 -0.04 0 -0.03 0 -0.03 0 -0.04 0 -0.03 0 -0.04 0 -0.03 0 -0.04 0 -0.03 0 -0.03 0 -0.04 0 -0.03 0 -0.04 0 -0.03 0 -0.03 0 -0.04 0 -0.03 0 -0.04 0 -0.03 0 -0.03 0 -0.04 0 -0.03 0 -0.04 0 -0.07 0 0 -7.2 0.07 0 0.04 0 0.03 0 0.04 0 0.03 0 0.03 0 0.04 0 0.03 0 0.04 0 0.03 0 0.03 0 0.04 0 0.03 0 0.04 0 0.03 0 0.03 0 0.04 0 0.03 0 0.04 0 0.03 0 0.04 0 0.03 0 0.03 0 0.04 0 0.03 0 0.04 0 0.03 0 0.03 0 0.04 0 0.03 0 0.04 0 0.03 0 0.04 0 0.03 0 0.03 0 0.04 0 0.03 0 0.04 0 0.03 0 0.03 0 0.04 0 0.03 0 0.04 0 0.03 0 0.04 0 0.03 0 0.03 0 0.04 0 0.03 0 0.04 0 0.03 0 0.03 0 0.04 0 0.03 0 0.04 0 0.03 0 0.03 0 0.04 0 0.03 0 0.04 0 0.03 0 0.04 0 0.03 0 0.03 0 0.04 0 0.03 0 0.04 0 0.03 0 0.03 0 0.04 0 0.03 0 0.04 0 0.03 0 0.04 0 0.03 0 0.03 0 0.04 0 0.03 0 0.04 0 0.03 0 0.03 0 0.04 0 0.03 0 0.04 0 0.03 0 0.04 0 0.03 0 0.03 0 0.04 0 0.03 0 0.04 0 0.03 0 0.03 0 0.04 0 0.03 0 0.04 0 0.03 0 0.04 0 0.03 0 0.03 0 0.04 0 0.03 0 0.04 0 0.03 0 0.03 0 0.04 0 0.03 0 0.04 0 0.03 0 0.03 0 0.04 0 0.03 0 0.04 0 0.03 0 0.04 0 0.03 0 0.03 0 0.04 0 0.03 0 0.04 0 0.03 0 0.03 0 0.04 0 0.03 0 0.04 0 0.03 0 0.03 0 0.04 0 0.03 0 0.04 0 0.03 0 0.04 0 0.03 0 0.03 0 0.04 0 0.03 0 0.04 0 0.03 0 0.03 0 0.04 0 0.03 0 0.04 0 0.03 0 0.03 0 0.04 0 0.03 0 0.04 0 0.03 0 0.04 0 0.03 0 0.03 0 0.04 0 0.03 0 0.04 0 0.03 0 0.03 0 0.04 0 0.03 0 0.04 0 0.02 0 0.01 0 0.03 0 0.04 0c0.01,0 0.02,0 0.03,0 0.02,-0.01 0.03,-0.01 0.04,-0.01l0.03 0 0.04 0 0.03 0 0.03 -0.01 0.04 0c0.01,0 0.02,0 0.03,0 0.01,0 0.03,0 0.04,-0.01l0.03 0c0.01,0 0.02,0 0.03,0 0.02,-0.01 0.03,-0.01 0.04,-0.01 0.01,0 0.02,0 0.03,0l0.04 -0.01 0.03 -0.01c0.01,0 0.02,0 0.04,0 0.01,0 0.02,-0.01 0.03,-0.01l0.03 -0.01c0.02,0 0.03,0 0.04,0 0.01,-0.01 0.02,-0.01 0.03,-0.01 0.01,-0.01 0.03,-0.01 0.04,-0.01 0.01,0 0.02,-0.01 0.03,-0.01 0.01,0 0.02,-0.01 0.03,-0.01 0.02,0 0.03,-0.01 0.04,-0.01l0.03 -0.01c0.01,0 0.03,-0.01 0.04,-0.01 0.01,-0.01 0.02,-0.01 0.03,-0.01 0.01,-0.01 0.02,-0.01 0.04,-0.02 0.01,0 0.02,-0.01 0.03,-0.01 0.01,0 0.02,-0.01 0.03,-0.01 0.01,-0.01 0.03,-0.01 0.04,-0.02 0.01,0 0.02,-0.01 0.03,-0.01 0.01,-0.01 0.03,-0.01 0.04,-0.02 0.01,0 0.02,-0.01 0.03,-0.01 0.01,-0.01 0.02,-0.01 0.03,-0.02 0.02,-0.01 0.03,-0.01 0.04,-0.02 0.01,0 0.02,-0.01 0.03,-0.02 0.01,0 0.03,-0.01 0.04,-0.01 0.01,-0.01 0.02,-0.02 0.03,-0.02 0.01,-0.01 0.02,-0.02 0.04,-0.02 0.01,-0.01 0.02,-0.02 0.03,-0.03 0.01,0 0.02,-0.01 0.03,-0.02 0.01,-0.01 0.03,-0.01 0.04,-0.02 0.01,-0.01 0.02,-0.02 0.03,-0.03 0.01,-0.01 0.03,-0.02 0.04,-0.02 0.01,-0.01 0.02,-0.02 0.03,-0.03 0.01,-0.01 0.02,-0.02 0.03,-0.03 0.02,-0.01 0.03,-0.02 0.04,-0.03 0.01,-0.01 0.02,-0.02 0.03,-0.03 0.01,-0.01 0.03,-0.02 0.04,-0.03 0.01,-0.02 0.02,-0.03 0.03,-0.04 0.01,-0.01 0.02,-0.02 0.03,-0.04 0.02,-0.01 0.03,-0.02 0.04,-0.04 0.01,-0.01 0.02,-0.03 0.03,-0.04 0.01,-0.02 0.03,-0.03 0.04,-0.05 0.01,-0.01 0.02,-0.03 0.03,-0.05 0.01,-0.02 0.02,-0.03 0.04,-0.05 0.01,-0.02 0.02,-0.04 0.03,-0.06 0.01,-0.02 0.02,-0.05 0.03,-0.07 0.02,-0.02 0.03,-0.05 0.04,-0.08 0.01,-0.03 0.02,-0.06 0.03,-0.09 0.01,-0.03 0.03,-0.07 0.04,-0.11 0.01,-0.06 0.02,-0.12 0.03,-0.18 0.01,-0.08 0.02,-0.15 0.02,-0.23 0,-0.07 -0.01,-0.15 -0.02,-0.22 -0.01,-0.06 -0.02,-0.12 -0.03,-0.17 -0.01,-0.04 -0.03,-0.08 -0.04,-0.11 -0.01,-0.03 -0.02,-0.06 -0.03,-0.09 -0.01,-0.03 -0.02,-0.05 -0.04,-0.08 -0.01,-0.02 -0.02,-0.04 -0.03,-0.06 -0.01,-0.02 -0.02,-0.04 -0.03,-0.06 -0.02,-0.02 -0.03,-0.03 -0.04,-0.05 -0.01,-0.02 -0.02,-0.03 -0.03,-0.05 -0.01,-0.01 -0.03,-0.03 -0.04,-0.04 -0.01,-0.02 -0.02,-0.03 -0.03,-0.05 -0.01,-0.01 -0.02,-0.02 -0.04,-0.03 -0.01,-0.02 -0.02,-0.03 -0.03,-0.04 -0.01,-0.01 -0.02,-0.02 -0.03,-0.04 -0.01,-0.01 -0.03,-0.02 -0.04,-0.03 -0.01,-0.01 -0.02,-0.02 -0.03,-0.03 -0.01,-0.01 -0.02,-0.02 -0.04,-0.03 -0.01,-0.01 -0.02,-0.02 -0.03,-0.02 -0.01,-0.01 -0.02,-0.02 -0.03,-0.03 -0.01,-0.01 -0.03,-0.02 -0.04,-0.03 -0.01,0 -0.02,-0.01 -0.03,-0.02 -0.01,-0.01 -0.03,-0.02 -0.04,-0.02 -0.01,-0.01 -0.02,-0.02 -0.03,-0.03 -0.01,0 -0.02,-0.01 -0.03,-0.02 -0.02,0 -0.03,-0.01 -0.04,-0.02 -0.01,0 -0.02,-0.01 -0.03,-0.02 -0.01,0 -0.03,-0.01 -0.04,-0.01 -0.01,-0.01 -0.02,-0.02 -0.03,-0.02 -0.01,-0.01 -0.02,-0.01 -0.04,-0.02 -0.01,0 -0.02,-0.01 -0.03,-0.01 -0.01,-0.01 -0.02,-0.01 -0.03,-0.02 -0.01,-0.01 -0.03,-0.01 -0.04,-0.01 -0.01,-0.01 -0.02,-0.01 -0.03,-0.02 -0.01,0 -0.03,-0.01 -0.04,-0.01 -0.01,-0.01 -0.02,-0.01 -0.03,-0.02 -0.01,0 -0.02,0 -0.03,-0.01 -0.02,0 -0.03,-0.01 -0.04,-0.01 -0.01,0 -0.02,-0.01 -0.03,-0.01 -0.01,-0.01 -0.03,-0.01 -0.04,-0.01 -0.01,-0.01 -0.02,-0.01 -0.03,-0.01l-0.04 -0.01c-0.01,-0.01 -0.02,-0.01 -0.03,-0.01 -0.01,-0.01 -0.02,-0.01 -0.03,-0.01 -0.01,0 -0.03,-0.01 -0.04,-0.01 -0.01,0 -0.02,-0.01 -0.03,-0.01 -0.01,0 -0.02,0 -0.04,-0.01 -0.01,0 -0.02,0 -0.03,0 -0.01,-0.01 -0.02,-0.01 -0.03,-0.01l-0.04 -0.01 -0.03 0c-0.01,-0.01 -0.02,-0.01 -0.04,-0.01l-0.03 -0.01c-0.01,0 -0.02,0 -0.04,0l-0.03 0 -0.03 -0.01 -0.04 0 -0.03 -0.01 -0.04 0 -0.03 0 -0.03 0 0 -0.04 0.03 -0.01 0.03 -0.01c0.02,0 0.03,0 0.04,0l0.03 -0.01c0.01,0 0.03,0 0.04,-0.01l0.03 0c0.01,0 0.02,-0.01 0.03,-0.01 0.02,0 0.03,-0.01 0.04,-0.01 0.01,0 0.02,0 0.03,-0.01 0.02,0 0.03,0 0.04,-0.01 0.01,0 0.02,0 0.03,-0.01 0.01,0 0.02,0 0.04,-0.01 0.01,0 0.02,-0.01 0.03,-0.01 0.01,0 0.02,-0.01 0.03,-0.01 0.02,-0.01 0.03,-0.01 0.04,-0.01 0.01,-0.01 0.02,-0.01 0.03,-0.02 0.01,0 0.03,-0.01 0.04,-0.01 0.01,-0.01 0.02,-0.01 0.03,-0.01 0.01,-0.01 0.02,-0.02 0.03,-0.02 0.02,-0.01 0.03,-0.01 0.04,-0.02 0.01,0 0.02,-0.01 0.03,-0.01 0.01,-0.01 0.03,-0.02 0.04,-0.02 0.01,-0.01 0.02,-0.01 0.03,-0.02 0.01,-0.01 0.02,-0.01 0.04,-0.02 0.01,-0.01 0.02,-0.01 0.03,-0.02 0.01,-0.01 0.02,-0.01 0.03,-0.02 0.01,-0.01 0.03,-0.02 0.04,-0.02 0.01,-0.01 0.02,-0.02 0.03,-0.03 0.01,-0.01 0.03,-0.01 0.04,-0.02 0.01,-0.01 0.02,-0.02 0.03,-0.03 0.01,-0.01 0.02,-0.02 0.03,-0.03 0.02,0 0.03,-0.02 0.04,-0.02 0.01,-0.02 0.02,-0.02 0.03,-0.04 0.01,-0.01 0.03,-0.02 0.04,-0.03 0.01,-0.01 0.02,-0.02 0.03,-0.03 0.01,-0.02 0.02,-0.03 0.04,-0.04 0.01,-0.01 0.02,-0.03 0.03,-0.04 0.01,-0.01 0.02,-0.03 0.03,-0.04 0.01,-0.02 0.03,-0.03 0.04,-0.05 0.01,-0.01 0.02,-0.03 0.03,-0.05 0.01,-0.02 0.03,-0.03 0.04,-0.05 0.01,-0.02 0.02,-0.04 0.03,-0.06 0.01,-0.02 0.02,-0.05 0.03,-0.07 0.02,-0.03 0.03,-0.05 0.04,-0.08 0.01,-0.03 0.02,-0.06 0.03,-0.09 0.02,-0.04 0.03,-0.08 0.04,-0.12 0.01,-0.07 0.02,-0.13 0.03,-0.2 0.01,-0.06 0.01,-0.11 0.01,-0.17 0,-0.06 0,-0.11 -0.01,-0.17 -0.01,-0.07 -0.02,-0.14 -0.03,-0.2 -0.01,-0.05 -0.02,-0.09 -0.04,-0.13 -0.01,-0.03 -0.02,-0.06 -0.03,-0.09 -0.01,-0.03 -0.02,-0.05 -0.04,-0.08 -0.01,-0.02 -0.02,-0.04 -0.03,-0.06 -0.01,-0.02 -0.02,-0.04 -0.03,-0.06 -0.01,-0.02 -0.03,-0.04 -0.04,-0.05 -0.01,-0.02 -0.02,-0.04 -0.03,-0.05 -0.01,-0.02 -0.03,-0.03 -0.04,-0.05 -0.01,-0.01 -0.02,-0.02 -0.03,-0.04 -0.01,-0.01 -0.02,-0.02 -0.03,-0.04 -0.02,-0.01 -0.03,-0.02 -0.04,-0.03 -0.01,-0.01 -0.02,-0.02 -0.03,-0.04 -0.01,-0.01 -0.03,-0.02 -0.04,-0.03 -0.01,-0.01 -0.02,-0.02 -0.03,-0.03 -0.01,-0.01 -0.02,-0.02 -0.04,-0.02 -0.01,-0.01 -0.02,-0.02 -0.03,-0.03 -0.01,-0.01 -0.02,-0.02 -0.03,-0.03 -0.01,0 -0.03,-0.01 -0.04,-0.02 -0.01,-0.01 -0.02,-0.02 -0.03,-0.02 -0.01,-0.01 -0.03,-0.02 -0.04,-0.02 -0.01,-0.01 -0.02,-0.02 -0.03,-0.03 -0.01,0 -0.02,-0.01 -0.03,-0.01 -0.02,-0.01 -0.03,-0.02 -0.04,-0.02 -0.01,-0.01 -0.02,-0.02 -0.03,-0.02 -0.01,-0.01 -0.03,-0.01 -0.04,-0.02 -0.01,0 -0.02,-0.01 -0.03,-0.02 -0.01,0 -0.02,-0.01 -0.04,-0.01 -0.01,-0.01 -0.02,-0.01 -0.03,-0.02 -0.01,0 -0.02,-0.01 -0.03,-0.01 -0.01,-0.01 -0.03,-0.01 -0.04,-0.01 -0.01,-0.01 -0.02,-0.01 -0.03,-0.02 -0.01,0 -0.02,0 -0.04,-0.01 -0.01,0 -0.02,-0.01 -0.03,-0.01 -0.01,0 -0.02,-0.01 -0.03,-0.01 -0.02,-0.01 -0.03,-0.01 -0.04,-0.01 -0.01,-0.01 -0.02,-0.01 -0.03,-0.01 -0.01,-0.01 -0.02,-0.01 -0.04,-0.01 -0.01,0 -0.02,-0.01 -0.03,-0.01l-0.04 -0.01c-0.01,0 -0.02,0 -0.03,-0.01 -0.01,0 -0.02,0 -0.03,-0.01l-0.04 0c-0.01,-0.01 -0.02,-0.01 -0.03,-0.01 -0.01,0 -0.02,0 -0.04,-0.01l-0.03 0c-0.01,0 -0.02,-0.01 -0.03,-0.01l-0.04 0 -0.03 -0.01 -0.04 0 -0.03 -0.01 -0.04 0 -0.03 0 -0.03 -0.01 -0.04 0 -0.03 0 -0.04 0 -0.01 0 -0.02 -0.01 -0.03 0 -0.04 0 -0.03 0 -0.04 0 -0.03 0 -0.03 -0.01 -0.04 0 -0.03 0 -0.04 0 -0.02 0 -0.01 0 -0.04 0 -0.03 0 -0.03 0 -0.04 0 -0.03 0 -0.04 0 -0.03 0 -0.03 0 -0.04 0 -0.03 0 -0.04 0 -0.03 0 -0.03 0 -0.04 0 -0.03 0 -0.04 0 -0.03 0 -0.04 0 -0.03 0 -0.03 0 -0.04 0 -0.03 0 -0.04 0 -0.03 0 -0.03 0 -0.04 0 -0.03 0 -0.04 0 -0.03 0 -0.03 0 -0.04 0 -0.03 0 -0.04 0 -0.03 0 -0.04 0 -0.03 0 -0.03 0 -0.04 0 -0.03 0 -0.04 0 -0.03 0 -0.03 0 -0.04 0 -0.03 0 -0.04 0 -0.03 0 -0.03 0 -0.04 0 -0.03 0 -0.04 0 -0.03 0 -0.04 0 -0.03 0 -0.03 0 -0.04 0 -0.03 0 -0.04 0 -0.03 0 -0.03 0 -0.04 0 -0.03 0 -0.04 0 -0.03 0 -0.04 0 -0.03 0 -0.03 0 -0.04 0 -0.03 0 -0.04 0 -0.03 0 -0.03 0 -0.04 0 -0.03 0 -0.04 0 -0.03 0 -0.04 0 -0.03 0 -0.03 0 -0.04 0 -0.03 0 -0.04 0 -0.03 0 -0.03 0 -0.04 0 -0.03 0 -0.04 0 -0.03 0 -0.04 0 -0.03 0 -0.03 0 -0.04 0 -0.03 0 -0.04 0 -0.03 0 -0.03 0 -0.04 0 -0.03 0 -0.04 0 -0.03 0 -0.03 0 -0.04 0 -0.03 0 -0.04 0 -0.03 0 -0.04 0 -0.03 0 -0.03 0 -0.04 0 -0.03 0 -0.04 0 -0.03 0 -0.03 0 -0.04 0 -0.03 0 -0.04 0 -0.03 0 -0.04 0 -0.03 0 -0.03 0 -0.04 0 -0.03 0 -0.04 0 -0.03 0 -0.03 0 -0.04 0 -0.03 0 -0.04 0 -0.03 0 -0.04 0 -0.03 0 -0.03 0 -0.04 0 -0.03 0 -0.04 0 -0.03 0 -0.03 0 -0.04 0 -0.03 0 -0.04 0 -0.03 0 -0.03 0 -0.04 0 -0.03 0 -0.04 0 -0.07 0 0 -3.67c0,-0.24 0.02,-0.49 0.07,-0.72 0.01,-0.05 0.02,-0.1 0.04,-0.15 0.01,-0.04 0.02,-0.08 0.03,-0.12 0.01,-0.04 0.02,-0.07 0.04,-0.11 0.01,-0.03 0.02,-0.07 0.03,-0.1 0.01,-0.03 0.02,-0.06 0.03,-0.09 0.02,-0.03 0.03,-0.06 0.04,-0.08 0.01,-0.03 0.02,-0.06 0.03,-0.08 0.01,-0.03 0.02,-0.05 0.04,-0.08 0.01,-0.02 0.02,-0.04 0.03,-0.06 0.01,-0.03 0.02,-0.05 0.03,-0.07 0.02,-0.02 0.03,-0.04 0.04,-0.06 0.01,-0.02 0.02,-0.04 0.03,-0.06 0.01,-0.02 0.03,-0.04 0.04,-0.06 0.01,-0.02 0.02,-0.03 0.03,-0.05 0.01,-0.02 0.02,-0.04 0.03,-0.06 0.02,-0.01 0.03,-0.03 0.04,-0.05 0.01,-0.01 0.02,-0.03 0.03,-0.04 0.02,-0.02 0.03,-0.04 0.04,-0.05 0.01,-0.02 0.02,-0.03 0.03,-0.05 0.01,-0.01 0.02,-0.03 0.04,-0.04 0.01,-0.02 0.02,-0.03 0.03,-0.04 0.01,-0.02 0.02,-0.03 0.03,-0.05 0.02,-0.01 0.03,-0.02 0.04,-0.04 0.01,-0.01 0.02,-0.02 0.03,-0.03 0.01,-0.02 0.03,-0.03 0.04,-0.04 0.01,-0.01 0.02,-0.03 0.03,-0.04 0.01,-0.01 0.02,-0.02 0.03,-0.03 0.02,-0.02 0.03,-0.03 0.04,-0.04 0.01,-0.01 0.02,-0.02 0.03,-0.03 0.01,-0.02 0.03,-0.03 0.04,-0.04 0.01,-0.01 0.02,-0.02 0.03,-0.03 0.01,-0.01 0.02,-0.02 0.04,-0.03 0.01,-0.01 0.02,-0.02 0.03,-0.03 0.01,-0.01 0.02,-0.02 0.03,-0.03 0.02,-0.01 0.03,-0.02 0.04,-0.03 0.01,-0.01 0.02,-0.02 0.03,-0.03 0.01,-0.01 0.03,-0.02 0.04,-0.02l0.03 -0.03 0.03 -0.03c0.02,-0.01 0.03,-0.02 0.04,-0.02 0.01,-0.01 0.02,-0.02 0.03,-0.03l0.04 -0.02c0.01,-0.01 0.02,-0.02 0.03,-0.03l0.04 -0.02 0.03 -0.02c0.01,-0.01 0.02,-0.02 0.03,-0.02l0.04 -0.03c0.01,0 0.02,-0.01 0.03,-0.02 0.01,0 0.02,-0.01 0.04,-0.02 0.01,0 0.02,-0.01 0.03,-0.02 0.01,0 0.02,-0.01 0.03,-0.02 0.02,0 0.03,-0.01 0.04,-0.01 0.01,-0.01 0.02,-0.02 0.03,-0.02 0.01,-0.01 0.03,-0.01 0.04,-0.02 0.01,-0.01 0.02,-0.01 0.03,-0.02 0.01,0 0.02,-0.01 0.03,-0.01l0.04 -0.02c0.01,-0.01 0.02,-0.01 0.03,-0.02 0.01,0 0.03,-0.01 0.04,-0.01 0.01,-0.01 0.02,-0.01 0.03,-0.02 0.01,0 0.02,-0.01 0.04,-0.01 0.01,-0.01 0.02,-0.01 0.03,-0.02 0.01,0 0.02,-0.01 0.03,-0.01l0.04 -0.01 0.03 -0.02c0.01,0 0.03,-0.01 0.04,-0.01 0.01,0 0.02,-0.01 0.03,-0.01 0.01,-0.01 0.02,-0.01 0.03,-0.01 0.02,-0.01 0.03,-0.01 0.04,-0.01l0.03 -0.02c0.01,0 0.03,0 0.04,-0.01 0.01,0 0.02,0 0.03,-0.01 0.01,0 0.02,0 0.04,-0.01 0.01,0 0.02,0 0.03,-0.01 0.01,0 0.02,0 0.03,0l0.04 -0.01c0.01,-0.01 0.02,-0.01 0.03,-0.01 0.01,-0.01 0.02,-0.01 0.04,-0.01 0.01,0 0.02,-0.01 0.03,-0.01l0.03 -0.01 0.04 0c0.01,0 0.02,-0.01 0.03,-0.01 0.01,0 0.03,0 0.04,-0.01 0.01,0 0.02,0 0.03,0l0.04 -0.01c0.01,0 0.02,0 0.03,0 0.01,0 0.02,-0.01 0.03,-0.01 0.01,0 0.03,0 0.04,0 0.01,0 0.02,0 0.03,-0.01l0.04 0c0.01,0 0.02,0 0.03,0 0.01,-0.01 0.02,-0.01 0.03,-0.01l0.04 0 0.03 0c0.01,0 0.02,0 0.04,0 0.01,-0.01 0.02,-0.01 0.03,-0.01 0.01,0 0.02,0 0.04,0l0.03 0c0.01,0 0.02,0 0.03,0 0.01,0 0.03,0 0.04,0 0.01,0 0.02,0 0.03,0l0.01 0 0.03 0 0.03 0 0.03 0 0.04 0 0.03 0 0.04 0 0.03 0 0.03 0 0.04 0 0.03 0 0.04 0 0.03 0 0.04 0 0.03 0 0.03 0 0.04 0 0.03 0 0.04 0 0.03 0 0.03 0 0.04 0 0.03 0 0.04 0 0.03 0 0.03 0 0.04 0 0.03 0 0.04 0 0.03 0 0.04 0 0.03 0 0.03 0 0.04 0 0.03 0 0.04 0 0.03 0 0.03 0 0.04 0 0.03 0 0.04 0 0.03 0 0.03 0 0.04 0 0.03 0 0.04 0 0.03 0 0.04 0 0.03 0 0.03 0 0.04 0 0.03 0 0.04 0 0.03 0 0.03 0 0.04 0 0.03 0 0.04 0 0.03 0 0.03 0 0.04 0 0.03 0 0.04 0 0.03 0 0.04 0 0.03 0 0.03 0 0.04 0 0.03 0 0.04 0 0.03 0 0.03 0 0.04 0 0.03 0 0.04 0 0.03 0 0.04 0 0.03 0 0.03 0 0.04 0 0.03 0 0.04 0 0.03 0 0.03 0 0.04 0 0.03 0 0.04 0 0.03 0 0.04 0 0.03 0 0.03 0 0.04 0 0.03 0 0.04 0 0.03 0 0.03 0 0.04 0 0.03 0 0.04 0 0.03 0 0.04 0 0.03 0 0.03 0 0.04 0 0.03 0 0.04 0 0.03 0 0.03 0 0.04 0 0.03 0 0.04 0 0.03 0 0.03 0 0.04 0 0.03 0 0.04 0 0.03 0 0.04 0 0.03 0 0.03 0 0.04 0 0.03 0 0.04 0 0.03 0 0.03 0 0.04 0 0.03 0 0.04 0 0.03 0 0.04 0 0.03 0 0.03 0 0.04 0 0.03 0 0.04 0 0.03 0 0.03 0 0.04 0 0.03 0 0.04 0 0.03 0 0.04 0 0.03 0 0.03 0 0.04 0 0.03 0 0.04 0 0.03 0 0.03 0 0.04 0 0.03 0 0.04 0 0.03 0 0 0 0 0 0 0 0 0z"/>
   <path id="Shape_0" class="fil2" d="M5.95 14.19c-0.03,-0.01 -0.05,-0.02 -0.07,-0.03l0 -8.73c0,-0.24 0.02,-0.48 0.07,-0.72 0.01,-0.05 0.02,-0.1 0.03,-0.14 0.01,-0.05 0.02,-0.09 0.04,-0.13 0.01,-0.04 0.02,-0.07 0.03,-0.11 0.01,-0.03 0.02,-0.07 0.04,-0.1 0.01,-0.03 0.02,-0.06 0.03,-0.09 0.01,-0.03 0.02,-0.05 0.03,-0.08 0.01,-0.03 0.03,-0.05 0.04,-0.08 0.01,-0.03 0.02,-0.05 0.03,-0.07 0.01,-0.03 0.02,-0.05 0.04,-0.07 0.01,-0.02 0.02,-0.05 0.03,-0.07 0.01,-0.02 0.02,-0.04 0.03,-0.06 0.01,-0.02 0.03,-0.04 0.04,-0.06 0.01,-0.02 0.02,-0.04 0.03,-0.06 0.01,-0.01 0.02,-0.03 0.04,-0.05 0.01,-0.02 0.02,-0.04 0.03,-0.05 0.01,-0.02 0.02,-0.04 0.03,-0.05 0.02,-0.02 0.03,-0.04 0.04,-0.05 0.01,-0.02 0.02,-0.03 0.03,-0.05 0.01,-0.02 0.02,-0.03 0.04,-0.05 0.01,-0.01 0.02,-0.03 0.03,-0.04 0.01,-0.01 0.02,-0.03 0.04,-0.04 0.01,-0.02 0.02,-0.03 0.03,-0.04 0.01,-0.02 0.02,-0.03 0.03,-0.04 0.01,-0.02 0.02,-0.03 0.04,-0.04 0.01,-0.02 0.02,-0.03 0.03,-0.04 0.01,-0.01 0.02,-0.03 0.04,-0.04 0.01,-0.01 0.02,-0.02 0.03,-0.03 0.01,-0.02 0.02,-0.03 0.03,-0.04 0.01,-0.01 0.03,-0.02 0.04,-0.03 0.01,-0.01 0.02,-0.02 0.03,-0.04 0.01,-0.01 0.02,-0.02 0.04,-0.03 0.01,-0.01 0.02,-0.02 0.03,-0.03 0.01,-0.01 0.02,-0.02 0.03,-0.03 0.01,-0.01 0.03,-0.02 0.04,-0.03 0.01,-0.01 0.02,-0.02 0.03,-0.03 0.01,-0.01 0.02,-0.02 0.04,-0.03 0.01,0 0.02,-0.01 0.03,-0.02 0.01,-0.01 0.02,-0.02 0.03,-0.03 0.02,-0.01 0.03,-0.02 0.04,-0.03 0.01,0 0.02,-0.01 0.03,-0.02l0.04 -0.03c0.01,0 0.02,-0.01 0.03,-0.02 0.01,-0.01 0.02,-0.02 0.03,-0.02 0.02,-0.01 0.03,-0.02 0.04,-0.03 0.01,0 0.02,-0.01 0.03,-0.02 0.01,-0.01 0.02,-0.01 0.04,-0.02 0.01,-0.01 0.02,-0.02 0.03,-0.02 0.01,-0.01 0.02,-0.02 0.04,-0.02 0.01,-0.01 0.02,-0.02 0.03,-0.02 0.01,-0.01 0.02,-0.02 0.03,-0.02 0.01,-0.01 0.02,-0.02 0.04,-0.02 0.01,-0.01 0.02,-0.02 0.03,-0.02 0.01,-0.01 0.02,-0.01 0.04,-0.02 0.01,-0.01 0.02,-0.01 0.03,-0.02 0.01,0 0.02,-0.01 0.03,-0.02l0.04 -0.01c0.01,-0.01 0.02,-0.01 0.03,-0.02 0.01,0 0.02,-0.01 0.04,-0.01 0.01,-0.01 0.02,-0.02 0.03,-0.02 0.01,-0.01 0.02,-0.01 0.03,-0.02 0.01,0 0.03,-0.01 0.04,-0.01 0.01,-0.01 0.02,-0.01 0.03,-0.01l0.04 -0.02 0.03 -0.01 0.03 -0.02c0.02,0 0.03,0 0.04,-0.01 0.01,0 0.02,-0.01 0.03,-0.01 0.01,0 0.02,-0.01 0.04,-0.01l0.03 -0.01 0.03 -0.01c0.02,-0.01 0.03,-0.01 0.04,-0.01 0.01,-0.01 0.02,-0.01 0.03,-0.02 0.01,0 0.02,0 0.04,-0.01 0.01,0 0.02,0 0.03,-0.01l0.04 0c0.01,-0.01 0.02,-0.01 0.03,-0.01 0.01,-0.01 0.02,-0.01 0.03,-0.01 0.01,0 0.03,-0.01 0.04,-0.01 0.01,0 0.02,0 0.03,-0.01l0.04 -0.01c0.01,0 0.02,0 0.03,0 0.01,0 0.02,-0.01 0.03,-0.01 0.01,0 0.03,0 0.04,-0.01 0.01,0 0.02,0 0.03,0l0.04 -0.01c0.01,0 0.02,0 0.03,0 0.01,0 0.02,-0.01 0.03,-0.01 0.01,0 0.03,0 0.04,0l0.03 -0.01 0.04 0c0.01,0 0.02,0 0.03,0 0.01,0 0.02,-0.01 0.03,-0.01l0.04 0c0.01,0 0.02,0 0.03,0 0.01,0 0.02,0 0.04,0 0.01,0 0.02,-0.01 0.03,-0.01 0.01,0 0.02,0 0.03,0l0.04 0c0.01,0 0.02,0 0.03,0 0.01,0 0.03,0 0.04,0 0.01,0 0.02,0 0.03,0l0.02 0 0.02 0 0.03 0 0.03 0 0.04 0 0.03 0 0.04 0 0.03 0 0.03 0 0.04 0 0.03 0 0.04 0 0.03 0 0.03 0 0.04 0 0.03 0 0.04 0 0.03 0 0.03 0 0.04 0 0.03 0 0.04 0 0.03 0 0.03 0 0.04 0 0.03 0 0.04 0 0.03 0 0.04 0 0.03 0 0.03 0 0.04 0 0.03 0 0.04 0 0.03 0 0.03 0 0.04 0 0.03 0 0.04 0 0.03 0 0.03 0 0.04 0 0.03 0 0.04 0 0.03 0 0.03 0 0.04 0 0.03 0 0.04 0 0.03 0 0.03 0 0.04 0 0.03 0 0.04 0 0.03 0 0.04 0 0.03 0 0.03 0 0.04 0 0.03 0 0.04 0 0.03 0 0.03 0 0.04 0 0.03 0 0.04 0 0.03 0 0.03 0 0.04 0 0.03 0 0.04 0 0.03 0 0.03 0 0.04 0 0.03 0 0.04 0 0.03 0 0.03 0 0.04 0 0.03 0 0.04 0 0.03 0 0.04 0 0.03 0 0.03 0 0.04 0 0.03 0 0.04 0 0.03 0 0.03 0 0.04 0 0.03 0 0.04 0 0.03 0 0.03 0 0.04 0 0.03 0 0.04 0 0.03 0 0.03 0 0.04 0 0.03 0 0.04 0 0.03 0 0.03 0 0.04 0 0.03 0 0.04 0 0.03 0 0.04 0 0.03 0 0.03 0 0.04 0 0.03 0 0.04 0 0.03 0 0.03 0 0.04 0 0.03 0 0.04 0 0.03 0 0.03 0 0.04 0 0.03 0 0.04 0 0.03 0 0.03 0 0.04 0 0.03 0 0.04 0 0.03 0 0.03 0 0.04 0 0.03 0 0.04 0 0.03 0 0.04 0 0.03 0 0.03 0 0.04 0 0.03 0 0.04 0 0.03 0 0.03 0 0.04 0 0.03 0 0.04 0 0.03 0 0.03 0 0.04 0 0.03 0 0.04 0 0.03 0 0.03 0 0 17.67c0,0.15 -0.01,0.3 -0.03,0.45 -0.01,0.07 -0.02,0.14 -0.03,0.21 -0.01,0.06 -0.03,0.11 -0.04,0.16 -0.01,0.05 -0.02,0.09 -0.03,0.13 -0.01,0.04 -0.02,0.08 -0.04,0.12 -0.01,0.03 -0.02,0.07 -0.03,0.1 -0.01,0.03 -0.02,0.06 -0.03,0.09 -0.01,0.03 -0.03,0.06 -0.04,0.09 -0.01,0.02 -0.02,0.05 -0.03,0.08 -0.01,0.02 -0.02,0.05 -0.04,0.07 -0.01,0.02 -0.02,0.05 -0.03,0.07 -0.01,0.02 -0.02,0.05 -0.03,0.07 -0.02,0.02 -0.03,0.04 -0.04,0.06 -0.01,0.02 -0.02,0.04 -0.03,0.06 -0.01,0.02 -0.02,0.04 -0.04,0.06 -0.01,0.02 -0.02,0.04 -0.03,0.05 -0.01,0.02 -0.02,0.04 -0.03,0.06 -0.02,0.02 -0.03,0.03 -0.04,0.05 -0.01,0.02 -0.02,0.03 -0.03,0.05 -0.01,0.01 -0.03,0.03 -0.04,0.05 -0.01,0.01 -0.02,0.03 -0.03,0.04 -0.01,0.02 -0.02,0.03 -0.04,0.05 -0.01,0.01 -0.02,0.03 -0.03,0.04 -0.01,0.01 -0.02,0.03 -0.03,0.04 -0.01,0.02 -0.03,0.03 -0.04,0.04 -0.01,0.02 -0.02,0.03 -0.03,0.04 -0.01,0.01 -0.02,0.03 -0.04,0.04 -0.01,0.01 -0.02,0.02 -0.03,0.04 -0.01,0.01 -0.02,0.02 -0.03,0.03 -0.01,0.01 -0.03,0.03 -0.04,0.04 -0.01,0.01 -0.02,0.02 -0.03,0.03 -0.01,0.01 -0.02,0.02 -0.04,0.04 -0.01,0.01 -0.02,0.02 -0.03,0.03 -0.01,0.01 -0.02,0.02 -0.03,0.03 -0.01,0.01 -0.03,0.02 -0.04,0.03 -0.01,0.01 -0.02,0.02 -0.03,0.03 -0.01,0.01 -0.03,0.02 -0.04,0.03 -0.01,0.01 -0.02,0.02 -0.03,0.03 -0.01,0.01 -0.02,0.02 -0.03,0.02 -0.02,0.01 -0.03,0.02 -0.04,0.03 -0.01,0.01 -0.02,0.02 -0.03,0.03 -0.01,0.01 -0.03,0.02 -0.04,0.02 -0.01,0.01 -0.02,0.02 -0.03,0.03 -0.01,0.01 -0.02,0.01 -0.03,0.02 -0.02,0.01 -0.03,0.02 -0.04,0.03 -0.01,0.01 -0.02,0.01 -0.03,0.02 -0.01,0.01 -0.03,0.01 -0.04,0.02 -0.01,0.01 -0.02,0.02 -0.03,0.03 -0.01,0 -0.02,0.01 -0.04,0.02 -0.01,0 -0.02,0.01 -0.03,0.02 -0.01,0 -0.02,0.01 -0.03,0.02 -0.01,0.01 -0.03,0.01 -0.04,0.02 -0.01,0 -0.02,0.01 -0.03,0.02 -0.01,0 -0.02,0.01 -0.04,0.02 -0.01,0 -0.02,0.01 -0.03,0.01l-0.03 0.02c-0.01,0.01 -0.03,0.01 -0.04,0.02 -0.01,0.01 -0.02,0.01 -0.03,0.02 -0.01,0 -0.02,0.01 -0.04,0.01 -0.01,0.01 -0.02,0.02 -0.03,0.02 -0.01,0.01 -0.02,0.01 -0.03,0.02 -0.01,0 -0.03,0.01 -0.04,0.01l-0.03 0.02 -0.04 0.01c-0.01,0 -0.02,0.01 -0.03,0.01 -0.01,0.01 -0.02,0.01 -0.03,0.02 -0.02,0 -0.03,0.01 -0.04,0.01 -0.01,0 -0.02,0.01 -0.03,0.01 -0.01,0.01 -0.03,0.01 -0.04,0.02l-0.03 0.01 -0.03 0.01c-0.02,0 -0.03,0.01 -0.04,0.01 -0.01,0.01 -0.02,0.01 -0.03,0.01 -0.01,0.01 -0.03,0.01 -0.04,0.01l-0.03 0.01 -0.04 0.01c-0.01,0.01 -0.02,0.01 -0.03,0.01 -0.01,0 -0.02,0.01 -0.03,0.01 -0.01,0 -0.03,0.01 -0.04,0.01 -0.01,0 -0.02,0 -0.03,0.01l-0.04 0.01 -0.03 0c-0.01,0 -0.02,0.01 -0.03,0.01 -0.01,0 -0.03,0 -0.04,0.01 -0.01,0 -0.02,0 -0.03,0l-0.04 0.01c-0.01,0 -0.02,0 -0.03,0 -0.01,0.01 -0.02,0.01 -0.03,0.01 -0.01,0 -0.03,0 -0.04,0.01l-0.03 0c-0.01,0 -0.03,0 -0.04,0 -0.01,0.01 -0.02,0.01 -0.03,0.01 -0.01,0 -0.02,0 -0.03,0 -0.02,0 -0.03,0 -0.04,0.01l-0.03 0c-0.01,0 -0.03,0 -0.04,0 -0.01,0 -0.02,0 -0.03,0l-0.03 0.01 -0.04 0c-0.01,0 -0.02,0 -0.03,0 -0.01,0 -0.03,0 -0.04,0 -0.01,0 -0.02,0 -0.03,0l-0.04 0c-0.01,0 -0.02,0 -0.03,0l0 0 -0.03 0 -0.04 0 -0.03 0 -0.04 0 -0.03 0 -0.03 0 -0.04 0 -0.03 0 -0.04 0 -0.03 0 -0.03 0 -0.04 0 -0.03 0 -0.04 0 -0.03 0 -0.03 0 -0.04 0 -0.03 0 -0.04 0 -0.03 0 -0.03 0 -0.04 0 -0.03 0 -0.04 0 -0.03 0 -0.04 0 -0.03 0 -0.03 0 -0.04 0 -0.03 0 -0.04 0 -0.03 0 -0.03 0 -0.04 0 -0.03 0 -0.04 0 -0.03 0 -0.03 0 -0.04 0 -0.03 0 -0.04 0 -0.03 0 -0.03 0 -0.04 0 -0.03 0 -0.04 0 -0.03 0 -0.03 0 -0.04 0 -0.03 0 -0.04 0 -0.03 0 -0.04 0 -0.03 0 -0.03 0 -0.04 0 -0.03 0 -0.04 0 -0.03 0 -0.03 0 -0.04 0 -0.03 0 -0.04 0 -0.03 0 -0.03 0 -0.04 0 -0.03 0 -0.04 0 -0.03 0 -0.03 0 -0.04 0 -0.03 0 -0.04 0 -0.03 0 -0.03 0 -0.04 0 -0.03 0 -0.04 0 -0.03 0 -0.04 0 -0.03 0 -0.03 0 -0.04 0 -0.03 0 -0.04 0 -0.03 0 -0.03 0 -0.04 0 -0.03 0 -0.04 0 -0.03 0 -0.03 0 -0.04 0 -0.03 0 -0.04 0 -0.03 0 -0.03 0 -0.04 0 -0.03 0 -0.04 0 -0.03 0 -0.03 0 -0.04 0 -0.03 0 -0.04 0 -0.03 0 -0.04 0 -0.03 0 -0.03 0 -0.04 0 -0.03 0 -0.04 0 -0.03 0 -0.03 0 -0.04 0 -0.03 0 -0.04 0 -0.03 0 -0.03 0 -0.04 0 -0.03 0 -0.04 0 -0.03 0 -0.03 0 -0.04 0 -0.03 0 -0.04 0 -0.03 0 -0.03 0 -0.04 0 -0.03 0 -0.04 0 -0.03 0 -0.04 0 -0.03 0 -0.03 0 -0.04 0 -0.03 0 -0.04 0 -0.03 0 -0.03 0 -0.04 0 -0.03 0 -0.04 0 -0.03 0 -0.03 0 -0.04 0 -0.03 0 -0.04 0 -0.03 0 -0.07 0 0 -7.45c0,0 0.02,0.01 0.07,0.02l0.03 0.01 0.04 0.01 0.03 0.01 0.04 0.01 0.03 0 0.03 0.01 0.04 0.01 0.03 0.01 0.04 0 0.03 0.01 0.03 0.01 0.04 0.01 0.03 0 0.04 0.01 0.03 0.01 0.03 0 0.04 0.01 0.03 0.01 0.04 0 0.03 0.01 0.04 0.01 0.03 0 0.03 0.01 0.04 0.01 0.03 0 0.04 0.01 0.03 0 0.03 0.01 0.04 0.01 0.03 0 0.04 0.01 0.03 0 0.03 0.01 0.04 0 0.03 0.01 0.04 0 0.03 0.01 0.03 0 0.04 0.01 0.03 0 0.04 0.01 0.03 0 0.03 0.01 0.04 0 0.03 0.01 0.04 0 0.03 0.01 0.04 0 0.03 0 0.03 0.01 0.04 0 0.03 0.01 0.04 0 0.03 0 0.03 0.01 0.04 0 0.03 0.01 0.04 0 0.03 0 0.03 0.01 0.04 0 0.03 0 0.04 0.01 0.03 0 0.03 0 0.04 0 0.03 0.01 0.04 0 0.03 0 0.03 0.01 0.04 0 0.03 0 0.04 0 0.03 0.01 0.04 0 0.03 0 0.03 0 0.04 0.01 0.03 0 0.04 0 0.03 0 0.03 0 0.04 0.01 0.03 0 0.04 0 0.03 0 0.03 0 0.04 0 0.03 0 0.04 0 0.03 0.01 0.03 0 0.04 0 0.03 0 0.04 0 0.03 0 0.03 0 0.04 0 0.03 0 0.04 0 0.03 0 0.04 0 0.03 0 0.03 0 0.02 0 0.02 0 0.03 0 0.04 0 0.03 0 0.03 0 0.04 0 0.03 0 0.04 0 0.03 0 0.03 0 0.04 0 0.03 0 0.04 0 0.03 -0.01 0.03 0 0.04 0 0.03 0 0.04 0 0.03 0 0.03 0 0.04 -0.01 0.03 0 0.04 0 0.03 0 0.04 -0.01 0.03 0 0.03 0 0.04 0 0.03 -0.01 0.04 0 0.03 0 0.03 -0.01 0.04 0 0.03 0 0.04 -0.01 0.03 0 0.03 -0.01 0.04 0 0.03 0 0.04 -0.01 0.03 0 0.03 -0.01c0.02,0 0.03,0 0.04,0l0.03 -0.01 0.04 0 0.03 -0.01c0.01,0 0.02,0 0.03,0l0.04 -0.01c0.01,0 0.02,0 0.03,-0.01 0.01,0 0.03,0 0.04,0l0.03 -0.01 0.04 0 0.03 -0.01c0.01,0 0.02,-0.01 0.03,-0.01l0.04 -0.01 0.03 0c0.01,-0.01 0.02,-0.01 0.04,-0.01l0.03 -0.01c0.01,0 0.02,0 0.03,-0.01 0.01,0 0.03,0 0.04,0l0.03 -0.01c0.01,-0.01 0.03,-0.01 0.04,-0.01 0.01,0 0.02,-0.01 0.03,-0.01l0.03 -0.01c0.01,0 0.03,-0.01 0.04,-0.01 0.01,0 0.02,0 0.03,-0.01l0.04 -0.01c0.01,0 0.02,0 0.03,-0.01l0.03 -0.01 0.04 -0.01c0.01,0 0.02,-0.01 0.03,-0.01l0.04 -0.01 0.03 -0.01c0.01,-0.01 0.02,-0.01 0.03,-0.01 0.02,-0.01 0.03,-0.01 0.04,-0.02l0.03 -0.01c0.01,0 0.03,-0.01 0.04,-0.01 0.01,-0.01 0.02,-0.01 0.03,-0.01 0.01,-0.01 0.02,-0.01 0.04,-0.02l0.03 -0.01 0.03 -0.02c0.01,0 0.03,0 0.04,-0.01 0.01,-0.01 0.02,-0.01 0.03,-0.02l0.04 -0.01 0.03 -0.02c0.01,0 0.02,-0.01 0.03,-0.01 0.01,-0.01 0.03,-0.01 0.04,-0.02 0.01,-0.01 0.02,-0.01 0.03,-0.02 0.01,0 0.03,-0.01 0.04,-0.01 0.01,-0.01 0.02,-0.02 0.03,-0.02 0.01,-0.01 0.02,-0.01 0.03,-0.02 0.02,-0.01 0.03,-0.01 0.04,-0.02 0.01,-0.01 0.02,-0.01 0.03,-0.02 0.01,-0.01 0.03,-0.01 0.04,-0.02 0.01,-0.01 0.02,-0.02 0.03,-0.02 0.01,-0.01 0.02,-0.02 0.03,-0.02 0.02,-0.01 0.03,-0.02 0.04,-0.03 0.01,0 0.02,-0.01 0.03,-0.02 0.01,-0.01 0.03,-0.02 0.04,-0.02 0.01,-0.01 0.02,-0.02 0.03,-0.03 0.01,-0.01 0.02,-0.02 0.03,-0.02 0.02,-0.01 0.03,-0.02 0.04,-0.03 0.01,-0.01 0.02,-0.02 0.03,-0.03 0.01,-0.01 0.03,-0.02 0.04,-0.03 0.01,-0.01 0.02,-0.02 0.03,-0.03 0.01,-0.01 0.02,-0.02 0.04,-0.03 0.01,-0.01 0.02,-0.02 0.03,-0.03 0.01,-0.01 0.02,-0.02 0.03,-0.03 0.01,-0.01 0.03,-0.02 0.04,-0.04 0.01,-0.01 0.02,-0.02 0.03,-0.03 0.01,-0.01 0.02,-0.03 0.04,-0.04 0.01,-0.01 0.02,-0.03 0.03,-0.04 0.01,-0.01 0.02,-0.03 0.03,-0.04 0.01,-0.01 0.03,-0.03 0.04,-0.04 0.01,-0.02 0.02,-0.03 0.03,-0.05 0.01,-0.01 0.03,-0.03 0.04,-0.05 0.01,-0.01 0.02,-0.03 0.03,-0.05 0.01,-0.02 0.02,-0.03 0.03,-0.05 0.02,-0.02 0.03,-0.04 0.04,-0.06 0.01,-0.02 0.02,-0.04 0.03,-0.06 0.01,-0.03 0.03,-0.05 0.04,-0.07 0.01,-0.03 0.02,-0.05 0.03,-0.08 0.01,-0.02 0.02,-0.05 0.03,-0.08 0.02,-0.03 0.03,-0.06 0.04,-0.09 0.01,-0.03 0.02,-0.07 0.03,-0.11 0.01,-0.04 0.03,-0.08 0.04,-0.12 0.01,-0.05 0.02,-0.11 0.03,-0.16 0.02,-0.08 0.03,-0.16 0.03,-0.25 0.02,-0.11 0.02,-0.23 0.02,-0.35l0 -4.1 -0.02 0 -0.03 0 -0.03 0 -0.04 0 -0.03 0 -0.04 0 -0.03 0 -0.03 0 -0.04 0 -0.03 0 -0.04 0 -0.03 0 -0.03 0 -0.04 0 -0.03 0 -0.04 0 -0.03 0 -0.03 0 -0.04 0 -0.03 0 -0.04 0 -0.03 0 -0.03 0 -0.04 0 -0.03 0 -0.04 0 -0.03 0 -0.04 0 -0.03 0 -0.03 0 -0.04 0 -0.03 0 -0.04 0 -0.03 0 -0.03 0 -0.04 0 -0.03 0 -0.04 0 -0.03 0 -0.03 0 -0.04 0 -0.03 0 -0.04 0 -0.03 0 -0.03 0 -0.04 0 -0.03 0 -0.04 0 -0.03 0 -0.03 0 -0.04 0 -0.03 0 -0.04 0 -0.03 0 -0.04 0 -0.03 0 -0.03 0 -0.04 0 -0.03 0 -0.04 0 -0.03 0 -0.03 0 -0.04 0 -0.03 0 -0.04 0 -0.03 0 -0.03 0 -0.04 0 -0.03 0 -0.04 0 -0.03 0 -0.03 0 -0.04 0 -0.03 0 -0.04 0 -0.03 0 -0.03 0 -0.04 0 -0.03 0 -0.04 0 -0.03 0 -0.04 0 -0.03 0 -0.03 0 -0.04 0 -0.03 0 -0.04 0 -0.03 0 -0.03 0 -0.03 0 0 4.1c0,0.07 0,0.13 -0.01,0.19 0,0.08 -0.02,0.16 -0.03,0.23 -0.01,0.05 -0.02,0.09 -0.04,0.14 -0.01,0.03 -0.02,0.07 -0.03,0.1 -0.01,0.03 -0.02,0.06 -0.03,0.09 -0.01,0.03 -0.03,0.05 -0.04,0.07 -0.01,0.03 -0.02,0.05 -0.03,0.07 -0.01,0.02 -0.02,0.04 -0.04,0.06 -0.01,0.02 -0.02,0.04 -0.03,0.05 -0.01,0.02 -0.02,0.04 -0.03,0.05 -0.02,0.02 -0.03,0.03 -0.04,0.05 -0.01,0.01 -0.02,0.03 -0.03,0.04 -0.01,0.01 -0.03,0.03 -0.04,0.04 -0.01,0.01 -0.02,0.02 -0.03,0.04 -0.01,0.01 -0.02,0.02 -0.03,0.03 -0.02,0.01 -0.03,0.02 -0.04,0.03 -0.01,0.01 -0.02,0.02 -0.03,0.03 -0.01,0.01 -0.03,0.02 -0.04,0.03 -0.01,0.01 -0.02,0.02 -0.03,0.03 -0.01,0.01 -0.02,0.02 -0.04,0.03 -0.01,0 -0.02,0.01 -0.03,0.02 -0.01,0.01 -0.02,0.01 -0.03,0.02 -0.01,0.01 -0.03,0.02 -0.04,0.02 -0.01,0.01 -0.02,0.02 -0.03,0.02 -0.01,0.01 -0.02,0.02 -0.04,0.02 -0.01,0.01 -0.02,0.02 -0.03,0.02 -0.01,0.01 -0.02,0.01 -0.03,0.02 -0.02,0.01 -0.03,0.01 -0.04,0.02 -0.01,0 -0.02,0.01 -0.03,0.01 -0.01,0.01 -0.02,0.01 -0.04,0.02 -0.01,0 -0.02,0.01 -0.03,0.01 -0.01,0 -0.02,0.01 -0.03,0.01 -0.02,0.01 -0.03,0.01 -0.04,0.02 -0.01,0 -0.02,0 -0.03,0.01 -0.01,0 -0.03,0.01 -0.04,0.01 -0.01,0 -0.02,0.01 -0.03,0.01 -0.01,0 -0.02,0.01 -0.03,0.01 -0.02,0 -0.03,0.01 -0.04,0.01 -0.01,0 -0.02,0 -0.03,0.01 -0.01,0 -0.03,0 -0.04,0 -0.01,0.01 -0.02,0.01 -0.03,0.01 -0.01,0 -0.02,0.01 -0.03,0.01 -0.02,0 -0.03,0 -0.04,0.01 -0.01,0 -0.02,0 -0.03,0l-0.04 0.01c-0.01,0 -0.02,0 -0.03,0 -0.01,0 -0.02,0 -0.04,0l-0.03 0.01c-0.01,0 -0.02,0 -0.03,0 -0.02,0 -0.03,0 -0.04,0 -0.01,0.01 -0.02,0.01 -0.03,0.01 -0.01,0 -0.02,0 -0.04,0 -0.01,0 -0.02,0 -0.03,0 -0.01,0 -0.02,0 -0.03,0l-0.04 0c-0.01,0 -0.02,0 -0.03,0l-0.01 0 -0.03 0 -0.03 0 -0.03 0 -0.04 0 -0.03 0 -0.04 0 -0.03 0 -0.03 0 -0.04 -0.01 -0.03 0 -0.04 0 -0.03 0 -0.03 0 -0.04 -0.01 -0.03 0 -0.04 0 -0.03 -0.01 -0.04 0 -0.03 0 -0.03 -0.01 -0.04 0 -0.03 -0.01 -0.04 0 -0.03 -0.01 -0.03 0 -0.04 -0.01 -0.03 0 -0.04 -0.01 -0.03 -0.01 -0.03 0 -0.04 -0.01 -0.03 0 -0.04 -0.01 -0.03 -0.01 -0.03 0 -0.04 -0.01 -0.03 -0.01 -0.04 -0.01 -0.03 -0.01 -0.03 0 -0.04 -0.01 -0.03 -0.01 -0.04 -0.01 -0.03 -0.01 -0.04 -0.01 -0.03 -0.01 -0.03 0 -0.04 -0.01 -0.03 -0.01 -0.04 -0.01 -0.03 -0.01 -0.03 -0.01 -0.04 -0.02 -0.03 -0.01 -0.04 -0.01 -0.03 -0.01 -0.03 -0.01 -0.04 -0.01 -0.03 -0.01 -0.04 -0.01 -0.03 -0.01 -0.03 -0.02 -0.04 -0.01 -0.03 -0.01 -0.04 -0.01 -0.03 -0.02 -0.03 -0.01 -0.04 -0.01 -0.03 -0.02 -0.04 -0.01 -0.03 -0.01 -0.04 -0.02 -0.03 -0.01 -0.03 -0.01 -0.04 -0.02 -0.03 -0.01 -0.04 -0.02 -0.03 -0.01 -0.03 -0.02 -0.04 -0.01 -0.03 -0.02 -0.04 -0.01 -0.03 -0.02 -0.03 -0.01 -0.04 -0.02 -0.03 -0.01 -0.04 -0.02 -0.03 -0.02 0 0 0 0 0 0 0 0z"/>
   <path id="Shape_1" class="fil3" d="M15.85 10c-0.02,0.02 -0.05,0.04 -0.07,0.06l0 -4.63c0,-0.24 0.02,-0.48 0.07,-0.72 0.01,-0.05 0.02,-0.1 0.04,-0.14 0.01,-0.05 0.02,-0.09 0.03,-0.13 0.01,-0.04 0.02,-0.07 0.03,-0.11 0.02,-0.03 0.03,-0.06 0.04,-0.1 0.01,-0.03 0.02,-0.06 0.03,-0.09 0.01,-0.03 0.02,-0.05 0.04,-0.08 0.01,-0.03 0.02,-0.05 0.03,-0.08 0.01,-0.02 0.02,-0.05 0.03,-0.07 0.02,-0.03 0.03,-0.05 0.04,-0.07 0.01,-0.02 0.02,-0.05 0.03,-0.07 0.01,-0.02 0.03,-0.04 0.04,-0.06 0.01,-0.02 0.02,-0.04 0.03,-0.06 0.01,-0.02 0.02,-0.04 0.03,-0.06 0.02,-0.01 0.03,-0.03 0.04,-0.05 0.01,-0.02 0.02,-0.04 0.03,-0.05 0.02,-0.02 0.03,-0.04 0.04,-0.05 0.01,-0.02 0.02,-0.04 0.03,-0.05 0.01,-0.02 0.02,-0.03 0.04,-0.05 0.01,-0.02 0.02,-0.03 0.03,-0.05 0.01,-0.01 0.02,-0.03 0.03,-0.04 0.02,-0.01 0.03,-0.03 0.04,-0.04 0.01,-0.02 0.02,-0.03 0.03,-0.04 0.01,-0.02 0.02,-0.03 0.04,-0.04 0.01,-0.02 0.02,-0.03 0.03,-0.04 0.01,-0.02 0.02,-0.03 0.03,-0.04 0.02,-0.01 0.03,-0.03 0.04,-0.04 0.01,-0.01 0.02,-0.02 0.03,-0.03 0.01,-0.01 0.02,-0.03 0.04,-0.04 0.01,-0.01 0.02,-0.02 0.03,-0.03 0.01,-0.01 0.02,-0.02 0.03,-0.04 0.02,-0.01 0.03,-0.02 0.04,-0.03 0.01,-0.01 0.02,-0.02 0.03,-0.03 0.01,-0.01 0.03,-0.02 0.04,-0.03 0.01,-0.01 0.02,-0.02 0.03,-0.03 0.01,-0.01 0.02,-0.02 0.03,-0.03 0.02,-0.01 0.03,-0.02 0.04,-0.02 0.01,-0.01 0.02,-0.02 0.03,-0.03 0.01,-0.01 0.03,-0.02 0.04,-0.03 0.01,-0.01 0.02,-0.02 0.03,-0.02 0.01,-0.01 0.02,-0.02 0.03,-0.03 0.02,-0.01 0.03,-0.02 0.04,-0.03 0.01,0 0.02,-0.01 0.03,-0.02 0.02,-0.01 0.03,-0.02 0.04,-0.02 0.01,-0.01 0.02,-0.02 0.03,-0.03 0.01,0 0.02,-0.01 0.04,-0.02 0.01,-0.01 0.02,-0.01 0.03,-0.02 0.01,-0.01 0.02,-0.02 0.03,-0.02 0.02,-0.01 0.03,-0.02 0.04,-0.02 0.01,-0.01 0.02,-0.02 0.03,-0.02 0.01,-0.01 0.02,-0.02 0.04,-0.02 0.01,-0.01 0.02,-0.02 0.03,-0.02 0.01,-0.01 0.02,-0.02 0.03,-0.02 0.02,-0.01 0.03,-0.01 0.04,-0.02 0.01,-0.01 0.02,-0.01 0.03,-0.02l0.04 -0.02 0.03 -0.01c0.01,-0.01 0.02,-0.01 0.03,-0.02 0.02,0 0.03,-0.01 0.04,-0.01 0.01,-0.01 0.02,-0.02 0.03,-0.02 0.01,-0.01 0.03,-0.01 0.04,-0.02 0.01,0 0.02,-0.01 0.03,-0.01 0.01,-0.01 0.02,-0.01 0.03,-0.01l0.04 -0.02c0.01,0 0.02,-0.01 0.03,-0.01 0.01,-0.01 0.03,-0.01 0.04,-0.02 0.01,0 0.02,0 0.03,-0.01 0.01,0 0.02,-0.01 0.04,-0.01 0.01,0 0.02,-0.01 0.03,-0.01 0.01,-0.01 0.02,-0.01 0.03,-0.01l0.04 -0.01c0.01,-0.01 0.02,-0.01 0.03,-0.01 0.01,-0.01 0.02,-0.01 0.04,-0.02 0.01,0 0.02,0 0.03,-0.01 0.01,0 0.02,0 0.03,-0.01l0.04 0c0.01,-0.01 0.02,-0.01 0.03,-0.01 0.01,-0.01 0.02,-0.01 0.04,-0.01 0.01,0 0.02,-0.01 0.03,-0.01 0.01,0 0.02,0 0.03,-0.01l0.04 -0.01c0.01,0 0.02,0 0.03,0 0.01,0 0.03,-0.01 0.04,-0.01 0.01,0 0.02,0 0.03,-0.01l0.03 0 0.04 -0.01c0.01,0 0.02,0 0.03,0 0.01,0 0.03,-0.01 0.04,-0.01 0.01,0 0.02,0 0.03,0l0.04 -0.01 0.03 0c0.01,0 0.02,0 0.03,0 0.02,0 0.03,-0.01 0.04,-0.01l0.03 0c0.01,0 0.02,0 0.04,0 0.01,0 0.02,0 0.03,0 0.01,0 0.02,-0.01 0.03,-0.01 0.02,0 0.03,0 0.04,0l0.03 0c0.01,0 0.02,0 0.04,0 0.01,0 0.02,0 0.03,0 0.01,0 0.02,0 0.03,0l0.02 0 0.02 0 0.03 0 0.04 0 0.03 0 0.03 0 0.04 0 0.03 0 0.04 0 0.03 0 0.04 0 0.03 0 0.03 0 0.04 0 0.03 0 0.04 0 0.03 0 0.03 0 0.04 0 0.03 0 0.04 0 0.03 0 0.03 0 0.04 0 0.03 0 0.04 0 0.03 0 0.03 0 0.04 0 0.03 0 0.04 0 0.03 0 0.04 0 0.03 0 0.03 0 0.04 0 0.03 0 0.04 0 0.03 0 0.03 0 0.04 0 0.03 0 0.04 0 0.03 0 0.03 0 0.04 0 0.03 0 0.04 0 0.03 0 0.03 0 0.04 0 0.03 0 0.04 0 0.03 0 0.04 0 0.03 0 0.03 0 0.04 0 0.03 0 0.04 0 0.03 0 0.03 0 0.04 0 0.03 0 0.04 0 0.03 0 0.03 0 0.04 0 0.03 0 0.04 0 0.03 0 0.03 0 0.04 0 0.03 0 0.04 0 0.03 0 0.03 0 0.04 0 0.03 0 0.04 0 0.03 0 0.04 0 0.03 0 0.03 0 0.04 0 0.03 0 0.04 0 0.03 0 0.03 0 0.04 0 0.03 0 0.04 0 0.03 0 0.03 0 0.04 0 0.03 0 0.04 0 0.03 0 0.03 0 0.04 0 0.03 0 0.04 0 0.03 0 0.04 0 0.03 0 0.03 0 0.04 0 0.03 0 0.04 0 0.03 0 0.03 0 0.04 0 0.03 0 0.04 0 0.03 0 0.03 0 0.04 0 0.03 0 0.04 0 0.03 0 0.03 0 0.04 0 0.03 0 0.04 0 0.03 0 0.03 0 0.04 0 0.03 0 0.04 0 0.03 0 0.04 0 0.03 0 0.03 0 0.04 0 0.03 0 0.04 0 0.03 0 0.03 0 0.04 0 0.03 0 0.04 0 0.03 0 0.03 0 0.04 0 0.03 0 0.04 0 0.03 0 0.03 0 0.04 0 0.03 0 0.04 0 0.03 0 0.03 0 0.03 0 0 17.67c0,0.15 -0.01,0.3 -0.03,0.45 0,0.07 -0.02,0.14 -0.03,0.21 -0.01,0.06 -0.02,0.11 -0.03,0.16 -0.01,0.05 -0.03,0.09 -0.04,0.13 -0.01,0.04 -0.02,0.08 -0.03,0.12 -0.01,0.03 -0.02,0.07 -0.04,0.1 -0.01,0.03 -0.02,0.06 -0.03,0.09 -0.01,0.03 -0.02,0.06 -0.03,0.09 -0.02,0.02 -0.03,0.05 -0.04,0.08 -0.01,0.02 -0.02,0.05 -0.03,0.07 -0.01,0.02 -0.02,0.05 -0.04,0.07 -0.01,0.02 -0.02,0.05 -0.03,0.07 -0.01,0.02 -0.02,0.04 -0.03,0.06 -0.02,0.02 -0.03,0.04 -0.04,0.06 -0.01,0.02 -0.02,0.04 -0.03,0.06 -0.01,0.02 -0.03,0.04 -0.04,0.05 -0.01,0.02 -0.02,0.04 -0.03,0.06 -0.01,0.02 -0.02,0.03 -0.03,0.05 -0.02,0.02 -0.03,0.03 -0.04,0.05 -0.01,0.01 -0.02,0.03 -0.03,0.05 -0.01,0.01 -0.03,0.03 -0.04,0.04 -0.01,0.02 -0.02,0.03 -0.03,0.05 -0.01,0.01 -0.02,0.03 -0.03,0.04 -0.02,0.01 -0.03,0.03 -0.04,0.04 -0.01,0.02 -0.02,0.03 -0.03,0.04 -0.02,0.01 -0.03,0.03 -0.04,0.04 -0.01,0.01 -0.02,0.03 -0.03,0.04 -0.01,0.01 -0.02,0.02 -0.04,0.04 -0.01,0.01 -0.02,0.02 -0.03,0.03 -0.01,0.01 -0.02,0.03 -0.03,0.04 -0.02,0.01 -0.03,0.02 -0.04,0.03 -0.01,0.01 -0.02,0.02 -0.03,0.03 -0.01,0.02 -0.02,0.03 -0.04,0.04 -0.01,0.01 -0.02,0.02 -0.03,0.03 -0.01,0.01 -0.02,0.02 -0.03,0.03 -0.02,0.01 -0.03,0.02 -0.04,0.03 -0.01,0.01 -0.02,0.02 -0.03,0.03 -0.01,0.01 -0.03,0.02 -0.04,0.03 -0.01,0.01 -0.02,0.02 -0.03,0.02 -0.01,0.01 -0.02,0.02 -0.03,0.03 -0.02,0.01 -0.03,0.02 -0.04,0.03 -0.01,0.01 -0.02,0.02 -0.03,0.02 -0.01,0.01 -0.03,0.02 -0.04,0.03 -0.01,0.01 -0.02,0.01 -0.03,0.02 -0.01,0.01 -0.02,0.02 -0.03,0.03 -0.02,0 -0.03,0.01 -0.04,0.02 -0.01,0.01 -0.02,0.01 -0.03,0.02 -0.02,0.01 -0.03,0.02 -0.04,0.03 -0.01,0 -0.02,0.01 -0.03,0.02 -0.01,0 -0.02,0.01 -0.03,0.02 -0.02,0 -0.03,0.01 -0.04,0.02 -0.01,0 -0.02,0.01 -0.03,0.02 -0.02,0 -0.03,0.01 -0.04,0.02l-0.03 0.02 -0.04 0.01 -0.03 0.02c-0.01,0.01 -0.02,0.01 -0.03,0.02 -0.02,0.01 -0.03,0.01 -0.04,0.02 -0.01,0 -0.02,0.01 -0.03,0.01 -0.01,0.01 -0.02,0.02 -0.04,0.02 -0.01,0.01 -0.02,0.01 -0.03,0.02 -0.01,0 -0.02,0.01 -0.03,0.01l-0.04 0.02 -0.03 0.01 -0.04 0.01c-0.01,0.01 -0.02,0.01 -0.03,0.02 -0.01,0 -0.02,0.01 -0.03,0.01 -0.02,0 -0.03,0.01 -0.04,0.01 -0.01,0.01 -0.02,0.01 -0.03,0.02l-0.04 0.01 -0.03 0.01c-0.01,0 -0.02,0.01 -0.03,0.01 -0.02,0.01 -0.03,0.01 -0.04,0.01 -0.01,0.01 -0.02,0.01 -0.03,0.01l-0.04 0.01 -0.03 0.01c-0.01,0.01 -0.02,0.01 -0.04,0.01 -0.01,0 -0.02,0.01 -0.03,0.01 -0.01,0 -0.02,0.01 -0.03,0.01 -0.02,0 -0.03,0 -0.04,0.01l-0.03 0.01 -0.04 0c-0.01,0 -0.02,0.01 -0.03,0.01 -0.01,0 -0.02,0 -0.03,0.01l-0.04 0 -0.03 0.01c-0.01,0 -0.02,0 -0.04,0 -0.01,0.01 -0.02,0.01 -0.03,0.01 -0.01,0 -0.02,0 -0.03,0.01l-0.04 0c-0.01,0 -0.02,0 -0.03,0 -0.01,0.01 -0.03,0.01 -0.04,0.01 -0.01,0 -0.02,0 -0.03,0 -0.01,0 -0.02,0 -0.03,0.01l-0.04 0c-0.01,0 -0.02,0 -0.03,0 -0.01,0 -0.03,0 -0.04,0l-0.03 0.01 -0.03 0c-0.02,0 -0.03,0 -0.04,0 -0.01,0 -0.02,0 -0.03,0 -0.02,0 -0.03,0 -0.04,0l-0.03 0c-0.01,0 -0.02,0 -0.03,0l-0.01 0 -0.03 0 -0.03 0 -0.04 0 -0.03 0 -0.04 0 -0.03 0 -0.03 0 -0.04 0 -0.03 0 -0.04 0 -0.03 0 -0.03 0 -0.04 0 -0.03 0 -0.04 0 -0.03 0 -0.03 0 -0.04 0 -0.03 0 -0.04 0 -0.03 0 -0.04 0 -0.03 0 -0.03 0 -0.04 0 -0.03 0 -0.04 0 -0.03 0 -0.03 0 -0.04 0 -0.03 0 -0.04 0 -0.03 0 -0.03 0 -0.04 0 -0.03 0 -0.04 0 -0.03 0 -0.03 0 -0.04 0 -0.03 0 -0.04 0 -0.03 0 -0.04 0 -0.03 0 -0.03 0 -0.04 0 -0.03 0 -0.04 0 -0.03 0 -0.03 0 -0.04 0 -0.03 0 -0.04 0 -0.03 0 -0.03 0 -0.04 0 -0.03 0 -0.04 0 -0.03 0 -0.03 0 -0.04 0 -0.03 0 -0.04 0 -0.03 0 -0.04 0 -0.03 0 -0.03 0 -0.04 0 -0.03 0 -0.04 0 -0.03 0 -0.03 0 -0.04 0 -0.03 0 -0.04 0 -0.03 0 -0.03 0 -0.04 0 -0.03 0 -0.04 0 -0.03 0 -0.03 0 -0.04 0 -0.03 0 -0.04 0 -0.03 0 -0.04 0 -0.03 0 -0.03 0 -0.04 0 -0.03 0 -0.04 0 -0.03 0 -0.03 0 -0.04 0 -0.03 0 -0.04 0 -0.03 0 -0.03 0 -0.04 0 -0.03 0 -0.04 0 -0.03 0 -0.03 0 -0.04 0 -0.03 0 -0.04 0 -0.03 0 -0.04 0 -0.03 0 -0.03 0 -0.04 0 -0.03 0 -0.04 0 -0.03 0 -0.03 0 -0.04 0 -0.03 0 -0.04 0 -0.03 0 -0.03 0 -0.04 0 -0.03 0 -0.04 0 -0.03 0 -0.03 0 -0.04 0 -0.03 0 -0.04 0 -0.03 0 -0.03 0 -0.04 0 -0.03 0 -0.04 0 -0.03 0 -0.04 0 -0.03 0 -0.03 0 -0.04 0 -0.03 0 -0.04 0 -0.03 0 -0.03 0 -0.04 0 -0.03 0 -0.04 0 -0.03 0 -0.03 0 -0.04 0 -0.07 0 0 -8.16c0.02,0.02 0.05,0.04 0.07,0.06 0.01,0.01 0.02,0.02 0.04,0.03 0.01,0.01 0.02,0.02 0.03,0.03 0.01,0.01 0.02,0.01 0.03,0.02 0.02,0.01 0.03,0.02 0.04,0.03 0.01,0.01 0.02,0.01 0.03,0.02 0.01,0.01 0.03,0.02 0.04,0.03l0.03 0.02c0.01,0.01 0.02,0.01 0.03,0.02l0.04 0.02c0.01,0.01 0.02,0.02 0.03,0.03 0.01,0 0.03,0.01 0.04,0.02l0.03 0.02c0.01,0 0.02,0.01 0.03,0.02 0.02,0 0.03,0.01 0.04,0.02l0.03 0.02 0.04 0.02 0.03 0.01c0.01,0.01 0.02,0.02 0.04,0.02 0.01,0.01 0.02,0.01 0.03,0.02l0.03 0.02 0.04 0.01 0.03 0.02c0.01,0.01 0.02,0.01 0.04,0.02l0.03 0.01 0.03 0.02 0.04 0.01 0.03 0.02 0.04 0.01 0.03 0.02 0.03 0.01 0.04 0.02 0.03 0.01 0.04 0.01c0.01,0.01 0.02,0.01 0.03,0.01l0.03 0.02c0.02,0 0.03,0 0.04,0.01 0.01,0 0.02,0.01 0.03,0.01l0.04 0.01 0.03 0.01c0.01,0.01 0.02,0.01 0.03,0.01 0.02,0.01 0.03,0.01 0.04,0.02l0.03 0.01 0.04 0.01 0.03 0.01 0.04 0.01 0.03 0.01 0.03 0.01 0.04 0.01 0.03 0.01 0.04 0.01 0.03 0 0.03 0.01 0.04 0.01 0.03 0.01 0.04 0.01 0.03 0.01 0.03 0 0.04 0.01 0.03 0.01 0.04 0.01 0.03 0 0.03 0.01 0.04 0.01 0.03 0 0.04 0.01 0.03 0.01 0.04 0 0.03 0.01 0.03 0 0.04 0.01 0.03 0.01 0.04 0 0.03 0.01 0.03 0 0.04 0.01 0.03 0 0.04 0.01 0.03 0 0.03 0 0.04 0.01 0.03 0 0.04 0.01 0.03 0 0.03 0.01 0.04 0 0.03 0 0.04 0.01 0.03 0 0.04 0 0.03 0.01 0.03 0 0.04 0 0.03 0.01 0.04 0 0.03 0 0.03 0 0.04 0 0.03 0.01 0.04 0 0.03 0 0.03 0 0.04 0.01 0.03 0 0.04 0 0.03 0 0.03 0 0.04 0 0.03 0 0.04 0.01 0.03 0 0.04 0 0.03 0 0.03 0 0.04 0 0.03 0 0.04 0 0.03 0 0.03 0 0.04 0 0.03 0 0.04 0 0.03 0 0.03 0 0.04 0 0.03 0 0.04 0 0.03 0 0.03 0 0.04 0 0.03 0 0.04 0 0.03 0 0.04 0 0.03 0 0.03 0 0.04 0 0.03 0 0.04 -0.01 0.03 0 0.03 0 0.04 0 0.03 0 0.04 0 0.01 0 0.02 0 0.03 -0.01 0.04 0 0.03 0 0.04 0 0.03 0 0.03 -0.01 0.04 0 0.03 0 0.04 0 0.03 -0.01 0.04 0 0.03 0 0.03 0 0.04 -0.01 0.03 0 0.04 0 0.03 -0.01 0.03 0 0.04 0 0.03 -0.01 0.04 0 0.03 -0.01 0.03 0 0.04 0 0.03 -0.01 0.04 0 0.03 -0.01 0.03 0 0.04 0 0.03 -0.01 0.04 0 0.03 -0.01 0.03 0 0.04 -0.01 0.03 0 0.04 -0.01 0.03 0 0.04 -0.01 0.03 0 0.03 -0.01 0.04 0 0.03 -0.01 0.04 -0.01 0.03 0 0.03 -0.01 0.04 0 0.03 -0.01 0.04 0 0.03 -0.01 0.03 -0.01 0.04 0 0.03 -0.01 0.04 0 0.03 -0.01 0.03 -0.01 0.04 0 0.03 -0.01 0.04 -0.01 0.03 0 0.04 -0.01 0.03 -0.01 0.03 0 0.04 -0.01 0.03 -0.01 0.04 0 0.03 -0.01 0.03 -0.01 0.04 0 0.03 -0.01 0.04 -0.01 0.03 -0.01 0.03 0 0.04 -0.01 0.03 -0.01 0.04 -0.01 0.03 -0.01 0.03 0 0.04 -0.01 0.03 -0.01 0.04 -0.01 0.03 -0.01 0 -1.49 -0.03 0.02 -0.04 0.01 -0.03 0.02 -0.04 0.02 -0.03 0.01 -0.03 0.02 -0.04 0.02 -0.03 0.01 -0.04 0.02 -0.03 0.01 -0.03 0.02 -0.04 0.01 -0.03 0.02 -0.04 0.01 -0.03 0.02 -0.03 0.01 -0.04 0.02 -0.03 0.01 -0.04 0.01 -0.03 0.02 -0.03 0.01 -0.04 0.01 -0.03 0.02 -0.04 0.01 -0.03 0.01 -0.04 0.02 -0.03 0.01 -0.03 0.01 -0.04 0.01 -0.03 0.02 -0.04 0.01 -0.03 0.01 -0.03 0.01 -0.04 0.01 -0.03 0.01 -0.04 0.01 -0.03 0.01 -0.03 0.01 -0.04 0.01 -0.03 0.01 -0.04 0.01 -0.03 0.01 -0.03 0.01 -0.04 0.01 -0.03 0.01 -0.04 0.01 -0.03 0.01 -0.04 0 -0.03 0.01 -0.03 0.01 -0.04 0.01 -0.03 0.01 -0.04 0 -0.03 0.01 -0.03 0.01 -0.04 0 -0.03 0.01 -0.04 0.01 -0.03 0 -0.03 0.01 -0.04 0.01 -0.03 0 -0.04 0.01 -0.03 0 -0.03 0.01 -0.04 0 -0.03 0.01 -0.04 0 -0.03 0.01 -0.03 0 -0.04 0.01 -0.03 0 -0.04 0 -0.03 0.01 -0.04 0 -0.03 0 -0.03 0.01 -0.04 0 -0.02 0 -0.01 0 -0.04 0 -0.03 0.01 -0.03 0 -0.04 0 -0.03 0 -0.04 0 -0.03 0 -0.03 0 -0.04 0 -0.03 0c-0.01,0 -0.03,0 -0.04,0l-0.03 0 -0.03 0 -0.04 0 -0.03 0c-0.02,0 -0.03,0 -0.04,0 -0.01,0 -0.02,0 -0.03,0l-0.04 0 -0.03 -0.01 -0.03 0 -0.04 0c-0.01,0 -0.02,0 -0.03,0 -0.01,0 -0.02,0 -0.04,-0.01l-0.03 0 -0.03 0 -0.04 -0.01 -0.03 0 -0.04 -0.01c-0.01,0 -0.02,0 -0.03,0 -0.01,0 -0.02,-0.01 -0.03,-0.01 -0.02,0 -0.03,0 -0.04,0 -0.01,0 -0.02,-0.01 -0.03,-0.01 -0.01,0 -0.03,0 -0.04,-0.01 -0.01,0 -0.02,0 -0.03,0 -0.01,0 -0.02,-0.01 -0.03,-0.01 -0.02,0 -0.03,-0.01 -0.04,-0.01l-0.03 -0.01c-0.01,0 -0.03,0 -0.04,0 -0.01,-0.01 -0.02,-0.01 -0.03,-0.01 -0.01,-0.01 -0.02,-0.01 -0.04,-0.01 -0.01,-0.01 -0.02,-0.01 -0.03,-0.01 -0.01,-0.01 -0.02,-0.01 -0.03,-0.01 -0.02,-0.01 -0.03,-0.01 -0.04,-0.01 -0.01,-0.01 -0.02,-0.01 -0.03,-0.01 -0.01,-0.01 -0.02,-0.01 -0.04,-0.02 -0.01,0 -0.02,0 -0.03,-0.01 -0.01,0 -0.02,-0.01 -0.03,-0.01 -0.02,0 -0.03,-0.01 -0.04,-0.01 -0.01,-0.01 -0.02,-0.01 -0.03,-0.02 -0.01,0 -0.02,-0.01 -0.04,-0.01 -0.01,-0.01 -0.02,-0.01 -0.03,-0.02 -0.01,0 -0.02,-0.01 -0.03,-0.01 -0.02,-0.01 -0.03,-0.01 -0.04,-0.02 -0.01,0 -0.02,-0.01 -0.03,-0.02 -0.01,0 -0.02,-0.01 -0.04,-0.01 -0.01,-0.01 -0.02,-0.01 -0.03,-0.02 -0.01,-0.01 -0.02,-0.01 -0.03,-0.02 -0.02,-0.01 -0.03,-0.01 -0.04,-0.02 -0.01,-0.01 -0.02,-0.01 -0.03,-0.02 -0.01,-0.01 -0.03,-0.02 -0.04,-0.02 -0.01,-0.01 -0.02,-0.02 -0.03,-0.02 -0.01,-0.01 -0.02,-0.02 -0.04,-0.03 -0.01,-0.01 -0.02,-0.01 -0.03,-0.02 -0.01,-0.01 -0.02,-0.02 -0.03,-0.03 -0.01,0 -0.03,-0.01 -0.04,-0.02 -0.01,-0.01 -0.02,-0.02 -0.03,-0.03 -0.01,-0.01 -0.02,-0.02 -0.04,-0.03 -0.01,-0.01 -0.02,-0.02 -0.03,-0.03 -0.01,-0.01 -0.02,-0.02 -0.03,-0.03 -0.02,-0.01 -0.03,-0.02 -0.04,-0.03 -0.01,-0.01 -0.02,-0.02 -0.03,-0.04 -0.01,-0.01 -0.02,-0.02 -0.04,-0.03 -0.01,-0.01 -0.02,-0.03 -0.03,-0.04 -0.01,-0.01 -0.02,-0.02 -0.03,-0.04 -0.02,-0.01 -0.03,-0.03 -0.04,-0.04 -0.01,-0.01 -0.02,-0.03 -0.03,-0.04 -0.01,-0.02 -0.02,-0.03 -0.04,-0.05 -0.01,-0.02 -0.02,-0.03 -0.03,-0.05 -0.01,-0.02 -0.02,-0.04 -0.03,-0.05 -0.02,-0.02 -0.03,-0.04 -0.04,-0.06 -0.01,-0.02 -0.02,-0.04 -0.03,-0.06 -0.01,-0.02 -0.03,-0.05 -0.04,-0.07 -0.01,-0.02 -0.02,-0.05 -0.03,-0.07 -0.01,-0.03 -0.02,-0.05 -0.04,-0.08 -0.01,-0.03 -0.02,-0.06 -0.03,-0.09 -0.01,-0.04 -0.02,-0.07 -0.03,-0.11 -0.02,-0.04 -0.03,-0.08 -0.04,-0.12 -0.01,-0.06 -0.02,-0.11 -0.03,-0.16 -0.02,-0.09 -0.03,-0.17 -0.04,-0.25 0,-0.1 -0.01,-0.21 -0.01,-0.31 0,-0.1 0.01,-0.21 0.01,-0.31 0.01,-0.08 0.02,-0.16 0.04,-0.25 0.01,-0.05 0.02,-0.1 0.03,-0.16 0.01,-0.04 0.02,-0.08 0.04,-0.12 0.01,-0.04 0.02,-0.07 0.03,-0.11 0.01,-0.03 0.02,-0.06 0.03,-0.09 0.02,-0.02 0.03,-0.05 0.04,-0.08 0.01,-0.02 0.02,-0.05 0.03,-0.07 0.01,-0.02 0.03,-0.05 0.04,-0.07 0.01,-0.02 0.02,-0.04 0.03,-0.06 0.01,-0.02 0.02,-0.04 0.04,-0.06 0.01,-0.01 0.02,-0.03 0.03,-0.05 0.01,-0.02 0.02,-0.03 0.03,-0.05 0.02,-0.01 0.03,-0.03 0.04,-0.04 0.01,-0.02 0.02,-0.03 0.03,-0.05 0.01,-0.01 0.02,-0.03 0.04,-0.04 0.01,-0.01 0.02,-0.03 0.03,-0.04 0.01,-0.01 0.02,-0.03 0.03,-0.04 0.02,-0.01 0.03,-0.02 0.04,-0.03 0.01,-0.02 0.02,-0.03 0.03,-0.04 0.01,-0.01 0.02,-0.02 0.04,-0.03 0.01,-0.01 0.02,-0.02 0.03,-0.03 0.01,-0.01 0.02,-0.02 0.03,-0.03 0.02,-0.01 0.03,-0.02 0.04,-0.03 0.01,-0.01 0.02,-0.02 0.03,-0.03 0.01,-0.01 0.03,-0.02 0.04,-0.02 0.01,-0.01 0.02,-0.02 0.03,-0.03 0.01,-0.01 0.02,-0.01 0.03,-0.02 0.02,-0.01 0.03,-0.02 0.04,-0.03 0.01,0 0.02,-0.01 0.03,-0.02 0.01,-0.01 0.03,-0.01 0.04,-0.02 0.01,-0.01 0.02,-0.01 0.03,-0.02 0.01,-0.01 0.02,-0.01 0.04,-0.02 0.01,-0.01 0.02,-0.01 0.03,-0.02 0.01,-0.01 0.02,-0.01 0.03,-0.02 0.02,0 0.03,-0.01 0.04,-0.01 0.01,-0.01 0.02,-0.02 0.03,-0.02 0.01,-0.01 0.02,-0.01 0.04,-0.02 0.01,0 0.02,-0.01 0.03,-0.01 0.01,-0.01 0.02,-0.01 0.03,-0.02 0.02,0 0.03,-0.01 0.04,-0.01 0.01,-0.01 0.02,-0.01 0.03,-0.02 0.01,0 0.02,-0.01 0.04,-0.01 0.01,0 0.02,-0.01 0.03,-0.01 0.01,-0.01 0.02,-0.01 0.03,-0.01 0.02,-0.01 0.03,-0.01 0.04,-0.02 0.01,0 0.02,0 0.03,-0.01 0.01,0 0.02,0 0.04,-0.01 0.01,0 0.02,0 0.03,-0.01l0.03 -0.01c0.02,0 0.03,0 0.04,-0.01 0.01,0 0.02,0 0.03,-0.01 0.01,0 0.03,0 0.04,0l0.03 -0.01c0.01,0 0.02,-0.01 0.04,-0.01 0.01,0 0.02,-0.01 0.03,-0.01 0.01,0 0.02,0 0.03,0 0.01,-0.01 0.03,-0.01 0.04,-0.01 0.01,0 0.02,-0.01 0.03,-0.01 0.01,0 0.02,0 0.04,0 0.01,0 0.02,-0.01 0.03,-0.01l0.03 0 0.04 -0.01 0.03 0 0.04 -0.01 0.03 0 0.03 0c0.02,-0.01 0.03,-0.01 0.04,-0.01 0.01,0 0.02,0 0.03,0l0.04 0 0.03 -0.01 0.03 0 0.04 0c0.01,0 0.02,0 0.03,0 0.01,0 0.02,0 0.04,0l0.03 0 0.04 0 0.03 0 0.03 0c0.01,0 0.03,0 0.04,0l0.03 0 0.04 0 0.03 0 0.03 0 0.04 0 0.03 0 0.04 0 0.03 0 0.03 0.01 0.04 0 0.01 0 0.02 0 0.04 0 0.03 0.01 0.03 0 0.04 0 0.03 0.01 0.04 0 0.03 0 0.04 0.01 0.03 0 0.03 0.01 0.04 0 0.03 0.01 0.04 0 0.03 0.01 0.03 0 0.04 0.01 0.03 0 0.04 0.01 0.03 0 0.03 0.01 0.04 0.01 0.03 0 0.04 0.01 0.03 0.01 0.03 0 0.04 0.01 0.03 0.01 0.04 0.01 0.03 0 0.03 0.01 0.04 0.01 0.03 0.01 0.04 0.01 0.03 0.01 0.04 0.01 0.03 0.01 0.03 0.01 0.04 0 0.03 0.01 0.04 0.01 0.03 0.02 0.03 0.01 0.04 0.01 0.03 0.01 0.04 0.01 0.03 0.01 0.03 0.01 0.04 0.01 0.03 0.01 0.04 0.02 0.03 0.01 0.03 0.01 0.04 0.01 0.03 0.02 0.04 0.01 0.03 0.01 0.04 0.02 0.03 0.01 0.03 0.01 0.04 0.02 0.03 0.01 0.04 0.02 0.03 0.01 0.03 0.02 0.04 0.01 0.03 0.02 0.04 0.01 0.03 0.02 0.03 0.01 0.04 0.02 0.03 0.01 0.04 0.02 0.03 0.02 0.03 0.01 0.04 0.02 0.03 0.02 0.04 0.01 0.03 0.02 0 -1.49 -0.03 -0.01 -0.04 -0.01 -0.03 -0.01 -0.04 -0.01 -0.03 -0.01 -0.03 0 -0.04 -0.01 -0.03 -0.01 -0.04 -0.01 -0.03 0 -0.03 -0.01 -0.04 -0.01 -0.03 -0.01 -0.04 0 -0.03 -0.01 -0.03 -0.01 -0.04 0 -0.03 -0.01 -0.04 -0.01 -0.03 0 -0.03 -0.01 -0.04 -0.01 -0.03 -0.01 -0.04 0 -0.03 -0.01 -0.04 0 -0.03 -0.01 -0.03 -0.01 -0.04 0 -0.03 -0.01 -0.04 0 -0.03 -0.01 -0.03 -0.01 -0.04 0 -0.03 -0.01 -0.04 0 -0.03 -0.01 -0.03 0 -0.04 -0.01 -0.03 -0.01 -0.04 0 -0.03 -0.01 -0.03 0 -0.04 -0.01 -0.03 0 -0.04 -0.01 -0.03 0 -0.04 -0.01 -0.03 0 -0.03 -0.01 -0.04 0 -0.03 0 -0.04 -0.01 -0.03 0 -0.03 -0.01 -0.04 0 -0.03 -0.01 -0.04 0 -0.03 0 -0.03 -0.01 -0.04 0 -0.03 0 -0.04 -0.01 -0.03 0 -0.03 -0.01 -0.04 0 -0.03 0 -0.04 0 -0.03 -0.01 -0.03 0 -0.04 0 -0.03 -0.01 -0.04 0 -0.03 0 -0.04 0 -0.03 -0.01 -0.03 0 -0.04 0 -0.03 0 -0.04 0 -0.03 -0.01 -0.02 0 -0.01 0 -0.04 0 -0.03 0 -0.04 0 -0.03 0 -0.03 0 -0.04 0 -0.03 -0.01 -0.04 0 -0.03 0 -0.03 0 -0.04 0 -0.03 0 -0.04 0 -0.03 0 -0.04 0 -0.03 0 -0.03 0 -0.04 0 -0.03 0 -0.04 0 -0.03 0 -0.03 0 -0.04 0 -0.03 0 -0.04 0 -0.03 0 -0.03 0 -0.04 0 -0.03 0 -0.04 0 -0.03 0 -0.03 0 -0.04 0 -0.03 0.01 -0.04 0 -0.03 0 -0.04 0 -0.03 0 -0.03 0 -0.04 0 -0.03 0.01 -0.04 0 -0.03 0 -0.03 0 -0.04 0 -0.03 0.01 -0.04 0 -0.03 0 -0.03 0 -0.04 0.01 -0.03 0 -0.04 0 -0.03 0 -0.03 0.01 -0.04 0 -0.03 0 -0.04 0.01 -0.03 0 -0.04 0.01 -0.03 0 -0.03 0 -0.04 0.01 -0.03 0 -0.04 0.01 -0.03 0 -0.03 0 -0.04 0.01 -0.03 0 -0.04 0.01 -0.03 0 -0.03 0.01 -0.04 0.01 -0.03 0 -0.04 0.01 -0.03 0 -0.03 0.01 -0.04 0 -0.03 0.01 -0.04 0.01 -0.03 0 -0.04 0.01 -0.03 0.01 -0.03 0 -0.04 0.01 -0.03 0.01 -0.04 0.01 -0.03 0 -0.03 0.01 -0.04 0.01 -0.03 0.01 -0.04 0.01 -0.03 0.01 -0.03 0.01 -0.04 0 -0.03 0.01 -0.04 0.01 -0.03 0.01 -0.03 0.01 -0.04 0.01 -0.03 0.01 -0.04 0.01 -0.03 0.01c-0.01,0.01 -0.02,0.01 -0.04,0.02l-0.03 0.01c-0.01,0 -0.02,0 -0.03,0.01l-0.04 0.01 -0.03 0.01c-0.01,0.01 -0.02,0.01 -0.04,0.02 -0.01,0 -0.02,0 -0.03,0.01l-0.03 0.01c-0.01,0 -0.03,0.01 -0.04,0.01l-0.03 0.02 -0.04 0.01 -0.03 0.01 -0.03 0.02 -0.04 0.01 -0.03 0.02 -0.04 0.01 -0.03 0.02 -0.03 0.01c-0.02,0.01 -0.03,0.01 -0.04,0.02l-0.03 0.02 -0.04 0.01 -0.03 0.02c-0.01,0.01 -0.02,0.01 -0.03,0.02 -0.02,0 -0.03,0.01 -0.04,0.02l-0.03 0.02 -0.04 0.01c-0.01,0.01 -0.02,0.02 -0.03,0.02 -0.01,0.01 -0.02,0.02 -0.04,0.02 -0.01,0.01 -0.02,0.02 -0.03,0.02 -0.01,0.01 -0.02,0.02 -0.03,0.02 -0.01,0.01 -0.03,0.02 -0.04,0.02 -0.01,0.01 -0.02,0.02 -0.03,0.03l-0.04 0.02c-0.01,0.01 -0.02,0.01 -0.03,0.02l-0.03 0.02c-0.01,0.01 -0.03,0.02 -0.04,0.03 -0.01,0.01 -0.02,0.01 -0.03,0.02 -0.01,0.01 -0.02,0.02 -0.04,0.03 -0.01,0.01 -0.02,0.02 -0.03,0.02 -0.01,0.01 -0.02,0.02 -0.03,0.03 -0.02,0.01 -0.03,0.02 -0.04,0.03l0 0 0 0 0 0 0 0z"/>
  </g>
 </g>
</svg>
