<svg xmlns="http://www.w3.org/2000/svg" xml:space="preserve" width="40" height="25" version="1.1" viewBox="0 0 1008 643" id="discover" shape-rendering="geometricPrecision" text-rendering="geometricPrecision" image-rendering="optimizeQuality" fill-rule="evenodd" clip-rule="evenodd"><defs><style>#discover .fil3{fill:#303030}#discover .fil1{fill:#ff6f00}</style></defs><g id="Layer_x0020_1"><g id="_392737552"><path class="fil0" d="M933 633H78c-36 0-65-28-65-63V75c0-35 29-63 65-63h855c36 0 65 28 65 63v495c0 35-29 63-65 63z" fill="#e4e4e4"/><path class="fil1" d="M990 367l-1 1c-2 1-4 3-7 4-2 1-4 3-6 4-34 21-70 40-106 58-84 41-171 76-259 105-68 23-137 42-208 58-36 8-73 16-109 23-5 1-11 2-16 3h-1l-57 13h713c36 0 65-28 65-63V362l-7 5z"/><path class="fil2 str0" d="M933 633H78c-36 0-65-28-65-63V75c0-35 29-63 65-63h855c36 0 65 28 65 63v495c0 35-29 63-65 63z" fill="none" stroke="#a9a6aa" stroke-width="16.93" stroke-linecap="round" stroke-linejoin="round"/><path class="fil3" d="M103 372V246h44c23 2 42 11 54 31 23 40-2 89-48 94-11 1-23 1-35 1h-16zm26-22h14c10-1 19-3 27-10 18-15 19-45 2-62-12-12-27-12-43-12v83zm693-104h44c5 0 10 1 15 3 16 5 25 19 24 36-1 10-3 18-10 25-5 4-10 7-16 8-1 0-2 0-3 1 14 18 27 35 41 53h-28c-2 0-3-1-4-2-11-15-21-31-32-46-1-2-2-3-5-2v50h-25V246zm25 58c8 0 16 1 23-3s9-9 9-16-3-12-9-15c-7-4-15-3-23-3v38zm-113-58h71v21h-46v28h44v22h-44v34h46v21h-72V246zm-392 12c-4 6-9 11-13 17-5-5-10-9-17-10s-13 0-19 5-5 14 2 18c4 3 10 4 14 7 7 3 15 6 22 10 10 6 15 15 15 26 1 15-4 28-17 37-10 7-21 9-32 8-18-1-31-10-40-23 5-5 10-11 15-16 3 4 6 7 9 10 7 6 16 8 25 6 10-2 15-11 13-20-1-5-4-8-8-10l-15-6c-5-2-11-4-16-7-16-8-21-22-17-39 4-14 17-25 34-26 16-1 30 3 42 13l1 1zm255-12h26c1 0 2 2 2 3 9 22 18 44 27 65 2 5 4 11 7 17 1-1 1-2 1-3 11-26 22-53 33-79 1-2 2-3 4-3h25c0 1-1 2-1 3-18 41-36 83-54 124-1 2-2 3-4 3h-9c-1 0-3-1-3-2-18-42-36-84-54-127v-1zm-143 33c-4-3-8-6-11-8-15-9-34-7-48 5-20 18-19 52 2 68 16 12 38 11 53-1 1-1 3-2 4-4v27c0 2 0 2-2 3-31 14-69 5-87-23-25-38-5-91 44-101 15-3 30-2 44 5 1 0 2 2 2 2v27z"/><path class="fil1" d="M602 309c1 36-30 66-69 66s-69-28-69-66c0-36 31-64 69-65 39 0 69 30 69 65z"/><path class="fil3" d="M247 372h-25V246h25v126z"/></g></g></svg>