<svg xmlns="http://www.w3.org/2000/svg" width="40" height="25" shape-rendering="geometricPrecision" text-rendering="geometricPrecision" image-rendering="optimizeQuality" fill-rule="evenodd" clip-rule="evenodd"><defs><style>.fil3{fill:#fe7900}.fil2{fill:#fff}</style></defs><g id="Layer_x0020_1"><path d="M39.21 2.38v20.13c0 1.36-.45 2.04-1.59 2.04H2.6c-1.14 0-1.71-.68-1.82-2.04V2.49C.78 1.13 1.35.45 2.6.45l35.02.11c1.02.12 1.7.57 1.59 1.82z" fill="#e4e4e4" stroke="#a9a6aa" stroke-miterlimit="22.926"/><g id="_962175568"><path d="M15.59 13.75h1.5c.18 1.23-.48 3.66.93 3.77l-.03-3.76h1.31l.07.65c.31-.28.42-.49.92-.65.42-.14.93-.15 1.34 0 1.69.63 1.78 3.39.64 4.4-.71.62-1.6.57-2.72.57l-.02 1.81c-.24.09-1.23.07-1.51.02v-1.82c-1.22-.13-1.93-.48-2.28-1.45-.2-.57-.27-2.86-.15-3.54zm12.37 2.9l-3.1.01c-.04.5.48.8.95.88.74.12 1.15-.11 1.71-.14l.22 1.03c-1.27.28-2.53.56-3.56-.27-1.2-.98-1.12-3.56.6-4.32 1.41-.62 3.41-.1 3.18 2.81zm-17.23 1.94l-1.52.02-.02-6.74 1.53-.01.01 2.57 2.49.01.01-2.57 1.52-.01.01 6.73-1.51.02-.03-2.82-2.48-.01-.01 2.81zm19.33 0l-1.53.02-.01-4.87h1.29c.01.27 0 .64.08.81.38-.5.47-.96 1.62-.91l.02 1.43c-1.9-.13-1.47 1.1-1.47 3.52zm-13.94-6.93c1.14-.28 1.39 1.24.47 1.47-1.13.29-1.47-1.23-.47-1.47zm-6.77 12.4H32.9c.46-.45.75-.65 1.01-1.46.22-.69.24-1.44.09-2.17-.26-1.27-.63-2.63-.94-3.9-.62-2.6-1.28-5.25-1.88-7.85-.3-1.3-.62-2.66-.95-3.94-.34-1.32-1.14-2.15-2.14-2.71-1.36-.75-2.54-.5-4.02-.15L12.3 4.69c-2.46.6-5.32.76-6.21 3.52-.45 1.38.1 2.83.41 4.13l1.9 7.83c.31 1.27.71 2.63.95 3.89z" fill="#ff7900"/><path class="fil2" d="M19.54 17.53c-.04-.48-.06-1.8.11-2.15.26-.56 1.04-.76 1.51-.22.34.4.97 2.78-1.62 2.37zm-3.95-3.78c-.12.68-.05 2.97.15 3.54.35.97 1.06 1.32 2.28 1.45v1.82c.28.05 1.27.07 1.51-.02l.02-1.81c1.12 0 2.01.05 2.72-.57 1.14-1.01 1.05-3.77-.64-4.4-.41-.15-.92-.14-1.34 0-.5.16-.61.37-.92.65l-.07-.65h-1.31l.03 3.76c-1.41-.11-.75-2.54-.93-3.77h-1.5zm-4.85 2.03l2.48.01.03 2.82 1.51-.02-.01-6.73-1.52.01-.01 2.57-2.49-.01-.01-2.57-1.53.01.02 6.74 1.52-.02z"/><path class="fil2" d="M24.83 15.62c.09-1.29 1.76-1.31 1.75-.01l-1.75.01zm3.13 1.03c.23-2.91-1.77-3.43-3.18-2.81-1.72.76-1.8 3.34-.6 4.32 1.03.83 2.29.55 3.56.27l-.22-1.03c-.56.03-.97.26-1.71.14-.47-.08-.99-.38-.95-.88l3.1-.01zm2.1 1.94c0-2.42-.43-3.65 1.47-3.52l-.02-1.43c-1.15-.05-1.24.41-1.62.91-.08-.17-.07-.54-.08-.81h-1.29l.01 4.87 1.53-.02z"/><path class="fil3" d="M19.54 17.53c2.59.41 1.96-1.97 1.62-2.37-.47-.54-1.25-.34-1.51.22-.17.35-.15 1.67-.11 2.15z"/><path d="M16.12 11.66c-1 .24-.66 1.76.47 1.47.92-.23.67-1.75-.47-1.47z" fill="#fee501"/><path class="fil3" d="M24.83 15.62l1.75-.01c.01-1.3-1.66-1.28-1.75.01z"/></g></g></svg>