<svg xmlns="http://www.w3.org/2000/svg" width="40" height="25" shape-rendering="geometricPrecision" text-rendering="geometricPrecision" image-rendering="optimizeQuality" fill-rule="evenodd" clip-rule="evenodd"><path d="M39.21 2.38v20.13c0 1.36-.45 2.04-1.59 2.04H2.6c-1.14 0-1.71-.68-1.82-2.04V2.49C.78 1.13 1.35.45 2.6.45l35.02.11c1.02.12 1.7.57 1.59 1.82z" fill="#e4e4e4" stroke="#a9a6aa" stroke-miterlimit="22.926"/><path d="M27.13 12.93h2.13c.01 0 .03 0 .04.01h.07c.01.01.02.01.03.01h.02l.01.01h.04c.01.01.02.01.03.01.01.01.02.01.04.02.01 0 .02 0 .03.01.01 0 .02.01.03.01.02.01.03.01.04.02.01.01.02.01.03.02.01 0 .02.01.04.02.01.01.02.01.03.02l.03.03c.02 0 .03.01.04.02l.03.03c.01.01.03.02.04.04l.03.03c.01.02.02.03.04.04.01.02.02.03.03.05.01.02.02.04.03.05.02.02.03.05.04.07.01.02.02.05.03.08.02.04.03.07.04.11.01.07.02.15.02.22 0 .08-.01.15-.02.22-.01.04-.02.08-.04.11l-.03.09a.21.21 0 01-.04.06c-.01.02-.02.04-.03.05-.01.02-.02.04-.03.05-.02.01-.03.03-.04.04-.01.01-.02.03-.03.04-.01.01-.03.02-.04.03l-.03.03c-.01.01-.02.02-.04.03-.01.01-.02.01-.03.02l-.03.03c-.02 0-.03.01-.04.02-.01 0-.02.01-.03.01-.01.01-.02.02-.04.02-.01 0-.02.01-.03.01-.01.01-.02.01-.03.02-.02 0-.03.01-.04.01-.01 0-.02.01-.03.01-.01 0-.03.01-.04.01h-.03c-.01.01-.02.01-.03.01h-.04c-.01.01-.02.01-.03.01h-2.17v-1.86zm2.75-2.11c.01.06.02.13.02.2s-.01.13-.02.2c-.01.04-.02.08-.04.11-.01.03-.02.05-.03.08a.21.21 0 01-.04.06c-.01.02-.02.04-.03.05-.01.02-.02.03-.03.05-.01.01-.03.02-.04.04l-.03.03c-.01.01-.02.02-.04.03l-.03.03c-.01.01-.02.01-.03.02-.02.01-.03.02-.04.02-.01.01-.02.02-.03.02-.01.01-.02.02-.04.02-.01.01-.02.01-.03.02-.01 0-.02.01-.03.01-.02.01-.03.01-.04.02-.01 0-.02 0-.03.01-.01 0-.03 0-.04.01h-.03c-.01.01-.02.01-.03.01h-.01c-.01 0-.02 0-.03.01h-.07c-.01 0-.02.01-.03.01h-1.93v-1.72h1.96c.01 0 .03 0 .04.01h.07c.01.01.02.01.03.01.01 0 .02.01.03.01.01 0 .03.01.04.01.01 0 .02.01.03.01.01 0 .02.01.04.01.01.01.02.01.03.02.01 0 .02.01.03.01.02.01.03.02.04.02.01.01.02.01.03.02.01.01.02.02.04.02l.03.03.03.03c.02.01.03.02.04.03l.03.03.04.04c.01.01.02.03.03.04.01.02.02.04.03.05.02.02.03.04.04.07.01.02.02.05.03.07.02.04.03.08.04.12 0 0-.01-.04 0 0zm4.23-8.92h.01v17.67c0 .1 0 .21-.01.31l-.03.27c-.01.06-.02.12-.04.18l-.03.14c-.01.04-.02.08-.04.12l-.03.11-.03.09c-.02.03-.03.06-.04.09-.01.03-.02.06-.03.08-.01.03-.03.06-.04.08-.01.03-.02.05-.03.07-.01.03-.02.05-.03.07-.02.02-.03.04-.04.07l-.03.06c-.02.02-.03.04-.04.06-.01.02-.02.03-.03.05a.21.21 0 01-.04.06c-.01.01-.02.03-.03.05-.01.02-.02.03-.03.05-.02.01-.03.03-.04.05-.01.01-.02.03-.03.04-.01.02-.03.03-.04.05-.01.01-.02.03-.03.04-.01.02-.02.03-.03.04-.02.02-.03.03-.04.05-.01.01-.02.02-.03.04-.01.01-.03.02-.04.03-.01.02-.02.03-.03.04-.01.01-.02.03-.04.04l-.03.03c-.01.02-.02.03-.03.04-.01.01-.03.02-.04.03l-.03.03-.04.04-.03.03-.03.03c-.02.01-.03.02-.04.03l-.03.03c-.01.01-.03.01-.04.02l-.03.03c-.01.01-.02.02-.04.03-.01.01-.02.02-.03.02l-.03.03c-.01.01-.03.02-.04.02l-.03.03c-.01.01-.02.01-.04.02-.01.01-.02.02-.03.02l-.03.03c-.02 0-.03.01-.04.02-.01.01-.02.01-.03.02-.01.01-.03.01-.04.02l-.03.02c-.01.01-.02.01-.03.02-.02.01-.03.01-.04.02-.01.01-.02.01-.03.02-.01 0-.03.01-.04.02-.01 0-.02.01-.03.01-.01.01-.02.02-.04.02-.01.01-.02.01-.03.02-.01 0-.02.01-.03.02l-.04.01-.03.02c-.01 0-.03.01-.04.01-.01.01-.02.01-.03.02-.01 0-.02 0-.03.01-.02 0-.03.01-.04.01-.01.01-.02.01-.03.02-.01 0-.03 0-.04.01l-.03.01c-.01.01-.02.01-.04.01-.01.01-.02.01-.03.02-.01 0-.02 0-.03.01l-.04.01c-.01 0-.02.01-.03.01l-.04.01c-.01 0-.02.01-.03.01-.01 0-.02.01-.03.01-.02 0-.03 0-.04.01l-.03.01h-.04l-.03.01c-.01.01-.02.01-.04.01-.01 0-.02 0-.03.01h-.03l-.04.01c-.01 0-.02 0-.03.01h-.04l-.03.01h-.03l-.04.01h-.03c-.01 0-.02.01-.04.01h-.03c-.01 0-.02 0-.04.01h-.13c-.01.01-.02.01-.04.01H25.4v-7.2H31c.02-.01.03-.01.04-.01h.1l.03-.01h.07c.01 0 .03 0 .04-.01h.06c.02-.01.03-.01.04-.01h.03l.04-.01.03-.01h.04c.01 0 .02-.01.03-.01l.03-.01h.04c.01-.01.02-.01.03-.01.01-.01.03-.01.04-.01.01 0 .02-.01.03-.01.01 0 .02-.01.03-.01.02 0 .03-.01.04-.01l.03-.01c.01 0 .03-.01.04-.01.01-.01.02-.01.03-.01.01-.01.02-.01.04-.02.01 0 .02-.01.03-.01.01 0 .02-.01.03-.01.01-.01.03-.01.04-.02.01 0 .02-.01.03-.01.01-.01.03-.01.04-.02.01 0 .02-.01.03-.01.01-.01.02-.01.03-.02.02-.01.03-.01.04-.02.01 0 .02-.01.03-.02.01 0 .03-.01.04-.01.01-.01.02-.02.03-.02.01-.01.02-.02.04-.02l.03-.03c.01 0 .02-.01.03-.02.01-.01.03-.01.04-.02l.03-.03c.01-.01.03-.02.04-.02l.03-.03.03-.03c.02-.01.03-.02.04-.03l.03-.03c.01-.01.03-.02.04-.03.01-.02.02-.03.03-.04.01-.01.02-.02.03-.04.02-.01.03-.02.04-.04.01-.01.02-.03.03-.04.01-.02.03-.03.04-.05.01-.01.02-.03.03-.05.01-.02.02-.03.04-.05l.03-.06c.01-.02.02-.05.03-.07.02-.02.03-.05.04-.08l.03-.09c.01-.03.03-.07.04-.11l.03-.18c.01-.08.02-.15.02-.23 0-.07-.01-.15-.02-.22-.01-.06-.02-.12-.03-.17-.01-.04-.03-.08-.04-.11l-.03-.09a.3.3 0 00-.04-.08l-.03-.06-.03-.06c-.02-.02-.03-.03-.04-.05-.01-.02-.02-.03-.03-.05l-.04-.04c-.01-.02-.02-.03-.03-.05a.138.138 0 00-.04-.03c-.01-.02-.02-.03-.03-.04a.138.138 0 01-.03-.04c-.01-.01-.03-.02-.04-.03l-.03-.03a.138.138 0 00-.04-.03c-.01-.01-.02-.02-.03-.02l-.03-.03c-.01-.01-.03-.02-.04-.03-.01 0-.02-.01-.03-.02a.076.076 0 00-.04-.02l-.03-.03c-.01 0-.02-.01-.03-.02-.02 0-.03-.01-.04-.02-.01 0-.02-.01-.03-.02-.01 0-.03-.01-.04-.01-.01-.01-.02-.02-.03-.02-.01-.01-.02-.01-.04-.02-.01 0-.02-.01-.03-.01-.01-.01-.02-.01-.03-.02-.01-.01-.03-.01-.04-.01-.01-.01-.02-.01-.03-.02-.01 0-.03-.01-.04-.01-.01-.01-.02-.01-.03-.02-.01 0-.02 0-.03-.01-.02 0-.03-.01-.04-.01-.01 0-.02-.01-.03-.01-.01-.01-.03-.01-.04-.01-.01-.01-.02-.01-.03-.01l-.04-.01c-.01-.01-.02-.01-.03-.01-.01-.01-.02-.01-.03-.01-.01 0-.03-.01-.04-.01-.01 0-.02-.01-.03-.01-.01 0-.02 0-.04-.01h-.03c-.01-.01-.02-.01-.03-.01l-.04-.01h-.03c-.01-.01-.02-.01-.04-.01l-.03-.01h-.07l-.03-.01h-.04l-.03-.01h-.1v-.04l.03-.01.03-.01h.04l.03-.01c.01 0 .03 0 .04-.01h.03c.01 0 .02-.01.03-.01.02 0 .03-.01.04-.01.01 0 .02 0 .03-.01.02 0 .03 0 .04-.01.01 0 .02 0 .03-.01.01 0 .02 0 .04-.01.01 0 .02-.01.03-.01.01 0 .02-.01.03-.01.02-.01.03-.01.04-.01.01-.01.02-.01.03-.02.01 0 .03-.01.04-.01.01-.01.02-.01.03-.01.01-.01.02-.02.03-.02.02-.01.03-.01.04-.02.01 0 .02-.01.03-.01.01-.01.03-.02.04-.02.01-.01.02-.01.03-.02.01-.01.02-.01.04-.02.01-.01.02-.01.03-.02.01-.01.02-.01.03-.02.01-.01.03-.02.04-.02l.03-.03c.01-.01.03-.01.04-.02l.03-.03.03-.03c.02 0 .03-.02.04-.02.01-.02.02-.02.03-.04.01-.01.03-.02.04-.03l.03-.03c.01-.02.02-.03.04-.04.01-.01.02-.03.03-.04.01-.01.02-.03.03-.04.01-.02.03-.03.04-.05.01-.01.02-.03.03-.05.01-.02.03-.03.04-.05l.03-.06c.01-.02.02-.05.03-.07a.3.3 0 00.04-.08l.03-.09c.02-.04.03-.08.04-.12l.03-.2c.01-.06.01-.11.01-.17 0-.06 0-.11-.01-.17l-.03-.2a.495.495 0 00-.04-.13l-.03-.09a.3.3 0 00-.04-.08l-.03-.06-.03-.06c-.01-.02-.03-.04-.04-.05-.01-.02-.02-.04-.03-.05-.01-.02-.03-.03-.04-.05a.138.138 0 01-.03-.04.138.138 0 01-.03-.04c-.02-.01-.03-.02-.04-.03a.138.138 0 01-.03-.04c-.01-.01-.03-.02-.04-.03l-.03-.03c-.01-.01-.02-.02-.04-.02l-.03-.03-.03-.03c-.01 0-.03-.01-.04-.02-.01-.01-.02-.02-.03-.02a.076.076 0 00-.04-.02l-.03-.03c-.01 0-.02-.01-.03-.01-.02-.01-.03-.02-.04-.02-.01-.01-.02-.02-.03-.02-.01-.01-.03-.01-.04-.02-.01 0-.02-.01-.03-.02-.01 0-.02-.01-.04-.01-.01-.01-.02-.01-.03-.02-.01 0-.02-.01-.03-.01-.01-.01-.03-.01-.04-.01-.01-.01-.02-.01-.03-.02-.01 0-.02 0-.04-.01-.01 0-.02-.01-.03-.01-.01 0-.02-.01-.03-.01-.02-.01-.03-.01-.04-.01-.01-.01-.02-.01-.03-.01-.01-.01-.02-.01-.04-.01-.01 0-.02-.01-.03-.01l-.04-.01c-.01 0-.02 0-.03-.01-.01 0-.02 0-.03-.01h-.04c-.01-.01-.02-.01-.03-.01-.01 0-.02 0-.04-.01h-.03c-.01 0-.02-.01-.03-.01h-.04l-.03-.01H31l-.03-.01h-.07l-.03-.01h-.12l-.02-.01h-.17l-.03-.01H25.4V5.43c0-.24.02-.49.07-.72.01-.05.02-.1.04-.15l.03-.12c.01-.04.02-.07.04-.11l.03-.1.03-.09c.02-.03.03-.06.04-.08.01-.03.02-.06.03-.08a.3.3 0 01.04-.08l.03-.06c.01-.03.02-.05.03-.07.02-.02.03-.04.04-.06l.03-.06c.01-.02.03-.04.04-.06.01-.02.02-.03.03-.05l.03-.06c.02-.01.03-.03.04-.05.01-.01.02-.03.03-.04.02-.02.03-.04.04-.05.01-.02.02-.03.03-.05.01-.01.02-.03.04-.04.01-.02.02-.03.03-.04.01-.02.02-.03.03-.05.02-.01.03-.02.04-.04l.03-.03c.01-.02.03-.03.04-.04.01-.01.02-.03.03-.04l.03-.03.04-.04.03-.03c.01-.02.03-.03.04-.04l.03-.03c.01-.01.02-.02.04-.03l.03-.03.03-.03c.02-.01.03-.02.04-.03l.03-.03c.01-.01.03-.02.04-.02l.03-.03.03-.03c.02-.01.03-.02.04-.02l.03-.03.04-.02.03-.03.04-.02.03-.02c.01-.01.02-.02.03-.02l.04-.03c.01 0 .02-.01.03-.02.01 0 .02-.01.04-.02.01 0 .02-.01.03-.02.01 0 .02-.01.03-.02.02 0 .03-.01.04-.01.01-.01.02-.02.03-.02.01-.01.03-.01.04-.02.01-.01.02-.01.03-.02.01 0 .02-.01.03-.01l.04-.02c.01-.01.02-.01.03-.02.01 0 .03-.01.04-.01.01-.01.02-.01.03-.02.01 0 .02-.01.04-.01.01-.01.02-.01.03-.02.01 0 .02-.01.03-.01l.04-.01.03-.02c.01 0 .03-.01.04-.01.01 0 .02-.01.03-.01.01-.01.02-.01.03-.01.02-.01.03-.01.04-.01l.03-.02c.01 0 .03 0 .04-.01.01 0 .02 0 .03-.01.01 0 .02 0 .04-.01.01 0 .02 0 .03-.01h.03l.04-.01c.01-.01.02-.01.03-.01.01-.01.02-.01.04-.01.01 0 .02-.01.03-.01l.03-.01h.04c.01 0 .02-.01.03-.01.01 0 .03 0 .04-.01h.03l.04-.01h.03c.01 0 .02-.01.03-.01h.04c.01 0 .02 0 .03-.01h.07c.01-.01.02-.01.03-.01h.11c.01-.01.02-.01.03-.01h5.36z" fill="#479951"/><path d="M5.95 14.19c-.03-.01-.05-.02-.07-.03V5.43a3.514 3.514 0 01.1-.86c.01-.05.02-.09.04-.13l.03-.11c.01-.03.02-.07.04-.1l.03-.09c.01-.03.02-.05.03-.08.01-.03.03-.05.04-.08.01-.03.02-.05.03-.07.01-.03.02-.05.04-.07.01-.02.02-.05.03-.07l.03-.06c.01-.02.03-.04.04-.06l.03-.06c.01-.01.02-.03.04-.05.01-.02.02-.04.03-.05.01-.02.02-.04.03-.05.02-.02.03-.04.04-.05.01-.02.02-.03.03-.05.01-.02.02-.03.04-.05.01-.01.02-.03.03-.04.01-.01.02-.03.04-.04.01-.02.02-.03.03-.04.01-.02.02-.03.03-.04.01-.02.02-.03.04-.04.01-.02.02-.03.03-.04.01-.01.02-.03.04-.04l.03-.03c.01-.02.02-.03.03-.04.01-.01.03-.02.04-.03.01-.01.02-.02.03-.04.01-.01.02-.02.04-.03l.03-.03.03-.03c.01-.01.03-.02.04-.03l.03-.03c.01-.01.02-.02.04-.03.01 0 .02-.01.03-.02l.03-.03c.02-.01.03-.02.04-.03.01 0 .02-.01.03-.02l.04-.03c.01 0 .02-.01.03-.02.01-.01.02-.02.03-.02.02-.01.03-.02.04-.03.01 0 .02-.01.03-.02.01-.01.02-.01.04-.02.01-.01.02-.02.03-.02.01-.01.02-.02.04-.02.01-.01.02-.02.03-.02.01-.01.02-.02.03-.02.01-.01.02-.02.04-.02.01-.01.02-.02.03-.02.01-.01.02-.01.04-.02.01-.01.02-.01.03-.02.01 0 .02-.01.03-.02l.04-.01c.01-.01.02-.01.03-.02.01 0 .02-.01.04-.01.01-.01.02-.02.03-.02.01-.01.02-.01.03-.02.01 0 .03-.01.04-.01.01-.01.02-.01.03-.01l.04-.02.03-.01.03-.02c.02 0 .03 0 .04-.01.01 0 .02-.01.03-.01.01 0 .02-.01.04-.01l.03-.01.03-.01c.02-.01.03-.01.04-.01.01-.01.02-.01.03-.02.01 0 .02 0 .04-.01.01 0 .02 0 .03-.01h.04c.01-.01.02-.01.03-.01.01-.01.02-.01.03-.01.01 0 .03-.01.04-.01.01 0 .02 0 .03-.01l.04-.01h.03c.01 0 .02-.01.03-.01.01 0 .03 0 .04-.01h.03l.04-.01h.03c.01 0 .02-.01.03-.01h.04l.03-.01h.07c.01 0 .02-.01.03-.01h.11c.01 0 .02-.01.03-.01h5.38v17.67c0 .15-.01.3-.03.45l-.03.21c-.01.06-.03.11-.04.16-.01.05-.02.09-.03.13-.01.04-.02.08-.04.12l-.03.1-.03.09c-.01.03-.03.06-.04.09-.01.02-.02.05-.03.08-.01.02-.02.05-.04.07-.01.02-.02.05-.03.07-.01.02-.02.05-.03.07-.02.02-.03.04-.04.06l-.03.06a.21.21 0 01-.04.06c-.01.02-.02.04-.03.05l-.03.06c-.02.02-.03.03-.04.05-.01.02-.02.03-.03.05-.01.01-.03.03-.04.05-.01.01-.02.03-.03.04-.01.02-.02.03-.04.05-.01.01-.02.03-.03.04-.01.01-.02.03-.03.04-.01.02-.03.03-.04.04-.01.02-.02.03-.03.04-.01.01-.02.03-.04.04-.01.01-.02.02-.03.04l-.03.03-.04.04-.03.03-.04.04-.03.03-.03.03c-.01.01-.03.02-.04.03l-.03.03c-.01.01-.03.02-.04.03l-.03.03c-.01.01-.02.02-.03.02-.02.01-.03.02-.04.03l-.03.03c-.01.01-.03.02-.04.02l-.03.03c-.01.01-.02.01-.03.02-.02.01-.03.02-.04.03-.01.01-.02.01-.03.02-.01.01-.03.01-.04.02l-.03.03c-.01 0-.02.01-.04.02-.01 0-.02.01-.03.02-.01 0-.02.01-.03.02-.01.01-.03.01-.04.02-.01 0-.02.01-.03.02-.01 0-.02.01-.04.02-.01 0-.02.01-.03.01l-.03.02c-.01.01-.03.01-.04.02-.01.01-.02.01-.03.02-.01 0-.02.01-.04.01-.01.01-.02.02-.03.02-.01.01-.02.01-.03.02-.01 0-.03.01-.04.01l-.03.02-.04.01c-.01 0-.02.01-.03.01-.01.01-.02.01-.03.02-.02 0-.03.01-.04.01-.01 0-.02.01-.03.01-.01.01-.03.01-.04.02l-.03.01-.03.01c-.02 0-.03.01-.04.01-.01.01-.02.01-.03.01-.01.01-.03.01-.04.01l-.03.01-.04.01c-.01.01-.02.01-.03.01-.01 0-.02.01-.03.01-.01 0-.03.01-.04.01-.01 0-.02 0-.03.01l-.04.01h-.03c-.01 0-.02.01-.03.01-.01 0-.03 0-.04.01h-.03l-.04.01h-.03c-.01.01-.02.01-.03.01-.01 0-.03 0-.04.01h-.07c-.01.01-.02.01-.03.01h-.03c-.02 0-.03 0-.04.01h-.1l-.03.01H5.88v-7.45s.02.01.07.02l.03.01.04.01.03.01.04.01h.03l.03.01.04.01.03.01h.04l.03.01.03.01.04.01h.03l.04.01.03.01h.03l.04.01.03.01h.04l.03.01.04.01h.03l.03.01.04.01h.03l.04.01h.03l.03.01.04.01h.03l.04.01h.03l.03.01h.04l.03.01h.04l.03.01h.03l.04.01h.03l.04.01h.03l.03.01h.04l.03.01h.04l.03.01h.07l.03.01h.04l.03.01h.07l.03.01h.04l.03.01h.07l.03.01h.07l.04.01h.1l.03.01h.07l.03.01h.11l.03.01h.1l.04.01h.13l.04.01h.24l.03.01h.89l.03-.01h.2l.04-.01h.1l.04-.01h.1l.03-.01h.07l.03-.01h.07l.04-.01h.03l.03-.01h.07l.04-.01h.03l.03-.01h.04l.03-.01h.04l.03-.01h.03l.04-.01c.01 0 .02 0 .03-.01h.04l.03-.01h.04l.03-.01c.01 0 .02-.01.03-.01l.04-.01h.03c.01-.01.02-.01.04-.01l.03-.01c.01 0 .02 0 .03-.01h.04l.03-.01c.01-.01.03-.01.04-.01.01 0 .02-.01.03-.01l.03-.01c.01 0 .03-.01.04-.01.01 0 .02 0 .03-.01l.04-.01c.01 0 .02 0 .03-.01l.03-.01.04-.01c.01 0 .02-.01.03-.01l.04-.01.03-.01c.01-.01.02-.01.03-.01.02-.01.03-.01.04-.02l.03-.01c.01 0 .03-.01.04-.01.01-.01.02-.01.03-.01.01-.01.02-.01.04-.02l.03-.01.03-.02c.01 0 .03 0 .04-.01.01-.01.02-.01.03-.02l.04-.01.03-.02c.01 0 .02-.01.03-.01.01-.01.03-.01.04-.02.01-.01.02-.01.03-.02.01 0 .03-.01.04-.01.01-.01.02-.02.03-.02.01-.01.02-.01.03-.02.02-.01.03-.01.04-.02.01-.01.02-.01.03-.02.01-.01.03-.01.04-.02.01-.01.02-.02.03-.02.01-.01.02-.02.03-.02.02-.01.03-.02.04-.03.01 0 .02-.01.03-.02.01-.01.03-.02.04-.02l.03-.03c.01-.01.02-.02.03-.02.02-.01.03-.02.04-.03l.03-.03c.01-.01.03-.02.04-.03l.03-.03c.01-.01.02-.02.04-.03l.03-.03.03-.03c.01-.01.03-.02.04-.04l.03-.03c.01-.01.02-.03.04-.04.01-.01.02-.03.03-.04.01-.01.02-.03.03-.04l.04-.04c.01-.02.02-.03.03-.05.01-.01.03-.03.04-.05.01-.01.02-.03.03-.05.01-.02.02-.03.03-.05.02-.02.03-.04.04-.06l.03-.06c.01-.03.03-.05.04-.07.01-.03.02-.05.03-.08.01-.02.02-.05.03-.08.02-.03.03-.06.04-.09.01-.03.02-.07.03-.11.01-.04.03-.08.04-.12l.03-.16c.02-.08.03-.16.03-.25.02-.11.02-.23.02-.35V9.1h-3.04v4.1c0 .07 0 .13-.01.19 0 .08-.02.16-.03.23-.01.05-.02.09-.04.14l-.03.1-.03.09c-.01.03-.03.05-.04.07-.01.03-.02.05-.03.07a.21.21 0 01-.04.06c-.01.02-.02.04-.03.05-.01.02-.02.04-.03.05-.02.02-.03.03-.04.05-.01.01-.02.03-.03.04l-.04.04c-.01.01-.02.02-.03.04l-.03.03c-.02.01-.03.02-.04.03l-.03.03c-.01.01-.03.02-.04.03l-.03.03c-.01.01-.02.02-.04.03-.01 0-.02.01-.03.02-.01.01-.02.01-.03.02-.01.01-.03.02-.04.02-.01.01-.02.02-.03.02-.01.01-.02.02-.04.02-.01.01-.02.02-.03.02-.01.01-.02.01-.03.02-.02.01-.03.01-.04.02-.01 0-.02.01-.03.01-.01.01-.02.01-.04.02-.01 0-.02.01-.03.01-.01 0-.02.01-.03.01-.02.01-.03.01-.04.02-.01 0-.02 0-.03.01-.01 0-.03.01-.04.01-.01 0-.02.01-.03.01-.01 0-.02.01-.03.01-.02 0-.03.01-.04.01-.01 0-.02 0-.03.01h-.04c-.01.01-.02.01-.03.01-.01 0-.02.01-.03.01-.02 0-.03 0-.04.01h-.03l-.04.01h-.07l-.03.01h-.07c-.01.01-.02.01-.03.01h-.44l-.04-.01h-.13l-.04-.01H8.4l-.03-.01H8.3l-.03-.01h-.04l-.03-.01h-.04l-.03-.01H8.1l-.04-.01h-.03l-.04-.01-.03-.01h-.03l-.04-.01h-.03l-.04-.01-.03-.01h-.03l-.04-.01-.03-.01-.04-.01-.03-.01h-.03l-.04-.01-.03-.01-.04-.01-.03-.01-.04-.01-.03-.01h-.03l-.04-.01-.03-.01-.04-.01-.03-.01-.03-.01-.04-.02-.03-.01-.04-.01-.03-.01-.03-.01-.04-.01-.03-.01-.04-.01-.03-.01-.03-.02-.04-.01-.03-.01-.04-.01-.03-.02-.03-.01-.04-.01-.03-.02-.04-.01-.03-.01-.04-.02-.03-.01-.03-.01-.04-.02-.03-.01-.04-.02-.03-.01-.03-.02-.04-.01-.03-.02-.04-.01-.03-.02-.03-.01-.04-.02-.03-.01-.04-.02-.03-.02z" fill="#265797"/><path d="M15.85 10c-.02.02-.05.04-.07.06V5.43c0-.24.02-.48.07-.72.01-.05.02-.1.04-.14.01-.05.02-.09.03-.13l.03-.11a.3.3 0 00.04-.1l.03-.09a.3.3 0 01.04-.08c.01-.03.02-.05.03-.08.01-.02.02-.05.03-.07.02-.03.03-.05.04-.07.01-.02.02-.05.03-.07.01-.02.03-.04.04-.06l.03-.06.03-.06c.02-.01.03-.03.04-.05.01-.02.02-.04.03-.05.02-.02.03-.04.04-.05.01-.02.02-.04.03-.05.01-.02.02-.03.04-.05.01-.02.02-.03.03-.05.01-.01.02-.03.03-.04.02-.01.03-.03.04-.04.01-.02.02-.03.03-.04.01-.02.02-.03.04-.04.01-.02.02-.03.03-.04.01-.02.02-.03.03-.04.02-.01.03-.03.04-.04l.03-.03c.01-.01.02-.03.04-.04l.03-.03c.01-.01.02-.02.03-.04.02-.01.03-.02.04-.03l.03-.03c.01-.01.03-.02.04-.03l.03-.03.03-.03c.02-.01.03-.02.04-.02l.03-.03c.01-.01.03-.02.04-.03.01-.01.02-.02.03-.02l.03-.03c.02-.01.03-.02.04-.03.01 0 .02-.01.03-.02.02-.01.03-.02.04-.02l.03-.03c.01 0 .02-.01.04-.02.01-.01.02-.01.03-.02.01-.01.02-.02.03-.02.02-.01.03-.02.04-.02.01-.01.02-.02.03-.02.01-.01.02-.02.04-.02.01-.01.02-.02.03-.02.01-.01.02-.02.03-.02.02-.01.03-.01.04-.02.01-.01.02-.01.03-.02l.04-.02.03-.01c.01-.01.02-.01.03-.02.02 0 .03-.01.04-.01.01-.01.02-.02.03-.02.01-.01.03-.01.04-.02.01 0 .02-.01.03-.01.01-.01.02-.01.03-.01l.04-.02c.01 0 .02-.01.03-.01.01-.01.03-.01.04-.02.01 0 .02 0 .03-.01.01 0 .02-.01.04-.01.01 0 .02-.01.03-.01.01-.01.02-.01.03-.01l.04-.01c.01-.01.02-.01.03-.01.01-.01.02-.01.04-.02.01 0 .02 0 .03-.01.01 0 .02 0 .03-.01h.04c.01-.01.02-.01.03-.01.01-.01.02-.01.04-.01.01 0 .02-.01.03-.01.01 0 .02 0 .03-.01l.04-.01h.03c.01 0 .03-.01.04-.01.01 0 .02 0 .03-.01h.03l.04-.01h.03c.01 0 .03-.01.04-.01h.03l.04-.01h.06c.02 0 .03-.01.04-.01h.1c.01 0 .02-.01.03-.01h5.38v17.67c0 .15-.01.3-.03.45 0 .07-.02.14-.03.21-.01.06-.02.11-.03.16-.01.05-.03.09-.04.13l-.03.12c-.01.03-.02.07-.04.1l-.03.09-.03.09c-.02.02-.03.05-.04.08-.01.02-.02.05-.03.07-.01.02-.02.05-.04.07-.01.02-.02.05-.03.07l-.03.06c-.02.02-.03.04-.04.06l-.03.06c-.01.02-.03.04-.04.05l-.03.06c-.01.02-.02.03-.03.05-.02.02-.03.03-.04.05-.01.01-.02.03-.03.05l-.04.04c-.01.02-.02.03-.03.05-.01.01-.02.03-.03.04-.02.01-.03.03-.04.04-.01.02-.02.03-.03.04-.02.01-.03.03-.04.04-.01.01-.02.03-.03.04l-.04.04-.03.03c-.01.01-.02.03-.03.04-.02.01-.03.02-.04.03l-.03.03c-.01.02-.02.03-.04.04l-.03.03-.03.03c-.02.01-.03.02-.04.03l-.03.03c-.01.01-.03.02-.04.03-.01.01-.02.02-.03.02l-.03.03c-.02.01-.03.02-.04.03-.01.01-.02.02-.03.02-.01.01-.03.02-.04.03-.01.01-.02.01-.03.02l-.03.03c-.02 0-.03.01-.04.02-.01.01-.02.01-.03.02-.02.01-.03.02-.04.03-.01 0-.02.01-.03.02-.01 0-.02.01-.03.02-.02 0-.03.01-.04.02-.01 0-.02.01-.03.02-.02 0-.03.01-.04.02l-.03.02-.04.01-.03.02c-.01.01-.02.01-.03.02-.02.01-.03.01-.04.02-.01 0-.02.01-.03.01-.01.01-.02.02-.04.02-.01.01-.02.01-.03.02-.01 0-.02.01-.03.01l-.04.02-.03.01-.04.01c-.01.01-.02.01-.03.02-.01 0-.02.01-.03.01-.02 0-.03.01-.04.01-.01.01-.02.01-.03.02l-.04.01-.03.01c-.01 0-.02.01-.03.01-.02.01-.03.01-.04.01-.01.01-.02.01-.03.01l-.04.01-.03.01c-.01.01-.02.01-.04.01-.01 0-.02.01-.03.01-.01 0-.02.01-.03.01-.02 0-.03 0-.04.01l-.03.01h-.04c-.01 0-.02.01-.03.01-.01 0-.02 0-.03.01h-.04l-.03.01h-.04c-.01.01-.02.01-.03.01-.01 0-.02 0-.03.01h-.07c-.01.01-.03.01-.04.01h-.03c-.01 0-.02 0-.03.01h-.11l-.03.01h-5.39v-8.16c.02.02.05.04.07.06.01.01.02.02.04.03l.03.03c.01.01.02.01.03.02.02.01.03.02.04.03.01.01.02.01.03.02.01.01.03.02.04.03l.03.02c.01.01.02.01.03.02l.04.02.03.03c.01 0 .03.01.04.02l.03.02c.01 0 .02.01.03.02.02 0 .03.01.04.02l.03.02.04.02.03.01c.01.01.02.02.04.02.01.01.02.01.03.02l.03.02.04.01.03.02c.01.01.02.01.04.02l.03.01.03.02.04.01.03.02.04.01.03.02.03.01.04.02.03.01.04.01c.01.01.02.01.03.01l.03.02c.02 0 .03 0 .04.01.01 0 .02.01.03.01l.04.01.03.01c.01.01.02.01.03.01.02.01.03.01.04.02l.03.01.04.01.03.01.04.01.03.01.03.01.04.01.03.01.04.01h.03l.03.01.04.01.03.01.04.01.03.01h.03l.04.01.03.01.04.01h.03l.03.01.04.01h.03l.04.01.03.01h.04l.03.01h.03l.04.01.03.01h.04l.03.01h.03l.04.01h.03l.04.01h.06l.04.01h.03l.04.01h.03l.03.01h.07l.04.01h.07l.03.01h.07l.03.01h.14l.03.01h.1l.04.01h.2l.04.01h.95l.04-.01h.2l.03-.01h.14l.03-.01h.11l.03-.01h.1l.04-.01h.07l.03-.01h.07l.03-.01h.04l.03-.01h.07l.03-.01h.04l.03-.01h.07l.03-.01h.04l.03-.01h.03l.04-.01h.03l.04-.01h.03l.04-.01h.03l.03-.01h.04l.03-.01.04-.01h.03l.03-.01h.04l.03-.01h.04l.03-.01.03-.01h.04l.03-.01h.04l.03-.01.03-.01h.04l.03-.01.04-.01h.03l.04-.01.03-.01h.03l.04-.01.03-.01h.04l.03-.01.03-.01h.04l.03-.01.04-.01.03-.01h.03l.04-.01.03-.01.04-.01.03-.01h.03l.04-.01.03-.01.04-.01.03-.01v-1.49l-.03.02-.04.01-.03.02-.04.02-.03.01-.03.02-.04.02-.03.01-.04.02-.03.01-.03.02-.04.01-.03.02-.04.01-.03.02-.03.01-.04.02-.03.01-.04.01-.03.02-.03.01-.04.01-.03.02-.04.01-.03.01-.04.02-.03.01-.03.01-.04.01-.03.02-.04.01-.03.01-.03.01-.04.01-.03.01-.04.01-.03.01-.03.01-.04.01-.03.01-.04.01-.03.01-.03.01-.04.01-.03.01-.04.01-.03.01h-.04l-.03.01-.03.01-.04.01-.03.01h-.04l-.03.01-.03.01h-.04l-.03.01-.04.01h-.03l-.03.01-.04.01h-.03l-.04.01h-.03l-.03.01h-.04l-.03.01h-.04l-.03.01h-.03l-.04.01h-.07l-.03.01h-.07l-.03.01h-.11l-.03.01h-.55l-.03-.01h-.1c-.01 0-.02 0-.04-.01h-.06l-.04-.01h-.03l-.04-.01h-.03c-.01 0-.02-.01-.03-.01h-.04c-.01 0-.02-.01-.03-.01-.01 0-.03 0-.04-.01h-.03c-.01 0-.02-.01-.03-.01-.02 0-.03-.01-.04-.01l-.03-.01h-.04c-.01-.01-.02-.01-.03-.01-.01-.01-.02-.01-.04-.01-.01-.01-.02-.01-.03-.01-.01-.01-.02-.01-.03-.01-.02-.01-.03-.01-.04-.01-.01-.01-.02-.01-.03-.01-.01-.01-.02-.01-.04-.02-.01 0-.02 0-.03-.01-.01 0-.02-.01-.03-.01-.02 0-.03-.01-.04-.01-.01-.01-.02-.01-.03-.02-.01 0-.02-.01-.04-.01-.01-.01-.02-.01-.03-.02-.01 0-.02-.01-.03-.01-.02-.01-.03-.01-.04-.02-.01 0-.02-.01-.03-.02-.01 0-.02-.01-.04-.01-.01-.01-.02-.01-.03-.02-.01-.01-.02-.01-.03-.02-.02-.01-.03-.01-.04-.02-.01-.01-.02-.01-.03-.02a.076.076 0 00-.04-.02c-.01-.01-.02-.02-.03-.02a.138.138 0 00-.04-.03c-.01-.01-.02-.01-.03-.02l-.03-.03c-.01 0-.03-.01-.04-.02l-.03-.03a.138.138 0 00-.04-.03l-.03-.03-.03-.03c-.02-.01-.03-.02-.04-.03a.138.138 0 01-.03-.04.138.138 0 00-.04-.03c-.01-.01-.02-.03-.03-.04a.138.138 0 01-.03-.04c-.02-.01-.03-.03-.04-.04-.01-.01-.02-.03-.03-.04-.01-.02-.02-.03-.04-.05-.01-.02-.02-.03-.03-.05-.01-.02-.02-.04-.03-.05-.02-.02-.03-.04-.04-.06l-.03-.06c-.01-.02-.03-.05-.04-.07-.01-.02-.02-.05-.03-.07a.3.3 0 00-.04-.08l-.03-.09-.03-.11c-.02-.04-.03-.08-.04-.12-.01-.06-.02-.11-.03-.16-.02-.09-.03-.17-.04-.25 0-.1-.01-.21-.01-.31s.01-.21.01-.31c.01-.08.02-.16.04-.25.01-.05.02-.1.03-.16.01-.04.02-.08.04-.12l.03-.11.03-.09c.02-.02.03-.05.04-.08.01-.02.02-.05.03-.07.01-.02.03-.05.04-.07l.03-.06a.21.21 0 01.04-.06c.01-.01.02-.03.03-.05.01-.02.02-.03.03-.05.02-.01.03-.03.04-.04.01-.02.02-.03.03-.05.01-.01.02-.03.04-.04.01-.01.02-.03.03-.04.01-.01.02-.03.03-.04.02-.01.03-.02.04-.03.01-.02.02-.03.03-.04.01-.01.02-.02.04-.03l.03-.03.03-.03c.02-.01.03-.02.04-.03l.03-.03c.01-.01.03-.02.04-.02l.03-.03c.01-.01.02-.01.03-.02.02-.01.03-.02.04-.03.01 0 .02-.01.03-.02.01-.01.03-.01.04-.02.01-.01.02-.01.03-.02.01-.01.02-.01.04-.02.01-.01.02-.01.03-.02.01-.01.02-.01.03-.02.02 0 .03-.01.04-.01.01-.01.02-.02.03-.02.01-.01.02-.01.04-.02.01 0 .02-.01.03-.01.01-.01.02-.01.03-.02.02 0 .03-.01.04-.01.01-.01.02-.01.03-.02.01 0 .02-.01.04-.01.01 0 .02-.01.03-.01.01-.01.02-.01.03-.01.02-.01.03-.01.04-.02.01 0 .02 0 .03-.01.01 0 .02 0 .04-.01.01 0 .02 0 .03-.01l.03-.01c.02 0 .03 0 .04-.01.01 0 .02 0 .03-.01h.04l.03-.01c.01 0 .02-.01.04-.01.01 0 .02-.01.03-.01h.03c.01-.01.03-.01.04-.01.01 0 .02-.01.03-.01h.04c.01 0 .02-.01.03-.01h.03l.04-.01h.03l.04-.01h.06c.02-.01.03-.01.04-.01h.07l.03-.01h.58l.03.01h.11l.03.01H21l.03.01h.07l.04.01h.03l.03.01h.04l.03.01h.04l.03.01h.03l.04.01h.03l.04.01h.03l.03.01.04.01h.03l.04.01.03.01h.03l.04.01.03.01.04.01h.03l.03.01.04.01.03.01.04.01.03.01.04.01.03.01.03.01h.04l.03.01.04.01.03.02.03.01.04.01.03.01.04.01.03.01.03.01.04.01.03.01.04.02.03.01.03.01.04.01.03.02.04.01.03.01.04.02.03.01.03.01.04.02.03.01.04.02.03.01.03.02.04.01.03.02.04.01.03.02.03.01.04.02.03.01.04.02.03.02.03.01.04.02.03.02.04.01.03.02V9.35l-.03-.01-.04-.01-.03-.01-.04-.01-.03-.01h-.03l-.04-.01-.03-.01-.04-.01h-.03l-.03-.01-.04-.01-.03-.01h-.04l-.03-.01-.03-.01h-.04l-.03-.01-.04-.01h-.03l-.03-.01-.04-.01-.03-.01h-.04l-.03-.01h-.04l-.03-.01-.03-.01h-.04l-.03-.01h-.04l-.03-.01-.03-.01h-.04l-.03-.01h-.04l-.03-.01h-.03l-.04-.01-.03-.01h-.04l-.03-.01h-.03l-.04-.01h-.03l-.04-.01h-.03l-.04-.01h-.03l-.03-.01h-.07l-.04-.01h-.03L21.65 9h-.04l-.03-.01h-.07l-.03-.01h-.07l-.04-.01h-.03l-.03-.01h-.11l-.03-.01h-.07l-.03-.01h-.11l-.03-.01h-.14l-.03-.01h-.24l-.03-.01h-.89l-.03.01h-.21l-.03.01h-.14l-.03.01h-.1l-.04.01h-.1l-.03.01h-.07l-.04.01h-.03l-.04.01h-.06l-.04.01h-.03l-.04.01h-.06l-.04.01h-.03l-.04.01h-.03l-.03.01-.04.01h-.03l-.04.01h-.03l-.03.01h-.04l-.03.01-.04.01H18l-.04.01-.03.01h-.03l-.04.01-.03.01-.04.01h-.03l-.03.01-.04.01-.03.01-.04.01-.03.01-.03.01h-.04l-.03.01-.04.01-.03.01-.03.01-.04.01-.03.01-.04.01-.03.01c-.01.01-.02.01-.04.02l-.03.01c-.01 0-.02 0-.03.01l-.04.01-.03.01c-.01.01-.02.01-.04.02-.01 0-.02 0-.03.01l-.03.01c-.01 0-.03.01-.04.01l-.03.02-.04.01-.03.01-.03.02-.04.01-.03.02-.04.01-.03.02-.03.01c-.02.01-.03.01-.04.02l-.03.02-.04.01-.03.02c-.01.01-.02.01-.03.02-.02 0-.03.01-.04.02l-.03.02-.04.01c-.01.01-.02.02-.03.02-.01.01-.02.02-.04.02-.01.01-.02.02-.03.02-.01.01-.02.02-.03.02-.01.01-.03.02-.04.02l-.03.03-.04.02c-.01.01-.02.01-.03.02l-.03.02c-.01.01-.03.02-.04.03-.01.01-.02.01-.03.02-.01.01-.02.02-.04.03-.01.01-.02.02-.03.02l-.03.03c-.02.01-.03.02-.04.03z" fill="#ca4638"/></svg>