<svg xmlns="http://www.w3.org/2000/svg" shape-rendering="geometricPrecision" text-rendering="geometricPrecision" image-rendering="optimizeQuality" fill-rule="evenodd" clip-rule="evenodd" viewBox="0 0 2742 714"><path fill="#2D3277" d="M1004 328C1004 147 779 0 502 0S0 147 0 328v20c0 192 196 347 502 347 308 0 502-155 502-347v-20z"/><ellipse fill="#009EE3" cx="502" cy="328" rx="483" ry="309"/><path fill="#fff" d="M342 231s-5 5-2 9c8 10 31 16 55 10 14-3 32-17 50-31 19-15 38-31 57-37 20-6 33-3 41-1 10 3 21 9 38 22 33 25 166 141 189 161 19-8 101-44 212-68-9-60-46-114-100-159-77 32-171 49-262 5 0-1-50-24-99-23-72 2-104 33-137 66l-42 46z"/><path fill="#fff" d="M765 377c-2-2-156-137-192-163-20-15-31-19-43-21-6-1-15 1-21 2-16 5-37 19-56 34-20 15-38 30-55 34-22 5-49-1-61-9-5-4-9-7-10-11-5-11 4-19 5-20l43-47c5-5 10-10 15-14-14 1-27 5-39 8-16 5-30 9-46 9-6 0-39-6-46-7-38-11-72-21-123-45C75 172 35 229 23 291c9 2 23 6 29 8 137 30 180 62 188 68 8-9 20-15 34-15 15 0 28 8 37 19 8-6 18-11 32-11 7 0 13 1 20 3 16 6 24 16 28 25 5-2 11-4 19-4 7 0 15 2 23 5 25 11 29 36 27 55 1 0 3-1 5-1 30 0 55 25 54 55 0 9-2 18-6 26 8 4 29 15 47 12 15-2 20-7 22-9s3-5 2-6l-39-43s-6-6-4-9c2-2 6 1 9 4 19 16 44 41 44 41s2 4 10 5 22 1 31-7c2-2 5-4 7-7h-1c10-12-1-25-1-25l-45-51s-6-6-4-8 6 1 9 3c14 12 34 32 54 51 3 3 20 14 43-1 14-9 16-20 16-28-1-11-9-19-9-19l-62-62s-7-6-4-9c1-2 6 1 8 4 20 16 73 65 73 65 1 0 20 14 42-1 8-5 14-13 14-22 1-16-10-25-10-25z"/><path fill="#fff" d="M465 455c-9 0-20 6-21 5-1 0 0-4 1-6 1-3 14-40-17-54-24-10-38 2-43 7-1 1-2 1-2-1 0-7-3-25-24-31-29-9-47 11-52 18-2-16-16-29-33-29-19 0-34 15-34 34 0 18 15 33 34 33 9 0 17-3 23-9v1c-1 8-4 39 28 51 12 5 23 1 32-5 3-2 3-1 3 1-1 8 0 25 24 34 17 8 28 0 35-6 3-3 4-2 4 2 1 22 19 40 42 40s42-19 42-42c0-24-19-42-42-43z"/><path fill="#2D3277" d="M771 361c-48-42-158-138-188-160-17-13-29-20-39-23-4-1-11-3-19-3-7 0-16 2-24 4-19 7-38 22-57 37h-1c-17 14-35 28-49 31-6 2-12 2-18 2-15 0-28-4-34-11 0-1 0-2 2-5l42-45c33-33 64-64 135-66h4c44 0 89 20 94 22 41 21 84 31 128 31 45 0 91-11 140-34-6-4-11-9-17-13-43 18-84 28-123 28-41 0-81-10-120-29-2-1-51-24-102-24h-4c-60 1-94 23-116 41-23 1-42 6-59 11-15 4-28 8-40 8-6 0-15-1-16-1-15 0-88-18-147-40-6 4-12 8-18 13 62 25 136 44 160 46 7 0 14 1 21 1 15 0 31-4 46-9 9-2 18-5 29-7-3 3-6 6-9 8l-42 46c-3 4-11 13-6 24 2 4 6 9 11 12 10 7 29 12 45 12 7 0 13-1 18-2 18-4 37-19 57-35 16-12 38-28 55-33 5-1 11-2 16-2h4c11 2 22 5 42 20 35 26 189 162 191 163 0 0 10 9 9 23 0 8-5 15-12 20-7 4-14 6-21 6-10 0-17-5-18-5 0-1-53-49-73-66-3-2-6-5-9-5-1 0-3 1-4 2-3 4 1 9 5 13l62 62s7 7 8 17-4 19-15 25c-7 5-14 8-22 8-9 0-16-5-17-6l-9-8c-16-16-33-33-45-43-3-3-7-5-10-5-1 0-2 1-3 2-2 1-3 4 1 9 1 2 3 3 3 3l45 51s9 11 1 22l-2 2-4 4c-8 6-18 7-22 7-2 0-4-1-6-1-4-1-7-2-9-4-3-3-26-26-45-42-2-2-5-4-8-4-2 0-3 0-4 1-4 4 1 11 4 13l38 42c0 1 0 2-1 3-1 2-6 6-20 8-2 0-4 1-5 1-15 0-30-7-38-12 4-7 6-16 6-24 0-32-26-58-58-58h-2c1-14-1-41-29-53-8-4-16-6-24-6-6 0-12 1-18 3-6-11-15-19-28-23-7-3-14-4-20-4-12 0-23 3-33 10-9-11-23-18-37-18-13 0-26 5-35 14-12-9-59-39-187-68-6-2-20-6-29-8l-3 21s24 5 28 6c130 29 173 59 181 65-3 6-4 12-4 19 0 27 22 48 49 48h8c5 19 17 34 37 42 6 2 12 3 18 3 3 0 7 0 11-1 3 9 12 21 30 28 6 3 13 4 19 4 5 0 10-1 15-2 9 21 30 35 53 35 16 0 30-6 41-17 9 5 29 14 49 14h7c20-3 29-10 33-16 1-1 2-2 2-3 5 1 10 2 16 2 11 0 21-4 31-11 11-8 18-18 19-27v-1c3 1 7 1 10 1 11 0 22-3 33-10 20-13 23-30 23-41 3 0 7 1 11 1 10 0 20-3 30-10 12-7 20-20 21-34 1-9-2-19-7-27 34-15 110-43 201-63l-3-21c-109 24-191 59-211 69zM465 537c-21 0-38-16-39-37 0-2 0-7-4-7-2 0-4 1-5 3-5 4-11 8-20 8-3 0-8-1-12-2-23-10-23-25-22-31 0-2 0-3-1-5l-1-1h-2c-1 0-2 0-4 2-6 4-12 6-19 6-3 0-7 0-10-2-30-11-27-39-26-47 0-2 0-3-1-4l-2-2-2 2c-6 5-14 8-21 8-17 0-31-13-31-30s14-31 31-31c15 0 28 12 30 27l1 8 4-7c1-1 13-19 36-19 4 0 9 0 13 2 19 5 22 22 22 29 0 4 3 4 4 4s3-1 3-2c4-4 11-10 23-10 5 0 11 2 17 4 29 13 16 49 15 50-2 6-2 8 0 10h2c1 0 3 0 6-1 4-1 10-3 15-3 22 0 39 17 39 39s-17 39-39 39zm2250-418c-18-23-46-34-82-34-37 0-65 11-83 34s-27 50-27 81 9 58 27 80c18 23 46 34 83 34 36 0 64-11 82-34 18-22 27-49 27-80s-9-58-27-81zm-45 130c-9 12-21 18-38 18-16 0-29-6-38-18-8-11-13-28-13-49 0-22 5-38 13-50 9-12 22-17 38-17 17 0 29 5 38 17s13 28 13 50c0 21-4 38-13 49zm-418-149c-18-9-39-14-63-14-37 0-62 10-77 29-10 12-15 27-16 46h54c2-8 4-15 8-20 6-6 15-10 29-10 12 0 21 2 27 5 6 4 10 10 10 19 0 7-4 12-13 16-4 2-12 3-22 5l-19 2c-22 3-39 7-50 14-21 12-31 31-31 57 0 21 6 37 19 48s29 16 49 16c123 6 121-64 123-79v-81c0-26-10-43-28-53zm-29 123c0 19-5 32-16 39-10 7-21 11-34 11-8 0-14-3-20-7-5-4-8-11-8-21 0-11 5-19 14-24 5-3 14-5 26-7l12-3c7-1 12-2 15-4 4-1 8-3 11-5v21zm-251-89c14 0 24 5 31 13 4 7 7 14 8 22h61c-3-31-14-52-32-64s-42-18-70-18c-33 0-60 10-79 31-19 20-28 49-28 86 0 32 9 59 26 79 17 21 44 31 80 31 37 0 64-12 83-37 11-15 18-31 19-48h-60c-1 11-5 20-11 27s-15 11-29 11c-20 0-33-9-40-27-4-9-6-22-6-38s2-29 6-39c7-19 21-29 41-29zm-125-47c-125 0-118 110-118 110v112h57V204c0-17 2-30 6-38 8-15 23-22 46-22h7c2 0 6 0 9 1V87h-7zm-208 164c-2 3-5 6-8 8-8 7-19 9-31 9s-22-2-30-7c-15-9-22-24-23-45h156c0-19 0-33-2-43-2-17-8-32-17-44-10-15-22-25-37-32s-32-10-50-10c-32 0-58 10-77 30-20 19-30 48-30 85 0 40 11 69 33 86 22 18 47 27 76 27 34 0 61-11 80-32 11-11 17-22 20-32h-60zm-76-106c8-8 19-12 34-12 13 0 24 4 33 12 9 7 14 19 15 34h-97c2-14 7-25 15-34zm-96 164h-51V179c0-12-4-40-38-40-23 0-39 16-39 40v130h-52V179c0-12-4-40-38-40-23 0-39 16-39 40v130h-51V180c0-53 35-94 90-94 28 0 50 12 65 30 15-18 38-30 64-30 56 0 89 39 89 94v129zM2506 19s-57-6-57 40v60c-6-10-14-18-25-24-10-5-21-8-34-8-28 0-51 10-68 31s-25 52-25 88c0 32 8 58 25 78 18 21 51 30 81 30 104 0 103-90 103-90V19zm-68 231c-8 12-20 18-36 18s-28-6-36-18c-7-12-11-29-11-49 0-19 4-34 11-46 8-13 20-19 36-19 11 0 21 3 29 10 13 11 20 32 20 58 0 19-5 34-13 46z"/><path fill="#009EE3" d="M1571 668c0 8-2 14-8 20-5 5-12 8-20 8h-28V499c0-38 13-62 34-78 14-11 35-21 74-21 26 0 57 10 74 31 19 23 26 48 26 82s-8 62-24 83c-17 21-38 31-64 31-14 0-26-2-37-7-11-6-20-14-27-25v73zm95-153c0-21-4-38-12-49-9-12-21-17-36-17s-27 5-35 17c-8 10-12 27-12 49 0 21 5 36 13 47s20 17 36 17c14 0 25-6 34-17 8-12 12-27 12-47zm432 94v-14c-10 16-23 25-40 29-16 4-33 2-49-4-16-7-30-19-42-37-12-17-18-41-18-70 0-33 8-61 24-82 15-21 40-31 74-32 34 0 54 7 73 22 21 16 33 40 33 78v116c1 37-25 105-106 99-50-3-77-24-93-70h60c4 7 11 13 20 17s18 5 27 4c9-2 17-8 24-16 8-9 12-22 13-40zm-93-94c0 38 11 59 33 63 21 4 37-1 48-15 5-6 8-16 10-29s3-25 1-38c-2-12-7-24-14-33-7-10-17-15-31-15-18 0-31 7-37 20-7 14-10 30-10 47zm-104-100c-18-9-39-14-63-14-36 0-62 10-77 28-9 13-15 28-16 47h54c2-8 4-15 8-20 6-6 16-10 29-10 12 0 21 2 27 5 7 4 10 10 10 19 0 7-4 12-12 16-5 2-12 3-23 5l-19 2c-22 3-39 7-50 14-21 12-31 31-31 57 0 21 7 36 19 48 13 11 29 15 49 16 123 6 122-64 123-79v-81c0-26-10-44-28-53zm-28 123c-1 19-6 32-17 39-10 7-21 10-34 10-7 0-14-2-19-6-6-4-8-11-8-21 0-11 4-19 13-24 5-3 14-5 26-7l13-3c6-1 11-2 15-4 3-1 7-3 11-5v21zm494-105c-18-23-45-34-82-34s-65 11-83 34-27 49-27 80c0 32 9 59 27 81 18 23 46 34 83 34s64-11 82-34c18-22 27-49 27-81 0-31-9-57-27-80zm-45 130c-8 12-21 18-37 18-17 0-30-6-38-18-9-12-14-28-14-50 0-21 5-38 14-49 8-12 21-18 38-18 16 0 29 6 37 18 9 11 14 28 14 49 0 22-5 38-14 50z"/></svg>