<svg xmlns="http://www.w3.org/2000/svg" xml:space="preserve" width="40" height="25" version="1.1" viewBox="0 0 356 229" id="bcash" shape-rendering="geometricPrecision" text-rendering="geometricPrecision" image-rendering="optimizeQuality" fill-rule="evenodd" clip-rule="evenodd"><defs><style>#bcash .fil1{fill:#000}#bcash .fil2{fill:#ed1b24}</style></defs><g id="Camada_x0020_1"><g id="_498804592208"><path class="fil0 str0" d="M350 23v177c0 12-4 18-14 18H28c-10 0-15-6-16-18V24c0-12 5-18 16-18l308 1c9 1 15 5 14 16z" fill="#e4e4e4" stroke="#a9a6aa" stroke-width="8.47"/><path class="fil1" d="M53 134v-16c0-6 4-11 10-11 3 0 4 0 7 2l2 2c1 2 2 4 2 7 1 1 0 1 1 2 0 4-2 8-4 12-1 1-3 2-5 3-3 1-7 1-10 0h-2c-1 0-1 0-1-1zm5 16h-2c-5 0-13-2-18-4 0 0-2 0-2-1V72h17v26c1-1 5-3 6-3 6-3 13-3 19 0 3 2 6 5 8 8 2 2 3 5 4 8v2c1 6 1 12-1 18l-3 6c-1 2-2 3-4 4-1 1-1 2-2 2-1 1-3 2-5 3-1 1-2 1-4 2-2 0-2 0-5 1-3 0-5 1-8 1zm220-2h15v-38l1-2c3-3 9-5 13-2 1 2 1 3 1 5v37h14v-40c0-3-1-8-3-10s-4-3-6-4c-5-2-11-2-16 0-1 1-2 2-3 2l-1 1V73h-15v75zm-83-16c0-2 0-3 1-4 2-3 8-3 12-3h1v8l-3 3c-3 1-7 2-9 0l-2-2v-2zm-12-36s3 9 3 11c2 0 4-1 7-1 1-1 2-1 3-1 7-1 13-1 13 8 0 1 1 1-2 1-1 0-4 0-6 1-4 0-7 0-11 2-2 1-4 2-5 3s-1 0-1 1c-2 2-2 3-3 5v1c-1 0-1 1-1 1 0 4 0 8 1 11 1 2 2 4 4 5 3 3 7 5 11 5 3 1 7 0 10-2 2-1 3-2 5-3v-1l1 5h12v-38c0-2-2-7-3-8s-1-1-1-2c-2-3-5-5-8-6-7-2-16-1-23 0-2 1-4 1-6 2z"/><path class="fil2" d="M102 116c0 3 1 6 3 8 3 2 7 2 10 0s3-3 5-6c0 0 0-1 1-2l1-3c1-1 1-1 1-2 1-1 1-2 2-3s1-2 2-4 4-7 5-10l4-6v-1l4-7c1-2 0-1 1-2v-1c1-4 1-8 0-11-2-3-4-5-6-7-2-1-5-2-7-2h-1c-2 0-3 0-5 1-3 1-5 3-7 6v1c-1 1-2 2-2 4 0 1-1 1-1 2v1c-1 3-2 6-2 9l-4 16v2l-1 4c-1 1-1 3-1 4-1 2-2 8-2 9z"/><path class="fil1" d="M233 109c0 5 2 8 4 11l2 2 3 2c3 1 3 1 7 3 1 0 3 1 4 2 1 2 2 2 2 4 0 1-1 2-2 3-3 2-9 0-12 0-2-1-6-2-6-2l-4 11 4 2c3 1 8 2 12 2 5 0 7 0 11-1 2-1 5-2 6-4 4-3 6-7 6-12 0-4-1-6-2-9-2-2-5-6-8-7h-2c-1-1-7-3-8-4-2-2-3-4 0-7h2c3-1 6 0 10 1h1l1 1c0-1 1-3 1-4h1l2-7-3-2c-6-2-14-3-20 0h-2c-1 1-2 1-3 2l-3 2c-2 3-4 7-4 11zm-100 11c0 4 0 9 1 13 0 1 1 3 2 4 1 2 1 3 2 4l1 1 1 2c4 2 6 3 10 4 2 1 5 1 8 1 2 0 6 0 9-1h2c1-1 5-2 6-2l-1-1v-2l-2-7c0-1-1-1-1-2l-4 2c-4 1-10 2-14 0-3-1-4-4-5-7v-13c0-4 0-5 3-8 1-2 4-3 7-3h5c1 0 3 0 4 1l4 1 2-6c0-1 1-2 1-3l1-2-4-2h-1c-6-2-9-2-15-2-3 0-7 1-10 3-3 1-5 3-7 5-3 5-4 9-5 14v6z"/><path class="fil2" d="M103 149c3 0 6-2 8-4 1-1 2-2 2-4 1-2 0-4 0-6-1-3-3-5-5-6-5-2-10-1-13 3-1 2-2 5-2 7s0 3 2 5v1l2 2c2 1 4 2 6 2z"/></g></g></svg>