<svg xmlns="http://www.w3.org/2000/svg" width="40" height="25" viewBox="0 0 347 229" shape-rendering="geometricPrecision" text-rendering="geometricPrecision" image-rendering="optimizeQuality" fill-rule="evenodd" clip-rule="evenodd"><path class="fil0 str0" d="M346 23v177c0 12-4 18-14 18H24c-10 0-15-6-16-18V24C8 12 13 6 24 6l308 1c9 1 15 5 14 16z" fill="#e4e4e4" stroke="#a9a6aa" stroke-width="8.47"/><path class="fil1" d="M282 68h-23l-7-38c-2-9-11-15-19-14L59 47c-9 1-15 10-13 19l18 105c1 4 4 8 7 10s6 3 10 3h3l6-1v8c0 9 7 16 16 16h176c9 0 17-7 17-16V85c0-9-8-17-17-17zm1 17v15H106V84l177 1zM80 168L64 80l-2-18 174-30 6 36H106c-9 0-16 8-16 17v82l-10 1zm202 24l-176-1v-63h177v63s0 1-1 1z" fill="#1d1d1b"/></svg>