<svg xmlns="http://www.w3.org/2000/svg" xml:space="preserve" width="40" height="25" version="1.1" viewBox="0 0 347 229" id="itau" shape-rendering="geometricPrecision" text-rendering="geometricPrecision" image-rendering="optimizeQuality" fill-rule="evenodd" clip-rule="evenodd"><defs><style>#itau .str0{stroke:#a9a6aa;stroke-width:8.47}#itau .fil1{fill:#204484}</style></defs><g id="Camada_x0020_1"><g id="_498804557424"><path class="fil0 str0" d="M-5000-13732v177c0 12-4 19-14 19h-308c-10 0-15-7-16-18l1-176c-1-12 4-18 15-18h308c9 1 15 6 14 16z" fill="#e4e4e4"/><path class="fil1" d="M-14194-18301c0 2010 2682 1730 2682 2646 0 719-569 706-1129 706-320 0-757-110-1044-226-136-55-177-114-332-127-5 236-241 901-247 1164 361 84 672 353 1623 353 968 0 1929-221 2364-1058 511-981 99-1927-871-2446-135-73-331-145-470-200-419-167-1164-378-1164-847 0-801 1263-621 1839-428 113 38 209 86 313 110l317-1128c-210-49-343-135-585-191-586-136-1480-150-2047 64-273 103-405 180-609 343-327 260-640 689-640 1265zm18310 3634c-865 0-1068-1305 705-1305h177v564c0 398-475 741-882 741zm-1694-3387c5 231 191 676 247 917 446-235 1460-553 2011-211 165 102 282 226 282 494-1062 0-2857 300-2857 1587v247c0 1211 1731 1617 2652 923 113-86 132-179 276-217 13 600 258 458 1164 458 81 0 106-24 106-106v-2504c0-1976-1644-2165-3096-1862-401 84-608 233-785 274zm-10548 2187c0-589 36-1552 882-1552 563 0 847 654 847 1094 0 462 37 782-225 1186-527 816-1504 183-1504-728zm-1446-388c0 764 94 1314 608 1826 890 888 2504 866 3387-18 186-185 323-358 431-628 598-1498-77-3332-2133-3332-687 0-1267 258-1614 609-387 390-679 929-679 1543zm7302 2470c368 0 487 11 862-55 193-34 360-109 514-122 0-239-89-685-129-896-61-320 21-21-894-21-175 0-339-52-459-105-857-380-784-1516-396-1950 467-523 1070-412 1667-273 52-110 211-879 211-1058-380-32-330-142-1199-142-657 0-1328 299-1668 626-899 863-945 2373-157 3316 332 397 1075 680 1648 680zm9314-71h1376v-6456H7044zm-7021 0h1376v-4445H23zm-35-5821v283c0 720 1447 793 1447-71 0-232-1-387-219-593-407-385-1228-95-1228 381z"/></g><path class="fil1 str0" d="M344 23l-1 177c0 12-4 18-14 18H21c-10 0-15-6-16-18L6 24C5 12 10 6 21 6l308 1c9 1 15 5 15 16z"/><path class="fil2" d="M257 147l2 8h15V96h-19v28c0 6 1 9-2 13-1 3-4 5-9 5-10 1-11-8-11-17V96h-18c-1 9 0 19 0 28s-1 17 4 24c4 6 9 9 19 9 6 0 11-3 15-6 2-1 2-2 4-4zm-70-20c0 8 0 12-5 15-6 5-18 3-16-7 2-8 14-8 21-8zm-35-27l3 11c6-2 9-4 18-4 6 0 15 2 13 9-9 0-19 1-26 4-18 10-16 33 3 36 11 3 19-2 24-7l2 6h15v-29c0-11 0-18-6-24-4-5-12-8-22-8s-15 2-24 6zm-41-4h-9v13h9c0 10-1 30 2 38 5 11 19 12 27 8v-13c-3-1-6 0-9-2-4-4-2-28-2-31h11V96h-11V76h-18v20zm-36 59h18V76H75zm163-63c15 0 11 1 20-8l8-8h-18c-2 4-9 13-10 16z" fill="#feec00" id="_498804557200"/></g></svg>