<svg xmlns="http://www.w3.org/2000/svg" xml:space="preserve" width="212" height="33" version="1.1" viewBox="0 0 1795 279" id="logo" shape-rendering="geometricPrecision" text-rendering="geometricPrecision" image-rendering="optimizeQuality" fill-rule="evenodd" clip-rule="evenodd"><defs><style>#logo .fil2,#logo .fil3{fill:#2e2e2e;fill-rule:nonzero}#logo .fil3{fill:#595959}</style></defs><g id="Camada_x0020_1"><path class="fil0" fill="none" d="M8-90h1778v460H8z"/><g id="_1987504483440"><path class="fil1" d="M91 36c-10 64-74 82-82 132-5 66 46 101 107 104 58-1 112-42 106-104-6-65-83-82-105-160-3 3-7 7-10 11 11 48 28 67 40 79 52 51 55 147-24 152-43 3-85-47-75-93 12-49 48-48 52-121h-8z" fill="#9b325a"/><path class="fil2" d="M569 96v99h-61v-89c0-25-10-36-26-36-18 0-30 12-30 39v86h-61v-89c0-25-10-36-26-36-18 0-31 12-31 39v86h-61V21h58v18c13-14 31-21 52-21 24 0 44 9 56 27 14-17 35-27 60-27 40 0 70 23 70 77zM770 99v96h-57v-22c-9 17-26 25-51 25-42 0-65-23-65-54 0-32 23-52 77-52h35c-1-18-13-28-37-28-17 0-35 6-47 15l-21-41c20-13 49-20 77-20 56 0 89 25 89 80zm-61 41v-15h-26c-20 0-27 7-27 18 0 10 8 18 23 18 13 0 25-6 30-20zM998 22v142c0 66-37 97-102 97-33 0-65-8-86-23l22-43c14 12 38 19 59 19 33 0 46-15 46-42v-6c-12 14-29 21-52 21-46 0-85-33-85-84s39-84 85-84c24 0 43 8 54 24V22h58zm-60 81c0-21-16-35-38-35s-38 14-38 35 16 36 38 36 38-14 38-36zM1200 99v96h-57v-22c-9 17-26 25-51 25-42 0-65-23-65-54 0-32 23-52 77-52h35c-1-18-13-28-37-28-17 0-35 6-47 15l-21-41c20-13 49-20 77-20 56 0 89 25 89 80zm-61 41v-15h-26c-20 0-27 7-27 18 0 10 8 18 23 18 13 0 25-6 30-20z"/><path class="fil3" d="M1420 112c0 50-36 85-83 85-29 0-54-14-68-39v100h-16V29h15v39c13-26 38-41 69-41 47 0 83 35 83 85zm-16 0c0-42-29-71-68-71-38 0-67 29-67 71s29 71 67 71 68-29 68-71zM1590 89v106h-15v-30c-11 19-31 31-60 31-38 0-60-19-60-48 0-25 16-47 63-47h57V88c0-31-17-48-50-48-23 0-44 9-58 21l-8-12c17-15 41-24 67-24 41 0 64 21 64 62zm-16 57v-31h-57c-35 0-47 14-47 34 0 22 17 35 46 35 28 0 48-13 57-37zM1787 28l-86 190c-13 31-30 41-52 41-15 0-29-5-39-15l8-12c9 9 19 13 31 13 15 0 27-7 37-30l9-20-75-167h17l67 150 67-150h16z"/></g></g></svg>