<?xml version="1.0" encoding="UTF-8"?>
<!DOCTYPE svg PUBLIC "-//W3C//DTD SVG 1.1//EN" "http://www.w3.org/Graphics/SVG/1.1/DTD/svg11.dtd">
<!-- Creator: CorelDRAW 2017 -->
<svg xmlns="http://www.w3.org/2000/svg" xml:space="preserve" width="212" height="33" version="1.1" style="shape-rendering:geometricPrecision; text-rendering:geometricPrecision; image-rendering:optimizeQuality; fill-rule:evenodd; clip-rule:evenodd"
viewBox="0 0 1795 279"
 xmlns:xlink="http://www.w3.org/1999/xlink" id="logo">
 <defs>
  <style type="text/css">
   <![CDATA[
    #logo .fil0 {fill:none}
    #logo .fil1 {fill:#9B325A}
    #logo .fil2 {fill:#2E2E2E;fill-rule:nonzero}
    #logo .fil3 {fill:#595959;fill-rule:nonzero}
   ]]>
  </style>
 </defs>
 <g id="Camada_x0020_1">
  <metadata id="CorelCorpID_0Corel-Layer"/>
  <rect class="fil0" x="8" y="-90" width="1778" height="460"/>
  <g id="_1987504483440">
   <path class="fil1" d="M91 36c-10,64 -74,82 -82,132 -5,66 46,101 107,104 58,-1 112,-42 106,-104 -6,-65 -83,-82 -105,-160 -3,3 -7,7 -10,11 11,48 28,67 40,79 52,51 55,147 -24,152 -43,3 -85,-47 -75,-93 12,-49 48,-48 52,-121l-8 0z"/>
   <g>
    <path class="fil2" d="M569 96l0 99 -61 0 0 -89c0,-25 -10,-36 -26,-36 -18,0 -30,12 -30,39l0 86 -61 0 0 -89c0,-25 -10,-36 -26,-36 -18,0 -31,12 -31,39l0 86 -61 0 0 -174 58 0 0 18c13,-14 31,-21 52,-21 24,0 44,9 56,27 14,-17 35,-27 60,-27 40,0 70,23 70,77z"/>
    <path class="fil2" d="M770 99l0 96 -57 0 0 -22c-9,17 -26,25 -51,25 -42,0 -65,-23 -65,-54 0,-32 23,-52 77,-52l35 0c-1,-18 -13,-28 -37,-28 -17,0 -35,6 -47,15l-21 -41c20,-13 49,-20 77,-20 56,0 89,25 89,80zm-61 41l0 0 0 -15 -26 0c-20,0 -27,7 -27,18 0,10 8,18 23,18 13,0 25,-6 30,-20z"/>
    <path class="fil2" d="M998 22l0 142c0,66 -37,97 -102,97 -33,0 -65,-8 -86,-23l22 -43c14,12 38,19 59,19 33,0 46,-15 46,-42l0 -6c-12,14 -29,21 -52,21 -46,0 -85,-33 -85,-84 0,-51 39,-84 85,-84 24,0 43,8 54,24l0 -21 58 0zm-60 81l0 0c0,-21 -16,-35 -38,-35 -22,0 -38,14 -38,35 0,21 16,36 38,36 22,0 38,-14 38,-36z"/>
    <path class="fil2" d="M1200 99l0 96 -57 0 0 -22c-9,17 -26,25 -51,25 -42,0 -65,-23 -65,-54 0,-32 23,-52 77,-52l35 0c-1,-18 -13,-28 -37,-28 -17,0 -35,6 -47,15l-21 -41c20,-13 49,-20 77,-20 56,0 89,25 89,80zm-61 41l0 0 0 -15 -26 0c-20,0 -27,7 -27,18 0,10 8,18 23,18 13,0 25,-6 30,-20z"/>
    <path class="fil3" d="M1420 112c0,50 -36,85 -83,85 -29,0 -54,-14 -68,-39l0 100 -16 0 0 -229 15 0 0 39c13,-26 38,-41 69,-41 47,0 83,35 83,85zm-16 0l0 0c0,-42 -29,-71 -68,-71 -38,0 -67,29 -67,71 0,42 29,71 67,71 38,0 68,-29 68,-71z"/>
    <path class="fil3" d="M1590 89l0 106 -15 0 0 -30c-11,19 -31,31 -60,31 -38,0 -60,-19 -60,-48 0,-25 16,-47 63,-47l57 0 0 -13c0,-31 -17,-48 -50,-48 -23,0 -44,9 -58,21l-8 -12c17,-15 41,-24 67,-24 41,0 64,21 64,62zm-16 57l0 0 0 -31 -57 0c-35,0 -47,14 -47,34 0,22 17,35 46,35 28,0 48,-13 57,-37z"/>
    <path class="fil3" d="M1787 28l-86 190c-13,31 -30,41 -52,41 -15,0 -29,-5 -39,-15l8 -12c9,9 19,13 31,13 15,0 27,-7 37,-30l9 -20 -75 -167 17 0 67 150 67 -150 16 0z"/>
   </g>
  </g>
 </g>
</svg>
