<svg width="13" height="10" fill="none" xmlns="http://www.w3.org/2000/svg"><path d="M11.494.45h-9.75C1.111.45.62.964.62 1.573v6.75A1.11 1.11 0 001.744 9.45h9.75c.61 0 1.125-.492 1.125-1.125v-6.75A1.14 1.14 0 0011.494.45zm0 1.124v.961c-.539.445-1.383 1.102-3.164 2.508-.398.305-1.172 1.055-1.71 1.031-.563.024-1.337-.726-1.735-1.031C3.104 3.637 2.26 2.98 1.745 2.535v-.96h9.75zm-9.75 6.75V3.988c.516.422 1.29 1.032 2.438 1.946.515.398 1.43 1.289 2.437 1.265.985.024 1.875-.867 2.414-1.265a385.816 385.816 0 012.461-1.946v4.336h-9.75z" fill="#000"/></svg>