<svg width="12" height="12" fill="none" xmlns="http://www.w3.org/2000/svg"><path d="M9.526 2.275A5.12 5.12 0 005.846.73C2.986.729.643 3.072.643 5.932c0 .937.258 1.828.703 2.601L.619 11.23l2.743-.704c.773.399 1.617.633 2.484.633 2.883 0 5.273-2.344 5.273-5.203 0-1.406-.609-2.695-1.593-3.68zm-3.68 7.993a4.335 4.335 0 01-2.203-.61l-.14-.094-1.641.446.445-1.594-.117-.164a4.509 4.509 0 01-.657-2.32c0-2.368 1.946-4.313 4.336-4.313 1.149 0 2.227.445 3.047 1.266.82.82 1.313 1.898 1.313 3.07 0 2.367-1.992 4.313-4.383 4.313zm2.39-3.235c-.14-.07-.773-.375-.89-.422-.117-.047-.211-.07-.305.07-.07.118-.328.423-.398.516-.094.07-.164.094-.281.024-.774-.375-1.266-.68-1.782-1.547-.14-.235.141-.211.375-.703.047-.094.024-.164 0-.235-.023-.07-.304-.703-.398-.96-.117-.258-.211-.235-.305-.235h-.234a.44.44 0 00-.352.164c-.117.14-.445.445-.445 1.078 0 .656.445 1.266.516 1.36.07.07.914 1.382 2.226 1.945.82.375 1.149.398 1.57.328.235-.023.75-.305.868-.61.117-.304.117-.562.07-.609-.023-.07-.117-.093-.234-.164z" fill="#000"/></svg>