<svg xmlns="http://www.w3.org/2000/svg" width="18" height="18" viewBox="0 0 152 152" shape-rendering="geometricPrecision" text-rendering="geometricPrecision" image-rendering="optimizeQuality" fill-rule="evenodd" clip-rule="evenodd"><path d="M71 80c-3-3-7-8-9-12 0-1-1-2 0-3 2-2 2-2 3-4 1-1 2-3 2-4l-6-15c-1-1-2-1-4-1h-4c-3 1-8 8-8 13-1 11 8 25 18 34s25 17 35 15c5-1 11-7 12-9v-4c0-2-1-3-2-4l-13-6c-1-1-2 0-3 1-1 2-2 3-4 5-1 1-2 2-3 2h-3c-4-1-9-5-12-8zm-42 45l7-19c-8-9-13-22-13-35 0-30 24-54 54-54s53 24 53 54-24 54-53 54c-12 0-23-4-32-10l-16 10zm-9-18l-10 40 36-16c9 5 20 8 31 8 37 0 67-30 67-67S114 5 77 5 10 35 10 72c0 13 4 25 10 35z" fill="#7f7d7d"/></svg>