<?xml version="1.0" encoding="UTF-8"?>
<!DOCTYPE svg PUBLIC "-//W3C//DTD SVG 1.1//EN" "http://www.w3.org/Graphics/SVG/1.1/DTD/svg11.dtd">
<!-- Creator: CorelDRAW 2017 -->
<svg xmlns="http://www.w3.org/2000/svg" xml:space="preserve" width="18" height="18" version="1.1" style="shape-rendering:geometricPrecision; text-rendering:geometricPrecision; image-rendering:optimizeQuality; fill-rule:evenodd; clip-rule:evenodd"
viewBox="0 0 152 152"
 xmlns:xlink="http://www.w3.org/1999/xlink"
 enable-background="new 0 0 26 26">
 <defs>
  <style type="text/css">
   <![CDATA[
    .fil0 {fill:#7F7D7D}
   ]]>
  </style>
 </defs>
 <g id="Layer_x0020_1">
  <metadata id="CorelCorpID_0Corel-Layer"/>
  <path class="fil0" d="M147 114c-2,-4 -6,-9 -11,-13 -3,-3 -14,-14 -21,-14 -2,0 -4,1 -5,2l-9 9c0,0 -1,0 -2,0 -5,0 -16,-6 -27,-17 -15,-15 -18,-27 -16,-29l9 -9c1,-1 2,-2 2,-5 0,-7 -10,-18 -14,-21 -3,-3 -14,-14 -21,-14 -2,0 -4,1 -5,2l-19 19c-6,6 -4,16 6,32 8,14 21,30 37,45 27,27 55,46 69,46 3,0 6,-1 8,-3l19 -19c4,-4 0,-11 -1,-13zm-24 25c0,0 -1,0 -2,0 -9,0 -35,-15 -63,-43 -15,-15 -28,-30 -36,-44 -9,-15 -8,-20 -7,-21l18 -18c2,1 8,4 14,11 6,6 10,12 11,14l-8 8c-9,9 2,28 16,42 12,12 25,19 34,19 4,0 7,-2 8,-3l8 -8c2,1 8,4 14,11 6,6 10,12 11,14l-18 18z"/>
 </g>
</svg>
