<svg width="13" height="13" fill="none" xmlns="http://www.w3.org/2000/svg"><path d="M1.463.811L3.666.32c.516-.117 1.031.14 1.219.61l1.031 2.39c.188.422.07.938-.304 1.242l-.938.774C5.33 6.554 6.362 7.56 7.58 8.24l.774-.937c.304-.375.82-.493 1.242-.305l2.39 1.008c.47.21.727.726.61 1.242l-.492 2.203c-.117.492-.563.82-1.055.82-5.742 0-10.43-4.64-10.43-10.406 0-.492.352-.937.844-1.055zm9.54 10.336l.491-2.11-2.297-.983-1.312 1.593C5.565 8.546 4.369 7.35 3.268 5.03l1.594-1.312-.985-2.297-2.133.492c.024 5.086 4.172 9.21 9.258 9.234z" fill="#000"/></svg>