<svg width="18" height="18" viewBox="0 0 18 18" fill="none" xmlns="http://www.w3.org/2000/svg">
<path d="M9.14654 4.66565C6.63984 4.66565 4.64232 6.70234 4.64232 9.16987C4.64232 11.6766 6.63984 13.6741 9.14654 13.6741C11.6141 13.6741 13.6508 11.6766 13.6508 9.16987C13.6508 6.70234 11.6141 4.66565 9.14654 4.66565ZM9.14654 12.1074C7.54068 12.1074 6.209 10.8149 6.209 9.16987C6.209 7.56402 7.50152 6.2715 9.14654 6.2715C10.7524 6.2715 12.0449 7.56402 12.0449 9.16987C12.0449 10.8149 10.7524 12.1074 9.14654 12.1074ZM14.8649 4.50898C14.8649 3.92147 14.3949 3.45147 13.8074 3.45147C13.2199 3.45147 12.7499 3.92147 12.7499 4.50898C12.7499 5.09649 13.2199 5.56649 13.8074 5.56649C14.3949 5.56649 14.8649 5.09649 14.8649 4.50898ZM17.8416 5.56649C17.7633 4.15648 17.45 2.90313 16.4316 1.88478C15.4133 0.866438 14.1599 0.553101 12.7499 0.474766C11.3007 0.396432 6.95318 0.396432 5.50399 0.474766C4.09398 0.553101 2.8798 0.866438 1.82228 1.88478C0.803938 2.90313 0.490601 4.15648 0.412266 5.56649C0.333932 7.01568 0.333932 11.3632 0.412266 12.8124C0.490601 14.2224 0.803938 15.4366 1.82228 16.4941C2.8798 17.5125 4.09398 17.8258 5.50399 17.9041C6.95318 17.9825 11.3007 17.9825 12.7499 17.9041C14.1599 17.8258 15.4133 17.5125 16.4316 16.4941C17.45 15.4366 17.7633 14.2224 17.8416 12.8124C17.92 11.3632 17.92 7.01568 17.8416 5.56649ZM15.9616 14.3399C15.6874 15.1233 15.0608 15.7108 14.3166 16.0241C13.1416 16.4941 10.3999 16.3766 9.14654 16.3766C7.85402 16.3766 5.11232 16.4941 3.97648 16.0241C3.19313 15.7108 2.60563 15.1233 2.29229 14.3399C1.82228 13.2041 1.93978 10.4624 1.93978 9.16987C1.93978 7.91652 1.82228 5.17482 2.29229 3.99981C2.60563 3.25563 3.19313 2.66813 3.97648 2.35479C5.11232 1.88478 7.85402 2.00228 9.14654 2.00228C10.3999 2.00228 13.1416 1.88478 14.3166 2.35479C15.0608 2.62896 15.6483 3.25563 15.9616 3.99981C16.4316 5.17482 16.3141 7.91652 16.3141 9.16987C16.3141 10.4624 16.4316 13.2041 15.9616 14.3399Z" fill="#A8A8A8"/>
</svg>
