<svg width="18" height="18" viewBox="0 0 18 18" fill="none" xmlns="http://www.w3.org/2000/svg">
<path d="M4.30632 17.9628V6.2257H0.655642V17.9628H4.30632ZM2.46136 4.65552C3.63899 4.65552 4.58111 3.67415 4.58111 2.49651C4.58111 1.35813 3.63899 0.416016 2.46136 0.416016C1.32297 0.416016 0.380859 1.35813 0.380859 2.49651C0.380859 3.67415 1.32297 4.65552 2.46136 4.65552ZM17.9277 17.9628H17.9669V11.5251C17.9669 8.38471 17.2604 5.95092 13.5704 5.95092C11.804 5.95092 10.6263 6.93229 10.116 7.83514H10.0768V6.2257H6.58309V17.9628H10.2338V12.1532C10.2338 10.6222 10.5086 9.1698 12.3928 9.1698C14.277 9.1698 14.3163 10.897 14.3163 12.2709V17.9628H17.9277Z" fill="black" fill-opacity="0.34"/>
</svg>
