<?xml version="1.0" encoding="UTF-8"?>
<!DOCTYPE svg PUBLIC "-//W3C//DTD SVG 1.1//EN" "http://www.w3.org/Graphics/SVG/1.1/DTD/svg11.dtd">
<!-- Creator: CorelDRAW 2017 -->
<svg xmlns="http://www.w3.org/2000/svg" xml:space="preserve" width="18" height="18" version="1.1" style="shape-rendering:geometricPrecision; text-rendering:geometricPrecision; image-rendering:optimizeQuality; fill-rule:evenodd; clip-rule:evenodd"
viewBox="0 0 152 152"
 xmlns:xlink="http://www.w3.org/1999/xlink">
 <defs>
  <style type="text/css">
   <![CDATA[
    .fil0 {fill:#7F7D7D}
   ]]>
  </style>
 </defs>
 <g id="Layer_x0020_1">
  <metadata id="CorelCorpID_0Corel-Layer"/>
  <path class="fil0" d="M71 80c-3,-3 -7,-8 -9,-12 0,-1 -1,-2 0,-3 2,-2 2,-2 3,-4 1,-1 2,-3 2,-4l-6 -15c-1,-1 -2,-1 -4,-1 -2,0 -3,0 -4,0 -3,1 -8,8 -8,13 -1,11 8,25 18,34 10,9 25,17 35,15 5,-1 11,-7 12,-9 0,-1 0,-3 0,-4 0,-2 -1,-3 -2,-4l-13 -6c-1,-1 -2,0 -3,1 -1,2 -2,3 -4,5 -1,1 -2,2 -3,2 -1,0 -3,0 -3,0 -4,-1 -9,-5 -12,-8l0 0zm-42 45l7 -19c-8,-9 -13,-22 -13,-35 0,-30 24,-54 54,-54 30,0 53,24 53,54 0,30 -24,54 -53,54 -12,0 -23,-4 -32,-10l-16 10zm-9 -18l-10 40 36 -16c9,5 20,8 31,8 37,0 67,-30 67,-67 0,-37 -30,-67 -67,-67 -37,0 -67,30 -67,67 0,13 4,25 10,35l0 0z"/>
 </g>
</svg>
