<?xml version="1.0" encoding="UTF-8"?>
<!DOCTYPE svg PUBLIC "-//W3C//DTD SVG 1.1//EN" "http://www.w3.org/Graphics/SVG/1.1/DTD/svg11.dtd">
<!-- Creator: CorelDRAW 2017 -->
<svg xmlns="http://www.w3.org/2000/svg" xml:space="preserve" width="172" height="51" version="1.1" style="shape-rendering:geometricPrecision; text-rendering:geometricPrecision; image-rendering:optimizeQuality; fill-rule:evenodd; clip-rule:evenodd"
viewBox="0 0 1456 432"
 xmlns:xlink="http://www.w3.org/1999/xlink">
 <defs>
  <style type="text/css">
   <![CDATA[
    .fil0 {fill:#898989;fill-rule:nonzero}
    .fil1 {fill:#95C12B;fill-rule:nonzero}
    .fil2 {fill:#666666;fill-rule:nonzero}
   ]]>
  </style>
 </defs>
 <g id="Layer_x0020_1">
  <metadata id="CorelCorpID_0Corel-Layer"/>
  <g id="_735357344">
   <g>
    <path class="fil0" d="M7 253c0,-11 7,-18 17,-18 11,0 17,7 17,18l0 5 1 0c10,-15 26,-23 44,-23 13,0 28,6 35,23 10,-14 23,-23 43,-23 25,0 46,12 46,44l0 75c0,10 -4,18 -18,18 -14,0 -18,-9 -18,-18l0 -66c0,-13 -6,-24 -20,-24 -14,0 -27,11 -27,28l0 61c0,10 -4,18 -18,18 -14,0 -18,-9 -18,-18l0 -66c0,-13 -6,-24 -20,-24 -14,0 -27,11 -27,28l0 61c0,10 -4,18 -18,18 -14,0 -18,-9 -18,-18l0 -101z"/>
    <path class="fil0" d="M324 308c-4,4 -12,5 -16,6l-13 2c-15,2 -24,7 -24,18 0,8 8,15 20,15 20,0 32,-13 32,-27l0 -14zm37 26c0,15 4,19 4,25 0,8 -8,14 -17,14 -16,0 -21,-10 -22,-21 -14,16 -31,21 -50,21 -21,0 -41,-14 -41,-37 0,-30 23,-39 51,-42l22 -3c9,-1 16,-3 16,-14 0,-11 -11,-15 -23,-15 -27,0 -28,20 -42,20 -9,0 -16,-7 -16,-14 0,-15 21,-33 58,-33 35,0 59,11 59,38l0 61z"/>
    <path class="fil0" d="M452 339c16,0 29,-11 29,-37 0,-27 -10,-38 -27,-38 -24,0 -31,17 -31,40 0,17 8,35 29,35zm64 20c0,44 -27,64 -65,64 -28,0 -55,-13 -55,-30 0,-9 7,-16 15,-16 15,0 18,19 39,19 22,0 31,-11 31,-40l0 -8 -1 0c-7,10 -21,18 -35,18 -39,0 -59,-25 -59,-61 0,-47 27,-70 57,-70 18,0 32,8 39,22l0 0 0 -5c0,-11 6,-17 17,-17 11,0 17,6 17,17l0 106z"/>
    <path class="fil0" d="M630 308c-4,4 -12,5 -16,6l-13 2c-15,2 -24,7 -24,18 0,8 8,15 20,15 20,0 32,-13 32,-27l0 -14zm37 26c0,15 4,19 4,25 0,8 -8,14 -17,14 -16,0 -21,-10 -22,-21 -14,16 -31,21 -50,21 -21,0 -41,-14 -41,-37 0,-30 23,-39 51,-42l22 -3c9,-1 16,-3 16,-14 0,-11 -11,-15 -23,-15 -27,0 -28,20 -42,20 -9,0 -16,-7 -16,-14 0,-15 21,-33 58,-33 35,0 59,11 59,38l0 61z"/>
    <path class="fil0" d="M698 253c0,-11 7,-18 17,-18 11,0 17,7 17,18l0 5 1 0c10,-15 26,-23 44,-23 13,0 28,6 35,23 10,-14 23,-23 43,-23 25,0 46,12 46,44l0 75c0,10 -4,18 -18,18 -14,0 -18,-9 -18,-18l0 -66c0,-13 -6,-24 -20,-24 -14,0 -27,11 -27,28l0 61c0,10 -4,18 -18,18 -14,0 -18,-9 -18,-18l0 -66c0,-13 -6,-24 -20,-24 -14,0 -27,11 -27,28l0 61c0,10 -4,18 -18,18 -14,0 -18,-9 -18,-18l0 -101z"/>
    <path class="fil0" d="M993 345c22,0 31,-20 31,-42 0,-24 -10,-42 -31,-42 -21,0 -31,18 -31,42 0,22 9,42 31,42zm0 -111c44,0 68,30 68,69 0,37 -18,69 -68,69 -50,0 -68,-32 -68,-69 0,-39 24,-69 68,-69z"/>
    <path class="fil0" d="M1148 264c-22,0 -29,22 -29,41 0,21 8,40 29,40 20,-1 29,-18 29,-40 0,-17 -6,-41 -29,-41zm-64 -60c0,-12 7,-18 18,-18 11,0 18,6 18,18l0 50 1 0c7,-12 20,-19 36,-19 39,0 56,33 56,68 0,47 -27,70 -57,70 -18,0 -33,-8 -39,-23l-1 0 0 6c0,11 -6,17 -17,17 -11,0 -17,-6 -17,-17l0 -151z"/>
    <path class="fil0" d="M1239 253c0,-10 4,-18 18,-18 14,0 18,9 18,18l0 101c0,10 -4,18 -18,18 -14,0 -18,-9 -18,-18l0 -101z"/>
    <polygon class="fil1" points="1410,134 1138,29 1141,21 1413,127 "/>
    <polygon class="fil1" points="1258,207 1254,200 1410,127 1413,134 "/>
    <path class="fil1" d="M1403 167c-20,-5 -33,-25 -28,-45 5,-20 25,-33 45,-28 20,5 33,25 28,45 -5,20 -25,33 -45,28z"/>
    <path class="fil1" d="M1252 225c-12,-3 -19,-15 -16,-26 3,-12 15,-19 26,-16 12,3 19,15 16,26 -3,12 -15,19 -26,16z"/>
    <path class="fil1" d="M1135 41c-9,-2 -14,-11 -12,-19 2,-9 11,-14 19,-12 9,2 14,11 12,19 -2,9 -11,14 -19,12z"/>
   </g>
   <path class="fil2" d="M45 121l7 0 0 31c0,5 -1,10 -2,13 -1,3 -3,6 -7,8 -3,2 -7,3 -13,3 -5,0 -9,-1 -12,-3 -3,-2 -6,-4 -7,-8 -1,-3 -2,-8 -2,-14l0 -31 7 0 0 31c0,5 0,8 1,10 1,2 2,4 4,5 2,1 5,2 8,2 5,0 9,-1 11,-4 2,-2 3,-7 3,-14l0 -31z"/>
   <path id="1" class="fil2" d="M64 175l0 -39 6 0 0 6c1,-2 3,-3 5,-5 2,-1 4,-2 7,-2 3,0 5,1 7,2 2,1 3,3 4,5 3,-5 7,-7 12,-7 4,0 7,1 9,3 2,2 3,5 3,10l0 27 -7 0 0 -25c0,-3 0,-5 -1,-6 0,-1 -1,-2 -2,-3 -1,-1 -2,-1 -4,-1 -3,0 -5,1 -7,3 -2,2 -3,5 -3,9l0 23 -7 0 0 -25c0,-3 -1,-5 -2,-7 -1,-1 -3,-2 -5,-2 -2,0 -4,0 -5,1 -2,1 -3,2 -3,4 -1,2 -1,5 -1,8l0 20 -7 0z"/>
   <path id="2" class="fil2" d="M152 170c-2,2 -5,4 -7,4 -2,1 -5,1 -7,1 -4,0 -8,-1 -10,-3 -2,-2 -3,-5 -3,-8 0,-2 0,-4 1,-5 1,-2 2,-3 3,-4 1,-1 3,-2 5,-2 1,0 3,-1 6,-1 5,-1 9,-1 12,-2 0,-1 0,-1 0,-2 0,-3 -1,-5 -2,-6 -2,-2 -4,-2 -8,-2 -3,0 -5,1 -7,2 -2,1 -3,3 -3,6l-7 -1c1,-3 2,-5 3,-7 1,-2 3,-3 6,-4 3,-1 6,-1 9,-1 3,0 6,0 8,1 2,1 4,2 5,3 1,1 2,3 2,5 0,1 0,3 0,6l0 9c0,6 0,10 0,12 0,2 1,3 2,5l-7 0c-1,-1 -1,-3 -1,-5zm-1 -15c-2,1 -6,2 -11,2 -3,0 -5,1 -6,1 -1,0 -2,1 -3,2 -1,1 -1,2 -1,3 0,2 1,3 2,4 1,1 3,2 6,2 3,0 5,-1 7,-2 2,-1 3,-3 4,-5 1,-2 1,-4 1,-7l0 -2z"/>
   <path id="3" class="fil2" d="M217 162l7 1c-1,4 -3,7 -6,9 -3,2 -7,3 -11,3 -6,0 -10,-2 -14,-5 -3,-4 -5,-8 -5,-15 0,-7 2,-12 5,-15 3,-4 8,-5 13,-5 5,0 10,2 13,5 3,4 5,9 5,15 0,0 0,1 0,2l-29 0c0,4 1,8 4,10 2,2 5,3 8,3 2,0 5,-1 6,-2 2,-1 3,-3 4,-6zm-22 -11l22 0c0,-3 -1,-6 -3,-7 -2,-3 -5,-4 -8,-4 -3,0 -6,1 -8,3 -2,2 -3,5 -3,8z"/>
   <path id="4" class="fil2" d="M232 175l0 -39 6 0 0 6c1,-2 3,-3 5,-5 2,-1 4,-2 7,-2 3,0 5,1 7,2 2,1 3,3 4,5 3,-5 7,-7 12,-7 4,0 7,1 9,3 2,2 3,5 3,10l0 27 -7 0 0 -25c0,-3 0,-5 -1,-6 0,-1 -1,-2 -2,-3 -1,-1 -2,-1 -4,-1 -3,0 -5,1 -7,3 -2,2 -3,5 -3,9l0 23 -7 0 0 -25c0,-3 -1,-5 -2,-7 -1,-1 -3,-2 -5,-2 -2,0 -4,0 -5,1 -2,1 -3,2 -3,4 -1,2 -1,5 -1,8l0 20 -7 0z"/>
   <path id="5" class="fil2" d="M295 190l0 -54 6 0 0 5c1,-2 3,-3 5,-4 2,-1 4,-2 7,-2 3,0 6,1 9,3 3,2 4,4 6,7 1,3 2,7 2,10 0,4 -1,8 -2,11 -1,3 -4,6 -6,7 -3,2 -6,3 -9,3 -2,0 -4,0 -6,-1 -2,-1 -3,-2 -4,-4l0 19 -7 0zm6 -34c0,5 1,9 3,11 2,2 5,4 7,4 3,0 5,-1 8,-4 2,-3 3,-6 3,-12 0,-5 -1,-9 -3,-11 -2,-2 -4,-4 -7,-4 -3,0 -5,1 -7,4 -2,3 -3,6 -3,12z"/>
   <path id="6" class="fil2" d="M337 175l0 -39 6 0 0 6c2,-3 3,-5 4,-6 1,-1 3,-1 4,-1 2,0 5,1 7,2l-2 6c-2,-1 -3,-1 -5,-1 -1,0 -3,0 -4,1 -1,1 -2,2 -2,4 -1,2 -1,5 -1,8l0 20 -7 0z"/>
   <path id="7" class="fil2" d="M389 162l7 1c-1,4 -3,7 -6,9 -3,2 -7,3 -11,3 -6,0 -10,-2 -14,-5 -3,-4 -5,-8 -5,-15 0,-7 2,-12 5,-15 3,-4 8,-5 13,-5 5,0 10,2 13,5 3,4 5,9 5,15 0,0 0,1 0,2l-29 0c0,4 1,8 4,10 2,2 5,3 8,3 2,0 5,-1 6,-2 2,-1 3,-3 4,-6zm-22 -11l22 0c0,-3 -1,-6 -3,-7 -2,-3 -5,-4 -8,-4 -3,0 -6,1 -8,3 -2,2 -3,5 -3,8z"/>
   <path id="8" class="fil2" d="M401 163l7 -1c0,3 1,5 3,6 2,1 4,2 7,2 3,0 5,-1 7,-2 1,-1 2,-3 2,-4 0,-1 -1,-3 -2,-4 -1,-1 -3,-1 -7,-2 -5,-1 -8,-2 -10,-3 -2,-1 -3,-2 -4,-4 -1,-2 -1,-3 -1,-5 0,-2 0,-3 1,-5 1,-1 2,-3 3,-4 1,-1 2,-1 4,-2 2,-1 4,-1 6,-1 3,0 6,0 8,1 2,1 4,2 5,4 1,2 2,4 2,6l-7 1c0,-2 -1,-4 -3,-5 -1,-1 -3,-2 -6,-2 -3,0 -5,1 -7,2 -1,1 -2,2 -2,4 0,1 0,2 1,2 1,1 1,1 3,2 1,0 3,1 6,2 5,1 8,2 10,3 2,1 3,2 4,3 1,2 2,3 2,6 0,2 -1,4 -2,6 -1,2 -3,3 -6,5 -2,1 -5,2 -8,2 -5,0 -9,-1 -12,-3 -3,-2 -4,-5 -5,-9z"/>
   <path id="9" class="fil2" d="M467 170c-2,2 -5,4 -7,4 -2,1 -5,1 -7,1 -4,0 -8,-1 -10,-3 -2,-2 -3,-5 -3,-8 0,-2 0,-4 1,-5 1,-2 2,-3 3,-4 1,-1 3,-2 5,-2 1,0 3,-1 6,-1 5,-1 9,-1 12,-2 0,-1 0,-1 0,-2 0,-3 -1,-5 -2,-6 -2,-2 -4,-2 -8,-2 -3,0 -5,1 -7,2 -2,1 -3,3 -3,6l-7 -1c1,-3 2,-5 3,-7 1,-2 3,-3 6,-4 3,-1 6,-1 9,-1 3,0 6,0 8,1 2,1 4,2 5,3 1,1 2,3 2,5 0,1 0,3 0,6l0 9c0,6 0,10 0,12 0,2 1,3 2,5l-7 0c-1,-1 -1,-3 -1,-5zm-1 -15c-2,1 -6,2 -11,2 -3,0 -5,1 -6,1 -1,0 -2,1 -3,2 -1,1 -1,2 -1,3 0,2 1,3 2,4 1,1 3,2 6,2 3,0 5,-1 7,-2 2,-1 3,-3 4,-5 1,-2 1,-4 1,-7l0 -2z"/>
   <path id="10" class="fil2" d="M530 175l0 -5c-2,4 -6,6 -11,6 -3,0 -6,-1 -9,-3 -3,-2 -5,-4 -6,-7 -1,-3 -2,-7 -2,-11 0,-4 1,-7 2,-11 1,-3 3,-6 6,-7 3,-2 6,-3 9,-3 2,0 4,1 6,2 2,1 3,2 4,4l0 -19 7 0 0 54 -6 0zm-21 -20c0,5 1,9 3,11 2,2 5,4 8,4 3,0 5,-1 7,-4 2,-2 3,-6 3,-11 0,-5 -1,-9 -3,-12 -2,-3 -5,-4 -8,-4 -3,0 -5,1 -7,4 -2,2 -3,6 -3,11z"/>
   <path id="11" class="fil2" d="M544 155c0,-7 2,-13 6,-16 3,-3 7,-4 12,-4 5,0 10,2 13,5 3,4 5,8 5,15 0,5 -1,9 -2,12 -2,3 -4,5 -7,7 -3,2 -6,2 -9,2 -6,0 -10,-2 -13,-5 -3,-4 -5,-9 -5,-15zm7 0c0,5 1,9 3,11 2,2 5,4 8,4 3,0 6,-1 8,-4 2,-3 3,-6 3,-11 0,-5 -1,-9 -3,-11 -2,-2 -5,-4 -8,-4 -3,0 -6,1 -8,4 -2,2 -3,6 -3,11z"/>
   <path id="12" class="fil2" d="M609 178l6 1c0,2 1,3 2,4 2,1 4,2 7,2 3,0 5,-1 7,-2 2,-1 3,-3 3,-5 0,-1 1,-4 0,-9 -3,3 -7,5 -11,5 -5,0 -10,-2 -13,-6 -3,-4 -4,-9 -4,-14 0,-4 1,-7 2,-10 1,-3 3,-6 6,-7 3,-2 6,-3 9,-3 5,0 8,2 11,6l0 -5 6 0 0 34c0,6 -1,10 -2,13 -1,3 -3,5 -6,6 -3,1 -6,2 -10,2 -5,0 -8,-1 -11,-3 -3,-2 -4,-5 -4,-9zm5 -24c0,5 1,9 3,11 2,2 5,4 8,4 3,0 6,-1 8,-4 2,-2 3,-6 3,-11 0,-5 -1,-8 -3,-11 -2,-2 -5,-4 -8,-4 -3,0 -5,1 -8,4 -2,2 -3,6 -3,11z"/>
   <path id="13" class="fil2" d="M652 175l0 -39 6 0 0 6c2,-3 3,-5 4,-6 1,-1 3,-1 4,-1 2,0 5,1 7,2l-2 6c-2,-1 -3,-1 -5,-1 -1,0 -3,0 -4,1 -1,1 -2,2 -2,4 -1,2 -1,5 -1,8l0 20 -7 0z"/>
   <path id="14" class="fil2" d="M703 175l0 -6c-3,4 -7,7 -12,7 -2,0 -4,0 -6,-1 -2,-1 -3,-2 -4,-3 -1,-1 -2,-3 -2,-5 0,-1 0,-3 0,-6l0 -24 7 0 0 22c0,3 0,6 0,7 0,2 1,3 3,4 1,1 3,2 5,2 2,0 4,-1 6,-2 2,-1 3,-2 4,-4 1,-2 1,-4 1,-8l0 -21 7 0 0 39 -6 0z"/>
   <path id="15" class="fil2" d="M719 190l0 -54 6 0 0 5c1,-2 3,-3 5,-4 2,-1 4,-2 7,-2 3,0 6,1 9,3 3,2 4,4 6,7 1,3 2,7 2,10 0,4 -1,8 -2,11 -1,3 -4,6 -6,7 -3,2 -6,3 -9,3 -2,0 -4,0 -6,-1 -2,-1 -3,-2 -4,-4l0 19 -7 0zm6 -34c0,5 1,9 3,11 2,2 5,4 7,4 3,0 5,-1 8,-4 2,-3 3,-6 3,-12 0,-5 -1,-9 -3,-11 -2,-2 -4,-4 -7,-4 -3,0 -5,1 -7,4 -2,3 -3,6 -3,12z"/>
   <path id="16" class="fil2" d="M759 155c0,-7 2,-13 6,-16 3,-3 7,-4 12,-4 5,0 10,2 13,5 3,4 5,8 5,15 0,5 -1,9 -2,12 -2,3 -4,5 -7,7 -3,2 -6,2 -9,2 -6,0 -10,-2 -13,-5 -3,-4 -5,-9 -5,-15zm7 0c0,5 1,9 3,11 2,2 5,4 8,4 3,0 6,-1 8,-4 2,-3 3,-6 3,-11 0,-5 -1,-9 -3,-11 -2,-2 -5,-4 -8,-4 -3,0 -6,1 -8,4 -2,2 -3,6 -3,11z"/>
  </g>
 </g>
</svg>
