<svg xmlns="http://www.w3.org/2000/svg" width="172" height="51" viewBox="0 0 1456 432" shape-rendering="geometricPrecision" text-rendering="geometricPrecision" image-rendering="optimizeQuality" fill-rule="evenodd" clip-rule="evenodd"><defs><style>.fil1,.fil2{fill-rule:nonzero;fill:#95c12b}.fil2{fill:#666}</style></defs><g id="Layer_x0020_1"><g id="_735357344"><path d="M7 253c0-11 7-18 17-18 11 0 17 7 17 18v5h1c10-15 26-23 44-23 13 0 28 6 35 23 10-14 23-23 43-23 25 0 46 12 46 44v75c0 10-4 18-18 18s-18-9-18-18v-66c0-13-6-24-20-24s-27 11-27 28v61c0 10-4 18-18 18s-18-9-18-18v-66c0-13-6-24-20-24s-27 11-27 28v61c0 10-4 18-18 18s-18-9-18-18V251zm317 55c-4 4-12 5-16 6l-13 2c-15 2-24 7-24 18 0 8 8 15 20 15 20 0 32-13 32-27v-14zm37 26c0 15 4 19 4 25 0 8-8 14-17 14-16 0-21-10-22-21-14 16-31 21-50 21-21 0-41-14-41-37 0-30 23-39 51-42l22-3c9-1 16-3 16-14s-11-15-23-15c-27 0-28 20-42 20-9 0-16-7-16-14 0-15 21-33 58-33 35 0 59 11 59 38v61zm91 5c16 0 29-11 29-37 0-27-10-38-27-38-24 0-31 17-31 40 0 17 8 35 29 35zm64 20c0 44-27 64-65 64-28 0-55-13-55-30 0-9 7-16 15-16 15 0 18 19 39 19 22 0 31-11 31-40v-8h-1c-7 10-21 18-35 18-39 0-59-25-59-61 0-47 27-70 57-70 18 0 32 8 39 22v-5c0-11 6-17 17-17s17 6 17 17v106zm114-51c-4 4-12 5-16 6l-13 2c-15 2-24 7-24 18 0 8 8 15 20 15 20 0 32-13 32-27v-14zm37 26c0 15 4 19 4 25 0 8-8 14-17 14-16 0-21-10-22-21-14 16-31 21-50 21-21 0-41-14-41-37 0-30 23-39 51-42l22-3c9-1 16-3 16-14s-11-15-23-15c-27 0-28 20-42 20-9 0-16-7-16-14 0-15 21-33 58-33 35 0 59 11 59 38v61zm31-81c0-11 7-18 17-18 11 0 17 7 17 18v5h1c10-15 26-23 44-23 13 0 28 6 35 23 10-14 23-23 43-23 25 0 46 12 46 44v75c0 10-4 18-18 18s-18-9-18-18v-66c0-13-6-24-20-24s-27 11-27 28v61c0 10-4 18-18 18s-18-9-18-18v-66c0-13-6-24-20-24s-27 11-27 28v61c0 10-4 18-18 18s-18-9-18-18V251zm295 92c22 0 31-20 31-42 0-24-10-42-31-42s-31 18-31 42c0 22 9 42 31 42zm0-111c44 0 68 30 68 69 0 37-18 69-68 69s-68-32-68-69c0-39 24-69 68-69zm155 30c-22 0-29 22-29 41 0 21 8 40 29 40 20-1 29-18 29-40 0-17-6-41-29-41zm-64-60c0-12 7-18 18-18s18 6 18 18v50h1c7-12 20-19 36-19 39 0 56 33 56 68 0 47-27 70-57 70-18 0-33-8-39-23h-1v6c0 11-6 17-17 17s-17-6-17-17V205zm155 49c0-10 4-18 18-18s18 9 18 18v101c0 10-4 18-18 18s-18-9-18-18V253z" fill="#898989" fill-rule="nonzero"/><path class="fil1" d="M1410 134L1138 29l3-8 272 106z"/><path class="fil1" d="M1258 207l-4-7 156-73 3 7z"/><path class="fil1" d="M1403 167c-20-5-33-25-28-45s25-33 45-28 33 25 28 45-25 33-45 28zm-151 58c-12-3-19-15-16-26 3-12 15-19 26-16 12 3 19 15 16 26-3 12-15 19-26 16zM1135 41c-9-2-14-11-12-19 2-9 11-14 19-12 9 2 14 11 12 19-2 9-11 14-19 12z"/><path class="fil2" d="M45 121h7v31c0 5-1 10-2 13s-3 6-7 8c-3 2-7 3-13 3-5 0-9-1-12-3s-6-4-7-8c-1-3-2-8-2-14v-31h7v31c0 5 0 8 1 10s2 4 4 5 5 2 8 2c5 0 9-1 11-4 2-2 3-7 3-14v-31z"/><path id="1" class="fil2" d="M64 175v-39h6v6c1-2 3-3 5-5 2-1 4-2 7-2s5 1 7 2 3 3 4 5c3-5 7-7 12-7 4 0 7 1 9 3s3 5 3 10v27h-7v-25c0-3 0-5-1-6 0-1-1-2-2-3s-2-1-4-1c-3 0-5 1-7 3s-3 5-3 9v23h-7v-25c0-3-1-5-2-7-1-1-3-2-5-2s-4 0-5 1c-2 1-3 2-3 4-1 2-1 5-1 8v20h-7z"/><path id="2" class="fil2" d="M152 170c-2 2-5 4-7 4-2 1-5 1-7 1-4 0-8-1-10-3s-3-5-3-8c0-2 0-4 1-5 1-2 2-3 3-4s3-2 5-2c1 0 3-1 6-1 5-1 9-1 12-2v-2c0-3-1-5-2-6-2-2-4-2-8-2-3 0-5 1-7 2s-3 3-3 6l-7-1c1-3 2-5 3-7s3-3 6-4 6-1 9-1 6 0 8 1 4 2 5 3 2 3 2 5v27c0 2 1 3 2 5h-7c-1-1-1-3-1-5zm-1-15c-2 1-6 2-11 2-3 0-5 1-6 1s-2 1-3 2-1 2-1 3c0 2 1 3 2 4s3 2 6 2 5-1 7-2 3-3 4-5 1-4 1-7v-2z"/><path id="3" class="fil2" d="M217 162l7 1c-1 4-3 7-6 9s-7 3-11 3c-6 0-10-2-14-5-3-4-5-8-5-15s2-12 5-15c3-4 8-5 13-5s10 2 13 5c3 4 5 9 5 15v2h-29c0 4 1 8 4 10 2 2 5 3 8 3 2 0 5-1 6-2 2-1 3-3 4-6zm-22-11h22c0-3-1-6-3-7-2-3-5-4-8-4s-6 1-8 3-3 5-3 8z"/><path id="4" class="fil2" d="M232 175v-39h6v6c1-2 3-3 5-5 2-1 4-2 7-2s5 1 7 2 3 3 4 5c3-5 7-7 12-7 4 0 7 1 9 3s3 5 3 10v27h-7v-25c0-3 0-5-1-6 0-1-1-2-2-3s-2-1-4-1c-3 0-5 1-7 3s-3 5-3 9v23h-7v-25c0-3-1-5-2-7-1-1-3-2-5-2s-4 0-5 1c-2 1-3 2-3 4-1 2-1 5-1 8v20h-7z"/><path id="5" class="fil2" d="M295 190v-54h6v5c1-2 3-3 5-4s4-2 7-2 6 1 9 3 4 4 6 7c1 3 2 7 2 10 0 4-1 8-2 11s-4 6-6 7c-3 2-6 3-9 3-2 0-4 0-6-1s-3-2-4-4v19h-7zm6-34c0 5 1 9 3 11s5 4 7 4c3 0 5-1 8-4 2-3 3-6 3-12 0-5-1-9-3-11s-4-4-7-4-5 1-7 4-3 6-3 12z"/><path id="6" class="fil2" d="M337 175v-39h6v6c2-3 3-5 4-6s3-1 4-1c2 0 5 1 7 2l-2 6c-2-1-3-1-5-1-1 0-3 0-4 1s-2 2-2 4c-1 2-1 5-1 8v20h-7z"/><path id="7" class="fil2" d="M389 162l7 1c-1 4-3 7-6 9s-7 3-11 3c-6 0-10-2-14-5-3-4-5-8-5-15s2-12 5-15c3-4 8-5 13-5s10 2 13 5c3 4 5 9 5 15v2h-29c0 4 1 8 4 10 2 2 5 3 8 3 2 0 5-1 6-2 2-1 3-3 4-6zm-22-11h22c0-3-1-6-3-7-2-3-5-4-8-4s-6 1-8 3-3 5-3 8z"/><path id="8" class="fil2" d="M401 163l7-1c0 3 1 5 3 6s4 2 7 2 5-1 7-2c1-1 2-3 2-4s-1-3-2-4-3-1-7-2c-5-1-8-2-10-3s-3-2-4-4-1-3-1-5 0-3 1-5c1-1 2-3 3-4s2-1 4-2 4-1 6-1c3 0 6 0 8 1s4 2 5 4 2 4 2 6l-7 1c0-2-1-4-3-5-1-1-3-2-6-2s-5 1-7 2c-1 1-2 2-2 4 0 1 0 2 1 2 1 1 1 1 3 2 1 0 3 1 6 2 5 1 8 2 10 3s3 2 4 3c1 2 2 3 2 6 0 2-1 4-2 6s-3 3-6 5c-2 1-5 2-8 2-5 0-9-1-12-3s-4-5-5-9z"/><path id="9" class="fil2" d="M467 170c-2 2-5 4-7 4-2 1-5 1-7 1-4 0-8-1-10-3s-3-5-3-8c0-2 0-4 1-5 1-2 2-3 3-4s3-2 5-2c1 0 3-1 6-1 5-1 9-1 12-2v-2c0-3-1-5-2-6-2-2-4-2-8-2-3 0-5 1-7 2s-3 3-3 6l-7-1c1-3 2-5 3-7s3-3 6-4 6-1 9-1 6 0 8 1 4 2 5 3 2 3 2 5v27c0 2 1 3 2 5h-7c-1-1-1-3-1-5zm-1-15c-2 1-6 2-11 2-3 0-5 1-6 1s-2 1-3 2-1 2-1 3c0 2 1 3 2 4s3 2 6 2 5-1 7-2 3-3 4-5 1-4 1-7v-2z"/><path id="10" class="fil2" d="M530 175v-5c-2 4-6 6-11 6-3 0-6-1-9-3s-5-4-6-7-2-7-2-11 1-7 2-11c1-3 3-6 6-7 3-2 6-3 9-3 2 0 4 1 6 2s3 2 4 4v-19h7v54h-6zm-21-20c0 5 1 9 3 11s5 4 8 4 5-1 7-4c2-2 3-6 3-11s-1-9-3-12-5-4-8-4-5 1-7 4c-2 2-3 6-3 11z"/><path id="11" class="fil2" d="M544 155c0-7 2-13 6-16 3-3 7-4 12-4s10 2 13 5c3 4 5 8 5 15 0 5-1 9-2 12-2 3-4 5-7 7s-6 2-9 2c-6 0-10-2-13-5-3-4-5-9-5-15zm7 0c0 5 1 9 3 11s5 4 8 4 6-1 8-4 3-6 3-11-1-9-3-11-5-4-8-4-6 1-8 4c-2 2-3 6-3 11z"/><path id="12" class="fil2" d="M609 178l6 1c0 2 1 3 2 4 2 1 4 2 7 2s5-1 7-2 3-3 3-5c0-1 1-4 0-9-3 3-7 5-11 5-5 0-10-2-13-6s-4-9-4-14c0-4 1-7 2-10s3-6 6-7c3-2 6-3 9-3 5 0 8 2 11 6v-5h6v34c0 6-1 10-2 13s-3 5-6 6-6 2-10 2c-5 0-8-1-11-3s-4-5-4-9zm5-24c0 5 1 9 3 11s5 4 8 4 6-1 8-4c2-2 3-6 3-11s-1-8-3-11c-2-2-5-4-8-4s-5 1-8 4c-2 2-3 6-3 11z"/><path id="13" class="fil2" d="M652 175v-39h6v6c2-3 3-5 4-6s3-1 4-1c2 0 5 1 7 2l-2 6c-2-1-3-1-5-1-1 0-3 0-4 1s-2 2-2 4c-1 2-1 5-1 8v20h-7z"/><path id="14" class="fil2" d="M703 175v-6c-3 4-7 7-12 7-2 0-4 0-6-1s-3-2-4-3-2-3-2-5v-30h7v29c0 2 1 3 3 4 1 1 3 2 5 2s4-1 6-2 3-2 4-4 1-4 1-8v-21h7v39h-6z"/><path id="15" class="fil2" d="M719 190v-54h6v5c1-2 3-3 5-4s4-2 7-2 6 1 9 3 4 4 6 7c1 3 2 7 2 10 0 4-1 8-2 11s-4 6-6 7c-3 2-6 3-9 3-2 0-4 0-6-1s-3-2-4-4v19h-7zm6-34c0 5 1 9 3 11s5 4 7 4c3 0 5-1 8-4 2-3 3-6 3-12 0-5-1-9-3-11s-4-4-7-4-5 1-7 4-3 6-3 12z"/><path id="16" class="fil2" d="M759 155c0-7 2-13 6-16 3-3 7-4 12-4s10 2 13 5c3 4 5 8 5 15 0 5-1 9-2 12-2 3-4 5-7 7s-6 2-9 2c-6 0-10-2-13-5-3-4-5-9-5-15zm7 0c0 5 1 9 3 11s5 4 8 4 6-1 8-4 3-6 3-11-1-9-3-11-5-4-8-4-6 1-8 4c-2 2-3 6-3 11z"/></g></g></svg>