<svg width="114" height="88" fill="none" xmlns="http://www.w3.org/2000/svg"><path fill-rule="evenodd" clip-rule="evenodd" d="M25.194 2.281a2.005 2.005 0 00-1.656.878l-2.704-.625v-.1a2.414 2.414 0 00-4.732-.661l-3.34.284a1.593 1.593 0 10.304 1.42l3.079-.253a2.409 2.409 0 004.195.662l2.877.667a1.988 1.988 0 101.989-2.272h-.012zm-6.768 1.42a1.278 1.278 0 110-2.556 1.278 1.278 0 010 2.556zM9.418 6.13a2.25 2.25 0 11-4.5 0 2.25 2.25 0 014.5 0zm3.774 32.792s-.247.606.18.924c.426.318 2.059.32 3.726.213 1.667-.108 4.97-.213 6.286-.247.194-.005.383-.006.565-.006 1.049-.003 1.865-.005 2.167-.883.132-.384.166-.718.195-1.003.049-.48.083-.82.552-1.02.252-.107.768-.07 1.412-.023 1.269.092 3.032.22 4.232-.653 1.524-1.107 1.489-2.036 1.461-2.747a4.418 4.418 0 01-.004-.377c.01-.201.007-.524.003-.905-.01-1.037-.024-2.5.21-3.072.22-.536.99-1.138 1.566-1.59.264-.206.487-.381.599-.503a5.03 5.03 0 01.119-.125c.386-.395.993-1.016.449-2.327-.367-.884-.864-1.505-1.285-2.032-.273-.341-.513-.643-.666-.95-.057-.114-.122-.221-.191-.335-.403-.665-.956-1.579-1.017-5.701-.012-.86-.01-1.562-.007-2.152.013-2.719.014-3.061-1.592-5.66-1.954-3.16-3.082-2.84-3.371-2.271-.517 1.014.105 2.025 1.028 3.124.923 1.1 1.792 2.363 1.616 6.16-.176 3.799.236 5.94.787 7.156.386.854.873 1.504 1.259 2.02.406.542.7.934.644 1.255-.103.588-.495.917-.933 1.285-.452.38-.954.802-1.243 1.595-.537 1.476-.533 3.487-.531 4.696v.204c0 1.355-.775 1.355-2.338 1.355h-.096c-2.36 0-4.099.355-4.562 2.022-.32 1.159-1.42 1.202-4.883 1.278-.583.013-1.165.011-1.727.01-2.485-.01-4.58-.016-4.61 1.285zm11.541 2.617s-.9-.285-9.328.806c-8.521 1.1 3.102 4.355 5.445 4.97 1.739.455 3.645 1.538 4.616 2.106.971.568 2.78.199 2.01-.995-1.632-2.53-7.384-3.462-9.702-3.789-2.318-.326 4.448-1.582 6.769-1.17 2.32.412 2.533-.094 2.366-.968-.168-.875-2.176-.96-2.176-.96zm-11.737 5.16s-.602.356-.497.924c.105.568.551 1.244 2.824 2.059.689.247 1.672.624 2.747 1.035l.002.001h.001v.001h.001c2.468.945 5.415 2.074 6.392 2.246l.213.038c1.255.225 1.831.328 1.863-.782.03-.993-3.722-2.36-5.868-3.141l-.002-.001c-.382-.14-.714-.26-.964-.357-.385-.15-.881-.38-1.433-.638-1.814-.845-4.229-1.97-5.278-1.385zm2.497 5.06a1.588 1.588 0 00-1.005 1.562c.054 1.19.693 2.84 2.15 3.604 1.457.764 3.727 1.207 5.005.568 1.278-.639 2.167-1.988 2.096-2.627l-.007-.066c-.028-.253-.042-.379-.108-.465-.065-.085-.182-.131-.414-.224h-.001l-.2-.08c-.598-.245-4.116-1.455-5.4-1.897h-.001l-.25-.086-.172-.06c-.074-.025-.15-.054-.23-.083-.472-.175-1.018-.378-1.463-.147zm22.456 3.788V49.23h4.707c1.339-.002 2.292-.432 2.86-1.292.569-.86.852-2.266.852-4.218-.001-1.934-.285-3.331-.852-4.192-.566-.862-1.52-1.293-2.86-1.293h-5.445v17.312h.738zm7.002-8.171c-.466.732-1.247 1.099-2.343 1.099H37.95v-9.41h4.659c1.085-.004 1.861.36 2.329 1.093.468.733.702 1.93.702 3.593.007 1.684-.222 2.892-.688 3.625zm2.13-4.656v12.827l.713-.01v-9.025c.25-.568.573-1.1.96-1.585a4.48 4.48 0 011.157-1.011 4.581 4.581 0 011.383-.537c.54-.108 1.09-.16 1.642-.156v-.83a8.53 8.53 0 00-1.722.205 4.893 4.893 0 00-1.394.568 4.26 4.26 0 00-1.117.991c-.358.46-.663.96-.909 1.489V42.72h-.712zm14.07 12.935c.178-.035.353-.088.522-.159l.011-.78c-.13.058-.265.102-.403.133-.219.057-.483.113-.801.17-.318.057-.656.105-1.02.148-.35.039-.704.059-1.057.06a6.632 6.632 0 01-1.988-.256 3.098 3.098 0 01-1.335-.804 3.266 3.266 0 01-.761-1.44 8.32 8.32 0 01-.239-2.133v-.634h7.823v-2.195a14.78 14.78 0 00-.18-2.486 3.993 3.993 0 00-.641-1.67 2.624 2.624 0 00-1.275-.94 6.183 6.183 0 00-2.077-.284 6.442 6.442 0 00-2.105.284 2.84 2.84 0 00-1.346.94 3.951 3.951 0 00-.71 1.67c-.15.82-.22 1.652-.207 2.486v2.84a9.402 9.402 0 00.284 2.488c.157.62.462 1.194.889 1.67.424.443.957.766 1.545.938a7.632 7.632 0 002.272.284c.316 0 .648-.014.989-.048.34-.034.667-.074.977-.123.31-.048.588-.102.832-.159zm-3.514-17.92l2.866 3.693h.803l-3.36-4.292h-.568l-3.408 4.292h.76l2.907-3.693zm3.453 7.88c.108.699.157 1.405.148 2.113l-.003 1.482h-7.158v-1.482c-.01-.709.05-1.417.18-2.114.087-.513.293-1 .602-1.42.292-.372.687-.65 1.136-.8a5.204 5.204 0 011.752-.256 4.942 4.942 0 011.736.255c.427.155.798.434 1.065.801.287.426.473.912.542 1.42zm15.847.275v9.657l.719-.008v-9.85c-.002-1.17-.216-2.016-.642-2.537-.426-.52-1.133-.781-2.12-.781a4.602 4.602 0 00-2.7.744 5.008 5.008 0 00-1.705 2.255c-.05-1.03-.29-1.795-.713-2.272-.423-.477-1.09-.719-2.002-.719a3.285 3.285 0 00-2.4.915 7.162 7.162 0 00-1.545 2.403l.02-2.977h-.714v12.816h.713V46.49a7.91 7.91 0 011.557-2.425 2.917 2.917 0 012.147-.852c.827 0 1.418.21 1.764.633.347.423.523 1.105.523 2.048v9.657h.71v-9.373c.46-1.053 1.012-1.81 1.656-2.273a4.09 4.09 0 012.446-.695c.826 0 1.417.21 1.763.633.347.423.523 1.105.523 2.048zm2.312-7.877v3.148h.71v-3.148h-.71zm0 4.707v12.827h.71V42.72h-.71zM89.94 53.272a8.497 8.497 0 00.284-2.326l-.014-3.528c-.002-1.823-.369-3.114-1.1-3.871-.73-.758-1.853-1.136-3.368-1.136-1.517-.006-2.641.372-3.372 1.136-.73.763-1.096 2.053-1.096 3.871v3.528a8.52 8.52 0 00.284 2.326c.151.58.435 1.117.83 1.568.377.412.859.715 1.394.878a7.385 7.385 0 003.934 0 3.124 3.124 0 001.394-.878c.394-.451.678-.988.83-1.568zm-1.347-9.134c.612.649.918 1.74.918 3.275l.003 3.542c.005 1.547-.3 2.646-.918 3.297-.617.652-1.564.977-2.84.977-1.275 0-2.221-.325-2.84-.977-.62-.651-.93-1.75-.93-3.297v-3.542c.002-1.517.305-2.605.91-3.264.604-.66 1.556-.989 2.857-.989 1.282.002 2.229.328 2.84.978zm14.6 8.336v3.073h.71V38.014h-.71v6.941a6.523 6.523 0 00-1.937-1.92 5.064 5.064 0 00-2.73-.69 4.703 4.703 0 00-1.704.27c-.441.17-.823.466-1.096.852a3.633 3.633 0 00-.585 1.489 12.785 12.785 0 00-.168 2.235v3.746c-.009.761.047 1.521.168 2.273.082.557.276 1.092.568 1.573.254.404.623.724 1.06.918a3.938 3.938 0 001.618.284c1.267 0 2.279-.313 3.037-.938a6.146 6.146 0 001.769-2.573zm-1.849-8.57a6.468 6.468 0 011.849 1.912v5.653a6.987 6.987 0 01-.662 1.474 4.84 4.84 0 01-.968 1.159 4.313 4.313 0 01-1.307.77 4.689 4.689 0 01-1.65.283c-1.108 0-1.87-.338-2.292-1.022-.424-.685-.634-1.747-.634-3.196v-3.73c-.01-.62.04-1.242.148-1.854.076-.445.247-.869.503-1.241.238-.327.57-.574.951-.707a4.26 4.26 0 011.483-.222 4.545 4.545 0 012.579.721zm11.606 11.751c.179-.036.354-.089.523-.159l.011-.78a2.07 2.07 0 01-.406.133 10.77 10.77 0 01-.801.17c-.315.057-.653.105-1.017.148a9.826 9.826 0 01-1.057.06 6.63 6.63 0 01-1.988-.256 3.098 3.098 0 01-1.335-.804 3.242 3.242 0 01-.761-1.44 8.286 8.286 0 01-.239-2.133v-.634h7.823v-2.195a14.78 14.78 0 00-.179-2.486 4.003 4.003 0 00-.642-1.67 2.625 2.625 0 00-1.276-.94 6.189 6.189 0 00-2.076-.284 6.445 6.445 0 00-2.105.284 2.84 2.84 0 00-1.346.94 3.953 3.953 0 00-.71 1.67 12.63 12.63 0 00-.207 2.486v2.84a9.357 9.357 0 00.284 2.488c.156.62.461 1.194.889 1.67.424.443.957.766 1.545.938a7.631 7.631 0 002.272.284c.315 0 .648-.014.989-.048.34-.034.667-.074.977-.123.309-.048.588-.102.832-.159zm-.045-10.04c.107.699.156 1.405.147 2.113v1.482h-7.158v-1.482c-.01-.709.05-1.417.179-2.114a3.38 3.38 0 01.6-1.42c.293-.37.688-.649 1.136-.8a5.201 5.201 0 011.752-.256 4.946 4.946 0 011.736.255c.426.156.797.435 1.065.801.287.426.473.912.543 1.42zM7.072 59.35v16.39h.708V59.35h-.708zm10.073 7.271v9.118l.67.017v-9.325c0-1.11-.23-1.912-.69-2.403-.46-.491-1.227-.739-2.31-.739a4.741 4.741 0 00-2.911.852 5.894 5.894 0 00-1.815 2.273v-2.818h-.67V75.74h.681v-8.564a6.554 6.554 0 011.832-2.31 4.331 4.331 0 012.679-.806c.906 0 1.556.199 1.945.6.392.399.588 1.053.588 1.962zm9.978 6.965a8.106 8.106 0 00.261-2.201v-3.34c-.002-1.72-.346-2.942-1.034-3.665-.687-.723-1.746-1.085-3.175-1.085-1.426.002-2.484.364-3.173 1.085-.69.722-1.034 1.943-1.034 3.664v3.33a8.107 8.107 0 00.261 2.2c.142.553.409 1.066.782 1.498a2.9 2.9 0 001.312.829c.6.18 1.225.265 1.852.253a6.068 6.068 0 001.854-.253c.505-.154.958-.44 1.313-.83.37-.428.638-.937.78-1.485zm-1.273-8.65c.568.618.852 1.651.852 3.1l.003 3.354c.01 1.466-.274 2.507-.852 3.125-.577.617-1.466.926-2.664.926-1.203 0-2.095-.309-2.676-.926-.581-.618-.872-1.66-.872-3.125v-3.354c0-1.434.284-2.463.852-3.088.568-.625 1.466-.937 2.693-.937 1.208 0 2.096.308 2.664.926zm1.162-1.34l4.235 12.143h.915l4.394-12.143h-.727L31.733 75l-3.977-11.404h-.744zm16.625 9.587v2.556h.693v-8.217a7.125 7.125 0 00-.261-2.114 2.866 2.866 0 00-.784-1.292 2.928 2.928 0 00-1.324-.659 8.56 8.56 0 00-1.886-.185 14.356 14.356 0 00-1.988.117 7.459 7.459 0 00-1.344.3v.765a9.18 9.18 0 011.35-.324c.612-.1 1.231-.146 1.851-.139a7.957 7.957 0 011.648.15c.426.081.824.272 1.153.554.324.3.558.684.679 1.108a5.96 5.96 0 01.224 1.79v1.525a7.679 7.679 0 00-1.732-.716 9.218 9.218 0 00-2.625-.324c-.55-.011-1.1.04-1.639.15a2.335 2.335 0 00-1.042.495c-.272.244-.469.56-.568.912a4.925 4.925 0 00-.168 1.397v1.989c-.005.434.039.867.13 1.292.078.366.243.708.484.994.26.293.595.512.968.634.518.162 1.06.236 1.602.218a4.895 4.895 0 001.636-.252 4.68 4.68 0 001.287-.67 4.55 4.55 0 00.957-.958c.26-.348.493-.715.7-1.096zm-1.67-4.196a7.25 7.25 0 011.67.682l.009 2.767a8.501 8.501 0 01-.631 1.073 4.422 4.422 0 01-2.136 1.662 4.59 4.59 0 01-1.616.267 4.53 4.53 0 01-1.364-.173 1.724 1.724 0 01-1.235-1.318 4.828 4.828 0 01-.11-1.097v-1.704a4.03 4.03 0 01.147-1.19 1.61 1.61 0 01.483-.761c.254-.208.557-.347.88-.404a6.689 6.689 0 011.346-.116 9.205 9.205 0 012.557.312zm9.098 7.002c.319-.075.63-.179.931-.31v-.855c-.319.172-.66.3-1.014.381-.473.109-.957.16-1.443.15a5.155 5.155 0 01-1.647-.23 2.48 2.48 0 01-1.12-.747 3.224 3.224 0 01-.633-1.349 9.03 9.03 0 01-.193-2.005V68.4a9.124 9.124 0 01.194-2.028 3.22 3.22 0 01.633-1.349 2.477 2.477 0 011.119-.747 5.157 5.157 0 011.647-.23c.465-.005.93.037 1.387.125.36.07.707.19 1.033.358v-.807a3.617 3.617 0 00-.903-.312 6.735 6.735 0 00-1.536-.15 5.962 5.962 0 00-1.926.283 2.906 2.906 0 00-1.324.89 3.898 3.898 0 00-.753 1.578 9.84 9.84 0 00-.241 2.355v2.679a9.83 9.83 0 00.241 2.355c.128.577.385 1.118.753 1.582.35.413.808.722 1.324.889a5.96 5.96 0 001.926.284 6.18 6.18 0 001.545-.165zm-1.64.582h-.723l-.355 2.244a.638.638 0 00.335-.12.977.977 0 00.252-.283c.07-.116.13-.239.177-.367a2.78 2.78 0 00.11-.412l.205-1.062zm10.794-3.388v2.556h.694v-8.217a7.128 7.128 0 00-.262-2.114 2.866 2.866 0 00-.784-1.292 2.928 2.928 0 00-1.323-.659 8.56 8.56 0 00-1.886-.185 14.37 14.37 0 00-1.989.117 7.43 7.43 0 00-1.343.3v.765c.44-.142.892-.25 1.349-.324.612-.1 1.232-.146 1.852-.139a7.955 7.955 0 011.647.15 2.49 2.49 0 011.154.554c.323.3.558.684.678 1.108.166.582.241 1.185.225 1.79v1.525a7.682 7.682 0 00-1.733-.716 9.217 9.217 0 00-2.624-.324c-.55-.011-1.1.04-1.64.15a2.335 2.335 0 00-1.042.495 1.94 1.94 0 00-.568.912 4.925 4.925 0 00-.167 1.397v1.989a5.8 5.8 0 00.13 1.292c.077.366.243.708.483.994.261.293.596.512.969.634.518.162 1.06.236 1.602.218a4.895 4.895 0 001.636-.252 4.68 4.68 0 001.286-.67 4.58 4.58 0 00.958-.958 9.15 9.15 0 00.698-1.096zm-1.67-4.196a7.249 7.249 0 011.67.682v2.77c-.18.371-.389.729-.622 1.07a4.424 4.424 0 01-2.136 1.662 4.59 4.59 0 01-1.616.267 4.52 4.52 0 01-1.363-.173 1.724 1.724 0 01-1.236-1.318 4.834 4.834 0 01-.11-1.097v-1.704a4.03 4.03 0 01.147-1.19c.086-.294.253-.559.483-.761.254-.208.557-.347.88-.404a6.69 6.69 0 011.347-.116 9.205 9.205 0 012.556.312zm.841-7.493c.264-.194.488-.437.662-.715v-.759c-.18.32-.423.6-.716.821-.27.191-.593.291-.923.284a1.635 1.635 0 01-.764-.173 6.1 6.1 0 01-.66-.392 6.65 6.65 0 00-.67-.392 1.688 1.688 0 00-.772-.173 1.548 1.548 0 00-.96.3 2.648 2.648 0 00-.662.716v.739c.189-.311.432-.585.719-.81a1.5 1.5 0 01.92-.298c.252-.003.5.06.719.185.215.122.437.253.659.392.225.138.455.269.69.392.248.126.523.19.8.184.345.01.681-.096.958-.3zm10.629 12.092c.186-.719.273-1.46.258-2.201v-3.34c.002-1.72-.341-2.942-1.03-3.665-.69-.723-1.748-1.085-3.176-1.085-1.43.002-2.488.364-3.176 1.085-.687.722-1.031 1.943-1.031 3.664v3.33a8.114 8.114 0 00.259 2.2c.145.554.417 1.067.795 1.498.354.39.807.677 1.312.829a6.911 6.911 0 003.693 0 2.9 2.9 0 001.312-.83 3.69 3.69 0 00.784-1.485zm-1.264-8.65c.568.618.852 1.651.852 3.1v3.354c.006 1.466-.278 2.507-.852 3.125-.574.617-1.462.926-2.664.926-1.201 0-2.092-.309-2.673-.926-.582-.618-.872-1.66-.872-3.125v-3.354c-.002-1.434.282-2.463.852-3.088.57-.625 1.467-.937 2.693-.937 1.208 0 2.096.308 2.664.926zm13.583 6.508l1.173 4.295h.787l-4.525-16.39h-1.006l-4.709 16.39h.781l1.21-4.295h6.289zm-6.07-.784l3.016-10.62 2.886 10.62h-5.902zm14.722 5.286a4.32 4.32 0 001.07-.369l.006-.858c-.382.178-.785.31-1.198.392a8.288 8.288 0 01-1.818.185 5.804 5.804 0 01-1.989-.301c-.531-.182-1-.51-1.355-.946a4.183 4.183 0 01-.764-1.684 11.526 11.526 0 01-.241-2.54v-4.573c-.014-.853.067-1.704.242-2.54a4.164 4.164 0 01.764-1.684 2.91 2.91 0 011.349-.934 6.033 6.033 0 011.988-.284 7.974 7.974 0 011.733.173c.428.083.842.227 1.23.426v-.875a5.32 5.32 0 00-1.063-.383 7.01 7.01 0 00-1.86-.219 6.922 6.922 0 00-2.273.335c-.62.21-1.168.59-1.582 1.097a5.029 5.029 0 00-.931 1.962 12.05 12.05 0 00-.307 2.932v4.573c-.018.986.085 1.97.307 2.931.163.715.481 1.384.931 1.963.415.506.963.886 1.582 1.096a6.926 6.926 0 002.273.333c.641.01 1.281-.06 1.906-.208zm2.337-16.596v16.39h.708V59.35h-.708zm10.723 11.54v4.849l.702-.003v-4.871a5.677 5.677 0 00-.205-1.65 3.164 3.164 0 00-.511-1.04 1.96 1.96 0 00-.679-.554 2.603 2.603 0 00-.707-.219c.228-.033.451-.099.661-.196.236-.116.438-.291.586-.508.202-.306.347-.645.428-1.003.125-.553.181-1.12.168-1.687v-.83a7.085 7.085 0 00-.159-1.536 3.257 3.257 0 00-.523-1.21 2.451 2.451 0 00-.965-.798 3.41 3.41 0 00-1.48-.284h-5.624v16.39h.67v-7.92h5.397c.29 0 .578.047.852.14.274.099.519.266.71.486.23.277.398.6.494.946a5.2 5.2 0 01.185 1.5zm-.352-8.887c.09.425.134.858.13 1.292l.009.815a5.823 5.823 0 01-.159 1.511 2.374 2.374 0 01-.435.89 1.292 1.292 0 01-.636.428c-.258.07-.525.105-.792.103h-5.397v-6.908h4.814c.42-.013.838.065 1.224.23.318.144.594.367.801.647.216.296.366.634.441.992zm9.331 7.214c.235.599.34 1.241.306 1.884l-.028 1.002c.027.56-.07 1.12-.284 1.64a2.325 2.325 0 01-.852.98 3.47 3.47 0 01-1.381.485c-.61.09-1.226.132-1.843.128a9.002 9.002 0 01-1.668-.15 6.443 6.443 0 01-1.499-.475v.872c.467.222.965.375 1.477.451.556.086 1.118.128 1.681.125.741.009 1.482-.048 2.213-.17a3.905 3.905 0 001.582-.625c.429-.31.758-.74.946-1.236a5.48 5.48 0 00.318-2.03v-.992a8.086 8.086 0 00-.122-1.514 3.135 3.135 0 00-.364-1.014 1.85 1.85 0 00-.613-.636 3.903 3.903 0 00-.895-.392 11.573 11.573 0 00-1.545-.347 22.965 22.965 0 01-1.844-.369 7.218 7.218 0 01-.957-.284 1.94 1.94 0 01-1.247-1.315 4.349 4.349 0 01-.179-1.36v-.787a4.305 4.305 0 01.284-1.673 2.33 2.33 0 01.784-1.006c.383-.26.82-.43 1.279-.494a10.825 10.825 0 011.772-.128 7.849 7.849 0 011.557.15 6.896 6.896 0 011.502.498v-.9a6.251 6.251 0 00-1.471-.464 8.503 8.503 0 00-1.545-.139 11.582 11.582 0 00-2.048.162 3.618 3.618 0 00-1.509.61 2.844 2.844 0 00-.94 1.26 5.716 5.716 0 00-.326 2.101v.815c-.008.504.04 1.007.142 1.5.078.386.243.75.482 1.062.248.307.563.552.921.716.46.21.941.372 1.434.483.582.12 1.134.216 1.648.284.585.085 1.162.22 1.724.403a1.759 1.759 0 011.108.89zm-13.365 17.44a3.21 3.21 0 001.525.364c.559 0 1.062-.122 1.509-.364a2.72 2.72 0 001.065-1.003c.258-.432.387-.914.387-1.447a2.725 2.725 0 00-1.452-2.45 3.114 3.114 0 00-1.509-.363 3.15 3.15 0 00-1.525.372 2.724 2.724 0 00-1.065 1.003c-.253.427-.38.906-.38 1.439 0 .532.127 1.01.38 1.438.258.426.613.763 1.065 1.011zm2.735-.45a2.5 2.5 0 01-1.21.292 2.55 2.55 0 01-1.218-.292c-.36-.2-.646-.474-.856-.822a2.307 2.307 0 01-.306-1.177c0-.433.102-.822.306-1.17a2.19 2.19 0 01.856-.822c.365-.2.772-.3 1.218-.3.446 0 .85.1 1.21.3.361.195.643.469.848.822.204.348.306.737.306 1.17 0 .431-.102.824-.306 1.177a2.207 2.207 0 01-.848.822zm-90.606.766v-5.531h-.59v2.465H7.67v-2.465h-.597v5.531h.597v-2.552h3.535v2.552h.588zm5.837 0v-.505h-3.397v-2.055h2.921v-.498h-2.92v-1.968h3.275v-.505h-3.873v5.531h3.994zm1.404-5.531h.597v5.026h3.163v.505h-3.76v-5.531zm8.745 5.531v-.505h-3.397v-2.055h2.92v-.498h-2.92v-1.968h3.276v-.505h-3.873v5.531h3.994zm6.124-5.531v5.531h-.492l-3.631-4.488v4.488h-.598v-5.531h.493l3.639 4.488v-4.488h.589zm2.239 4.053h3.146l.678 1.478h.63l-2.582-5.531h-.59l-2.581 5.531h.62l.679-1.478zm1.573-3.445l1.355 2.971h-2.71l1.355-2.97zm6.524-.103v2.174h2.92v.505h-2.92v2.347h-.597v-5.531h3.873v.505h-3.276zm7.074 3.248l1.291 1.778h.654l-1.38-1.896c.414-.132.732-.345.952-.64.226-.3.34-.667.34-1.099 0-.59-.205-1.053-.614-1.39-.409-.338-.974-.506-1.694-.506h-2.114v5.531h.597V85.22h1.517c.156 0 .306-.008.451-.024zm.815-.837c-.295.242-.723.363-1.283.363h-1.5V81.95h1.5c.56 0 .988.12 1.283.363.296.237.444.58.444 1.027 0 .438-.148.777-.444 1.02zm2.846 1.138l-.678 1.477h-.621l2.582-5.531h.589l2.582 5.531h-.63l-.677-1.478h-3.147zm2.929-.475l-1.356-2.97-1.355 2.97h2.71zm7.18 1.952v-5.531h-.59v2.465H60.96v-2.465h-.597v5.531h.597v-2.552h3.534v2.552h.59zm7.709-5.531v5.531h-.573V82.55L70 86.271h-.282l-2.22-3.698v4.401h-.572v-5.531h.492l2.453 4.1 2.429-4.1h.492zm7.76.505c-.409-.337-.973-.505-1.694-.505h-2.114v5.531h.597v-1.746h1.517c.72 0 1.285-.166 1.694-.498.409-.337.613-.8.613-1.39 0-.59-.204-1.054-.613-1.392zm-.427 2.41c-.296.238-.724.356-1.283.356H77.34v-2.766h1.5c.56 0 .988.122 1.284.364.295.237.443.58.443 1.027 0 .438-.148.777-.443 1.02zm6.326 2.11v.506h-3.994v-5.531h3.873v.505h-3.276v1.968h2.92v.498h-2.92v2.055h3.397zm3.969-1.272l1.29 1.778h.654l-1.38-1.896c.415-.132.732-.345.953-.64.226-.3.339-.667.339-1.099 0-.59-.205-1.053-.614-1.39-.408-.338-.973-.506-1.694-.506h-2.114v5.531h.597V85.22h1.517c.156 0 .307-.008.452-.024zm.815-.837c-.296.242-.724.363-1.283.363h-1.5V81.95h1.5c.56 0 .987.12 1.283.363.296.237.444.58.444 1.027 0 .438-.148.777-.444 1.02zm3.047-2.41v2.173h2.92v.505h-2.92v2.347h-.597v-5.531h3.873v.505h-3.276zm11.207-.506h.597v5.026h3.163v.505h-3.76v-5.531zm5.348 0h-.597v5.531H114v-.505h-3.163v-5.026zM18.272 13.018a3.125 3.125 0 100-6.25 3.125 3.125 0 000 6.25zM10.97 28.134a1.628 1.628 0 11-3.255 0 1.628 1.628 0 013.255 0zm-2.2 4.741a.77.77 0 10-.001-1.54.77.77 0 000 1.54zm10.494.261a1.372 1.372 0 11-2.744 0 1.372 1.372 0 012.744 0zM6.92 15.321c.169-.054.345-.082.523-.082l-.006-.009a1.69 1.69 0 11-1.605 1.165L3.59 14.157c-.292.12-.605.182-.92.182h-.066l-.187 1.917a1.682 1.682 0 11-1.165-.114l.205-2.138a2.415 2.415 0 113.292-.853l2.17 2.17zm-5.312-4.093a1.278 1.278 0 102.125 1.42 1.278 1.278 0 00-2.125-1.42zm25.948-2.616a2.272 2.272 0 00-2.179 2.986l-4.204 3.78a5.053 5.053 0 00-5.522.017l-2.84-3.508a2.071 2.071 0 10-1.778 1.012c.095 0 .19-.008.284-.023l3.034 3.744a5.061 5.061 0 00-1.014 3.036c0 .275.026.55.073.82L8.18 21.88a2.224 2.224 0 10-3.178 3.088l-.725 1.42a1.122 1.122 0 101.048.53l.736-1.445c.131.026.264.04.398.04a2.227 2.227 0 002.213-1.988l5.297-1.42a5.113 5.113 0 002.823 2.357l-.71 1.608h-.167a2.292 2.292 0 101.568.639l.852-1.957h.08a5.07 5.07 0 002.005-.415l1.292 1.84a2.081 2.081 0 101.752-.945c-.163 0-.326.02-.485.06l-1.247-1.776a5.067 5.067 0 00.804-6.848l4.09-3.693a2.272 2.272 0 10.929-4.363zM15.909 29.504a1.136 1.136 0 110-2.272 1.136 1.136 0 010 2.272zm2.51-7.883a1.965 1.965 0 11.006 0h-.005zm9.136-9.574a1.136 1.136 0 111.136-1.137 1.15 1.15 0 01-1.136 1.136zM12.717 31.72a1.3 1.3 0 11.92 2.22c-.236 0-.467-.066-.668-.19l-1.315.872a1.167 1.167 0 11-.503-.727l1.261-.832a1.316 1.316 0 01-.076-.424 1.3 1.3 0 01.38-.92zm17.755-15.561a1.965 1.965 0 01-.245 2.29c-.324.362-.77.59-1.252.642l-.446 2.093a1.625 1.625 0 11-1.233-.256l.438-2.121a1.966 1.966 0 112.738-2.648z" fill="#828282"/></svg>