<svg xmlns="http://www.w3.org/2000/svg" width="139" height="108" viewBox="0 0 401.32 315.13" id="premio-inovacao"><defs><style>#premio-inovacao .cls-1{fill:#100f0f}#premio-inovacao .cls-6{fill:#ffc2d7}#premio-inovacao .cls-8{fill:#860a36}#premio-inovacao .cls-11{fill:#ff94b9}</style></defs><g id="Camada_2" data-name="Camada 2"><g id="Camada_1-2" data-name="Camada 1"><path class="cls-1" d="M133.6 173.29v22.24H131v-60.95h19.17q7.08 0 10.07 4.55t3 14.76q0 10.31-3 14.85t-10.07 4.55zm16.4-2.66q5.79 0 8.25-3.87t2.42-12.76q0-8.78-2.47-12.65t-8.2-3.85h-16.4v33.13zM165.75 195.53v-45.16h2.51v10.3a27.27 27.27 0 013.2-5.24 15 15 0 013.93-3.49 17.22 17.22 0 014.91-2 29.79 29.79 0 016.06-.72v2.92a28.16 28.16 0 00-5.78.55 16.14 16.14 0 00-4.87 1.89 15.78 15.78 0 00-4.07 3.56 25.21 25.21 0 00-3.38 5.58v31.77zM217.12 195.35a9.66 9.66 0 01-1.84.56c-.86.2-1.84.39-2.93.56s-2.24.31-3.44.43-2.37.17-3.48.17a26.87 26.87 0 01-8-1 12.35 12.35 0 01-5.44-3.3 13.92 13.92 0 01-3.13-5.88 33.1 33.1 0 01-1-8.76v-10a44.57 44.57 0 01.73-8.75 13.91 13.91 0 012.5-5.88 10 10 0 014.74-3.31 22.69 22.69 0 017.41-1 21.77 21.77 0 017.31 1 9.24 9.24 0 014.49 3.31 14.06 14.06 0 012.26 5.88 51.76 51.76 0 01.63 8.75v7.73h-27.54v2.23a29.29 29.29 0 00.84 7.51 11.5 11.5 0 002.68 5.07 10.91 10.91 0 004.7 2.83 23.34 23.34 0 007 .9 34.22 34.22 0 003.72-.21c1.28-.15 2.47-.32 3.59-.52s2.05-.4 2.82-.6a7.08 7.08 0 001.42-.47zM213 145.82l-10.09-13-10.23 13H190l12-15.11h2l11.83 15.11zm2.59 22.18a45.25 45.25 0 00-.52-7.44 11.79 11.79 0 00-1.91-5 8 8 0 00-3.75-2.82 17.4 17.4 0 00-6.11-.9 18.32 18.32 0 00-6.17.9 8.57 8.57 0 00-4 2.82 11.76 11.76 0 00-2.12 5 37.82 37.82 0 00-.63 7.44v5.22h25.2zM270.86 195.53v-34c0-3.32-.62-5.72-1.84-7.21s-3.3-2.23-6.21-2.23a14.4 14.4 0 00-8.61 2.45q-3.4 2.44-5.83 8v33h-2.5v-34c0-3.32-.62-5.72-1.84-7.21s-3.3-2.23-6.21-2.23a10.27 10.27 0 00-7.56 3 27.85 27.85 0 00-5.48 8.54v31.85h-2.51v-45.12h2.51l-.07 10.48a25.21 25.21 0 015.44-8.46 11.56 11.56 0 018.45-3.22c3.21 0 5.56.85 7.05 2.53s2.33 4.37 2.51 8a17.63 17.63 0 016-7.94 16.2 16.2 0 019.51-2.62q5.21 0 7.46 2.75t2.26 8.93v34.68zM279 144.88V133.8h2.5v11.08zm0 50.65v-45.16h2.5v45.16zM317.63 179.33a29.92 29.92 0 01-1 8.19 13.65 13.65 0 01-2.92 5.52 11 11 0 01-4.91 3.09 26 26 0 01-13.85 0 11 11 0 01-4.91-3.09 13.65 13.65 0 01-2.92-5.52 30 30 0 01-1-8.19v-12.42q0-9.6 3.86-13.63t11.87-4q8 0 11.86 4t3.87 13.63zm-2.51-12.44q0-8.1-3.23-11.53t-10-3.44q-6.87 0-10.06 3.48t-3.2 11.49v12.47q0 8.17 3.27 11.61t10 3.44q6.74 0 10-3.44t3.23-11.61zM363.29 195.53v-10.82a21.63 21.63 0 01-6.23 9.06q-4 3.3-10.69 3.3a13.87 13.87 0 01-5.7-1 8.5 8.5 0 01-3.73-3.23 14.93 14.93 0 01-2-5.54 47.23 47.23 0 01-.59-8v-13.19a45 45 0 01.59-7.87A12.79 12.79 0 01337 153a8.46 8.46 0 013.86-3 16.56 16.56 0 016-.95 17.83 17.83 0 019.61 2.43 23 23 0 016.82 6.76V133.8h2.5v61.73zm0-34.26a22.78 22.78 0 00-6.51-6.73 16 16 0 00-9.08-2.54 15 15 0 00-5.22.78 7 7 0 00-3.35 2.49 11 11 0 00-1.77 4.37 34.49 34.49 0 00-.52 6.53v13.13c0 5.1.74 8.84 2.23 11.25s4.17 3.6 8.07 3.6a16.51 16.51 0 005.81-1 15.19 15.19 0 004.6-2.71 17 17 0 003.41-4.08 24.52 24.52 0 002.33-5.19zM399.48 195.35a9.91 9.91 0 01-1.84.56c-.86.2-1.84.39-2.93.56s-2.24.31-3.44.43-2.37.17-3.48.17a26.87 26.87 0 01-8-1 12.35 12.35 0 01-5.44-3.3 13.92 13.92 0 01-3.13-5.88 33.1 33.1 0 01-1-8.76v-10a44.57 44.57 0 01.73-8.75 13.91 13.91 0 012.5-5.88 10 10 0 014.74-3.31 22.69 22.69 0 017.41-1 21.81 21.81 0 017.31 1 9.24 9.24 0 014.49 3.31 14.06 14.06 0 012.26 5.88 51.76 51.76 0 01.63 8.75v7.73h-27.54v2.23a29.29 29.29 0 00.84 7.51 11.4 11.4 0 002.68 5.07 10.91 10.91 0 004.7 2.83 23.34 23.34 0 007 .9 34.22 34.22 0 003.72-.21c1.28-.15 2.47-.32 3.58-.52s2.06-.4 2.82-.6a7.26 7.26 0 001.43-.47zM398 168a45.25 45.25 0 00-.52-7.44 11.79 11.79 0 00-1.91-5 8.08 8.08 0 00-3.75-2.82 17.4 17.4 0 00-6.11-.9 18.32 18.32 0 00-6.17.9 8.65 8.65 0 00-4 2.82 11.88 11.88 0 00-2.11 5 37.82 37.82 0 00-.63 7.44v5.22H398zM24.89 266.62v-57.7h2.49v57.7zM60.35 266.62v-32.1q0-4.8-2.07-6.91c-1.37-1.41-3.66-2.11-6.85-2.11a15.25 15.25 0 00-9.43 2.84 23.07 23.07 0 00-6.45 8.13v30.15h-2.4v-42.75h2.36v9.92a20.75 20.75 0 016.39-8 16.69 16.69 0 0110.25-3c3.81 0 6.51.87 8.13 2.6s2.43 4.55 2.43 8.46v32.83zM96.4 251.29a28.53 28.53 0 01-.92 7.75 13 13 0 01-2.75 5.23 10.32 10.32 0 01-4.62 2.92 21.35 21.35 0 01-6.53.89 21.28 21.28 0 01-6.52-.89 10.21 10.21 0 01-4.62-2.92 13 13 0 01-2.75-5.27 28.53 28.53 0 01-.92-7.75v-11.72q0-9.09 3.64-12.9t11.17-3.82q7.55 0 11.18 3.82t3.64 12.9zM94 239.5q0-7.65-3-10.91t-9.38-3.26q-6.48 0-9.48 3.3t-3 10.87v11.81q0 7.74 3.07 11t9.42 3.26q6.33 0 9.38-3.26t3-11zM110 266.62l-14.91-42.75h2.62l14 40.15 14.42-40.15h2.56l-15.47 42.75zM153.62 266.62v-9a32 32 0 01-2.46 3.86 16.07 16.07 0 01-3.37 3.37 16.48 16.48 0 01-4.53 2.36 17.24 17.24 0 01-5.76.89 17 17 0 01-5.64-.77 7.82 7.82 0 01-3.41-2.23 8 8 0 01-1.7-3.5 20.42 20.42 0 01-.46-4.55v-7a17.34 17.34 0 01.59-4.92 6.82 6.82 0 012-3.21 8.22 8.22 0 013.67-1.74 25.88 25.88 0 015.77-.53 32.46 32.46 0 019.24 1.14 27.05 27.05 0 016.1 2.52v-5.37a21 21 0 00-.79-6.3 8.49 8.49 0 00-2.39-3.9 8.72 8.72 0 00-4.06-1.95 28 28 0 00-5.8-.53 37.76 37.76 0 00-6.52.49 32.31 32.31 0 00-4.75 1.14v-2.69a26 26 0 014.73-1.06 50.06 50.06 0 017-.41 30.15 30.15 0 016.64.65 10.31 10.31 0 014.66 2.32 10.09 10.09 0 012.76 4.55 25.09 25.09 0 01.92 7.44v28.93zm0-21.37a25.53 25.53 0 00-5.88-2.4 32.4 32.4 0 00-9-1.1 23.53 23.53 0 00-4.74.41 6.75 6.75 0 00-3.1 1.42 5.69 5.69 0 00-1.7 2.68 14.19 14.19 0 00-.52 4.19v6a17 17 0 00.39 3.86 6.07 6.07 0 004.35 4.64 15.93 15.93 0 004.8.61 16.16 16.16 0 005.69-.94 15.57 15.57 0 004.35-2.44 16.23 16.23 0 003.17-3.41 29.94 29.94 0 002.22-3.78zM183.05 266.41a19.24 19.24 0 01-3.28 1.09 21.73 21.73 0 01-5.44.58 21 21 0 01-6.78-1 10.23 10.23 0 01-4.66-3.13 13.7 13.7 0 01-2.65-5.57 34.6 34.6 0 01-.85-8.29v-9.43a34.65 34.65 0 01.85-8.29 13.72 13.72 0 012.65-5.56 10.23 10.23 0 014.66-3.13 21 21 0 016.78-1 23.71 23.71 0 015.41.53 12.72 12.72 0 013.18 1.1v2.84a13.72 13.72 0 00-3.64-1.26 24.55 24.55 0 00-4.88-.44 18.15 18.15 0 00-5.8.81 8.72 8.72 0 00-3.94 2.63 11.35 11.35 0 00-2.23 4.75 32.12 32.12 0 00-.68 7.14v9.24a31.8 31.8 0 00.68 7.06 11.35 11.35 0 002.23 4.75 8.72 8.72 0 003.94 2.63 18.15 18.15 0 005.8.81 21 21 0 005.08-.53 14.27 14.27 0 003.57-1.34zm-11.6 3.14H174l-.72 3.74a9.43 9.43 0 01-.39 1.45 7.35 7.35 0 01-.62 1.29 3.45 3.45 0 01-.89 1 2.25 2.25 0 01-1.18.42zM212 266.62v-9a32 32 0 01-2.46 3.86 16.07 16.07 0 01-3.37 3.37 16.48 16.48 0 01-4.53 2.36 17.24 17.24 0 01-5.76.89 17 17 0 01-5.64-.77 7.82 7.82 0 01-3.41-2.23 8 8 0 01-1.7-3.5 20.42 20.42 0 01-.46-4.55v-7a17.34 17.34 0 01.59-4.92 6.82 6.82 0 012-3.21 8.22 8.22 0 013.67-1.74 25.88 25.88 0 015.77-.53 32.46 32.46 0 019.24 1.14 27.05 27.05 0 016.1 2.52v-5.37a21 21 0 00-.79-6.3 8.49 8.49 0 00-2.39-3.9 8.72 8.72 0 00-4.06-1.95 28 28 0 00-5.8-.53 37.76 37.76 0 00-6.52.49 32.31 32.31 0 00-4.75 1.14v-2.69a26 26 0 014.73-1.06 50.06 50.06 0 017-.41 30.15 30.15 0 016.64.65 10.31 10.31 0 014.66 2.32 10.09 10.09 0 012.76 4.55 25.09 25.09 0 01.92 7.44v28.93zm0-21.37a25.53 25.53 0 00-5.88-2.4 32.4 32.4 0 00-9-1.1 23.53 23.53 0 00-4.74.41 6.75 6.75 0 00-3.1 1.42 5.69 5.69 0 00-1.7 2.68 14.19 14.19 0 00-.52 4.19v6a17 17 0 00.39 3.86 6.07 6.07 0 004.35 4.64 15.93 15.93 0 004.8.61 16.16 16.16 0 005.69-.94 15.57 15.57 0 004.35-2.44 16.23 16.23 0 003.17-3.41A29.94 29.94 0 00212 255zm-.59-31.3a9.16 9.16 0 01-2.33 2.52 5.42 5.42 0 01-3.37 1.06 6 6 0 01-2.82-.65q-1.24-.65-2.43-1.38c-.78-.49-1.56-.95-2.32-1.38a5 5 0 00-2.53-.65 5.28 5.28 0 00-3.24 1.05 10.57 10.57 0 00-2.53 2.85v-2.6a9.32 9.32 0 012.33-2.52 5.45 5.45 0 013.38-1.06 5.94 5.94 0 012.72.61 23.41 23.41 0 012.36 1.38 21.45 21.45 0 002.32 1.38 5.76 5.76 0 002.69.61 5.41 5.41 0 003.25-1 9.4 9.4 0 002.52-2.89zM247.41 251.29a28.56 28.56 0 01-.91 7.75 13 13 0 01-2.76 5.23 10.21 10.21 0 01-4.62 2.92 24.33 24.33 0 01-13 0 10.21 10.21 0 01-4.62-2.92 13 13 0 01-2.8-5.27 28.56 28.56 0 01-.91-7.75v-11.72q0-9.09 3.63-12.9t11.18-3.82q7.54 0 11.18 3.82t3.63 12.9zm-2.36-11.79q0-7.65-3-10.91t-9.38-3.26q-6.47 0-9.48 3.3t-3 10.87v11.81q0 7.74 3.07 11t9.41 3.26q6.35 0 9.38-3.26t3-11zM294 266.62l-4.13-15.12h-22.14l-4.26 15.12h-2.75l16.58-57.7h3.54l15.93 57.7zm-14.88-55.27l-10.62 37.39h20.78zM324.1 266.05a15.26 15.26 0 01-3.77 1.3 27.12 27.12 0 01-6.71.73 24.39 24.39 0 01-8-1.17 12.35 12.35 0 01-5.57-3.86 17.71 17.71 0 01-3.28-6.91 42.33 42.33 0 01-1.08-10.32v-16.1a42.33 42.33 0 011.08-10.32 17.71 17.71 0 013.28-6.91 12.27 12.27 0 015.57-3.86 24.37 24.37 0 018-1.18 24.68 24.68 0 016.55.77 18.72 18.72 0 013.74 1.35v3.08a16.2 16.2 0 00-4.33-1.5 28.07 28.07 0 00-6.1-.61 21.24 21.24 0 00-7 1 10.24 10.24 0 00-4.75 3.29 14.66 14.66 0 00-2.69 5.93 40.58 40.58 0 00-.85 8.94v16.1a40.58 40.58 0 00.85 8.94 14.73 14.73 0 002.69 5.93 10.54 10.54 0 004.77 3.33 20.42 20.42 0 007 1.06 29.17 29.17 0 006.4-.65 18.61 18.61 0 004.22-1.38zM328.56 266.62v-57.7h2.49v57.7zM366.31 266.62v-17.07a18.36 18.36 0 00-.65-5.28 9 9 0 00-1.74-3.33 6 6 0 00-2.5-1.71 9.23 9.23 0 00-3-.49h-19v27.88h-2.36v-57.7h19.8a12 12 0 015.21 1 8.63 8.63 0 013.4 2.81 11.46 11.46 0 011.84 4.26 24.83 24.83 0 01.56 5.41v2.92a24.59 24.59 0 01-.59 5.94 10.73 10.73 0 01-1.51 3.53 5.37 5.37 0 01-2.06 1.79 8.49 8.49 0 01-2.33.69 9.17 9.17 0 012.49.77 6.87 6.87 0 012.39 1.95 11.15 11.15 0 011.8 3.66 19.91 19.91 0 01.72 5.81v17.15zm-.78-43.81a21.1 21.1 0 00-.46-4.55 9.12 9.12 0 00-1.55-3.49 7.2 7.2 0 00-2.82-2.28 10.2 10.2 0 00-4.31-.81h-16.95V236h19a10.24 10.24 0 002.79-.36 4.56 4.56 0 002.24-1.51A8.38 8.38 0 00365 231a20.48 20.48 0 00.56-5.32zM399 250.29a15.81 15.81 0 00-1.08-6.63 6.17 6.17 0 00-3.9-3.13 36.7 36.7 0 00-6.07-1.42c-1.81-.24-3.75-.58-5.8-1a25.59 25.59 0 01-5.05-1.7 9 9 0 01-3.24-2.52 9.12 9.12 0 01-1.7-3.74 24.26 24.26 0 01-.5-5.28V222a20.19 20.19 0 011.15-7.4 10 10 0 013.31-4.43 12.73 12.73 0 015.31-2.15 40.78 40.78 0 017.21-.57 29.91 29.91 0 015.44.49 22 22 0 015.18 1.63v3.17a24.28 24.28 0 00-5.29-1.75 27.61 27.61 0 00-5.48-.53 38.16 38.16 0 00-6.24.45 10.61 10.61 0 00-4.5 1.74 8.16 8.16 0 00-2.76 3.54 15.12 15.12 0 00-1 5.89v2.77a15.23 15.23 0 00.63 4.79 6.84 6.84 0 004.39 4.63 25.43 25.43 0 003.37 1q3.81.9 6.49 1.3a40.72 40.72 0 015.44 1.22 13.75 13.75 0 013.15 1.38 6.54 6.54 0 012.16 2.24 11 11 0 011.28 3.57 28.38 28.38 0 01.43 5.33v3.49a19.38 19.38 0 01-1.12 7.15 9.56 9.56 0 01-3.33 4.35 13.76 13.76 0 01-5.57 2.2 44.46 44.46 0 01-7.79.6 37.91 37.91 0 01-5.92-.44 18.46 18.46 0 01-5.2-1.59V263a22.74 22.74 0 005.28 1.67 31.64 31.64 0 005.87.53 42.28 42.28 0 006.49-.45 12.15 12.15 0 004.86-1.71 8.18 8.18 0 003-3.45 13.43 13.43 0 001-5.77z"/><text class="cls-2" transform="translate(22.73 307.73)" font-size="27.82" fill="#9e005d" font-family="Montserrat-Bold,Montserrat" font-weight="700">HELENA FRAHM <tspan class="cls-3" x="244.72" y="0" letter-spacing="-.01em">P</tspan><tspan x="264.81" y="0">ER</tspan><tspan class="cls-4" x="303.92" y="0" letter-spacing="-.01em">F</tspan><tspan x="321.5" y="0">OLL</tspan></text><path class="cls-1" d="M46.44 137s-.87 2.13.63 3.25 7.25 1.13 13.12.75 17.5-.75 22.13-.87 8.37.5 9.62-3.13 0-6 2.63-7.12 13.5 2.25 19.87-2.38 5-8.37 5.13-11-.38-11.25.75-14 6.37-6 7.62-7.37 4.13-3.5 2-8.63-5.5-7.75-6.87-10.5-4-4.25-4.25-21.25 1.25-16.37-5.63-27.5-10.85-10-11.87-8c-1.82 3.57.37 7.13 3.62 11s6.31 8.32 5.69 21.69.83 20.91 2.77 25.19c2.79 6.17 7.08 9.33 6.7 11.53-.74 4.21-5.66 4.64-7.66 10.14s-1.87 13.11-1.87 17.25c0 4.87-2.84 4.77-8.57 4.77-8.31 0-14.43 1.25-16.06 7.12-1.13 4.08-5 4.23-17.19 4.5-11.12.25-22.18-1.06-22.31 4.56zM87.07 146.21s-3.17-1-32.84 2.84c-30 3.87 10.92 15.33 19.17 17.5 6.12 1.6 12.83 5.41 16.25 7.41s9.79.7 7.08-3.5c-5.75-8.91-26-12.19-34.16-13.34s15.66-5.57 23.83-4.12 8.92-.33 8.33-3.41-7.66-3.38-7.66-3.38zM45.75 164.38s-2.12 1.25-1.75 3.25 1.94 4.38 9.94 7.25 27.25 10.69 32.19 11.56 7.19 1.5 7.31-2.62-18.25-10.07-24.06-12.32-18.81-9.81-23.63-7.12zM54.54 182.19a5.59 5.59 0 00-3.54 5.5c.19 4.19 2.44 10 7.57 12.69s13.12 4.25 17.62 2 7.63-7 7.38-9.25-.13-1.94-2.57-2.94-18.68-6.56-20.5-7.19-4.13-1.76-5.96-.81z"/><circle class="cls-5" cx="25.23" cy="21.55" r="7.92" fill="#df3175"/><circle class="cls-6" cx="64.32" cy="34.8" r="11"/><circle class="cls-6" cx="32.88" cy="99.02" r="5.73"/><circle class="cls-7" cx="30.86" cy="113" r="2.71" fill="#3f0b15"/><circle class="cls-8" cx="62.98" cy="116.63" r="4.83"/><path class="cls-8" d="M88.69 8a7.06 7.06 0 00-5.83 3.09l-9.52-2.2v-.35a8.5 8.5 0 00-16.66-2.33l-11.76 1a5.61 5.61 0 101.07 5l10.84-.89a8.48 8.48 0 0014.77 2.33L81.73 16a7 7 0 107-8zm-23.83 5a4.5 4.5 0 114.5-4.5 4.5 4.5 0 01-4.5 4.5z"/><path class="cls-9" d="M26.19 53.62a5.91 5.91 0 00-1.84.29l-7.64-7.64a8.5 8.5 0 10-11.59 3L4.4 56.8a5.92 5.92 0 104.1.4l.66-6.75h.23a8.51 8.51 0 003.24-.64l7.89 7.88a5.95 5.95 0 105.65-4.1zM4.89 42a4.5 4.5 0 114.5 4.5 4.51 4.51 0 01-4.5-4.5z" fill="#b60753"/><path class="cls-10" d="M97 30.29a8 8 0 00-7.67 10.51l-14.8 13.31a17.79 17.79 0 00-19.44.06l-10-12.35a7.29 7.29 0 10-6.26 3.56 6.66 6.66 0 001-.08l10.68 13.18a17.82 17.82 0 00-3.57 10.69 17.16 17.16 0 00.26 2.89L28.79 77A7.83 7.83 0 1017.6 87.87l-2.55 5a3.95 3.95 0 104.28 3.93 3.9 3.9 0 00-.59-2.06l2.59-5.09a7.23 7.23 0 001.4.14 7.84 7.84 0 007.79-7l18.65-5a18 18 0 009.94 8.3l-2.5 5.66h-.59A8.07 8.07 0 1061.54 94l3-6.89h.28a17.87 17.87 0 007.06-1.46l4.55 6.48a7.33 7.33 0 106.17-3.33 7.41 7.41 0 00-1.71.21l-4.39-6.25a17.84 17.84 0 002.83-24.11l14.4-13A8 8 0 1097 30.29zm-41 73.55a4 4 0 114-4 4 4 0 01-4 4zm8.84-27.75a6.92 6.92 0 116.91-6.92 6.93 6.93 0 01-6.89 6.92zM97 42.38a4 4 0 114-4 4.05 4.05 0 01-4 4z" fill="#ff68a0"/><path class="cls-11" d="M48 110.3a4.58 4.58 0 00-4.58 4.58 4.63 4.63 0 00.27 1.49l-4.44 2.93a4.11 4.11 0 101.87 3.44 4.24 4.24 0 00-.1-.88l4.63-3.07a4.5 4.5 0 002.35.67 4.58 4.58 0 100-9.16zM108.18 60.3a6.92 6.92 0 10-10.55 5.88l-1.54 7.47a5.72 5.72 0 104.34.9l1.57-7.37a6.92 6.92 0 006.18-6.88z"/></g></g></svg>