<svg width="54" height="54" fill="none" xmlns="http://www.w3.org/2000/svg"><circle cx="26.77" cy="27.307" r="26.443" fill="#E6B1C3"/><path fill-rule="evenodd" clip-rule="evenodd" d="M15.404 22.7c.353-6.073 5.375-10.816 11.48-10.816 6.166 0 11.13 4.799 11.482 10.816h-.001v.285c-.532.19-.913.699-.913 1.296V35.06c0 .604.39 1.118.933 1.303 0 .608 0 .297 0 0v1.193a4.108 4.108 0 01-4.107 4.107h-4.922a1.438 1.438 0 00-1.393-1.08h-3.56a1.438 1.438 0 000 2.875h3.56c.681 0 1.252-.474 1.4-1.11h4.915a4.792 4.792 0 004.792-4.792v-1.14a1.377 1.377 0 001.13-1.225l.1-.016c2.158-.376 3.82-2.697 3.82-5.504 0-2.807-1.662-5.129-3.82-5.504a3.284 3.284 0 00-.1-.016 1.377 1.377 0 00-1.138-1.226l-.01-.224c-.353-6.393-5.622-11.501-12.167-11.501-6.482 0-11.813 5.048-12.167 11.501l-.01.205a1.377 1.377 0 00-1.368 1.245l-.1.016c-2.159.375-3.821 2.697-3.821 5.504 0 2.807 1.662 5.128 3.822 5.504l.1.016a1.377 1.377 0 002.746-.131V24.28c0-.506-.274-.95-.681-1.188V22.7h-.002zm-.001 1.581V35.06a.692.692 0 01-1.384 0V24.28a.692.692 0 011.384 0zm-5.368 5.389c0-2.566 1.47-4.499 3.206-4.875v9.75c-1.736-.376-3.206-2.309-3.206-4.875zm28.102 5.389V24.28a.692.692 0 111.384 0V35.06a.692.692 0 01-1.384 0zm2.162-10.264c1.735.376 3.206 2.309 3.206 4.875s-1.47 4.499-3.206 4.874v-9.749zM27.963 41.267h-3.56a.753.753 0 000 1.506h3.56a.753.753 0 000-1.506z" fill="#D93C79"/><path fill-rule="evenodd" clip-rule="evenodd" d="M15.406 23.093c.407.239.681.682.681 1.188V35.06a1.377 1.377 0 01-2.747.13 4.136 4.136 0 01-.1-.015c-2.159-.376-3.821-2.697-3.821-5.504 0-2.807 1.662-5.129 3.822-5.504l.1-.016a1.377 1.377 0 011.367-1.245l.01-.205c.354-6.453 5.685-11.501 12.167-11.501 6.545 0 11.814 5.108 12.167 11.501l.01.224a1.377 1.377 0 011.137 1.226l.1.016c2.16.375 3.822 2.697 3.822 5.504 0 2.807-1.663 5.128-3.822 5.504a4.058 4.058 0 01-.1.016 1.377 1.377 0 01-1.129 1.224v1.14a4.792 4.792 0 01-4.792 4.793h-4.915a1.438 1.438 0 01-1.4 1.11h-3.56a1.438 1.438 0 010-2.875h3.56c.67 0 1.234.46 1.393 1.08h4.922a4.108 4.108 0 004.108-4.107v-1.193.004-.004h-.002a1.377 1.377 0 01-.932-1.303V24.28c0-.597.38-1.105.913-1.296V22.7v-.021a11.482 11.482 0 00-11.48-10.795c-5.937 0-10.85 4.485-11.442 10.316a11.651 11.651 0 00-.04.5h.003v.393zm.5-.258c.415.343.681.864.681 1.446V35.06a1.877 1.877 0 01-3.668.56c-2.346-.55-4-3.075-4-5.95 0-2.873 1.654-5.399 4-5.948a1.88 1.88 0 011.313-1.255c.47-6.62 5.975-11.767 12.653-11.767 6.77 0 12.228 5.251 12.658 11.847.513.21.91.642 1.078 1.175 2.346.55 4 3.075 4 5.949 0 2.874-1.654 5.4-4 5.948a1.88 1.88 0 01-1.05 1.165v.772a5.292 5.292 0 01-5.293 5.292h-4.563a1.937 1.937 0 01-1.752 1.11h-3.56a1.938 1.938 0 010-3.875h3.56c.763 0 1.422.44 1.738 1.08h4.577a3.607 3.607 0 003.608-3.607v-.816-.003l-.001-.014V36.68a1.876 1.876 0 01-.933-1.622V24.28c0-.683.366-1.28.911-1.609a10.983 10.983 0 00-10.978-10.289c-5.824 0-10.616 4.511-10.98 10.294v.158zm-2.665 11.71a3.104 3.104 0 01-.5-.154c-1.51-.606-2.706-2.406-2.706-4.721s1.197-4.115 2.706-4.72c.163-.066.33-.118.5-.155v9.75zm-.5-.702v-8.346c-1.199.589-2.206 2.113-2.206 4.173s1.007 3.584 2.206 4.173zm27.558-9.048c.17.037.337.089.5.154 1.509.606 2.706 2.406 2.706 4.72 0 2.316-1.197 4.116-2.706 4.722-.163.065-.33.117-.5.154v-9.75zm.5.702v8.346c1.199-.589 2.206-2.114 2.206-4.173 0-2.06-1.008-3.584-2.206-4.173zM14.903 35.06V24.28a.192.192 0 10-.384 0V35.06a.192.192 0 00.384 0zM38.637 24.28V35.06a.192.192 0 00.384 0V24.28a.192.192 0 00-.384 0zM27.963 41.767h-3.56a.253.253 0 000 .506h3.56a.253.253 0 100-.506zm-12.56-6.708V24.28a.692.692 0 10-1.384 0V35.06a.692.692 0 001.384 0zM38.137 24.28V35.06a.692.692 0 001.384 0V24.28a.692.692 0 10-1.384 0zM24.403 41.267h3.56a.753.753 0 110 1.506h-3.56a.753.753 0 010-1.506z" fill="#D93C79"/></svg>