<svg width="48" height="41" fill="none" xmlns="http://www.w3.org/2000/svg"><path fill-rule="evenodd" clip-rule="evenodd" d="M15.878 34.643c0 .462.77 1.232 1.232 1.232v.077c.335 0 .729-.408.977-.667l.1-.103c.06-.06.125-.121.193-.186.282-.27.607-.58.732-.892l-1.54-1.54c-.12.21-.4.477-.7.76-.474.45-.994.942-.994 1.32zm31.255-21.555v-.846c-.077-.77-.462-1.463-1-2.002l-1.54-1.54-7.698-7.698C35.97.078 35.509 0 34.2 0c-1.077 0-2.258 1.252-3.244 2.296-.212.224-.414.439-.605.63l-.145.142c-.333.325-.644.628-.779 1.166l-2.925-.462c-.898-.116-2.168-.352-3.509-.6-2.22-.414-4.635-.863-5.883-.863-3.31 0-6.005 2.156-7.39 4.542-.693 1.232-1.463 4.543-1.463 5.851 0 3.618 4.08 5.85 7.082 4.234 2.085-1.19 2.37-2.526 2.804-4.562l.045-.21 4.003.307c.325.065.444.062.542.105.136.06.232.208.767.742l1.077 1.078L36.51 26.329c.082.103.18.2.28.299.276.272.567.558.567 1.01 0 .924-1.001 1.77-2.233.539l-5.08-5.081c-.054-.053-.11-.114-.168-.177-.279-.301-.619-.67-1.065-.67-.615 0-1.154.616-1.077 1.155.063.506.438.856.783 1.178.075.07.149.139.218.207l4.618 4.62c.385.307 1.463 1.231.693 2.155-.824.961-1.893-.16-2.551-.85l-.22-.228-3.464-3.464a8.186 8.186 0 01-.522-.524c-.48-.512-.952-1.016-1.634-1.016-.539 0-1 .54-1 1.001 0 .638.686 1.276 1.184 1.738.104.096.199.184.278.264l4.311 4.31c.089.078.168.145.238.204.42.351.532.446.532 1.105 0 .616-.462 1.001-1.155 1.001-.503 0-1.211-.77-1.664-1.262-.101-.11-.19-.207-.26-.278l-4.311-4.31c-.083-.083-.151-.162-.215-.236-.232-.267-.396-.457-.94-.457-.616 0-1 .461-1 1.154 0 .376.305.65.543.864.055.049.106.094.149.137l4.311 4.311c.114.133.26.276.417.428.478.462 1.046 1.013 1.046 1.65 0 .77-.616 1.002-1.232 1.002-.373 0-.595-.251-.789-.47a3.341 3.341 0 00-.135-.146L4.331 15.86c-.16-.161-.324-.338-.49-.518-.707-.768-1.456-1.58-2.204-1.33-.54.154-.77.539-.77 1.078 0 .568.622 1.137 1.058 1.535.095.087.181.166.25.235l1.54 1.54 3.08 3.156c-.18.299-.729.828-1.146 1.23-.12.117-.23.223-.317.31-2.54 2.54.539 5.543 2.232 5.543 0 .933.47 1.398.97 1.894l.108.107.147.148c.574.58.786.793 1.854 1.007 0 .336.123.59.249.853.047.098.095.197.136.302.385.615 1.617 1.847 2.695 1.924.385 1.463 1.616 2.926 3.31 3.08 1.37.105 2.127-.728 2.839-1.51.328-.36.646-.711 1.01-.954l4.003 4.08c1.848 1.77 5.235.693 5.466-2.232 1.309 0 2.617-1.155 2.925-2.31.077-.154.154-.616.154-.693.118-.235.176-.23.316-.22.135.01.346.024.762-.165 1.155-.538 2.002-1.616 2.002-2.925 2.463 0 4.31-3.08 2.31-5.389a7.577 7.577 0 00-.709-.688c-.31-.278-.618-.553-.831-.851.182-.304 3.052-3.104 4.48-4.496.38-.371.657-.642.754-.74l2.618-2.617c.23-.27.423-.48.616-.692.192-.212.385-.424.616-.693a3.307 3.307 0 00.77-1.77zM12.8 31.41c0 .539.616 1.232 1.232 1.232h.077c.371 0 .643-.299.895-.576.062-.067.122-.134.182-.194.103-.103.214-.197.325-.29.223-.19.445-.377.6-.634l-1.54-1.54c-.29.174-.537.436-.773.686a11.03 11.03 0 01-.228.238c-.06.06-.127.121-.195.183-.277.252-.575.524-.575.895zm-3.156-3.08c0 .463.77 1.232 1.231 1.232v.077c.462 0 1.771-1.462 2.079-1.847-.188-.125-.4-.365-.623-.615-.326-.366-.674-.756-.994-.848-.23.154-1.693 1.54-1.693 2.002zm-3.08-3.079c0 .54.924 1.232 1.232 1.232.335 0 .729-.408.977-.666l.1-.104c.309-.308.617-.616 1.002-.924l-1.617-1.616c-.12.209-.4.476-.7.76-.474.449-.994.941-.994 1.318zm6.574-9.777h.047-.077.03zm-2.724-2.694c0 1.524 1.206 2.671 2.724 2.694.613-.014 1.438-.466 1.74-.77.756-.69.909-1.702 1.045-2.606.183-1.214.337-2.233 1.88-2.012l3.465.308c.512.04.898.048 1.204.056.892.02 1.11.026 1.799.714l1.231 1.231.428.426c1.909 1.897 9.383 9.325 9.657 9.736l4.619-4.542c-.266-.398-6.314-6.408-8.368-8.449l-.64-.635c-1.455-1.493-1.843-2.045-2.374-2.314-.564-.286-1.29-.252-3.63-.688l-.8-.15c-1.881-.357-6.115-1.159-6.821-1.159-3.387 0-5.928 2.002-6.62 5.004-.027.184-.098.549-.18.97-.16.81-.36 1.832-.36 2.186zm22.485-9.336c-.742.706-1.623 1.545-1.623 2.177l-.154-.077c0 .492.493.936.887 1.29.098.09.19.172.268.25l4.003 4.002c.16.194 1.061 1.086 2.072 2.087 1.407 1.395 3.028 3.001 3.163 3.225.305-.183 1.433-1.334 2.155-2.071l.462-.47c.062-.061.128-.12.192-.179.256-.23.5-.452.5-.82 0-.757-.257-.997-.73-1.439a13.522 13.522 0 01-.347-.333l-3.849-3.849-2.54-2.54c-.106-.105-.249-.26-.417-.442-.691-.748-1.797-1.945-2.355-1.945-.602 0-.686.095-.952.394-.074.083-.162.182-.28.3-.138.137-.293.286-.455.44zm8.154 9.875c0 1.386 2.155 1.463 2.155-.077 0-1.386-2.155-1.232-2.155.077z" fill="#fff"/></svg>