<svg width="54" height="54" fill="none" xmlns="http://www.w3.org/2000/svg"><circle cx="26.823" cy="27.058" r="26.443" fill="#E6B1C3"/><path fill-rule="evenodd" clip-rule="evenodd" d="M30.55 10.024C19.558 7.707 9.39 15.856 9.39 26.996c0 2.392.599 5.084 1.57 7.177 2.767 5.832 8.599 10.168 15.926 10.168 5.607 0 11.14-2.916 14.205-7.551 1.944-2.916 3.065-6.206 3.065-9.869 0-6.13-3.364-11.514-7.55-14.28-1.87-1.196-3.74-2.093-6.057-2.617zM8.941 35.37c-1.42-3.514-1.794-5.234-1.794-9.047 0-1.495.299-2.99.598-4.187.374-1.27.748-2.392 1.271-3.514.224-.523.523-1.046.822-1.57l.972-1.42c.187-.225.355-.449.524-.673.168-.224.336-.449.523-.673l.598-.598c.687-.874 1.686-1.644 2.606-2.352.182-.14.361-.279.534-.415.4-.285.757-.484 1.137-.695.117-.065.236-.131.359-.202 4.261-2.616 9.644-3.29 14.653-2.018.234.077.449.146.656.212.39.125.748.24 1.139.386 1.944.673 2.916 1.27 4.635 2.392 2.692 1.795 5.01 4.785 6.43 7.701 2.318 4.71 2.467 10.168.673 15.102-.374 1.047-.897 2.243-1.495 3.215l-1.496 2.168-.127.151c-1.092 1.298-1.42 1.687-2.789 2.84-2.093 1.794-5.009 3.29-7.775 3.962-1.122.3-2.692.599-4.112.599-4.262 0-5.608-.449-9.047-1.87-.221-.055-.402-.151-.603-.259-.07-.037-.142-.076-.219-.114-1.72-1.047-3.364-2.094-4.785-3.514-.023-.023-.052-.045-.084-.07-.074-.057-.163-.125-.215-.23l-.822-.971c-.972-1.196-2.169-2.916-2.767-4.337zm13.682-.45c-.299.45-.523.748-1.196.748-.224 0-.523-.149-.673-.298-.673-.599-.299-1.346.15-1.944l8.971-12.785a5.24 5.24 0 01.187-.262c.056-.075.112-.15.187-.262.15-.186.28-.373.411-.56.131-.187.262-.374.412-.56l.057-.088c.264-.4.436-.66 1.064-.66.299 0 .523.074.748.299.724.724.255 1.378-.115 1.894l-.035.05-7.775 11.064-1.57 2.243-.823 1.122zm6.729-2.093c0-1.943 2.99-1.943 2.99 0 0 1.944-2.99 1.944-2.99 0zm-1.047 2.767c-1.047-.972-1.196-1.72-1.196-2.99 0-2.842 3.888-4.86 6.355-2.468.897.897 1.121 1.72 1.121 2.99 0 2.767-3.887 4.785-6.28 2.468zm-7.028-14.43c0-1.944 2.991-1.944 2.991 0s-2.99 1.944-2.99 0zm-2.242-.25v-.049.049zm1.196 3.016c-.96-.885-1.19-1.77-1.196-3.016.024-2.753 3.895-4.752 6.28-2.441 1.121 1.121 1.196 1.869 1.196 3.215 0 .672-.598 1.794-1.196 2.317-1.496 1.271-3.664 1.271-5.084-.075z" fill="#D93C79"/></svg>