<svg width="129" height="130" viewBox="0 0 129 130" fill="none" xmlns="http://www.w3.org/2000/svg">
<path fill-rule="evenodd" clip-rule="evenodd" d="M127.933 126.229L117.49 105.183V90.6412C117.49 87.5453 116.165 84.774 114.081 82.8111C117.369 80.9772 119.623 77.4879 119.623 73.4417C119.623 67.5143 114.839 62.6919 108.957 62.6919C103.076 62.6919 98.2907 67.5143 98.2907 73.4417C98.2907 75.8711 99.1248 78.0899 100.479 79.8915H96.1574C94.9798 79.8915 94.0241 78.9262 94.0241 77.7416V71.2917V54.0922C94.0241 52.9054 93.0705 51.9422 91.8908 51.9422H85.2755C84.2836 47.0425 79.9765 43.3424 74.8246 43.3424H66.2915V32.483C73.5574 31.9628 80.1109 28.8324 85.0195 23.9929H87.6243C95.8566 23.9929 102.557 17.2421 102.557 8.94329C102.557 7.75652 101.604 6.79334 100.424 6.79334H93.6828C93.8855 5.38513 94.0241 3.95756 94.0241 2.49345C94.0241 1.30668 93.0705 0.343506 91.8908 0.343506H36.4256C35.2458 0.343506 34.2923 1.30668 34.2923 2.49345C34.2923 3.95756 34.4309 5.38513 34.6336 6.79334H27.8924C26.7127 6.79334 25.7592 7.75652 25.7592 8.94329C25.7592 17.2421 32.4598 23.9929 40.6921 23.9929H43.2969C48.2077 28.8324 54.7611 31.9628 62.0249 32.483V43.3424H53.4918C48.3421 43.3424 44.0328 47.0425 43.0409 51.9422H36.4256C35.2458 51.9422 34.2923 52.9054 34.2923 54.0922V71.2917V77.7416C34.2923 78.9262 33.3366 79.8915 32.159 79.8915H27.837C29.1916 78.0899 30.0257 75.8711 30.0257 73.4417C30.0257 67.5143 25.2408 62.6919 19.3593 62.6919C13.4779 62.6919 8.69292 67.5143 8.69292 73.4417C8.69292 77.4879 10.9478 80.9772 14.2352 82.8111C12.151 84.774 10.8262 87.5453 10.8262 90.6412V105.183L0.383794 126.229C0.0531352 126.896 0.0872676 127.687 0.477658 128.321C0.868048 128.953 1.55283 129.34 2.29308 129.34H10.8262C11.6347 129.34 12.3728 128.88 12.7355 128.151L18.9092 115.71L21.5438 127.657C21.7614 128.639 22.6254 129.34 23.6259 129.34H32.159C32.799 129.34 33.4027 129.052 33.808 128.553C34.2112 128.057 34.3755 127.401 34.2496 126.769L30.0257 105.478V92.7912H32.159C37.3578 92.7912 42.1321 90.05 44.8285 85.6749C46.2194 86.107 47.6957 86.3413 49.2252 86.3413H51.3585V98.9959L45.012 126.707C44.8669 127.345 45.0163 128.016 45.4216 128.53C45.8269 129.041 46.4413 129.34 47.092 129.34H57.7584C58.7375 129.34 59.5887 128.669 59.8276 127.713L64.1582 110.255L68.4888 127.713C68.7277 128.669 69.5789 129.34 70.558 129.34H81.2244C81.8751 129.34 82.4895 129.041 82.8927 128.53C83.298 128.018 83.4494 127.347 83.3023 126.707L76.9579 98.9959V86.3413H79.0912C80.6207 86.3413 82.0969 86.107 83.4878 85.6749C86.1843 90.05 90.9586 92.7912 96.1574 92.7912H98.2907V105.478L94.0668 126.769C93.9409 127.401 94.1052 128.057 94.5084 128.553C94.9137 129.052 95.5174 129.34 96.1574 129.34H104.691C105.691 129.34 106.555 128.639 106.775 127.657L109.409 115.71L115.583 128.151C115.944 128.88 116.682 129.34 117.49 129.34H126.023C126.764 129.34 127.448 128.953 127.839 128.321C128.229 127.687 128.263 126.896 127.933 126.229ZM108.957 66.9918C112.486 66.9918 115.357 69.8857 115.357 73.4417C115.357 76.9977 112.486 79.8915 108.957 79.8915C105.429 79.8915 102.557 76.9977 102.557 73.4417C102.557 69.8857 105.429 66.9918 108.957 66.9918ZM73.6726 56.2421H81.2244V71.2917C81.2244 72.4763 80.2687 73.4417 79.0912 73.4417H73.6726C75.7078 71.1563 76.9579 68.1485 76.9579 64.8419C76.9579 61.5353 75.7078 58.5275 73.6726 56.2421ZM90.8541 15.9091C90.9757 15.6619 91.0951 15.4146 91.2103 15.1631C91.4663 14.6105 91.7095 14.0559 91.9314 13.4861C91.9755 13.3743 92.0157 13.2606 92.056 13.1469C92.0762 13.0901 92.0963 13.0332 92.117 12.9766C92.3474 12.3553 92.5756 11.7339 92.7655 11.0932H98.0752C97.1515 15.6554 93.3543 19.177 88.6781 19.6414C88.6908 19.6222 88.7036 19.6008 88.7163 19.5795L88.7165 19.5791C88.9672 19.2147 89.1978 18.8363 89.4281 18.4585L89.5485 18.2612C89.5931 18.1883 89.6379 18.1157 89.6827 18.0432L89.6831 18.0426C89.814 17.8307 89.9446 17.6194 90.0669 17.4033C90.3442 16.9153 90.6023 16.4144 90.8541 15.9091ZM30.2412 11.0932H35.5509C35.7408 11.7339 35.969 12.3553 36.1994 12.9766C36.2201 13.0332 36.2402 13.0901 36.2604 13.147C36.3007 13.2606 36.3409 13.3743 36.385 13.4861C36.6069 14.0559 36.8501 14.6105 37.1061 15.1631C37.2213 15.4146 37.3407 15.6619 37.4623 15.9091C37.7141 16.4144 37.97 16.9131 38.2495 17.4033C38.3719 17.6195 38.5025 17.831 38.6335 18.0429L38.6336 18.0431L38.6342 18.044C38.6788 18.1163 38.7235 18.1886 38.7679 18.2612C38.8204 18.3464 38.8728 18.4318 38.9251 18.5172L38.9266 18.5196L38.9266 18.5197C39.1456 18.8772 39.3644 19.2344 39.5999 19.5791C39.6127 19.5984 39.6255 19.6199 39.6383 19.6414C34.96 19.177 31.1628 15.6554 30.2412 11.0932ZM45.588 20.2047C44.1032 18.6223 42.8275 16.8658 41.7886 14.9739L41.7496 14.9041L41.7496 14.9041C41.7137 14.8399 41.678 14.7764 41.6436 14.7116C40.6004 12.7573 39.8004 10.6697 39.2863 8.4961C38.9876 7.24053 38.7551 5.96131 38.6463 4.6434H89.6701C89.5613 5.96131 89.3288 7.24268 89.0301 8.4961C88.5139 10.6697 87.716 12.7573 86.6728 14.7116C86.6259 14.7997 86.5768 14.8879 86.5278 14.9739C85.4889 16.8637 84.2132 18.6223 82.7284 20.2047C78.0586 25.1732 71.4689 28.2928 64.1582 28.2928C56.8474 28.2928 50.2577 25.1732 45.588 20.2047ZM53.4918 47.6423H74.8246C77.6064 47.6423 79.9786 49.4397 80.8596 51.9422H47.4567C48.3378 49.4397 50.71 47.6423 53.4918 47.6423ZM72.6913 64.8419C72.6913 69.5847 68.8642 73.4417 64.1582 73.4417C59.4522 73.4417 55.6251 69.5847 55.6251 64.8419C55.6251 60.0991 59.4522 56.2421 64.1582 56.2421C68.8642 56.2421 72.6913 60.0991 72.6913 64.8419ZM47.092 56.2421H54.6438C52.6086 58.5275 51.3585 61.5353 51.3585 64.8419C51.3585 68.1485 52.6086 71.1563 54.6438 73.4417H49.2252C48.0477 73.4417 47.092 72.4763 47.092 71.2917V56.2421ZM12.9595 73.4417C12.9595 69.8857 15.8309 66.9918 19.3593 66.9918C22.8878 66.9918 25.7592 69.8857 25.7592 73.4417C25.7592 76.9977 22.8878 79.8915 19.3593 79.8915C15.8309 79.8915 12.9595 76.9977 12.9595 73.4417ZM9.50783 125.04H5.74473L14.0411 108.322L16.4197 109.122L17.2666 109.406L9.50783 125.04ZM32.159 88.4913H27.8924C26.7127 88.4913 25.7592 89.4545 25.7592 90.6412V105.691C25.7592 105.833 25.7741 105.972 25.8018 106.112L29.5564 125.04H25.3346L21.4414 107.376C21.2793 106.639 20.7438 106.041 20.0334 105.803L15.0928 104.141V90.6412C15.0928 87.0852 17.9642 84.1914 21.4926 84.1914H32.159C34.5525 84.1914 36.641 82.8606 37.7397 80.8955C38.1727 81.4201 38.6484 81.9039 39.1476 82.3639C39.2095 82.422 39.2692 82.4779 39.3332 82.5338C39.8473 82.9939 40.3828 83.426 40.9545 83.8109C38.9876 86.7047 35.7088 88.4913 32.159 88.4913ZM86.3635 79.1089C86.0648 79.3906 85.7449 79.6507 85.4163 79.898C85.3568 79.9425 85.2989 79.9892 85.2408 80.036L85.2407 80.036C85.1448 80.1133 85.0485 80.1908 84.9449 80.2591C83.2617 81.3814 81.2543 82.0415 79.0912 82.0415H74.8246C73.6449 82.0415 72.6913 83.0046 72.6913 84.1914V99.241C72.6913 99.4044 72.7105 99.5657 72.7446 99.7248L78.5429 125.04H72.2241L66.2275 100.869C65.9885 99.9118 65.1374 99.241 64.1582 99.241C63.179 99.241 62.3278 99.9118 62.0889 100.869L56.0923 125.04H49.7735L55.5717 99.7248C55.6059 99.5657 55.6251 99.4044 55.6251 99.241V84.1914C55.6251 83.0046 54.6715 82.0415 53.4918 82.0415H49.2252C47.0621 82.0415 45.0547 81.3814 43.3715 80.2613C43.2715 80.1954 43.1791 80.1209 43.0866 80.0463C43.0253 79.9968 42.9639 79.9473 42.9001 79.9001C42.5715 79.6529 42.2515 79.3949 41.9529 79.1111C41.7716 78.9391 41.5988 78.7606 41.4302 78.5779C41.1721 78.2962 40.931 77.9995 40.7028 77.6921C40.6586 77.6323 40.6131 77.5732 40.5676 77.514L40.5675 77.5138C40.4723 77.3901 40.3769 77.2661 40.2932 77.1353C39.986 76.6601 39.7172 76.1613 39.4868 75.6389C39.4319 75.5143 39.3867 75.3853 39.3415 75.2564C39.3165 75.1851 39.2915 75.1138 39.265 75.0434C39.1156 74.6413 38.9855 74.2307 38.8831 73.8072C38.834 73.6051 38.7871 73.4008 38.7487 73.1944C38.6399 72.5731 38.5588 71.9432 38.5588 71.2917V56.2421H42.8254V71.2917C42.8254 74.8477 45.6968 77.7416 49.2252 77.7416H79.0912C82.6196 77.7416 85.491 74.8477 85.491 71.2917V56.2421H89.7576V71.2917C89.7576 71.9432 89.6765 72.5731 89.5677 73.1923C89.5293 73.3987 89.4824 73.6008 89.4333 73.805C89.3309 74.2285 89.2008 74.6392 89.0514 75.0412C89.025 75.1113 89.0001 75.1822 88.9753 75.2531L88.9749 75.2542L88.9749 75.2542C88.9297 75.3831 88.8845 75.5122 88.8296 75.6368C88.5992 76.1592 88.3283 76.658 88.0232 77.1331C87.9379 77.2643 87.8427 77.3886 87.7478 77.5126C87.7026 77.5715 87.6576 77.6304 87.6136 77.69C87.3853 77.9974 87.1464 78.2962 86.8862 78.5757C86.7176 78.7585 86.5448 78.9391 86.3635 79.1089ZM108.283 105.803C108.033 105.886 107.816 106.028 107.617 106.192C107.253 106.493 106.98 106.899 106.873 107.376L102.98 125.04H98.76L102.517 106.112C102.542 105.972 102.557 105.833 102.557 105.691V90.6412C102.557 89.4545 101.604 88.4913 100.424 88.4913H96.1574C92.6076 88.4913 89.3288 86.7047 87.3619 83.8109C87.9336 83.426 88.4712 82.9917 88.9832 82.5338C89.045 82.4779 89.1069 82.422 89.1688 82.3639C89.6658 81.9039 90.1437 81.4201 90.5767 80.8955C91.6754 82.8606 93.7639 84.1914 96.1574 84.1914H106.824C110.352 84.1914 113.224 87.0852 113.224 90.6412V104.143L108.283 105.803ZM118.809 125.04L111.05 109.406L111.897 109.122L114.275 108.322L122.572 125.04H118.809ZM74.8694 15.8716C71.8465 18.3354 68.0429 19.692 64.1582 19.692V23.9919C69.0157 23.9919 73.7729 22.2956 77.5531 19.2147L74.8694 15.8716ZM76.8684 13.9538C77.8967 12.7992 78.7649 11.5136 79.4454 10.1333L83.2661 12.0489C82.4128 13.7775 81.3291 15.3856 80.0427 16.8261L76.8684 13.9538Z" fill="#D93C79"/>
</svg>
