<svg width="54" height="54" fill="none" xmlns="http://www.w3.org/2000/svg"><circle cx="26.77" cy="27.058" r="26.443" fill="#E6B1C3"/><path fill-rule="evenodd" clip-rule="evenodd" d="M13.962 13.956a.82.82 0 00-.82.82v.782h-2.988V40.16h33.232V15.558h-2.989v-.783a.82.82 0 00-.819-.819h-.611a.82.82 0 00-.82.82v.782h-6.084v-.783a.82.82 0 00-.82-.819h-.611a.82.82 0 00-.82.82v.782h-6.085v-.783a.82.82 0 00-.819-.819h-.611a.82.82 0 00-.82.82v.782h-6.084v-.783a.82.82 0 00-.82-.819h-.611zm-2.676 6.625v-3.89h1.857v.537c0 .452.366.82.819.82h.611a.82.82 0 00.82-.82v-.538h6.085v.538c0 .452.366.82.819.82h.611a.82.82 0 00.82-.82v-.538h6.084v.538c0 .452.367.82.82.82h.611a.82.82 0 00.82-.82v-.538h6.084v.538c0 .452.367.82.82.82h.611a.82.82 0 00.82-.82v-.538h1.856v3.891H11.286zm0 18.446V21.764h30.968v17.263H11.286zm2.075-15.617a.756.756 0 00-.756.756v1.575c0 .417.338.755.756.755h1.574a.756.756 0 00.756-.755v-1.575a.756.756 0 00-.756-.756h-1.574zm5.049 0a.756.756 0 00-.756.756v1.575c0 .417.338.755.756.755h1.574a.756.756 0 00.756-.755v-1.575a.756.756 0 00-.756-.756H18.41zm5.049 0a.756.756 0 00-.756.756v1.575c0 .417.338.755.756.755h1.574a.756.756 0 00.755-.755v-1.575a.756.756 0 00-.755-.756h-1.575zm5.048 0a.756.756 0 00-.756.756v1.575c0 .417.339.755.756.755h1.574a.756.756 0 00.756-.755v-1.575a.756.756 0 00-.756-.756h-1.574zm5.05 0a.756.756 0 00-.757.756v1.575c0 .417.339.755.756.755h1.574a.756.756 0 00.756-.755v-1.575a.756.756 0 00-.756-.756h-1.574zm5.048 0a.756.756 0 00-.756.756v1.575c0 .417.339.755.756.755h1.574a.756.756 0 00.756-.755v-1.575a.756.756 0 00-.756-.756h-1.574zm-24.868 1.954v-.821h.822v.821h-.822zm5.05 0v-.821h.82v.821h-.82zm5.048 0v-.821h.821v.821h-.821zm5.049 0v-.821h.821v.821h-.821zm5.049 0v-.821h.82v.821h-.82zm5.048 0v-.821h.822v.821h-.822zm-25.62 3.183a.756.756 0 00-.756.756v1.574c0 .418.338.756.756.756h1.574a.756.756 0 00.756-.756v-1.574a.756.756 0 00-.756-.756h-1.574zm5.049 0a.756.756 0 00-.756.756v1.574c0 .418.338.756.756.756h1.574a.756.756 0 00.756-.756v-1.574a.756.756 0 00-.756-.756H18.41zm5.049 0a.756.756 0 00-.756.756v1.574c0 .418.338.756.756.756h1.574a.756.756 0 00.755-.756v-1.574a.756.756 0 00-.755-.756h-1.575zm5.048 0a.756.756 0 00-.756.756v1.574c0 .418.339.756.756.756h1.574a.756.756 0 00.756-.756v-1.574a.756.756 0 00-.756-.756h-1.574zm5.05 0a.756.756 0 00-.757.756v1.574c0 .418.339.756.756.756h1.574a.756.756 0 00.756-.756v-1.574a.756.756 0 00-.756-.756h-1.574zm5.048 0a.756.756 0 00-.756.756v1.574c0 .418.339.756.756.756h1.574a.756.756 0 00.756-.756v-1.574a.756.756 0 00-.756-.756h-1.574zm-24.868 1.954v-.822h.822v.822h-.822zm5.05 0v-.822h.82v.822h-.82zm5.048 0v-.822h.821v.822h-.821zm5.049 0v-.822h.821v.822h-.821zm5.049 0v-.822h.82v.822h-.82zm5.048 0v-.822h.822v.822h-.822zm-25.62 3.183a.756.756 0 00-.756.756v1.574c0 .417.338.756.756.756h1.574a.756.756 0 00.756-.756V34.44a.756.756 0 00-.756-.756h-1.574zm5.049 0a.756.756 0 00-.756.756v1.574c0 .417.338.756.756.756h1.574a.756.756 0 00.756-.756V34.44a.756.756 0 00-.756-.756H18.41zm5.049 0a.756.756 0 00-.756.756v1.574c0 .417.338.756.756.756h1.574a.756.756 0 00.755-.756V34.44a.756.756 0 00-.755-.756h-1.575zm5.048 0a.756.756 0 00-.756.756v1.574c0 .417.339.756.756.756h1.574a.756.756 0 00.756-.756V34.44a.756.756 0 00-.756-.756h-1.574zm5.05 0a.756.756 0 00-.757.756v1.574c0 .417.339.756.756.756h1.574a.756.756 0 00.756-.756V34.44a.756.756 0 00-.756-.756h-1.574zm5.048 0a.756.756 0 00-.756.756v1.574c0 .417.339.756.756.756h1.574a.756.756 0 00.756-.756V34.44a.756.756 0 00-.756-.756h-1.574zm-24.868 1.953v-.82h.822v.82h-.822zm5.05 0v-.82h.82v.82h-.82zm5.048 0v-.82h.821v.82h-.821zm5.049 0v-.82h.821v.82h-.821zm5.049 0v-.82h.82v.82h-.82zm5.048 0v-.82h.822v.82h-.822z" fill="#D93C79"/></svg>