<svg width="15" height="12" viewBox="0 0 15 12" fill="none" xmlns="http://www.w3.org/2000/svg">
<path fill-rule="evenodd" clip-rule="evenodd" d="M7.2825 3.1126C6.5448 2.46333 6.54693 1.41308 7.28726 0.766807C8.02759 0.120535 9.22577 0.12297 9.96347 0.772245L13.9802 4.30754C14.221 4.45283 14.4219 4.6576 14.5625 4.9015C14.7289 5.15691 14.8117 5.44274 14.8108 5.72835C14.8117 6.01391 14.729 6.2997 14.5626 6.55509C14.422 6.79912 14.221 7.00399 13.9801 7.14932L9.96347 10.6845C9.22577 11.3338 8.02759 11.3362 7.28726 10.69C6.54693 10.0437 6.5448 8.99345 7.2825 8.34418L8.37039 7.38669H2.41121C1.49537 7.38669 0.75293 6.64425 0.75293 5.7284C0.75293 4.81256 1.49537 4.07012 2.41121 4.07012H8.37042L7.2825 3.1126Z" fill="#0FD43A"/>
</svg>
