<svg width="54" height="54" fill="none" xmlns="http://www.w3.org/2000/svg"><circle cx="26.823" cy="27.328" r="26.443" fill="#E6B1C3"/><path fill-rule="evenodd" clip-rule="evenodd" d="M30.873 31.216v-8.224h-.097a4.306 4.306 0 00-4.314-3.888 4.31 4.31 0 00-4.336 4.336v7.776c0 .621.5 1.121 1.121 1.121.622 0 1.122-.5 1.122-1.121V23.44c0-1.172.995-2.168 2.168-2.168s2.168.996 2.168 2.168v7.776c0 1.173-.995 2.168-2.168 2.168-.64 0-1.12-.185-1.552-.616a1.084 1.084 0 00-.766-.3c-.257 0-.55.084-.766.3-.215.215-.3.508-.3.766 0 .257.085.55.3.765.838.838 1.926 1.253 3.084 1.253a4.31 4.31 0 004.336-4.336zm-4.336 13.831c-9.77 0-17.72-7.948-17.72-17.719 0-9.77 7.95-17.719 17.72-17.719s17.719 7.949 17.719 17.72c0 9.77-7.949 17.718-17.72 17.718zm0-37.68c-11.014 0-19.962 8.947-19.962 19.961S15.523 47.29 26.537 47.29s19.962-8.948 19.962-19.962S37.55 7.366 26.537 7.366z" fill="#D93C79"/></svg>