<svg width="54" height="54" viewBox="0 0 54 54" fill="none" xmlns="http://www.w3.org/2000/svg">
<circle cx="26.8234" cy="26.759" r="26.4428" fill="#E6B1C3"/>
<path d="M24.0574 14.5662C22.9313 22.0694 15.7251 24.1796 14.824 30.0421C14.2612 37.78 20.0035 41.8834 26.8743 42.2346C33.4048 42.1176 39.4854 37.3099 38.8097 30.0421C38.1338 22.4213 29.4638 20.4281 26.9867 11.2834C26.6489 11.6352 26.1986 12.1041 25.8607 12.573C27.0992 18.2015 29.0135 20.4281 30.3649 21.8352C36.2201 27.8143 36.5575 39.0696 27.6621 39.6557C22.82 40.0073 18.0901 34.1442 19.2153 28.7525C20.5668 23.0078 24.621 23.1239 25.0705 14.5662H24.0574Z" fill="#D93C79"/>
</svg>
